<?xml version="1.0" encoding="utf-8"?>
<svg width="35px" height="44px" viewBox="0 0 35 44" version="1.1" xmlns:xlink="http://www.w3.org/1999/xlink" xmlns="http://www.w3.org/2000/svg">
  <desc>Created with Lunacy</desc>
  <path d="M28.5091 43.8455C32.0727 43.8455 35 41.3 35 38.1182L35 37.9909L32.4545 9.60909C32.3909 9.03636 31.9455 8.59091 31.3727 8.59091L26.0909 8.59091C26.0909 3.88182 22.2091 0 17.5 0C12.7909 0 8.90909 3.81818 8.90909 8.59091L3.62727 8.59091C3.05455 8.59091 2.60909 9.03636 2.54545 9.60909L0 37.9909L0 38.1182C0 41.3 2.92727 43.8455 6.49091 43.8455L28.5091 43.8455ZM23.864 8.5909C23.864 5.0909 21.0004 2.22726 17.5004 2.22726C14.0004 2.22726 11.1367 5.0909 11.1367 8.5909L23.864 8.5909ZM4.64588 10.8182L8.97315 10.8182L8.97315 14.6364C8.97315 15.2091 9.48224 15.7182 10.055 15.7182C10.6277 15.7182 11.1368 15.2091 11.1368 14.6364L11.1368 10.8182L23.9277 10.8182L23.9277 14.6364C23.9277 15.2091 24.4368 15.7182 25.0095 15.7182C25.5822 15.7182 26.0913 15.2091 26.0913 14.6364L26.0913 10.8182L30.4186 10.8182L32.8368 38.1818C32.8368 40.0909 30.8641 41.6818 28.5095 41.6818L6.49134 41.6818C4.13679 41.6818 2.2277 40.0909 2.16406 38.1818L4.64588 10.8182ZM10.1182 25.5182C10.8182 26.2182 11.8364 26.6 12.7909 26.6C13.7455 26.6 14.7 26.2182 15.4637 25.5182C16.9273 24.0546 16.9273 21.7 15.4637 20.2364C14 18.7727 11.6455 18.7727 10.1819 20.2364C8.65458 21.6364 8.65458 24.0546 10.1182 25.5182ZM23.1003 19.9182L10.4366 32.5818C9.99118 32.9637 9.99118 33.6637 10.4366 34.1091C10.6275 34.3 10.9457 34.4273 11.2003 34.4273C11.4548 34.4273 11.773 34.3 11.9639 34.1091L24.6275 21.4455C25.073 21.0637 25.073 20.3637 24.6275 19.9182C24.2457 19.4727 23.5457 19.4727 23.1003 19.9182ZM13.8725 21.7636C13.2362 21.1273 12.2816 21.1273 11.6452 21.7636C11.0089 22.3364 11.0089 23.3546 11.6452 23.9909C12.2816 24.6273 13.2362 24.6273 13.8725 23.9909C14.5089 23.3546 14.5089 22.4 13.8725 21.7636ZM22.2731 27.4273C21.2549 27.4273 20.3004 27.8091 19.6004 28.5091C18.9004 29.2091 18.5186 30.1636 18.5186 31.1818C18.5186 32.2 18.9004 33.1545 19.6004 33.8545C20.3004 34.5546 21.2549 34.9364 22.2731 34.9364C23.2913 34.9364 24.2458 34.5546 24.9458 33.8545C25.6458 33.1545 26.0276 32.2 26.0276 31.1818C26.0276 30.1636 25.6458 29.2091 24.9458 28.5091C24.1822 27.8091 23.2276 27.4273 22.2731 27.4273ZM22.2724 32.7727C22.6542 32.7727 23.036 32.6454 23.3542 32.3273C23.6724 32.0091 23.7997 31.6273 23.7997 31.2454C23.7997 30.8636 23.6724 30.4818 23.3542 30.1636C23.0997 29.9091 22.7178 29.7182 22.2724 29.7182C21.8906 29.7182 21.5088 29.8454 21.1906 30.1636C20.936 30.4182 20.7451 30.8 20.7451 31.2454C20.7451 31.6273 20.8724 32.0091 21.1906 32.3273C21.4451 32.5818 21.8269 32.7727 22.2724 32.7727Z" id="Shape" fill="#FF2D34" fill-rule="evenodd" stroke="none" />
</svg>