<svg width="54" height="54" viewBox="0 0 54 54" fill="none" xmlns="http://www.w3.org/2000/svg">
<circle cx="27" cy="27" r="27" fill="#FF2D34"/>
<path fill-rule="evenodd" clip-rule="evenodd" d="M37.8889 22.7778H33.2222V18.1111C33.2222 16.3951 31.8271 15 30.1111 15H16.1111C14.3951 15 13 16.3951 13 18.1111V25.8889C13 27.6049 14.3951 29 16.1111 29H17.6667V31.5278C17.6667 31.8729 17.9486 32.1111 18.25 32.1111C18.3667 32.1111 18.4882 32.0771 18.5951 31.9944L22.3333 29.8799V33.6667C22.3333 35.3826 23.7285 36.7778 25.4444 36.7778H30.1111L35.4049 39.7722C35.5118 39.85 35.6333 39.8889 35.75 39.8889C36.0514 39.8889 36.3333 39.6507 36.3333 39.3056V36.7778H37.8889C39.6049 36.7778 41 35.3826 41 33.6667V25.8889C41 24.1729 39.6049 22.7778 37.8889 22.7778ZM16.1111 27.4444C15.2556 27.4444 14.5556 26.7444 14.5556 25.8889V18.1111C14.5556 17.2556 15.2556 16.5556 16.1111 16.5556H30.1111C30.9667 16.5556 31.6667 17.2556 31.6667 18.1111V25.8889C31.6667 26.7444 30.9667 27.4444 30.1111 27.4444H23.4806L23.1257 27.6486L19.2222 29.8556V27.4444H16.1111ZM37.8889 35.2222C38.7444 35.2222 39.4444 34.5222 39.4444 33.6667V25.8889C39.4444 25.0333 38.7444 24.3333 37.8889 24.3333H33.2222V25.8889C33.2222 27.6049 31.8271 29 30.1111 29H23.8889V33.6667C23.8889 34.5222 24.5889 35.2222 25.4444 35.2222H30.5243L30.8792 35.4264L34.7778 37.6333V35.2222H37.8889Z" fill="white"/>
</svg>
