<svg xmlns="http://www.w3.org/2000/svg" width="391.075" height="384.785" viewBox="0 0 391.075 384.785">
  <g id="Group_4" data-name="Group 4" transform="translate(0.692 0.692)">
    <circle id="Oval" cx="0.779" cy="0.779" r="0.779" transform="translate(345.853 201.978)" fill="none" stroke="#000" stroke-miterlimit="10" stroke-width="1"/>
    <circle id="Oval-2" data-name="Oval" cx="0.779" cy="0.779" r="0.779" transform="translate(95.548 275.556)" fill="none" stroke="#000" stroke-miterlimit="10" stroke-width="1"/>
    <circle id="Oval-3" data-name="Oval" cx="0.779" cy="0.779" r="0.779" transform="translate(36.614 298.419)" fill="none" stroke="#000" stroke-miterlimit="10" stroke-width="1"/>
    <circle id="Oval-4" data-name="Oval" cx="0.779" cy="0.779" r="0.779" transform="translate(37.977 23.603)" fill="none" stroke="#000" stroke-miterlimit="10" stroke-width="1"/>
    <circle id="Oval-5" data-name="Oval" cx="0.779" cy="0.779" r="0.779" transform="translate(251.907 62.456)" fill="none" stroke="#000" stroke-miterlimit="10" stroke-width="1"/>
    <circle id="Oval-6" data-name="Oval" cx="0.779" cy="0.779" r="0.779" transform="translate(147.256 317.317)" fill="none" stroke="#000" stroke-miterlimit="10" stroke-width="1"/>
    <path id="Path" d="M0,0,4.29,3.12" transform="translate(340.979 86.852)" fill="none" stroke="#000" stroke-linecap="round" stroke-miterlimit="10" stroke-width="1"/>
    <path id="Shape" d="M48.436,76.624c-1.433,0-2.842-.064-4.188-.191l7.231.1C50.437,76.594,49.413,76.624,48.436,76.624ZM43.044,76.3c-1.1-.137-2.181-.317-3.205-.536l3.206.534Zm-4.51-.841C37.5,75.2,36.5,74.894,35.55,74.55l2.984.91Zm-4.283-1.414c-.529-.218-1.057-.454-1.57-.7l1.571.7Zm-3.83-1.927A29.268,29.268,0,0,1,17.746,55.306L30.422,72.119ZM17.742,55.3,3.761,36.757a12.906,12.906,0,0,0,4.487,2.31,20.643,20.643,0,0,0,6.015.92,19.6,19.6,0,0,0,2.5-.161c-.257,2.028-.434,4.035-.51,5.807a33.464,33.464,0,0,0,1.49,9.668Zm-.978-15.475h0a76.424,76.424,0,0,1,4.5-18.1c2.776-6.872,6.368-11.594,10.675-14.034A13.1,13.1,0,0,1,38,5.633a3.708,3.708,0,0,1,3.283,1.638c1.746,2.6.946,7.682-.535,11.3-3.215,7.158-11.885,19.689-23.986,21.252ZM2.978,36.038a9.751,9.751,0,0,1-1.843-2.645l1.845,2.643ZM.573,31.95a13.449,13.449,0,0,1-.534-2.771L.574,31.95ZM0,26.6H0c.212-4,1.593-8.755,4.1-14.123A79.823,79.823,0,0,1,11.451,0Z" transform="translate(44.848 284.897)" fill="none" stroke="#ff2d34" stroke-linecap="round" stroke-miterlimit="10" stroke-width="1"/>
    <path id="Path-2" data-name="Path" d="M0,34.562C12,16.057,36.175-15.073,36.934,8.448c.95,29.4-8.427,15.23-5.484,6.615C35.122,4.316,46.626-3.3,59.6,3.558" transform="translate(277.445 12.864)" fill="none" stroke="#000" stroke-linecap="round" stroke-miterlimit="10" stroke-width="1"/>
    <path id="Path-3" data-name="Path" d="M0,0,4.29,3.121" transform="translate(256.494 127.716)" fill="none" stroke="#000" stroke-linecap="round" stroke-miterlimit="10" stroke-width="1"/>
    <path id="Path-4" data-name="Path" d="M0,2.6,4.623,0" transform="translate(184.459 0.926)" fill="none" stroke="#000" stroke-linecap="round" stroke-miterlimit="10" stroke-width="1"/>
    <path id="Path-5" data-name="Path" d="M0,0,4.29,3.12" transform="translate(120.782 352.366)" fill="none" stroke="#000" stroke-linecap="round" stroke-miterlimit="10" stroke-width="1"/>
    <path id="Path-6" data-name="Path" d="M4.353,0,0,3.032" transform="translate(0.038 226.502)" fill="none" stroke="#000" stroke-linecap="round" stroke-miterlimit="10" stroke-width="1"/>
    <path id="Path-7" data-name="Path" d="M4.353,0,0,3.032" transform="translate(250.51 338.427)" fill="none" stroke="#000" stroke-linecap="round" stroke-miterlimit="10" stroke-width="1"/>
    <path id="Path-8" data-name="Path" d="M4.353,0,0,3.032" transform="translate(359.437 264.071)" fill="none" stroke="#000" stroke-linecap="round" stroke-miterlimit="10" stroke-width="1"/>
    <path id="Path-9" data-name="Path" d="M3.076,4.322,0,0" transform="translate(18.218 92.239)" fill="none" stroke="#000" stroke-linecap="round" stroke-miterlimit="10" stroke-width="1"/>
    <path id="Path-10" data-name="Path" d="M0,1.94,4.937,0" transform="translate(366.166 40.309)" fill="none" stroke="#000" stroke-linecap="round" stroke-miterlimit="10" stroke-width="1"/>
    <path id="Path-11" data-name="Path" d="M0,0,2.886,4.451" transform="translate(345.041 0)" fill="none" stroke="#000" stroke-linecap="round" stroke-miterlimit="10" stroke-width="1"/>
    <path id="Path-12" data-name="Path" d="M0,0,2.886,4.451" transform="translate(0 343.597)" fill="none" stroke="#000" stroke-linecap="round" stroke-miterlimit="10" stroke-width="1"/>
    <path id="Shape-2" data-name="Shape" d="M120.44,174.975h0L85.4,174.295,88.569,1.284l31.871.757V174.974Z" transform="translate(208.63 144.777)" fill="none" stroke="#ff2d34" stroke-miterlimit="10" stroke-width="1"/>
    <path id="Shape-3" data-name="Shape" transform="translate(243.374 165.695)" fill="none" stroke="#ff2d34" stroke-linecap="round" stroke-miterlimit="10" stroke-width="1"/>
    <path id="Shape-4" data-name="Shape" d="M97.326,256.247H3.442L0,37.859Zm85.081-28.517v0h0L36.92,0H182.408V227.727h0ZM36.92,44.43h0L0,37.859,36.92,0V44.429Z" transform="translate(60.747 40.576)" fill="none" stroke="#000" stroke-miterlimit="10" stroke-width="1"/>
    <path id="Shape-5" data-name="Shape" d="M9.382,111.824v0L3.55,96.1l12.425-8.876L9.383,111.821Zm0-45.136v0C6.617,60.212.417,45.67,0,44.628l15.975-3.3L9.383,66.685Zm0-46.91v0L0,5.578,15.975,0,9.383,19.776Z" transform="translate(80.416 94.56)" fill="none" stroke="#000" stroke-linecap="round" stroke-miterlimit="10" stroke-width="1"/>
    <path id="Path-13" style="fill:#000" data-name="Path" d="M19.542,77.836C3.029,66.753-.214,22.449.011,0,4.445,17.061,14.558,53.24,19.542,61.456S35.2,66.226,39.914,63.476l19.7-8.924c-.649,5.266-1.426,11.573-2.269,18.439C47.949,79.873,29.236,84.342,19.542,77.836Z" transform="translate(110.622 115.991)"/>
    <path id="Path-14" style="fill:#000" data-name="Path" d="M0,40.848l19.192,82.287L6.526,29.468l12.666,10v5.072c4.723,2.958,11.4,4.6,18.917,3.945,19.732-1.7,24.227-27.24,29.848-41L78.421,0H74.557L65.843,5.376,64.012,8.757c-4.759,8.512-16.6,26.846-25.9,32.091s-16.486-2.186-18.917-6.557L0,14.56Z" transform="translate(223.812 145.536)"/>
    <path id="Shape-6" data-name="Shape" d="M6.139,165.169h0c-2.493-16.006-6.957-51.3-6.008-70.3C1.06,76.28,6.242,30.32,9.29,5.718L43.544,63.664,40.988,97.576l18.325,62.486L6.139,165.169Zm129.78-31.542h0c-6.962-.416-27.475-4.53-55.275-17.124a61.937,61.937,0,0,1-17.568-11.9A64.263,64.263,0,0,1,51.792,89.921a68.64,68.64,0,0,1-6.132-14.6,53.953,53.953,0,0,1-2.117-11.656h0L67.75,0l17.1,80.753,61.886,16.824-10.814,36.049Z" transform="translate(157.681 187.509)" fill="none" stroke="#000" stroke-linecap="round" stroke-miterlimit="10" stroke-width="1"/>
    <path id="Path-15" style="fill:#000" data-name="Path" d="M64.915,34.875H77.376L71.086,0,48.407,2.5l2,6.33L0,34.875H58.218l5.58-7.626Z" transform="translate(135.657 348.312)"/>
    <path id="Path-16" style="fill:#000" data-name="Path" d="M38.491,16.6,42.272,4.72,6.808,0,0,22.5l9.277.016L18.8,78.45,36.46,22.975l-5.575-7.63Z" transform="translate(295.374 293.869)"/>
    <path id="Path-17" data-name="Path" d="M2.579,15.781,2.493,15.3,2.009,15.3c-.614-.006-1.36-.053-2.009-.1a9.542,9.542,0,0,0,2.808-4.943,15.381,15.381,0,0,1,.862-2.514,13.77,13.77,0,0,1,5.8-6.577A7.932,7.932,0,0,1,16.544.585,7.934,7.934,0,0,1,20.884,6.2a13.783,13.783,0,0,1-.948,8.72,13.774,13.774,0,0,1-5.8,6.577,7.931,7.931,0,0,1-7.071.576A8.139,8.139,0,0,1,2.579,15.781Z" transform="translate(179.852 109.168)" fill="none" stroke="#000" stroke-miterlimit="10" stroke-width="1"/>
    <path id="Path-18" style="fill:#000" data-name="Path" d="M4.065,14.82A12.348,12.348,0,0,1,.213,3.4C7.433-3.233,17.783.527,18.825,8.728c0,4.979.542,7.561,2.312,8.835,4.153,2.163,4.052,6.606,3.795,9.134l-14.538.865L9.448,20a4.8,4.8,0,0,1-2.886-1.943c1.445-.715,3.18-2.716,1.748-4.349S3.87,14.649,4.065,14.82Z" transform="translate(187.931 107.225)"/>
    <path id="Path-19" data-name="Path" d="M0,.955A3.261,3.261,0,0,1,4.53.892" transform="translate(184.638 117.494)" fill="none" stroke="#000" stroke-linecap="round" stroke-miterlimit="10" stroke-width="1"/>
    <path id="Path-20" data-name="Path" d="M0,1.384A2.788,2.788,0,0,0,2.537,0" transform="translate(185.283 126.005)" fill="none" stroke="#000" stroke-linecap="round" stroke-miterlimit="10" stroke-width="1"/>
    <path id="Path-21" data-name="Path" d="M0,1.222A2.514,2.514,0,0,1,4.147.993" transform="translate(184.858 119.747)" fill="none" stroke="#000" stroke-linecap="round" stroke-miterlimit="10" stroke-width="1"/>
    <circle id="Oval-7" data-name="Oval" cx="0.849" cy="0.849" r="0.849" transform="matrix(0.998, -0.055, 0.055, 0.998, 186.031, 119.95)"/>
    <path id="Path-22" data-name="Path" d="M0,1.391A2.789,2.789,0,0,1,2.535.006" transform="translate(192.661 122.108)" fill="none" stroke="#000" stroke-linecap="round" stroke-miterlimit="10" stroke-width="1"/>
    <path id="Path-23" data-name="Path" d="M0,0C.374.1.979.573.4,1.666" transform="translate(193.913 122.498)" fill="none" stroke="#000" stroke-linecap="round" stroke-miterlimit="10" stroke-width="1"/>
    <path id="Shape-7" data-name="Shape" transform="translate(188.661 128.365)" fill="none" stroke="#000" stroke-linecap="round" stroke-miterlimit="10" stroke-width="1"/>
    <path id="Path-24" data-name="Path" d="M1.026,5.249,0,1.8A14.362,14.362,0,0,0,7.818,0,15.076,15.076,0,0,1,1.026,5.249Z" transform="translate(188.451 129.784)"/>
    <path id="Path-25" data-name="Path" d="M0,.073H367.6" transform="translate(22.286 383.52)" fill="none" stroke="#000" stroke-linecap="round" stroke-miterlimit="10" stroke-width="1"/>
    <path id="Path-26" data-name="Path" d="M13.659,36.64l2.708-4.775L38.855,18.176c2.214-1.267,2.223-2.578.165-2.882,1.774-.422,3.46-3.438.158-4.781,1.41-.678,2.145-2.9-.083-3.875a2.971,2.971,0,0,0-1.615-.124c-.736.145-2.822.869-3.771,1.213l3.85-3.6c1.192-1.116.14-3.947-2.448-2.616L19.127,12.245l3.609-9.1c.552-1.8-1.317-4.878-4.09-1.9-1.4,1.3-11.415,14.5-16.25,20.935L0,28.649" transform="translate(273.016 119.149)" fill="none" stroke="#000" stroke-miterlimit="10" stroke-width="1"/>
    <path id="Shape-8" data-name="Shape" transform="translate(298.872 126.5)" fill="none" stroke="#000" stroke-linecap="round" stroke-miterlimit="10" stroke-width="1"/>
    <path id="Path-27" data-name="Path" d="M33.611,35.819C33.373,35.5,20.839,12.594,14.6,1.181,13.422-.975,10.619-.292,11.813,4.167s2.754,8.892,3.384,10.551C8.96,16.874-2.7,24.353.566,37.014c3.384,13.437,4.28-4.877,6.669-4.977,1.911-.08,9.024,10.717,12.343,16.124" transform="translate(96.327 73.565)" fill="none" stroke="#000" stroke-miterlimit="10" stroke-width="1"/>
    <path id="Path-28" style="fill:#000" data-name="Path" d="M13.542,5.318C10.5,5.065,8.5,1.739,7.878.107c.469-.226.336-.244-3.942,1.5S-.293,7.916.266,9.985L14.085,8.9Z" transform="translate(174.773 126.403)"/>
    <path id="Path-29" data-name="Path" d="M62.13,27.82l45.2-2.462c7.335.918,14.7,7.3,17.463,10.382l20.869,24.645L162.753,35.74l16.3,9.682c-4.042,8.566-14.51,27.206-24.049,33.249s-18.153-.133-21.267-3.976L114.258,53.627l2.186,28.621-60.42,3.577,2.385-21.863L38.537,74.7c-8.4,3.976-16.025,2.64-23.06-8.346C8.7,55.765,1.913,22.583,0,6.862L21.778,0l8.354,45.422c3.034-1.74,9.231-6.169,12.333-8.257C51.595,30.541,57.342,28.222,62.13,27.82Z" transform="translate(110.256 108.115)" fill="#ff2d34"/>
    <path id="Path-30" data-name="Path" d="M0,9.628.289,0" transform="translate(168.773 160.1)" fill="none" stroke="#000" stroke-linecap="round" stroke-miterlimit="10" stroke-width="1"/>
    <path id="Path-31" data-name="Path" d="M0,9.627.289,0" transform="translate(224.414 149.444)" fill="none" stroke="#000" stroke-linecap="round" stroke-miterlimit="10" stroke-width="1"/>
    <path id="Path-32" data-name="Path" d="M0,9.627.289,0" transform="translate(255.518 169.728)" fill="none" stroke="#000" stroke-linecap="round" stroke-miterlimit="10" stroke-width="1"/>
    <path id="Path-33" data-name="Path" d="M0,5.737,7.736,0" transform="translate(131.294 154.04)" fill="none" stroke="#000" stroke-linecap="round" stroke-miterlimit="10" stroke-width="1"/>
    <path id="Path-34" data-name="Path" d="M0,7.141.665.963,16.959,0V6.3Z" transform="translate(165.941 192.93)"/>
    <path id="Path-35" data-name="Path" d="M9.467,0l1.439,6.638L.571,7.151,0,.561Z" transform="translate(216.629 190.376)"/>
    <path id="Path-36" data-name="Path" d="M0,7.818V1.473L24.893,0V6.581Z" transform="translate(187.707 191.174)"/>
    <path id="Shape-9" data-name="Shape" d="M27.205,147.149,0,76.181,14.177,13.626l13.03,133.523ZM24.6,17.269a24.166,24.166,0,0,1-10.419-3.643L24.6,17.267ZM14.173,13.623a20.58,20.58,0,0,1-6.609-7A18.549,18.549,0,0,1,5.2,0l8.969,13.622Z" transform="translate(164.655 202.757)" fill="none" stroke="#000" stroke-linecap="round" stroke-miterlimit="10" stroke-width="1"/>
    <path id="Path-37" data-name="Path" d="M0,0,33.832,50.63l66.481-1.42" transform="translate(202.272 241.083)" fill="none" stroke="#000" stroke-miterlimit="10" stroke-width="1"/>
  </g>
</svg>
