<svg width="414" height="414" viewBox="0 0 414 414" fill="none" xmlns="http://www.w3.org/2000/svg">
    <ellipse cx="157.5" cy="211.5" rx="49.5" ry="41.5" fill="white"/>
    <ellipse cx="245.5" cy="211.5" rx="49.5" ry="41.5" fill="white"/>
    <path d="M306.838 264.256C304.728 254.549 282.499 240.242 282.265 240.125C275.584 236.227 268.669 235.252 261.988 234.278C257.183 233.576 252.69 232.952 248.198 231.315C245.385 230.301 243.002 229.093 240.97 227.767C244.33 228.196 248.315 228.547 252.456 228.547C259.566 228.547 266.95 227.494 271.599 223.908C291.524 208.704 292.383 203.52 290.898 200.713C289.453 197.906 284.765 195.645 261.442 202.974C244.056 208.432 237.728 201.142 229.68 191.941C227.804 189.797 225.471 187.012 223.322 184.907L223.585 185.626C222.257 182.001 220.928 178.336 220.499 175.568C220.342 174.243 220.069 172.099 220.108 171.475C220.147 169.877 219.874 166.485 219.756 164.965C219.6 163.055 219.483 161.028 219.366 159.039C219.053 154.4 218.78 149.995 218.35 146.877C218.311 146.331 217.959 145.395 217.92 145.395C217.686 144.849 217.295 144.382 216.826 144.031C216.24 143.602 215.381 143.173 213.857 143.056C211.826 142.939 210.185 142.939 207.489 143.719C203.622 144.849 200.652 147.033 199.715 149.138C198.113 151.866 197.84 156.35 197.527 160.989C197.254 165.082 196.98 169.331 195.808 171.514C194.519 173.931 192.683 175.841 190.729 177.868C188.971 179.701 187.174 181.572 185.611 183.911C185.064 184.73 184.596 185.548 184.127 186.367C179.282 188.16 175.493 191.357 171.821 194.475C169.203 196.697 166.742 198.803 164.007 200.362C158.616 203.403 148.224 207.145 141.973 205.937C132.441 204.104 130.526 198.179 127.831 189.992L127.635 189.408C126.112 184.73 124.002 178.297 119.9 179.311C119.158 179.506 118.572 180.013 118.142 180.831C115.798 185.392 116.579 206.56 118.181 210.654C124.393 226.247 138.887 229.755 151.857 229.989C145.841 232.211 139.434 233.81 133.339 235.291C129.432 236.266 125.721 237.162 122.205 238.215C117.282 239.696 109 242.893 109 248C109 251.352 112.36 253.964 119.275 256.069C138.066 261.761 160.296 259.734 178.696 250.612C187.487 246.245 194.831 241.567 200.105 234.901C211.435 251.664 229.133 252.99 246.244 254.276C256.011 255.017 266.091 255.757 274.92 259.383C275.779 259.734 277.615 260.786 279.764 261.995C288.203 266.79 296.173 271 301.329 271C303.322 271 304.924 270.376 305.939 268.895C306.682 267.998 307.307 266.478 306.838 264.256ZM262.535 206.443C285.624 199.192 287.578 202.35 287.617 202.389C287.617 202.428 289.101 205.859 269.333 220.945C262.926 225.818 247.539 225.291 235.819 223.264L236.36 223.869C230.227 217.242 228.781 208.042 226.984 196.697L226.906 196.191C226.789 195.411 226.593 194.553 226.359 193.696C226.554 193.891 226.71 194.125 226.906 194.319C235.071 203.753 242.845 212.642 262.535 206.443ZM160.798 226C146.382 226.975 128.338 226.013 121.658 209.328C120.212 205.742 119.978 188.043 121.15 183.404C122.283 184.885 123.65 189.057 124.119 190.577L124.314 191.162C127.166 199.816 129.628 207.301 141.27 209.562C148.849 211.004 160.335 206.677 165.804 203.598C168.891 201.882 171.586 199.543 174.204 197.321C176.665 195.216 179.048 193.189 181.666 191.63C180.533 194.553 179.712 197.438 178.931 200.284C177.993 203.598 177.017 207.067 175.571 210.42C172.407 217.788 166.82 222.738 160.139 226.364L160.798 226ZM177.056 247.337C159.475 256.069 138.262 258.019 120.369 252.561C114.704 250.846 112.711 249.052 112.711 248.039C112.711 246.791 115.524 244.101 123.299 241.801C126.737 240.788 130.409 239.891 134.277 238.917C151.623 234.628 171.274 229.794 178.97 211.862C180.533 208.276 181.509 204.689 182.486 201.259C183.971 195.957 185.416 190.928 188.698 185.938C190.065 183.872 191.745 182.118 193.386 180.402C195.417 178.297 197.527 176.114 199.051 173.268C200.613 170.345 200.926 165.706 201.238 161.222C201.395 158.728 201.59 155.687 202.098 153.426C203.543 153.933 205.497 154.05 207.606 153.738C207.841 158.026 208.114 164.341 207.88 166.29C207.802 167.109 207.372 171.397 207.294 171.982C206.044 179.116 206.083 186.406 206.122 193.462C206.2 202.038 206.239 210.926 203.895 219.347C199.91 233.537 190.3 240.788 177.056 247.337ZM303.009 266.79C302.462 267.569 300.079 267.686 295.079 265.698C290.586 263.905 285.429 260.942 281.678 258.798C279.256 257.434 277.498 256.42 276.404 255.952C267.028 252.093 256.636 251.352 246.596 250.573C229.211 249.286 212.763 248.078 202.489 231.666C204.598 228.391 206.278 224.688 207.45 220.36C209.951 211.433 209.911 202.272 209.833 193.423C209.794 186.523 209.716 179.35 210.927 172.567L210.966 172.411C210.966 172.411 211.435 167.577 211.552 166.719C211.826 164.224 211.474 156.7 211.279 152.841C212.724 152.334 214.014 151.672 215.107 150.97C215.303 153.504 215.498 156.389 215.693 159.234C215.811 161.261 215.967 163.289 216.084 165.277C216.162 166.563 216.436 169.955 216.397 171.397C216.397 172.489 216.748 175.412 216.826 176.036C217.334 179.311 218.819 183.365 220.264 187.302C221.593 190.889 222.843 194.28 223.233 196.775L223.312 197.282C225.929 213.733 228.195 227.962 246.908 234.784C251.753 236.539 256.675 237.24 261.442 237.942C268.083 238.917 274.334 239.813 280.389 243.322C284.648 245.778 301.72 258.369 303.205 265.036C303.439 266.049 303.205 266.517 303.009 266.79Z" fill="black"/>
    </svg>
