<svg id="Group_9" data-name="Group 9" xmlns="http://www.w3.org/2000/svg" width="54" height="54" viewBox="0 0 54 54">
  <rect id="Logo" width="54" height="54" rx="12" fill="#ff2d34"/>
  <g id="Group_6" data-name="Group 6" transform="translate(13.922 10.969)">
    <path id="Path" d="M3.868,22.545a13.207,13.207,0,0,1,0-18.677h0a13.207,13.207,0,0,1,18.677,0h0a13.207,13.207,0,0,1,0,18.677l-9.338,9.338Z" transform="translate(0 0)" fill="#fff"/>
    <path id="Path-2" data-name="Path" d="M1.984,11.562a6.773,6.773,0,0,1,0-9.578h0a6.773,6.773,0,0,1,9.578,0h0a6.773,6.773,0,0,1,0,9.578h0a6.773,6.773,0,0,1-9.578,0Z" transform="translate(6.195 6.554)" fill="#ff2d34"/>
  </g>
</svg>
