<svg width="67" height="64" viewBox="0 0 67 64" fill="none" xmlns="http://www.w3.org/2000/svg">
<rect width="66.3704" height="64" rx="15" fill="white"/>
<path fill-rule="evenodd" clip-rule="evenodd" d="M37.7223 34.4177H37.9167C38.3002 34.4177 38.546 34.6474 38.6539 35.1063C38.7295 35.4197 38.7674 36.4297 38.7674 38.1366C38.7674 39.8378 38.8565 40.6885 39.0348 40.6885C39.2183 40.6885 39.7125 40.297 40.5175 39.5138C41.3276 38.7252 41.9487 38.331 42.3808 38.331C42.8129 38.331 43.0289 38.4227 43.0289 38.6064C43.0289 38.655 42.7183 39.1303 42.0973 40.0324C41.476 40.9343 41.1655 41.5016 41.1655 41.7336C41.1655 41.9659 41.5571 42.6384 42.3403 43.7511C43.1234 44.8583 43.515 45.5011 43.515 45.6794C43.515 45.8522 43.3963 45.9387 43.1585 45.9387C42.7534 45.9387 42.4213 45.828 42.162 45.6063C41.9081 45.3795 41.4869 44.8151 40.8981 43.9132C40.3093 43.011 39.8746 42.5602 39.5937 42.5602C39.3128 42.5602 39.0969 42.8112 38.9457 43.3135C38.8916 43.4865 38.835 43.8347 38.7755 44.3588C38.7214 44.8772 38.6268 45.2581 38.492 45.5011C38.3623 45.7441 38.1326 45.8657 37.8031 45.8657C37.4737 45.8657 37.2767 45.7199 37.2117 45.4281C37.0984 44.9151 37.0418 44.1616 37.0418 43.1677V42.1631L37.0498 41.9119V41.1505L37.0579 40.6319L37.0821 39.6029L37.1146 37.3183C37.1146 35.7897 37.1309 34.966 37.1631 34.8472C37.2388 34.5609 37.4251 34.4177 37.7223 34.4177ZM22.7419 39.5787C22.3854 39.5787 22.2072 39.3841 22.2072 38.9954C22.2072 38.7252 22.3935 38.4983 22.7662 38.3149C23.3603 38.0176 23.995 37.8692 24.6701 37.8692H25.0591C25.5991 37.8692 26.1042 37.9664 26.574 38.1608C27.0495 38.3554 27.414 38.655 27.6679 39.0601C27.9919 39.5733 28.1538 40.7101 28.1538 42.4711C28.1538 43.4 28.1863 44.086 28.2513 44.5288C28.3214 44.9718 28.3565 45.2958 28.3565 45.5011C28.3565 45.9062 28.0972 46.1086 27.5788 46.1086C27.3465 46.1086 27.1303 46.0385 26.9305 45.8981C26.7307 45.7576 26.5714 45.6874 26.4526 45.6874C26.3336 45.6874 26.0177 45.7901 25.5047 45.9953C24.9915 46.2006 24.4757 46.3032 23.9571 46.3032C23.228 46.3032 22.6555 46.0735 22.2396 45.6146C21.8291 45.1555 21.6238 44.5909 21.6238 43.9213V43.7349C21.6238 42.9138 21.9803 42.2793 22.6933 41.8311C23.1578 41.5393 23.8734 41.3394 24.8403 41.2314C25.8124 41.1235 26.3256 41.037 26.3796 40.9723C26.4498 40.8912 26.4849 40.7535 26.4849 40.5589C26.4849 40.4996 26.4823 40.4375 26.4768 40.3726C26.4066 39.6058 25.8664 39.2194 24.8564 39.2142C24.4838 39.2142 24.0761 39.2763 23.6331 39.4005C23.1902 39.5192 22.8931 39.5787 22.7419 39.5787ZM12.9143 38.3229C12.5525 38.3229 12.1609 38.404 11.7396 38.5659L10.8322 38.9143L9.94098 38.7847C9.55748 38.7847 9.31982 39.0034 9.22802 39.441C9.07139 40.1972 8.99307 41.5231 8.99307 43.419V44.0346L8.98496 44.3344C8.98496 44.8421 9.03088 45.1932 9.12268 45.3876C9.21991 45.5822 9.37385 45.6794 9.5845 45.6794C9.88696 45.6794 10.0895 45.5037 10.1921 45.1527C10.2948 44.7962 10.3839 44.0699 10.4595 42.9733C10.5351 41.8716 10.6431 41.1477 10.7836 40.8021C10.9294 40.4562 11.1508 40.1808 11.4479 39.9755C11.7504 39.7705 12.0232 39.6679 12.2662 39.6679C12.7685 39.6679 13.1061 39.8542 13.2789 40.2268C13.4518 40.5942 13.5382 41.5447 13.5382 43.0786C13.5382 44.6072 13.5841 45.4686 13.6759 45.6632C13.7678 45.8522 14.0054 45.9467 14.3889 45.9467C14.7778 45.9467 15.0235 45.7711 15.1262 45.42C15.1424 45.366 15.2045 44.6613 15.3125 43.3054C15.4205 41.9444 15.5393 41.0695 15.669 40.6805C15.8688 40.1026 16.2334 39.8136 16.7627 39.8136C17.2974 39.8136 17.6971 40.081 17.9618 40.6158C18.0914 40.8858 18.2184 41.5879 18.3426 42.7221C18.4722 43.8565 18.6019 44.6532 18.7315 45.1121C18.8611 45.5658 19.088 45.7927 19.412 45.7927C19.7415 45.7927 19.9063 45.5281 19.9063 44.9988C19.9063 42.4331 19.755 40.7345 19.4525 39.9028C19.2851 39.4382 19.0204 39.0791 18.6586 38.8252C18.2967 38.5713 17.8862 38.4445 17.4271 38.4445C16.968 38.4445 16.49 38.5604 15.9931 38.7927C15.4961 39.025 15.2018 39.1412 15.11 39.1412C15.0181 39.1412 14.8426 39.0629 14.5833 38.9063C14.3295 38.7496 14.0783 38.6145 13.8299 38.5012C13.5868 38.3822 13.2816 38.3229 12.9143 38.3229ZM23.8194 44.8611C23.4846 44.6288 23.3171 44.3399 23.3171 43.9943C23.3171 43.9618 23.3117 43.9023 23.3009 43.816V43.5809C23.3009 43.1758 23.4387 42.8517 23.7141 42.6088C23.995 42.3656 24.33 42.2442 24.7187 42.2442C24.7889 42.2442 24.8808 42.2362 24.9941 42.2198L25.3345 42.1956H25.4398L25.4964 42.1876H25.61C25.9826 42.1876 26.2338 42.2253 26.3635 42.3009C26.4984 42.371 26.5659 42.5061 26.5659 42.706V43.1272L26.5417 43.5567L26.5254 43.6539C26.5254 43.9509 26.3796 44.2616 26.0881 44.5857C25.8017 44.9097 25.4777 45.0716 25.1157 45.0716C25.0076 45.0716 24.905 45.0799 24.8078 45.096H24.7592C24.3541 45.096 24.041 45.0178 23.8194 44.8611ZM30.7221 38.7685C30.6304 38.9468 30.5844 39.2222 30.5844 39.5949V39.8378L30.6169 40.5914L30.6494 41.6365V41.9119L30.6574 42.0496V42.317L30.6655 42.4547V44.0834C30.6655 45.0825 30.6683 45.5957 30.6735 45.6227C30.7439 45.9522 30.9409 46.1169 31.2649 46.1169H31.3866C31.754 46.1169 32.013 46.0034 32.1643 45.7765C32.321 45.5497 32.3994 45.196 32.3994 44.7153L32.4155 44.1967L32.448 43.2893C32.448 41.9605 32.6044 41.0666 32.9178 40.6075C33.134 40.2943 33.3796 40.0836 33.655 39.9755C33.9359 39.8677 34.2222 39.7975 34.5138 39.765C34.8056 39.7326 34.9973 39.692 35.0891 39.6434C35.3052 39.5301 35.4131 39.3519 35.4131 39.1087C35.4131 38.8603 35.3268 38.6685 35.154 38.5334C34.9864 38.3985 34.7786 38.331 34.5301 38.331H34.3033C33.8982 38.331 33.4336 38.5147 32.9097 38.8818C32.7692 38.979 32.6775 39.0276 32.6343 39.0276C32.5964 39.0276 32.4155 38.9385 32.0915 38.7605C31.7675 38.5822 31.4811 38.4931 31.2327 38.4931C30.9843 38.4931 30.8141 38.5848 30.7221 38.7685ZM49.8022 41.2233C49.5535 41.38 49.2565 41.4582 48.9109 41.4582C48.846 41.4582 48.7381 41.4691 48.5869 41.4907C48.4409 41.5122 48.3437 41.5258 48.2951 41.5312C48.2465 41.5367 48.2034 41.5421 48.1655 41.5473L47.8658 41.5717L47.8089 41.5798L47.3633 41.6123L47.3147 41.6203H47.0232L46.9421 41.6042C46.6882 41.6042 46.5614 41.5203 46.5614 41.353V41.2152C46.5614 40.6535 46.7667 40.1891 47.177 39.8217C47.593 39.4545 48.0467 39.2708 48.5383 39.2708H48.6355C49.0728 39.2708 49.4106 39.4057 49.6481 39.6759C49.8859 39.9405 50.0046 40.2673 50.0046 40.6563V40.7049C50.0046 40.964 49.9371 41.137 49.8022 41.2233ZM48.4814 46.3113H48.2951C47.7497 46.3058 47.2526 46.2061 46.8044 46.0114C45.9456 45.6334 45.3649 44.9853 45.0624 44.067C44.8951 43.5538 44.8114 43.0354 44.8114 42.5116V42.147C44.8168 41.6014 44.9221 41.0586 45.1273 40.5186C45.5486 39.4275 46.2426 38.7036 47.2095 38.3471C47.6632 38.1852 48.1278 38.1041 48.603 38.1041H48.7813C49.5483 38.1041 50.1855 38.3419 50.6932 38.8171C51.201 39.2869 51.4548 39.9298 51.4548 40.7454V40.9073C51.4548 41.4798 51.2711 41.8823 50.9039 42.1146C50.6231 42.2928 49.9776 42.4547 48.9676 42.6007C47.963 42.7465 47.3607 42.8517 47.1609 42.9167C46.8369 43.0193 46.6747 43.1677 46.6747 43.3623C46.6747 43.8537 46.9205 44.2642 47.4121 44.5937C47.6983 44.7826 48.1439 44.8772 48.7488 44.8772C48.9972 44.8772 49.3836 44.8045 49.9074 44.6584C50.4367 44.5072 50.7688 44.4316 50.9039 44.4316C51.2225 44.4316 51.382 44.5937 51.382 44.9178C51.382 45.2418 51.0713 45.5551 50.4503 45.8576C49.8344 46.1601 49.1783 46.3113 48.4814 46.3113ZM54.0717 42.5116C54.0717 43.8077 54.2609 44.7423 54.6389 45.3148C55.0225 45.8818 55.6274 46.1655 56.4537 46.1655C56.8211 46.1655 57.1072 46.098 57.3125 45.9629C57.5068 45.828 57.6043 45.6604 57.6043 45.4606C57.6043 45.2553 57.5448 45.1095 57.426 45.023C57.307 44.9313 57.1477 44.8583 56.9479 44.8045C56.7535 44.745 56.6428 44.7099 56.6158 44.699C56.3349 44.5909 56.1161 44.41 55.9595 44.1562C55.8028 43.8968 55.7246 43.4216 55.7246 42.7304C55.7246 41.2394 55.8514 40.2484 56.1052 39.757C56.2133 39.5463 56.5374 39.3571 57.0776 39.1898C57.4395 39.0765 57.6204 38.9089 57.6204 38.6875C57.6204 38.4606 57.399 38.2689 56.956 38.1122C56.5132 37.9555 56.2378 37.8071 56.1297 37.6666C56.0216 37.5208 55.9353 37.2157 55.8703 36.7511C55.8108 36.2865 55.7516 36.0004 55.6921 35.8923C55.5788 35.6709 55.3842 35.5602 55.1087 35.5602H54.9874C54.6415 35.5602 54.404 36.003 54.2744 36.8888C54.2149 37.3316 54.1582 37.5909 54.1042 37.6666C54.0501 37.7476 53.942 37.8367 53.7802 37.9339C53.618 38.0259 53.5154 38.088 53.4722 38.1202C53.267 38.2769 53.1643 38.4822 53.1643 38.7361C53.1643 38.9899 53.2589 39.1924 53.4478 39.3436C53.6424 39.4948 53.7721 39.6679 53.8368 39.8622C53.9935 40.332 54.0717 41.2152 54.0717 42.5116Z" fill="black"/>
<path fill-rule="evenodd" clip-rule="evenodd" d="M11.4977 32H8.31481V14.6736H11.4977V32ZM25.8958 25.6922C25.8958 26.618 25.7299 27.4823 25.398 28.2847C25.0664 29.0794 24.6149 29.7699 24.0441 30.3564C23.473 30.9352 22.8017 31.3943 22.0301 31.7338C21.2662 32.0656 20.4444 32.2316 19.5648 32.2316C18.6929 32.2316 17.8711 32.0656 17.0995 31.7338C16.3356 31.3943 15.6644 30.9352 15.0857 30.3564C14.5147 29.7699 14.0633 29.0794 13.7315 28.2847C13.3997 27.4823 13.2338 26.618 13.2338 25.6922C13.2338 24.7507 13.3997 23.8788 13.7315 23.0764C14.0633 22.2739 14.5147 21.5833 15.0857 21.0046C15.6644 20.4182 16.3356 19.9591 17.0995 19.6273C17.8711 19.2955 18.6929 19.1296 19.5648 19.1296C20.4444 19.1296 21.2662 19.2878 22.0301 19.6041C22.8017 19.9128 23.473 20.3565 24.0441 20.9352C24.6149 21.5062 25.0664 22.1967 25.398 23.0069C25.7299 23.8094 25.8958 24.7044 25.8958 25.6922ZM22.4583 24.3148C22.6281 24.7236 22.713 25.1828 22.713 25.6922C22.713 26.1937 22.6281 26.6527 22.4583 27.0694C22.2963 27.4861 22.0725 27.8409 21.787 28.1341C21.5015 28.4274 21.1659 28.6551 20.7801 28.817C20.402 28.9792 19.9969 29.0602 19.5648 29.0602C19.1327 29.0602 18.7238 28.9754 18.338 28.8054C17.9599 28.6281 17.6281 28.3889 17.3426 28.0879C17.0648 27.7871 16.8449 27.432 16.6829 27.0231C16.5208 26.6143 16.4398 26.1705 16.4398 25.6922C16.4398 25.1828 16.5208 24.7236 16.6829 24.3148C16.8449 23.898 17.0648 23.5432 17.3426 23.25C17.6281 22.949 17.9599 22.7214 18.338 22.5671C18.7238 22.4051 19.1327 22.324 19.5648 22.324C19.9969 22.324 20.402 22.4051 20.7801 22.5671C21.1659 22.7214 21.5015 22.949 21.787 23.25C22.0725 23.5432 22.2963 23.898 22.4583 24.3148ZM38.4768 22.0694L36.1621 24.3958C36.0462 24.0718 35.8881 23.7824 35.6876 23.5277C35.4868 23.2654 35.2593 23.0455 35.0047 22.868C34.7577 22.6906 34.4877 22.5555 34.1945 22.4629C33.9013 22.3703 33.6002 22.324 33.2916 22.324C32.8595 22.324 32.4506 22.4128 32.0647 22.5902C31.6866 22.7677 31.355 23.0185 31.0694 23.3426C30.7916 23.6589 30.5719 24.037 30.4097 24.4769C30.2476 24.9166 30.1668 25.4028 30.1668 25.9351C30.1668 26.3673 30.2476 26.7724 30.4097 27.1504C30.5719 27.5285 30.7916 27.8604 31.0694 28.1458C31.355 28.4314 31.6866 28.6551 32.0647 28.817C32.4506 28.9792 32.8595 29.0602 33.2916 29.0602C33.6002 29.0602 33.8975 29.0178 34.1829 28.933C34.4683 28.8479 34.7345 28.7284 34.9815 28.5741C35.236 28.4119 35.4598 28.219 35.6527 27.9952C35.8535 27.7639 36.0154 27.5093 36.1389 27.2315L38.4538 29.5578C38.1606 29.9745 37.8209 30.3488 37.4353 30.6806C37.0572 31.0122 36.6443 31.2938 36.1967 31.5254C35.757 31.757 35.2901 31.9305 34.7963 32.0462C34.3102 32.1697 33.8086 32.2316 33.2916 32.2316C32.4198 32.2316 31.598 32.0694 30.8264 31.7454C30.0625 31.4135 29.3912 30.9622 28.8126 30.3912C28.2415 29.8202 27.7902 29.1527 27.4584 28.3889C27.1265 27.625 26.9606 26.807 26.9606 25.9351C26.9606 24.986 27.1265 24.0988 27.4584 23.2731C27.7902 22.4475 28.2415 21.7299 28.8126 21.1204C29.3912 20.5031 30.0625 20.0169 30.8264 19.662C31.598 19.3071 32.4198 19.1296 33.2916 19.1296C33.8086 19.1296 34.314 19.1952 34.8079 19.3264C35.3095 19.4575 35.7841 19.6504 36.2316 19.9051C36.6867 20.152 37.1034 20.4568 37.4815 20.8194C37.8674 21.1821 38.199 21.5987 38.4768 22.0694ZM51.081 32H51.845V19.6273H51.081L49.8541 21.0972C49.5609 20.8194 49.2447 20.5609 48.905 20.3217C48.5734 20.0825 48.2223 19.8742 47.8519 19.6967C47.4814 19.5193 47.0995 19.3804 46.706 19.2801C46.3125 19.1798 45.915 19.1296 45.514 19.1296C44.6419 19.1296 43.8203 19.2916 43.0485 19.6157C42.2848 19.9321 41.6135 20.3796 41.0347 20.9583C40.4636 21.537 40.0123 22.2315 39.6805 23.0416C39.3489 23.844 39.1829 24.7277 39.1829 25.6922C39.1829 26.7261 39.3489 27.6482 39.6805 28.4584C40.0123 29.2686 40.4636 29.9553 41.0347 30.5185C41.6135 31.0741 42.2848 31.4984 43.0485 31.7916C43.8203 32.0848 44.6419 32.2316 45.514 32.2316C45.915 32.2316 46.3087 32.1813 46.6944 32.081C47.0879 31.9808 47.47 31.8457 47.8402 31.6759C48.2107 31.4984 48.5618 31.2938 48.8936 31.0625C49.2331 30.8233 49.5533 30.5687 49.8541 30.2985L51.081 32ZM48.662 25.6922C48.662 25.2601 48.5772 24.8433 48.4075 24.442C48.2453 24.0332 48.0216 23.6744 47.7362 23.3657C47.4506 23.0494 47.1149 22.7986 46.7292 22.6134C46.3512 22.4205 45.9461 22.324 45.514 22.324C45.0818 22.324 44.673 22.3973 44.2871 22.5439C43.909 22.6906 43.5771 22.9066 43.2917 23.1921C43.0139 23.4776 42.794 23.8326 42.6321 24.2569C42.4699 24.6736 42.3889 25.152 42.3889 25.6922C42.3889 26.2322 42.4699 26.7145 42.6321 27.1388C42.794 27.5555 43.0139 27.9066 43.2917 28.1922C43.5771 28.4776 43.909 28.6935 44.2871 28.8403C44.673 28.9868 45.0818 29.0602 45.514 29.0602C45.9461 29.0602 46.3512 28.9676 46.7292 28.7824C47.1149 28.5895 47.4506 28.3387 47.7362 28.0301C48.0216 27.7136 48.2453 27.355 48.4075 26.9537C48.5772 26.5448 48.662 26.1243 48.662 25.6922ZM54.2639 32H57.4469V14.6736H54.2639V32Z" fill="black"/>
<path d="M14.9333 30.2223C12.3805 27.6694 12.3805 23.5306 14.9333 20.9778C17.4861 18.425 21.625 18.425 24.1778 20.9778C26.7304 23.5306 26.7304 27.6694 24.1778 30.2223L19.5556 34.8445L14.9333 30.2223Z" fill="#FF2D34"/>
<path d="M17.0667 28.0297C15.7576 26.7206 15.7576 24.5981 17.0667 23.289C18.3758 21.9799 20.4983 21.9799 21.8075 23.289C23.1166 24.5981 23.1166 26.7206 21.8075 28.0297C20.4983 29.3389 18.3758 29.3389 17.0667 28.0297Z" fill="white"/>
</svg>
