<svg width="319" height="268" viewBox="0 0 319 268" fill="none" xmlns="http://www.w3.org/2000/svg">
    <rect x="34.6738" y="56.7363" width="51.0916" height="65.0256" rx="7" stroke="#DADADA" stroke-width="2"/>
    <rect x="174.015" y="45.1245" width="65.0256" height="78.9597" rx="7" stroke="#FF2D34" stroke-width="2"/>
    <path fill-rule="evenodd" clip-rule="evenodd" d="M129.5 142.773L139.708 132.565C140.461 131.812 141.682 131.812 142.435 132.565C143.188 133.318 143.188 134.539 142.435 135.292L132.227 145.5L142.435 155.708C143.188 156.461 143.188 157.682 142.435 158.435C141.682 159.188 140.461 159.188 139.708 158.435L129.5 148.227L119.292 158.435C118.539 159.188 117.318 159.188 116.565 158.435C115.812 157.682 115.812 156.461 116.565 155.708L126.773 145.5L116.565 135.292C115.812 134.539 115.812 133.318 116.565 132.565C117.318 131.812 118.539 131.812 119.292 132.565L129.5 142.773Z" fill="#FF2D34"/>
    <path fill-rule="evenodd" clip-rule="evenodd" d="M206.5 81.7726L216.708 71.5649C217.461 70.8117 218.682 70.8117 219.435 71.5649C220.188 72.318 220.188 73.5391 219.435 74.2923L209.227 84.5L219.435 94.7077C220.188 95.4609 220.188 96.682 219.435 97.4351C218.682 98.1883 217.461 98.1883 216.708 97.4351L206.5 87.2274L196.292 97.4351C195.539 98.1883 194.318 98.1883 193.565 97.4351C192.812 96.682 192.812 95.4609 193.565 94.7077L203.773 84.5L193.565 74.2923C192.812 73.5391 192.812 72.318 193.565 71.5649C194.318 70.8117 195.539 70.8117 196.292 71.5649L206.5 81.7726Z" fill="#FF2D34"/>
    <path fill-rule="evenodd" clip-rule="evenodd" d="M233.5 177.773L243.708 167.565C244.461 166.812 245.682 166.812 246.435 167.565C247.188 168.318 247.188 169.539 246.435 170.292L236.227 180.5L246.435 190.708C247.188 191.461 247.188 192.682 246.435 193.435C245.682 194.188 244.461 194.188 243.708 193.435L233.5 183.227L223.292 193.435C222.539 194.188 221.318 194.188 220.565 193.435C219.812 192.682 219.812 191.461 220.565 190.708L230.773 180.5L220.565 170.292C219.812 169.539 219.812 168.318 220.565 167.565C221.318 166.812 222.539 166.812 223.292 167.565L233.5 177.773Z" fill="#FF2D34"/>
    <path fill-rule="evenodd" clip-rule="evenodd" d="M42.5 150.773L52.7077 140.565C53.4609 139.812 54.682 139.812 55.4351 140.565C56.1883 141.318 56.1883 142.539 55.4351 143.292L45.2274 153.5L55.4351 163.708C56.1883 164.461 56.1883 165.682 55.4351 166.435C54.682 167.188 53.4609 167.188 52.7077 166.435L42.5 156.227L32.2923 166.435C31.5391 167.188 30.318 167.188 29.5649 166.435C28.8117 165.682 28.8117 164.461 29.5649 163.708L39.7726 153.5L29.5649 143.292C28.8117 142.539 28.8117 141.318 29.5649 140.565C30.318 139.812 31.5391 139.812 32.2923 140.565L42.5 150.773Z" fill="#FF2D34"/>
    <rect x="1" y="133.374" width="84.7656" height="40.641" rx="7" stroke="#FF2D34" stroke-width="2"/>
    <rect x="20.7402" y="1" width="65.0256" height="44.1245" rx="7" stroke="#DADADA" stroke-width="2"/>
    <rect x="250.652" y="79.9597" width="42.9634" height="44.1245" rx="7" stroke="#DADADA" stroke-width="2"/>
    <rect x="250.652" y="1" width="67.348" height="67.348" rx="7" stroke="#DADADA" stroke-width="2"/>
    <rect x="20.7402" y="185.626" width="65.0256" height="40.641" rx="7" stroke="#DADADA" stroke-width="2"/>
    <rect x="174" y="135.454" width="120" height="91" rx="7" stroke="#FF2D34" stroke-width="2"/>
    <rect x="97.377" y="25.3846" width="65.0256" height="241.524" rx="7" stroke="#FF2D34" stroke-width="2"/>
    </svg>
