<svg width="414" height="414" viewBox="0 0 414 414" fill="none" xmlns="http://www.w3.org/2000/svg">
    <path fill-rule="evenodd" clip-rule="evenodd" d="M47.6518 210.85C34.7827 223.738 34.7827 244.727 47.6518 257.616L70.9632 281.035L94.3482 257.616C107.217 244.727 107.217 223.738 94.3482 210.85C81.4791 197.962 60.5209 197.962 47.6518 210.85ZM56.8568 219.857C49.0477 227.666 49.0477 240.334 56.8568 248.143C64.666 255.952 77.334 255.952 85.1432 248.143C92.9523 240.334 92.9523 227.666 85.1432 219.857C77.334 212.048 64.666 212.048 56.8568 219.857Z" fill="#B3B3B3"/>
    <path fill-rule="evenodd" clip-rule="evenodd" d="M91.1184 80.585C84.2939 87.4197 84.2939 98.5504 91.1184 105.385L103.48 117.805L115.882 105.385C122.706 98.5504 122.706 87.4197 115.882 80.585C109.057 73.7503 97.9429 73.7503 91.1184 80.585ZM96.0748 85.0748C91.9751 89.1746 91.9751 95.8254 96.0748 99.9252C100.175 104.025 106.825 104.025 110.925 99.9252C115.025 95.8254 115.025 89.1746 110.925 85.0748C106.825 80.9751 100.175 80.9751 96.0748 85.0748Z" fill="#B3B3B3"/>
    <line x1="74.1" y1="293.3" x2="78.3" y2="298.9" stroke="black" stroke-width="3" stroke-linecap="round"/>
    <line x1="92.1196" y1="313.915" x2="102.915" y2="323.88" stroke="black" stroke-width="3" stroke-linecap="round"/>
    <line x1="119.047" y1="335.444" x2="131.795" y2="342.748" stroke="black" stroke-width="3" stroke-linecap="round"/>
    <line x1="150.887" y1="351.032" x2="164.872" y2="355.534" stroke="black" stroke-width="3" stroke-linecap="round"/>
    <line x1="185.255" y1="359.504" x2="199.877" y2="360.932" stroke="black" stroke-width="3" stroke-linecap="round"/>
    <line x1="221.36" y1="360.936" x2="235.984" y2="359.521" stroke="black" stroke-width="3" stroke-linecap="round"/>
    <line x1="258.02" y1="355.093" x2="272.124" y2="350.98" stroke="black" stroke-width="3" stroke-linecap="round"/>
    <line x1="292.653" y1="343.032" x2="305.736" y2="336.347" stroke="black" stroke-width="3" stroke-linecap="round"/>
    <line x1="324.426" y1="324.028" x2="330.916" y2="319.605" stroke="black" stroke-width="3" stroke-linecap="round"/>
    <line x1="106" y1="125.879" x2="109.879" y2="122" stroke="#020203" stroke-width="3" stroke-linecap="round"/>
    <line x1="281.121" y1="120.005" x2="284.991" y2="123.893" stroke="#020203" stroke-width="3" stroke-linecap="round"/>
    <line x1="121.331" y1="112.905" x2="129.905" y2="106.669" stroke="#020203" stroke-width="3" stroke-linecap="round"/>
    <line x1="142.046" y1="99.7761" x2="151.738" y2="95.4812" stroke="#020203" stroke-width="3" stroke-linecap="round"/>
    <line x1="166.169" y1="90.9534" x2="176.556" y2="88.8307" stroke="#020203" stroke-width="3" stroke-linecap="round"/>
    <line x1="190.459" y1="86.6525" x2="201.056" y2="86.3488" stroke="#020203" stroke-width="3" stroke-linecap="round"/>
    <line x1="215.73" y1="87.7724" x2="226.182" y2="89.5478" stroke="#020203" stroke-width="3" stroke-linecap="round"/>
    <line x1="239.955" y1="94.1774" x2="249.772" y2="98.1803" stroke="#020203" stroke-width="3" stroke-linecap="round"/>
    <line x1="261.779" y1="104.329" x2="270.515" y2="110.335" stroke="#020203" stroke-width="3" stroke-linecap="round"/>
    <path fill-rule="evenodd" clip-rule="evenodd" d="M68.7424 234L62.2348 240.507L64.3561 242.629L70.8638 236.121L77.3714 242.629L79.4928 240.507L72.9851 234L79.4923 227.492L77.371 225.371L70.8638 231.878L64.3565 225.371L62.2352 227.492L68.7424 234Z" fill="#B3B3B3"/>
    <path fill-rule="evenodd" clip-rule="evenodd" d="M101.175 92.8638L98.3149 95.7236L100.436 97.8449L103.296 94.9852L106.156 97.8449L108.277 95.7236L105.417 92.8638L108.277 90.0043L106.155 87.883L103.296 90.7425L100.436 87.883L98.315 90.0043L101.175 92.8638Z" fill="#B3B3B3"/>
    <path d="M137.75 198.453C135.017 200.889 136.723 205.412 140.384 205.437C145.02 205.469 149.551 205.5 150 205.5V272.5C150 274.157 151.343 275.5 153 275.5H188C189.657 275.5 191 274.157 191 272.5V255H222V272.5C222 274.157 223.343 275.5 225 275.5H260C261.657 275.5 263 274.157 263 272.5V205.5H273.5C277.15 205.453 278.795 200.91 276.022 198.537L209.512 141.612C209.256 141.394 208.877 141.067 208.474 140.717C207.341 139.735 205.658 139.735 204.525 140.717C204.122 141.067 203.743 141.394 203.488 141.612L180 162V154.5C180 153.672 179.328 153 178.5 153H162C160.343 153 159 154.343 159 156V179.5L137.75 198.453ZM162 157C162 156.448 162.448 156 163 156H176C176.552 156 177 156.448 177 157V164.5L162 177.5V157ZM205.849 143.565C206.223 143.241 206.779 143.239 207.155 143.561L273.945 200.74C274.65 201.344 274.223 202.5 273.294 202.5H186.988H182.523H140.676C139.751 202.5 139.322 201.352 140.02 200.745L205.849 143.565ZM182.511 205.5H186.977H260V271.5C260 272.052 259.552 272.5 259 272.5H226C225.448 272.5 225 272.052 225 271.5V252H187.965V271.5C187.965 272.052 187.517 272.5 186.965 272.5H154C153.448 272.5 153 272.052 153 271.5V205.5H182.511Z" fill="black"/>
    <path d="M137.75 198.453C135.017 200.889 136.723 205.412 140.384 205.437C145.02 205.469 149.551 205.5 150 205.5V272.5C150 274.157 151.343 275.5 153 275.5H188C189.657 275.5 191 274.157 191 272.5V255H222V272.5C222 274.157 223.343 275.5 225 275.5H260C261.657 275.5 263 274.157 263 272.5V205.5H273.5C277.15 205.453 278.795 200.91 276.022 198.537L209.512 141.612C209.256 141.394 208.877 141.067 208.474 140.717C207.341 139.735 205.658 139.735 204.525 140.717C204.122 141.067 203.743 141.394 203.488 141.612L180 162V154.5C180 153.672 179.328 153 178.5 153H162C160.343 153 159 154.343 159 156V179.5L137.75 198.453ZM162 157C162 156.448 162.448 156 163 156H176C176.552 156 177 156.448 177 157V164.5L162 177.5V157ZM205.849 143.565C206.223 143.241 206.779 143.239 207.155 143.561L273.945 200.74C274.65 201.344 274.223 202.5 273.294 202.5H186.988H182.523H140.676C139.751 202.5 139.322 201.352 140.02 200.745L205.849 143.565ZM182.511 205.5H186.977H260V271.5C260 272.052 259.552 272.5 259 272.5H226C225.448 272.5 225 272.052 225 271.5V252H187.965V271.5C187.965 272.052 187.517 272.5 186.965 272.5H154C153.448 272.5 153 272.052 153 271.5V205.5H182.511Z" stroke="#F4F4F4"/>
    <path fill-rule="evenodd" clip-rule="evenodd" d="M306.049 217.568C289.265 234.326 289.265 261.616 306.049 278.374L336.452 308.825L366.95 278.374C383.734 261.616 383.734 234.326 366.95 217.568C350.167 200.811 322.833 200.811 306.049 217.568ZM318.302 228.889C308.254 238.85 308.254 255.01 318.302 264.971C328.35 274.933 344.65 274.933 354.698 264.971C364.746 255.01 364.746 238.85 354.698 228.889C344.65 218.927 328.35 218.927 318.302 228.889Z" fill="#FF2D34"/>
    <path fill-rule="evenodd" clip-rule="evenodd" d="M268.978 58.6681C258.769 68.8922 258.769 85.5429 268.978 95.767L287.471 114.346L306.022 95.767C316.231 85.5429 316.231 68.8922 306.022 58.6681C295.813 48.444 279.187 48.444 268.978 58.6681ZM276.393 65.3845C270.26 71.5175 270.26 81.4665 276.393 87.5994C282.526 93.7323 292.474 93.7323 298.607 87.5994C304.74 81.4665 304.74 71.5175 298.607 65.3845C292.474 59.2516 282.526 59.2516 276.393 65.3845Z" fill="#B3B3B3"/>
    <path fill-rule="evenodd" clip-rule="evenodd" d="M285.073 77.0359L280.269 81.8395L282.391 83.9608L287.194 79.1572L291.998 83.9608L294.119 81.8395L289.316 77.0359L294.12 72.2319L291.998 70.1106L287.194 74.9145L282.39 70.1106L280.269 72.2319L285.073 77.0359Z" fill="#B3B3B3"/>
    </svg>
