<svg width="414" height="414" viewBox="0 0 414 414" fill="none" xmlns="http://www.w3.org/2000/svg">
    <path d="M319 126C318.318 125.034 317.682 124.861 316.5 124.861L145.5 125C144.196 125 143.32 125 142.729 125.412C142.019 125.906 141.978 127.1 142.652 127.643C143.095 128 143.757 128 145 128H317L278.701 222.293H150L119.5 126.5C119.114 125.075 116.5 115 107.175 108.873C100.429 104.837 92.2076 103.91 82.7423 106.306C80.7976 106.799 79.5001 107.5 80.5001 109.5C81.5001 110.5 83.0579 109.998 85.0001 109.5C94.7414 107.029 104.488 110.273 110 116C114.276 120.443 116.489 127.96 116.5 128C117.209 127.724 116.522 128.085 116.5 128L156.5 253.5C156.974 255.017 157.41 255.5 159 255.5L278.5 256C280.507 256 281.259 256.506 281.259 254.5C281.259 252.493 280.507 252.5 278.5 252.5H159.5L151 225.5H278.5C280.034 225.5 280.743 225.443 281.259 224L319.5 129C319.899 127.888 319.679 126.969 319 126Z" fill="black"/>
    <circle cx="170" cy="287" r="21.5" stroke="black" stroke-width="3" stroke-linecap="round" stroke-linejoin="round"/>
    <circle cx="273" cy="287" r="21.5" stroke="black" stroke-width="3" stroke-linecap="round" stroke-linejoin="round"/>
    </svg>
