<svg width="414" height="414" viewBox="0 0 414 414" fill="none" xmlns="http://www.w3.org/2000/svg">
    <g clip-path="url(#clip0)">
    <path d="M39.3181 184.014C44.865 143.55 64.8573 106.456 95.6074 79.5746C126.357 52.6935 165.791 37.8388 206.634 37.7504C247.477 37.662 286.974 52.3459 317.84 79.0937C348.706 105.841 368.859 142.848 374.581 183.289" stroke="black" stroke-width="3.5"/>
    <path d="M207 36V108" stroke="black" stroke-width="3.5"/>
    <path d="M207 129L207 156" stroke="black" stroke-width="3.5"/>
    <path d="M207 274L207 378" stroke="black" stroke-width="3.5"/>
    <path d="M326.711 86.3809L300.711 112.381" stroke="black" stroke-width="3.5"/>
    <path d="M175.711 237.381L134.711 278.381" stroke="black" stroke-width="3.5"/>
    <path d="M110.711 302.381L85.7109 327.381" stroke="black" stroke-width="3.5"/>
    <path d="M140 207H71" stroke="black" stroke-width="3.5"/>
    <path d="M376 207H255" stroke="black" stroke-width="3.5"/>
    <path d="M135.085 134.585L87.085 86.5848" stroke="black" stroke-width="3.5"/>
    <path d="M279.085 278.585L255.085 254.585" stroke="black" stroke-width="3.5"/>
    <path d="M309.085 308.585L303.085 302.585" stroke="black" stroke-width="3.5"/>
    <path d="M374.682 229.986C369.135 270.45 349.143 307.544 318.393 334.425C287.643 361.306 248.209 376.161 207.366 376.25C166.523 376.338 127.026 361.654 96.1599 334.906C65.2938 308.159 45.1411 271.152 39.4192 230.711" stroke="black" stroke-width="3.5"/>
    <path d="M112.552 111.592C121.78 102.457 132.284 94.7095 143.736 88.5907" stroke="black" stroke-width="3.5"/>
    <path d="M74.5165 228.707C71.6658 211.309 72.2698 193.52 76.2941 176.356C80.3183 159.191 87.684 142.988 97.9705 128.67" stroke="black" stroke-width="3.5"/>
    <path d="M124.001 312.519C115.246 305.632 107.382 297.683 100.59 288.853" stroke="black" stroke-width="3.5"/>
    <path d="M206.919 341.25C184.81 341.237 163.047 335.763 143.562 325.316" stroke="black" stroke-width="3.5"/>
    <path d="M252.893 80.8377C280.349 90.825 303.797 109.496 319.68 134.018C335.562 158.54 343.012 187.573 340.898 216.713C338.785 245.852 327.223 273.506 307.968 295.479C288.713 317.452 262.815 332.544 234.205 338.465" stroke="black" stroke-width="3.5"/>
    <path d="M199.269 106.532C224.297 104.607 249.143 112.092 268.942 127.523C288.742 142.954 302.068 165.219 306.313 189.96" stroke="black" stroke-width="3.5"/>
    <path d="M109.334 182.206C113.593 165.427 122.104 150.027 134.046 137.493C145.988 124.959 160.958 115.713 177.512 110.647" stroke="black" stroke-width="3.5"/>
    <path d="M165.6 298.867C150.836 292.213 137.892 282.099 127.867 269.381C117.841 256.663 111.029 241.716 108.006 225.806" stroke="black" stroke-width="3.5"/>
    <path d="M233.434 304.235C218.272 308.357 202.357 308.876 186.959 305.751" stroke="black" stroke-width="3.5"/>
    <path d="M287.306 267.864C279.685 277.92 270.242 286.455 259.47 293.025" stroke="black" stroke-width="3.5"/>
    <path d="M307.76 206.091C307.842 215.171 306.696 224.22 304.354 232.993" stroke="black" stroke-width="3.5"/>
    <path d="M265.217 175.735C272.004 188.372 274.494 202.873 272.312 217.05" stroke="black" stroke-width="3.5"/>
    <path d="M205.514 140.935C214.189 140.74 222.819 142.255 230.909 145.395C238.999 148.535 246.391 153.237 252.664 159.234" stroke="black" stroke-width="3.5"/>
    <path d="M160.054 160.493C166.922 153.56 175.241 148.235 184.411 144.899" stroke="black" stroke-width="3.5"/>
    <path d="M160.838 254.284C150.893 244.575 144.262 231.977 141.889 218.282C139.516 204.587 141.522 190.492 147.621 178.003" stroke="black" stroke-width="3.5"/>
    <path d="M263.963 240.496C255.395 255.066 241.569 265.799 225.33 270.488C209.091 275.176 191.672 273.464 176.657 265.702" stroke="black" stroke-width="3.5"/>
    <path d="M69.723 272.614C63.4257 266.308 63.4257 256.037 69.723 249.73C76.0203 243.423 86.2759 243.423 92.5733 249.73C98.8706 256.037 98.8706 266.308 92.5733 272.614L81.1301 284.074L69.723 272.614Z" fill="#979797"/>
    <path d="M73.9284 268.072C70.0239 264.167 70.0239 257.833 73.9284 253.928C77.833 250.024 84.167 250.024 88.0716 253.928C91.9761 257.833 91.9761 264.167 88.0716 268.072C84.167 271.976 77.833 271.976 73.9284 268.072Z" fill="#F4F4F4"/>
    <path d="M297.723 243.614C291.426 237.308 291.426 227.037 297.723 220.73C304.02 214.423 314.276 214.423 320.573 220.73C326.871 227.037 326.871 237.308 320.573 243.614L309.13 255.074L297.723 243.614Z" fill="#979797"/>
    <path d="M301.928 239.072C298.024 235.167 298.024 228.833 301.928 224.928C305.833 221.024 312.167 221.024 316.072 224.928C319.976 228.833 319.976 235.167 316.072 239.072C312.167 242.976 305.833 242.976 301.928 239.072Z" fill="#F4F4F4"/>
    </g>
    <path fill-rule="evenodd" clip-rule="evenodd" d="M187.095 183.231C176.102 194.207 176.102 212.081 187.095 223.056L207.007 243L226.982 223.056C237.975 212.081 237.975 194.207 226.982 183.231C215.99 172.256 198.088 172.256 187.095 183.231ZM195.12 190.645C188.539 197.169 188.539 207.753 195.12 214.278C201.701 220.802 212.377 220.802 218.958 214.278C225.539 207.753 225.539 197.169 218.958 190.645C212.377 184.121 201.701 184.121 195.12 190.645Z" fill="#FF2D34"/>
    <defs>
    <clipPath id="clip0">
    <rect width="348.33" height="351.38" fill="white" transform="translate(33 31)"/>
    </clipPath>
    </defs>
    </svg>
