<svg width="414" height="414" viewBox="0 0 414 414" fill="none" xmlns="http://www.w3.org/2000/svg">
    <path d="M51.4773 42.5005C51.2014 42.5131 50.988 42.7468 51.0005 43.0227C51.0131 43.2986 51.2468 43.512 51.5227 43.4995L51.4773 42.5005ZM214 46.9999L214.182 46.5341L214 46.9999ZM296 38.5L295.964 38.0013L296 38.5ZM254.5 50L254.554 50.4971L254.5 50ZM296.036 38.9987C312.556 37.7931 324.397 39.4962 337.32 44.4667L337.68 43.5333C324.603 38.5038 312.612 36.7863 295.964 38.0013L296.036 38.9987ZM337.32 44.4667C350.361 49.4822 357.923 51.5 372.5 51.5L372.5 50.5C358.077 50.5 350.639 48.5178 337.68 43.5333L337.32 44.4667ZM213.818 47.4657C228.73 53.2851 238.767 52.203 254.554 50.4971L254.446 49.5029C238.667 51.208 228.847 52.2573 214.182 46.5341L213.818 47.4657ZM254.554 50.4971C262.889 49.5964 269.182 46.997 275.416 44.4983C281.653 41.9988 287.837 39.5971 296.036 38.9987L295.964 38.0013C287.596 38.612 281.288 41.0679 275.044 43.5701C268.799 46.073 262.626 48.619 254.446 49.5029L254.554 50.4971ZM131.137 48.4808C141.771 45.4427 153.091 38.5 172.5 38.5L172.5 37.5C152.909 37.5 141.229 44.5573 130.863 47.5192L131.137 48.4808ZM172.5 38.5C182.249 38.5 187.448 38.7512 192.762 39.987C198.092 41.2266 203.548 43.4578 213.818 47.4657L214.182 46.5341C203.952 42.5421 198.408 40.2734 192.988 39.013C187.552 37.7488 182.251 37.5 172.5 37.5L172.5 38.5ZM51.5227 43.4995C62.4712 43.0018 67.9095 44.1216 72.5938 45.6625C77.2928 47.2082 81.3691 49.2356 89.4228 50.494L89.5772 49.506C81.6309 48.2644 77.7072 46.2918 72.9062 44.7125C68.0905 43.1284 62.5288 41.9982 51.4773 42.5005L51.5227 43.4995ZM89.4228 50.494C105.495 53.0052 120.568 51.5006 131.137 48.4808L130.863 47.5192C120.432 50.4994 105.505 51.9948 89.5772 49.506L89.4228 50.494Z" fill="#B3B3B3"/>
    <path d="M372.499 50.9773C372.487 50.7014 372.253 50.488 371.977 50.5005C371.701 50.5131 371.488 50.7468 371.501 51.0227L372.499 50.9773ZM367.525 216L367.991 216.182L367.525 216ZM376.025 298L376.523 297.964L376.025 298ZM364.525 256.5L364.028 256.554L364.525 256.5ZM375.526 298.036C376.732 314.556 375.028 326.397 370.058 339.32L370.991 339.68C376.021 326.603 377.738 314.612 376.523 297.964L375.526 298.036ZM370.058 339.32C367.565 345.801 365.793 350.09 364.653 354.564C363.508 359.055 363 363.725 363 371L364 371C364 363.775 364.504 359.195 365.622 354.811C366.744 350.41 368.484 346.199 370.991 339.68L370.058 339.32ZM367.059 215.818C361.24 230.73 362.322 240.767 364.028 256.554L365.022 256.446C363.317 240.667 362.267 230.847 367.991 216.182L367.059 215.818ZM364.028 256.554C364.928 264.889 367.528 271.182 370.026 277.416C372.526 283.653 374.928 289.837 375.526 298.036L376.523 297.964C375.913 289.596 373.457 283.288 370.955 277.044C368.452 270.799 365.906 264.626 365.022 256.446L364.028 256.554ZM366.044 133.137C369.082 143.771 376.025 155.091 376.025 174.5L377.025 174.5C377.025 154.909 369.967 143.229 367.005 132.863L366.044 133.137ZM376.025 174.5C376.025 184.249 375.773 189.448 374.538 194.762C373.298 200.092 371.067 205.548 367.059 215.818L367.991 216.182C371.983 205.952 374.251 200.408 375.512 194.988C376.776 189.552 377.025 184.251 377.025 174.5L376.025 174.5ZM371.501 51.0227C371.999 61.9805 371.127 68.0575 369.827 73.3814C368.529 78.6963 366.76 83.3988 365.506 91.4228L366.494 91.5772C367.74 83.6012 369.471 79.0537 370.798 73.6186C372.123 68.1925 373.001 62.0195 372.499 50.9773L371.501 51.0227ZM365.506 91.4228C363.001 107.455 363.015 122.538 366.044 133.137L367.005 132.863C364.034 122.462 363.999 107.545 366.494 91.5772L365.506 91.4228Z" fill="#B3B3B3"/>
    <path d="M43.9773 78.0005C43.7014 78.0131 43.488 78.2468 43.5005 78.5227C43.5131 78.7986 43.7468 79.012 44.0227 78.9995L43.9773 78.0005ZM212.5 86.9998L212.682 86.534L212.5 86.9998ZM296 78.4998L295.964 78.0011L296 78.4998ZM254 90.4998L254.054 90.9969L254 90.4998ZM296.036 78.9984C312.556 77.7928 324.397 79.496 337.32 84.4664L337.68 83.5331C324.603 78.5036 312.612 76.7861 295.964 78.0011L296.036 78.9984ZM337.32 84.4664C343.797 86.9572 347.335 88.4726 351.114 89.5433C354.908 90.6184 358.944 91.2467 366.45 91.9973L366.55 91.0022C359.056 90.2528 355.092 89.6311 351.386 88.5812C347.665 87.5269 344.203 86.0423 337.68 83.5331L337.32 84.4664ZM212.318 87.4655C227.223 93.2821 238.251 92.7045 254.054 90.9969L253.946 90.0027C238.183 91.7061 227.355 92.26 212.682 86.534L212.318 87.4655ZM254.054 90.9969C262.392 90.0958 268.813 87.3692 275.171 84.7461C281.534 82.1211 287.84 79.5966 296.036 78.9984L295.964 78.0011C287.593 78.612 281.156 81.1952 274.79 83.8217C268.419 86.4502 262.123 89.1191 253.946 90.0027L254.054 90.9969ZM131.137 88.4805C141.771 85.4424 153.091 78.4997 172.5 78.4997L172.5 77.4997C152.909 77.4997 141.229 84.557 130.863 87.519L131.137 88.4805ZM172.5 78.4997C182.251 78.4997 187.07 78.7514 192.004 79.9848C196.963 81.2246 202.037 83.4534 212.318 87.4655L212.682 86.534C202.463 82.5462 197.287 80.2749 192.246 79.0147C187.18 77.7482 182.249 77.4997 172.5 77.4997L172.5 78.4997ZM44.0227 78.9995C54.9391 78.5033 62.3698 80.4855 69.0086 83.0293C75.6282 85.5657 81.5944 88.7272 89.3899 90.4875L89.6101 89.512C81.9056 87.7723 76.1218 84.6839 69.3664 82.0955C62.6302 79.5144 55.0609 77.4967 43.9773 78.0005L44.0227 78.9995ZM89.3899 90.4875C105.002 94.0128 120.594 91.493 131.137 88.4805L130.863 87.519C120.406 90.5065 104.998 92.9866 89.6101 89.512L89.3899 90.4875Z" fill="#B3B3B3"/>
    <path d="M336.499 43.4773C336.487 43.2014 336.253 42.988 335.977 43.0005C335.701 43.0131 335.488 43.2468 335.501 43.5227L336.499 43.4773ZM327.525 214.5L327.99 214.682L327.525 214.5ZM336.025 298L336.523 297.964L336.025 298ZM324.025 256L323.528 256.054L324.025 256ZM335.526 298.036C336.732 314.556 335.028 326.397 330.058 339.32L330.991 339.68C336.021 326.603 337.738 314.612 336.523 297.964L335.526 298.036ZM330.058 339.32C327.571 345.787 326.42 348.336 325.655 351.117C324.888 353.909 324.502 356.953 323.504 364.434L324.496 364.566C325.498 357.047 325.875 354.091 326.619 351.383C327.367 348.664 328.478 346.213 330.991 339.68L330.058 339.32ZM327.059 214.318C321.242 229.223 321.82 240.251 323.528 256.054L324.522 255.946C322.818 240.183 322.264 229.355 327.99 214.682L327.059 214.318ZM323.528 256.054C324.429 264.392 327.155 270.813 329.778 277.171C332.403 283.534 334.928 289.84 335.526 298.036L336.523 297.964C335.912 289.593 333.329 283.156 330.703 276.79C328.074 270.419 325.405 264.123 324.522 255.946L323.528 256.054ZM326.044 133.137C329.082 143.771 336.025 155.091 336.025 174.5L337.025 174.5C337.025 154.909 329.967 143.229 327.005 132.863L326.044 133.137ZM336.025 174.5C336.025 184.251 335.773 189.07 334.54 194.004C333.3 198.963 331.071 204.037 327.059 214.318L327.99 214.682C331.978 204.463 334.249 199.287 335.51 194.246C336.776 189.18 337.025 184.249 337.025 174.5L336.025 174.5ZM335.501 43.5227C335.997 54.4415 334.02 62.5012 331.478 69.7725C328.945 77.017 325.795 83.6057 324.037 91.3899L325.012 91.6101C326.755 83.8943 329.842 77.483 332.422 70.1025C334.993 62.7488 337.003 54.5585 336.499 43.4773L335.501 43.5227ZM324.037 91.3899C320.512 107.002 323.031 122.594 326.044 133.137L327.005 132.863C324.018 122.406 321.538 106.998 325.012 91.6101L324.037 91.3899Z" fill="#B3B3B3"/>
    <path d="M38.4773 118.501C38.2014 118.513 37.988 118.747 38.0005 119.023C38.0131 119.299 38.2468 119.512 38.5227 119.499L38.4773 118.501ZM214 128.5L214.191 128.038L214 128.5ZM296.5 119.5L296.464 119.001L296.5 119.5ZM250.5 132L250.554 132.497L250.5 132ZM296.536 119.999C313.067 118.792 323.905 119.999 336.82 124.967L337.18 124.033C324.095 119.001 313.102 117.787 296.464 119.001L296.536 119.999ZM336.82 124.967C340.061 126.213 342.583 127.303 344.789 128.241C346.991 129.178 348.885 129.968 350.846 130.601C354.788 131.872 358.97 132.5 366.5 132.5L366.5 131.5C359.03 131.5 354.962 130.877 351.154 129.649C349.24 129.032 347.384 128.259 345.18 127.321C342.979 126.384 340.439 125.287 337.18 124.033L336.82 124.967ZM213.809 128.962C223.266 132.875 234.718 134.208 250.554 132.497L250.446 131.503C234.715 133.203 223.444 131.867 214.191 128.038L213.809 128.962ZM250.554 132.497C258.885 131.597 266.303 128.749 273.655 126.002C281.025 123.25 288.334 120.597 296.536 119.999L296.464 119.001C288.099 119.612 280.665 122.317 273.306 125.066C265.929 127.821 258.63 130.618 250.446 131.503L250.554 132.497ZM131.137 129.981C133.788 129.223 136.497 128.183 139.355 127.059C142.219 125.932 145.237 124.719 148.536 123.598C155.124 121.361 162.819 119.5 172.5 119.5L172.5 118.5C162.681 118.5 154.876 120.389 148.214 122.651C144.888 123.781 141.844 125.005 138.989 126.128C136.128 127.254 133.462 128.276 130.863 129.019L131.137 129.981ZM172.5 119.5C182.218 119.5 188.923 120.372 194.997 121.983C201.082 123.598 206.546 125.956 213.809 128.962L214.191 128.038C206.954 125.043 201.418 122.652 195.253 121.017C189.077 119.378 182.282 118.5 172.5 118.5L172.5 119.5ZM38.5227 119.499C49.4353 119.003 57.9933 121.233 65.8385 123.911C73.662 126.58 80.8654 129.735 88.9228 130.994L89.0772 130.006C81.1346 128.765 74.088 125.669 66.1615 122.964C58.2567 120.267 49.5647 117.997 38.4773 118.501L38.5227 119.499ZM88.9228 130.994C104.969 133.501 120.546 133.007 131.137 129.981L130.863 129.019C120.454 131.993 105.031 132.499 89.0772 130.006L88.9228 130.994Z" fill="#B3B3B3"/>
    <path d="M296.024 38.4773C296.012 38.2014 295.778 37.988 295.502 38.0005C295.226 38.0131 295.013 38.2468 295.025 38.5227L296.024 38.4773ZM286.025 216L286.487 216.191L286.025 216ZM295.025 298.5L295.523 298.464L295.025 298.5ZM282.525 252.5L282.028 252.554L282.525 252.5ZM294.526 298.536C295.732 315.067 294.525 325.905 289.558 338.82L290.491 339.18C295.524 326.095 296.738 315.102 295.523 298.464L294.526 298.536ZM289.558 338.82C287.073 345.283 285.67 348.336 284.78 351.619C283.884 354.924 283.501 358.471 283.001 365.967L283.999 366.033C284.499 358.529 284.879 355.076 285.745 351.881C286.617 348.664 287.977 345.717 290.491 339.18L289.558 338.82ZM285.563 215.809C281.65 225.266 280.316 236.718 282.028 252.554L283.022 252.446C281.322 236.715 282.658 225.444 286.487 216.191L285.563 215.809ZM282.028 252.554C282.928 260.885 285.776 268.303 288.522 275.655C291.275 283.025 293.927 290.334 294.526 298.536L295.523 298.464C294.913 290.099 292.208 282.665 289.459 275.306C286.704 267.929 283.906 260.63 283.022 252.446L282.028 252.554ZM284.544 133.137C285.301 135.788 286.341 138.497 287.466 141.355C288.592 144.219 289.806 147.237 290.926 150.536C293.164 157.124 295.025 164.819 295.025 174.5L296.025 174.5C296.025 164.681 294.136 156.876 291.873 150.214C290.743 146.888 289.519 143.844 288.396 140.989C287.271 138.128 286.248 135.462 285.505 132.863L284.544 133.137ZM295.025 174.5C295.025 184.218 294.153 190.923 292.541 196.997C290.927 203.082 288.568 208.546 285.563 215.809L286.487 216.191C289.481 208.954 291.872 203.418 293.508 197.253C295.147 191.077 296.025 184.282 296.025 174.5L295.025 174.5ZM295.025 38.5227C295.521 49.4375 293.29 58.4975 290.611 66.8472C287.94 75.1713 284.789 82.8715 283.531 90.9228L284.519 91.0772C285.761 83.1285 288.859 75.5787 291.563 67.1528C294.259 58.7525 296.528 49.5625 296.024 38.4773L295.025 38.5227ZM283.531 90.9228C281.024 106.969 281.518 122.546 284.544 133.137L285.505 132.863C282.532 122.454 282.026 107.031 284.519 91.0772L283.531 90.9228Z" fill="#B3B3B3"/>
    <path d="M50.5227 159.501C50.2468 159.488 50.0131 159.701 50.0005 159.977C49.988 160.253 50.2014 160.487 50.4773 160.5L50.5227 159.501ZM213.5 169L213.682 168.534L213.5 169ZM295.5 160.5L295.464 160.001L295.5 160.5ZM254 172L254.054 172.497L254 172ZM295.536 160.999C312.1 159.79 323.426 160.007 336.32 164.967L336.68 164.033C323.574 158.993 312.069 158.79 295.464 160.001L295.536 160.999ZM336.32 164.967C349.349 169.978 361.914 173.5 376.5 173.5L376.5 172.5C362.086 172.5 349.651 169.022 336.68 164.033L336.32 164.967ZM213.318 169.466C228.23 175.285 238.267 174.203 254.054 172.497L253.946 171.503C238.167 173.208 228.347 174.257 213.682 168.534L213.318 169.466ZM254.054 172.497C262.389 171.596 268.682 168.997 274.916 166.498C281.153 163.999 287.337 161.597 295.536 160.999L295.464 160.001C287.096 160.612 280.788 163.068 274.544 165.57C268.299 168.073 262.126 170.619 253.946 171.503L254.054 172.497ZM130.637 170.481C141.271 167.443 152.591 160.5 172 160.5L172 159.5C152.409 159.5 140.729 166.557 130.363 169.519L130.637 170.481ZM172 160.5C181.749 160.5 186.948 160.751 192.262 161.987C197.592 163.227 203.048 165.458 213.318 169.466L213.682 168.534C203.452 164.542 197.908 162.273 192.488 161.013C187.052 159.749 181.751 159.5 172 159.5L172 160.5ZM50.4773 160.5C61.4092 160.996 66.97 162.98 71.8504 165.265C76.7549 167.562 81.0743 170.224 89.3962 171.989L89.6038 171.011C81.4257 169.276 77.2451 166.688 72.2746 164.36C67.28 162.021 61.5908 160.004 50.5227 159.501L50.4773 160.5ZM89.3962 171.989C105.994 175.51 120.079 173.497 130.637 170.481L130.363 169.519C119.921 172.503 106.006 174.49 89.6038 171.011L89.3962 171.989Z" fill="#B3B3B3"/>
    <path d="M255.024 50.0227C255.037 49.7468 254.823 49.5131 254.547 49.5005C254.272 49.488 254.038 49.7014 254.025 49.9773L255.024 50.0227ZM245.525 215.5L245.991 215.682L245.525 215.5ZM254.025 297.5L254.523 297.464L254.025 297.5ZM242.525 256L242.028 256.054L242.525 256ZM253.526 297.536C254.735 314.1 254.518 325.426 249.558 338.32L250.491 338.68C255.532 325.574 255.735 314.069 254.523 297.464L253.526 297.536ZM249.558 338.32C244.547 351.349 241.5 361.914 241.5 376.5L242.5 376.5C242.5 362.086 245.503 351.651 250.491 338.68L249.558 338.32ZM245.059 215.318C239.24 230.23 240.322 240.267 242.028 256.054L243.022 255.946C241.317 240.167 240.267 230.347 245.991 215.682L245.059 215.318ZM242.028 256.054C242.928 264.389 245.528 270.682 248.026 276.916C250.526 283.153 252.928 289.337 253.526 297.536L254.523 297.464C253.913 289.096 251.457 282.788 248.955 276.544C246.452 270.299 243.906 264.126 243.022 255.946L242.028 256.054ZM244.044 132.637C247.082 143.271 254.025 154.591 254.025 174L255.025 174C255.025 154.409 247.967 142.729 245.006 132.363L244.044 132.637ZM254.025 174C254.025 183.749 253.774 188.948 252.538 194.262C251.298 199.592 249.067 205.048 245.059 215.318L245.991 215.682C249.983 205.452 252.251 199.908 253.512 194.488C254.776 189.052 255.025 183.751 255.025 174L254.025 174ZM254.025 49.9773C253.528 60.9122 251.543 67.1051 249.251 72.6206C246.953 78.1466 244.298 83.0869 242.536 91.3962L243.514 91.6038C245.251 83.4131 247.846 78.6034 250.174 73.0044C252.506 67.3949 254.521 61.0878 255.024 50.0227L254.025 49.9773ZM242.536 91.3962C239.015 107.994 241.027 122.079 244.044 132.637L245.006 132.363C242.022 121.921 240.035 108.006 243.514 91.6038L242.536 91.3962Z" fill="#B3B3B3"/>
    <path d="M48.0114 200C47.7353 199.994 47.5064 200.213 47.5001 200.489C47.4939 200.765 47.7126 200.994 47.9886 201L48.0114 200ZM213 209.5L213.158 209.026L213 209.5ZM295.5 201L295.464 200.501L295.5 201ZM254 212.5L254.054 212.997L254 212.5ZM295.536 201.499C312.07 200.292 323.908 201.5 336.82 206.467L337.18 205.533C324.092 200.5 312.098 199.287 295.464 200.501L295.536 201.499ZM336.82 206.467C343.29 208.955 347.585 210.848 352.052 212.106C356.545 213.372 361.217 214 368.5 214L368.5 213C361.283 213 356.705 212.378 352.323 211.144C347.915 209.902 343.71 208.045 337.18 205.533L336.82 206.467ZM212.842 209.974C227.941 215.007 238.24 214.706 254.054 212.997L253.946 212.003C238.193 213.705 228.059 213.993 213.158 209.026L212.842 209.974ZM254.054 212.997C262.389 212.096 268.682 209.497 274.916 206.998C281.153 204.499 287.337 202.097 295.536 201.499L295.464 200.501C287.096 201.112 280.788 203.568 274.544 206.07C268.299 208.573 262.126 211.119 253.946 212.003L254.054 212.997ZM130.637 210.981C141.271 207.943 152.591 201 172 201L172 200C152.409 200 140.729 207.057 130.363 210.019L130.637 210.981ZM172 201C181.733 201 186.714 201.51 191.856 202.874C197.042 204.25 202.356 206.479 212.842 209.974L213.158 209.026C202.767 205.562 197.331 203.292 192.112 201.907C186.848 200.511 181.767 200 172 200L172 201ZM47.9886 201C58.9189 201.248 65.2314 203.232 70.7412 205.585C76.2531 207.938 81.0808 210.724 88.8899 212.488L89.1101 211.512C81.4192 209.776 76.7469 207.062 71.1338 204.665C65.5186 202.268 59.0811 200.252 48.0114 200L47.9886 201ZM88.8899 212.488C104.492 216.011 120.08 213.997 130.637 210.981L130.363 210.019C119.92 213.003 104.508 214.989 89.1101 211.512L88.8899 212.488Z" fill="#B3B3B3"/>
    <path d="M214.525 47.0114C214.531 46.7353 214.312 46.5064 214.036 46.5001C213.76 46.4939 213.531 46.7126 213.525 46.9886L214.525 47.0114ZM205.025 215L205.499 215.158L205.025 215ZM213.525 297.5L214.023 297.464L213.525 297.5ZM202.025 256L201.528 256.054L202.025 256ZM213.026 297.536C214.233 314.07 213.024 325.908 208.058 338.82L208.991 339.18C214.025 326.092 215.237 314.098 214.023 297.464L213.026 297.536ZM208.058 338.82C205.57 345.289 204.045 348.71 203.031 352.366C202.01 356.043 201.501 359.961 201.001 367.467L201.999 367.533C202.499 360.039 203.002 356.207 203.994 352.634C204.992 349.04 206.479 345.711 208.991 339.18L208.058 338.82ZM204.55 214.842C199.517 229.941 199.819 240.24 201.528 256.054L202.522 255.946C200.819 240.193 200.532 230.059 205.499 215.158L204.55 214.842ZM201.528 256.054C202.428 264.389 205.028 270.682 207.526 276.916C210.026 283.153 212.428 289.337 213.026 297.536L214.023 297.464C213.413 289.096 210.957 282.788 208.455 276.544C205.952 270.299 203.406 264.126 202.522 255.946L201.528 256.054ZM203.544 132.637C206.582 143.271 213.525 154.591 213.525 174L214.525 174C214.525 154.409 207.467 142.729 204.505 132.363L203.544 132.637ZM213.525 174C213.525 183.733 213.015 188.714 211.651 193.856C210.275 199.042 208.046 204.356 204.55 214.842L205.499 215.158C208.963 204.767 211.233 199.331 212.617 194.112C214.014 188.848 214.525 183.767 214.525 174L213.525 174ZM213.525 46.9886C213.276 57.9223 211.291 64.9913 208.932 71.2614C206.576 77.5222 203.797 83.0952 202.037 90.8899L203.012 91.1101C204.752 83.4048 207.473 77.9778 209.868 71.6136C212.259 65.2587 214.273 58.0777 214.525 47.0114L213.525 46.9886ZM202.037 90.8899C198.514 106.492 200.528 122.08 203.544 132.637L204.505 132.363C201.522 121.92 199.536 106.508 203.012 91.1101L202.037 90.8899Z" fill="#B3B3B3"/>
    <path d="M37.9773 240.501C37.7014 240.513 37.488 240.747 37.5005 241.023C37.5131 241.299 37.7468 241.512 38.0227 241.5L37.9773 240.501ZM214 250.5L213.809 250.962L214 250.5ZM295.5 241.5L295.464 241.001L295.5 241.5ZM252.5 253.5L252.554 253.997L252.5 253.5ZM295.536 241.999C312.068 240.792 323.407 242 336.32 246.967L336.68 246.033C323.593 241 312.1 239.787 295.464 241.001L295.536 241.999ZM336.32 246.967C342.771 249.448 346.21 251.097 349.787 252.227C353.405 253.369 357.2 253.998 364.466 254.499L364.534 253.501C357.3 253.002 353.595 252.381 350.088 251.273C346.54 250.153 343.229 248.553 336.68 246.033L336.32 246.967ZM213.809 250.962C222.923 254.733 236.738 255.706 252.554 253.997L252.446 253.003C236.695 254.705 223.077 253.715 214.191 250.038L213.809 250.962ZM252.554 253.997C260.889 253.096 267.558 250.372 274.165 247.749C280.78 245.123 287.337 242.597 295.536 241.999L295.464 241.001C287.096 241.612 280.411 244.194 273.796 246.82C267.173 249.448 260.626 252.119 252.446 253.003L252.554 253.997ZM131.137 251.981C133.79 251.223 136.467 250.183 139.279 249.058C142.097 247.931 145.053 246.718 148.289 245.598C154.751 243.361 162.319 241.5 172 241.5L172 240.5C162.181 240.5 154.499 242.389 147.961 244.653C144.697 245.782 141.715 247.007 138.908 248.13C136.095 249.255 133.46 250.277 130.863 251.019L131.137 251.981ZM172 241.5C181.718 241.5 188.549 242.372 194.749 243.984C200.959 245.599 206.549 247.958 213.809 250.962L214.191 250.038C206.951 247.042 201.291 244.652 195.001 243.016C188.701 241.378 181.782 240.5 172 240.5L172 241.5ZM38.0227 241.5C48.9347 241.004 58.243 243.358 66.845 246.163C75.4189 248.959 83.3699 252.236 91.4228 253.494L91.5772 252.506C83.6301 251.264 75.8311 248.041 67.155 245.212C58.507 242.392 49.0653 239.997 37.9773 240.501L38.0227 241.5ZM91.4228 253.494C107.485 256.004 120.559 255.003 131.137 251.981L130.863 251.019C120.441 253.997 107.515 254.996 91.5772 252.506L91.4228 253.494Z" fill="#B3B3B3"/>
    <path d="M174.024 37.9773C174.012 37.7014 173.778 37.488 173.502 37.5005C173.226 37.5131 173.013 37.7468 173.025 38.0227L174.024 37.9773ZM164.025 216L163.563 215.809L164.025 216ZM173.025 297.5L173.523 297.464L173.025 297.5ZM161.025 254.5L160.528 254.554L161.025 254.5ZM172.526 297.536C173.732 314.068 172.525 325.407 167.558 338.32L168.491 338.68C173.524 325.593 174.737 314.1 173.523 297.464L172.526 297.536ZM167.558 338.32C165.046 344.851 163.408 351.127 162.398 355.833C161.893 358.186 161.545 360.148 161.322 361.555C161.211 362.258 161.131 362.824 161.079 363.23C161.03 363.618 161 363.898 161 364L162 364C162 364.006 162 363.997 162.003 363.96C162.006 363.927 162.01 363.883 162.016 363.826C162.028 363.712 162.046 363.556 162.071 363.358C162.122 362.962 162.2 362.406 162.31 361.711C162.53 360.321 162.875 358.377 163.376 356.042C164.379 351.373 166.003 345.149 168.491 338.68L167.558 338.32ZM163.563 215.809C159.791 224.923 158.819 238.738 160.528 254.554L161.522 254.446C159.82 238.695 160.81 225.077 164.487 216.191L163.563 215.809ZM160.528 254.554C161.428 262.889 164.153 269.558 166.776 276.165C169.402 282.78 171.928 289.337 172.526 297.536L173.523 297.464C172.913 289.096 170.331 282.411 167.705 275.796C165.076 269.173 162.406 262.626 161.522 254.446L160.528 254.554ZM162.544 133.137C163.302 135.79 164.342 138.467 165.467 141.279C166.594 144.097 167.807 147.053 168.927 150.289C171.164 156.751 173.025 164.319 173.025 174L174.025 174C174.025 164.181 172.135 156.499 169.872 149.961C168.742 146.697 167.518 143.715 166.395 140.908C165.27 138.095 164.248 135.46 163.505 132.863L162.544 133.137ZM173.025 174C173.025 183.718 172.153 190.549 170.541 196.749C168.926 202.959 166.567 208.549 163.563 215.809L164.487 216.191C167.483 208.951 169.873 203.291 171.509 197.001C173.147 190.701 174.025 183.782 174.025 174L173.025 174ZM173.025 38.0227C173.521 48.937 171.166 58.747 168.359 67.8527C165.562 76.9276 162.288 85.3754 161.031 93.4228L162.019 93.5772C163.261 85.6246 166.487 77.3224 169.315 68.1473C172.133 59.003 174.528 49.063 174.024 37.9773L173.025 38.0227ZM161.031 93.4228C158.521 109.485 159.521 122.559 162.544 133.137L163.505 132.863C160.528 122.441 159.528 109.515 162.019 93.5772L161.031 93.4228Z" fill="#B3B3B3"/>
    <path d="M47.5 281.5C47.2239 281.5 47 281.724 47 282C47 282.276 47.2239 282.5 47.5 282.5V281.5ZM212.5 290.5L212.328 290.97L212.5 290.5ZM295.5 282.5L295.464 282.001L295.5 282.5ZM254 294L254.054 294.497L254 294ZM295.536 282.999C312.097 281.79 322.424 282.007 335.32 286.967L335.68 286.033C322.576 280.994 312.072 280.789 295.464 282.001L295.536 282.999ZM335.32 286.967C348.352 291.979 361.416 295.5 376 295.5L376 294.5C361.584 294.5 348.648 291.021 335.68 286.033L335.32 286.967ZM212.328 290.97C227.14 296.389 238.239 296.206 254.054 294.497L253.946 293.503C238.195 295.205 227.274 295.373 212.672 290.03L212.328 290.97ZM254.054 294.497C262.389 293.596 268.682 290.997 274.916 288.498C281.153 285.999 287.337 283.597 295.536 282.999L295.464 282.001C287.096 282.612 280.788 285.068 274.544 287.57C268.299 290.073 262.126 292.619 253.946 293.503L254.054 294.497ZM130.637 292.481C141.271 289.443 152.591 282.5 172 282.5L172 281.5C152.409 281.5 140.729 288.557 130.363 291.519L130.637 292.481ZM172 282.5C181.749 282.5 186.698 282.751 191.762 283.925C196.848 285.103 202.051 287.21 212.328 290.97L212.672 290.03C202.449 286.29 197.152 284.147 191.988 282.95C186.802 281.749 181.751 281.5 172 281.5L172 282.5ZM47.5 282.5C58.173 282.5 64.6078 284.482 70.4334 286.899C76.2631 289.318 81.5863 292.226 89.8962 293.989L90.1038 293.011C81.9137 291.274 76.7369 288.432 70.8166 285.976C64.8922 283.518 58.327 281.5 47.5 281.5V282.5ZM89.8962 293.989C106.495 297.51 120.08 295.497 130.637 292.481L130.363 291.519C119.92 294.503 106.505 296.49 90.1038 293.011L89.8962 293.989Z" fill="#B3B3B3"/>
    <path d="M133.025 48C133.025 47.7239 132.801 47.5 132.525 47.5C132.249 47.5 132.025 47.7239 132.025 48L133.025 48ZM124.025 214.5L123.555 214.328L124.025 214.5ZM132.025 297.5L132.523 297.464L132.025 297.5ZM120.525 256L120.028 256.054L120.525 256ZM131.526 297.536C132.735 314.097 132.518 324.424 127.558 337.32L128.491 337.68C133.531 324.576 133.735 314.072 132.523 297.464L131.526 297.536ZM127.558 337.32C122.553 350.334 119 360.905 119 375.5L120 375.5C120 361.095 123.496 350.666 128.491 337.68L127.558 337.32ZM123.555 214.328C118.136 229.14 118.319 240.239 120.028 256.054L121.022 255.946C119.32 240.195 119.152 229.274 124.494 214.672L123.555 214.328ZM120.028 256.054C120.928 264.389 123.528 270.682 126.026 276.916C128.526 283.153 130.928 289.337 131.526 297.536L132.523 297.464C131.913 289.096 129.457 282.788 126.955 276.544C124.452 270.299 121.906 264.126 121.022 255.946L120.028 256.054ZM122.044 132.637C125.082 143.271 132.025 154.591 132.025 174L133.025 174C133.025 154.409 125.967 142.729 123.006 132.363L122.044 132.637ZM132.025 174C132.025 183.749 131.773 188.698 130.6 193.762C129.422 198.848 127.315 204.051 123.555 214.328L124.494 214.672C128.234 204.449 130.378 199.152 131.574 193.988C132.776 188.802 133.025 183.751 133.025 174L132.025 174ZM132.025 48C132.025 58.6747 130.042 65.4876 127.621 71.6933C125.202 77.897 122.297 83.5931 120.536 91.8962L121.514 92.1038C123.253 83.9069 126.097 78.353 128.553 72.0567C131.008 65.7624 133.025 58.8253 133.025 48L132.025 48ZM120.536 91.8962C117.015 108.495 119.028 122.08 122.044 132.637L123.006 132.363C120.022 121.92 118.035 108.505 121.514 92.1038L120.536 91.8962Z" fill="#B3B3B3"/>
    <path d="M51.0256 322.501C50.7498 322.487 50.5148 322.699 50.5007 322.974C50.4865 323.25 50.6986 323.485 50.9744 323.499L51.0256 322.501ZM213.5 331L213.342 331.474L213.5 331ZM295.5 322.5L295.464 322.001L295.5 322.5ZM252.5 334.5L252.554 334.997L252.5 334.5ZM295.536 322.999C312.056 321.793 323.897 323.496 336.82 328.467L337.18 327.533C324.103 322.504 312.112 320.786 295.464 322.001L295.536 322.999ZM336.82 328.467C349.861 333.482 357.423 335.5 372 335.5L372 334.5C357.577 334.5 350.139 332.518 337.18 327.533L336.82 328.467ZM213.342 331.474C226.923 336.001 236.714 336.709 252.554 334.997L252.446 334.003C236.72 335.702 227.077 334.999 213.658 330.526L213.342 331.474ZM252.554 334.997C260.889 334.096 267.558 331.372 274.165 328.749C280.78 326.123 287.337 323.597 295.536 322.999L295.464 322.001C287.096 322.612 280.411 325.194 273.796 327.819C267.173 330.448 260.626 333.119 252.446 334.003L252.554 334.997ZM129.637 333.481C132.289 332.723 135.061 331.652 138.013 330.48C140.971 329.307 144.114 328.031 147.538 326.848C154.379 324.484 162.322 322.5 172 322.5L172 321.5C162.178 321.5 154.121 323.516 147.212 325.902C143.761 327.095 140.592 328.381 137.644 329.551C134.689 330.723 131.961 331.777 129.363 332.519L129.637 333.481ZM172 322.5C181.732 322.5 186.84 323.01 192.108 324.374C197.416 325.749 202.862 327.981 213.342 331.474L213.658 330.526C203.262 327.06 197.707 324.792 192.359 323.406C186.972 322.011 181.768 321.5 172 321.5L172 322.5ZM50.9744 323.499C60.6564 323.996 66.8501 325.979 72.2463 328.212C77.6336 330.441 82.3337 332.975 88.8876 334.487L89.1124 333.513C82.6663 332.025 78.1164 329.559 72.6287 327.288C67.1499 325.021 60.8436 323.004 51.0256 322.501L50.9744 323.499ZM88.8876 334.487C101.976 337.508 119.062 336.502 129.637 333.481L129.363 332.519C118.938 335.498 102.024 336.492 89.1124 333.513L88.8876 334.487Z" fill="#B3B3B3"/>
    <path d="M92.4993 50.5256C92.5135 50.2498 92.3014 50.0148 92.0256 50.0007C91.7498 49.9865 91.5148 50.1986 91.5007 50.4744L92.4993 50.5256ZM83.5247 215.5L83.0504 215.342L83.5247 215.5ZM92.0246 297.5L92.5233 297.464L92.0246 297.5ZM80.0246 254.5L79.5275 254.554L80.0246 254.5ZM91.526 297.536C92.7316 314.056 91.0284 325.897 86.058 338.82L86.9913 339.18C92.0208 326.103 93.7383 314.112 92.5233 297.464L91.526 297.536ZM86.058 338.82C83.562 345.31 81.7918 349.844 80.6513 354.57C79.508 359.308 79 364.225 79 371.5L80 371.5C80 364.275 80.5043 359.442 81.6234 354.805C82.7452 350.156 84.4873 345.69 86.9913 339.18L86.058 338.82ZM83.0504 215.342C78.5233 228.923 77.8159 238.714 79.5275 254.554L80.5218 254.446C78.8223 238.72 79.526 229.077 83.9991 215.658L83.0504 215.342ZM79.5275 254.554C80.4282 262.889 83.1531 269.558 85.7758 276.165C88.4015 282.78 90.9276 289.337 91.526 297.536L92.5233 297.464C91.9126 289.096 89.331 282.411 86.7052 275.796C84.0762 269.173 81.4057 262.626 80.5218 254.446L79.5275 254.554ZM81.0439 131.637C81.8016 134.289 82.873 137.061 84.0443 140.013C85.2181 142.971 86.4942 146.114 87.6771 149.538C90.0403 156.379 92.0247 164.322 92.0247 174L93.0247 174C93.0247 164.178 91.009 156.121 88.6223 149.212C87.4302 145.761 86.1437 142.592 84.9738 139.644C83.8013 136.689 82.7477 133.961 82.0054 131.363L81.0439 131.637ZM92.0247 174C92.0247 183.732 91.515 188.84 90.1503 194.108C88.7753 199.416 86.5439 204.862 83.0504 215.342L83.9991 215.658C87.4645 205.262 89.733 199.707 91.1183 194.359C92.5138 188.972 93.0247 183.768 93.0247 174L92.0247 174ZM91.5007 50.4744C91.0042 60.1558 88.9023 66.9768 86.5466 73.0055C84.1972 79.0182 81.5484 84.3402 80.0375 90.8876L81.0119 91.1124C82.5009 84.6598 85.0897 79.4818 87.478 73.3695C89.8601 67.2732 91.9958 60.3442 92.4993 50.5256L91.5007 50.4744ZM80.0375 90.8876C77.0171 103.976 78.0224 121.062 81.0439 131.637L82.0054 131.363C79.0269 120.938 78.0323 104.024 81.0119 91.1124L80.0375 90.8876Z" fill="#B3B3B3"/>
    <path d="M41.4773 362.501C41.2014 362.513 40.988 362.747 41.0005 363.023C41.0131 363.299 41.2468 363.512 41.5227 363.5L41.4773 362.501ZM211.5 371.5L211.682 371.034L211.5 371.5ZM294.5 363.5L294.56 363.996L294.5 363.5ZM252 375.5L252.054 375.997L252 375.5ZM294.56 363.996C310.969 362.007 323.899 364.491 336.87 367.983L337.13 367.017C324.101 363.509 311.031 360.993 294.44 363.004L294.56 363.996ZM336.87 367.983C343.354 369.729 346.519 370.615 349.872 371.058C353.225 371.501 356.764 371.5 364 371.5L364 370.5C356.736 370.5 353.275 370.499 350.003 370.067C346.731 369.635 343.646 368.771 337.13 367.017L336.87 367.983ZM211.318 371.966C226.213 377.778 236.232 377.707 252.054 375.997L251.946 375.003C236.202 376.704 226.365 376.764 211.682 371.034L211.318 371.966ZM252.054 375.997C260.384 375.097 266.942 372.573 273.44 370.046C279.944 367.518 286.385 364.987 294.56 363.996L294.44 363.004C286.124 364.012 279.573 366.589 273.078 369.114C266.578 371.642 260.131 374.118 251.946 375.003L252.054 375.997ZM130.137 373.981C132.788 373.223 135.497 372.184 138.355 371.059C141.219 369.932 144.237 368.719 147.536 367.598C154.124 365.361 161.819 363.5 171.5 363.5L171.5 362.5C161.681 362.5 153.876 364.389 147.214 366.652C143.888 367.781 140.844 369.005 137.989 370.128C135.128 371.254 132.462 372.277 129.863 373.019L130.137 373.981ZM171.5 363.5C181.259 363.5 186.078 363.627 191.015 364.738C195.968 365.852 201.044 367.957 211.318 371.966L211.682 371.034C201.456 367.044 196.282 364.898 191.235 363.762C186.172 362.623 181.241 362.5 171.5 362.5L171.5 363.5ZM41.5227 363.5C52.4422 363.003 60.6267 364.987 67.8334 367.534C71.447 368.811 74.8028 370.225 78.1601 371.551C81.5093 372.873 84.8462 374.102 88.3787 374.985L88.6213 374.015C85.1538 373.148 81.8658 371.939 78.5274 370.621C75.1972 369.306 71.803 367.876 68.1666 366.591C60.8734 364.013 52.5578 361.997 41.4773 362.501L41.5227 363.5ZM88.3787 374.985C102.48 378.511 119.571 377 130.137 373.981L129.863 373.019C119.429 376 102.52 377.49 88.6213 374.015L88.3787 374.985Z" fill="#B3B3B3"/>
    <path d="M52.0242 43.4772C52.0117 43.2013 51.7779 42.9879 51.502 43.0004C51.2262 43.0129 51.0127 43.2467 51.0252 43.5226L52.0242 43.4772ZM43.0247 213.5L43.4905 213.682L43.0247 213.5ZM51.0247 296.5L50.5283 296.56L51.0247 296.5ZM39.0247 254L38.5276 254.054L39.0247 254ZM50.5283 296.56C52.5174 312.969 50.0342 325.899 46.5419 338.87L47.5075 339.13C51.0152 326.101 53.5321 313.03 51.5211 296.44L50.5283 296.56ZM46.5419 338.87C44.7897 345.378 43.8096 347.54 43.0338 350.105C42.2626 352.655 41.7529 355.446 41.0025 362.95L41.9975 363.05C42.7471 355.554 43.2498 352.845 43.9909 350.395C44.7275 347.96 45.7597 345.622 47.5075 339.13L46.5419 338.87ZM42.5589 213.318C36.7464 228.213 36.8179 238.232 38.5276 254.054L39.5218 253.946C37.8205 238.202 37.7605 228.365 43.4905 213.682L42.5589 213.318ZM38.5276 254.054C39.4278 262.384 41.9516 268.942 44.4784 275.44C47.007 281.944 49.5375 288.385 50.5283 296.56L51.5211 296.44C50.5131 288.124 47.9359 281.573 45.4104 275.078C42.883 268.578 40.4062 262.131 39.5218 253.946L38.5276 254.054ZM40.544 132.137C41.3014 134.788 42.3411 137.497 43.4657 140.355C44.5925 143.219 45.806 146.237 46.9263 149.536C49.1639 156.124 51.0247 163.819 51.0247 173.5L52.0247 173.5C52.0247 163.681 50.1356 155.876 47.8732 149.214C46.7434 145.888 45.5194 142.843 44.3962 139.989C43.2708 137.128 42.248 134.461 41.5055 131.863L40.544 132.137ZM51.0247 173.5C51.0247 183.259 50.8977 188.078 49.7869 193.015C48.6725 197.968 46.5682 203.044 42.5589 213.318L43.4905 213.682C47.4811 203.456 49.6268 198.282 50.7625 193.235C51.9017 188.172 52.0247 183.241 52.0247 173.5L51.0247 173.5ZM51.0252 43.5226C51.5216 54.442 49.538 62.6265 46.9908 69.8333C45.7136 73.4469 44.2994 76.8027 42.9737 80.16C41.6513 83.5091 40.4228 86.8461 39.5396 90.3786L40.5098 90.6211C41.3767 87.1537 42.5857 83.8656 43.9038 80.5273C45.2188 77.197 46.6484 73.8029 47.9336 70.1665C50.5114 62.8732 52.5279 54.5577 52.0242 43.4772L51.0252 43.5226ZM39.5396 90.3786C36.0142 104.48 37.525 121.571 40.544 132.137L41.5055 131.863C38.5244 121.429 37.0352 104.519 40.5098 90.6211L39.5396 90.3786Z" fill="#B3B3B3"/>
    <path d="M64.727 112.331C55.7577 103.349 55.7577 88.7197 64.727 79.737C73.6964 70.7543 88.3036 70.7543 97.273 79.737C106.242 88.7197 106.242 103.349 97.273 112.331L80.9744 128.654L64.727 112.331Z" fill="#B3B3B3"/>
    <path d="M72.7674 104.232C68.2217 99.6862 68.2217 92.3121 72.7674 87.7664C77.3131 83.2208 84.6872 83.2208 89.2328 87.7664C93.7785 92.3121 93.7785 99.6862 89.2328 104.232C84.6872 108.778 77.3131 108.778 72.7674 104.232Z" fill="white"/>
    <path d="M273.482 302.592C262.173 291.266 262.173 272.821 273.482 261.495C284.791 250.168 303.209 250.168 314.518 261.495C325.827 272.821 325.827 291.266 314.518 302.592L293.968 323.173L273.482 302.592Z" fill="#B3B3B3"/>
    <path d="M283.62 292.379C277.888 286.648 277.888 277.35 283.62 271.619C289.351 265.887 298.649 265.887 304.381 271.619C310.112 277.35 310.112 286.648 304.381 292.379C298.649 298.111 289.351 298.111 283.62 292.379Z" fill="white"/>
    <path d="M105.963 296.676L105.962 296.677C104.681 297.958 102.749 298.815 100.832 298.815C98.8775 298.815 96.978 298.164 95.727 296.705L95.7145 296.69L95.7009 296.677L83.1329 284.109C80.3576 281.333 80.3575 276.623 83.1325 273.848C83.1326 273.847 83.1327 273.847 83.1329 273.847L130.434 226.775L130.434 226.774C131.937 225.272 133.636 224.635 135.565 224.635C137.494 224.635 139.193 225.272 140.696 226.774L153.264 239.342C156.03 242.108 156.05 246.595 153.258 249.61L105.963 296.676ZM143.231 224.01C138.93 219.71 131.982 219.693 127.894 224.015L80.5977 271.312C76.2967 275.613 76.2801 282.561 80.6027 286.649L93.1657 299.212C95.3242 301.37 97.9688 302.329 100.832 302.329C103.703 302.329 106.573 301.136 108.497 299.212L155.799 251.91C160.1 247.609 160.117 240.662 155.794 236.573L143.231 224.01Z" fill="black" stroke="black"/>
    <path d="M269.243 110.794C239.08 80.402 189.95 80.402 159.787 110.794C132.823 137.758 129.624 180.718 152.018 211.338L149.504 213.852C147.219 216.137 147.219 220.022 149.504 222.307L157.73 230.533C160.016 232.818 163.9 232.818 166.185 230.533L168.699 228.019C182.181 238.074 198.405 242.873 214.401 242.873C234.281 242.873 254.39 235.332 269.243 220.25C299.407 189.858 299.407 140.957 269.243 110.794ZM267.415 218.194C241.137 244.472 199.091 247.443 169.613 225.049C169.385 224.82 169.156 224.82 168.699 224.82C168.242 224.82 168.013 225.049 167.785 225.277L164.357 228.476C163.215 229.619 160.93 229.848 159.559 228.476L151.332 220.25C150.647 219.565 150.418 218.879 150.418 217.965C150.418 217.051 150.875 216.137 151.332 215.68L154.531 212.481C154.988 212.024 154.988 211.338 154.76 210.653C132.366 181.175 135.337 138.901 161.615 112.85C190.636 83.8297 238.166 83.8297 267.187 112.85C296.436 141.643 296.436 189.173 267.415 218.194Z" fill="black" stroke="black"/>
    <circle cx="214.366" cy="165.5" r="67.5" stroke="white" stroke-width="15"/>
    <rect x="159.303" y="244.542" width="82.4943" height="33.8997" rx="8" transform="rotate(135 159.303 244.542)" fill="#FF2D34"/>
    <circle cx="214.366" cy="165.5" r="59.75" stroke="black" stroke-width="2.5"/>
    <circle cx="214.5" cy="165.5" r="60.5" fill="white" fill-opacity="0.7" stroke="black" stroke-width="2"/>
    <rect x="159.832" y="207.057" width="18.1159" height="15.3448" rx="4" transform="rotate(43.7699 159.832 207.057)" fill="white"/>
    </svg>
