<svg width="414" height="414" viewBox="0 0 414 414" fill="none" xmlns="http://www.w3.org/2000/svg">
    <rect x="81.6738" y="130.736" width="51.0916" height="65.0256" rx="7" stroke="#A1A1A1" stroke-width="2"/>
    <rect x="221.015" y="119.125" width="65.0256" height="78.9597" rx="7" stroke="black" stroke-width="2"/>
    <rect x="48" y="207.374" width="84.7656" height="40.641" rx="7" stroke="black" stroke-width="2"/>
    <rect x="67.7397" y="75" width="65.0256" height="44.1245" rx="7" stroke="#A1A1A1" stroke-width="2"/>
    <rect x="297.652" y="153.96" width="42.9634" height="44.1245" rx="7" stroke="#A1A1A1" stroke-width="2"/>
    <rect x="297.652" y="75" width="67.348" height="67.348" rx="7" stroke="#A1A1A1" stroke-width="2"/>
    <rect x="67.7397" y="259.626" width="65.0256" height="40.641" rx="7" stroke="#A1A1A1" stroke-width="2"/>
    <rect x="221" y="209.454" width="120" height="91" rx="7" stroke="black" stroke-width="2"/>
    <rect x="144.377" y="99.3846" width="65.0256" height="241.524" rx="7" stroke="black" stroke-width="2"/>
    <path fill-rule="evenodd" clip-rule="evenodd" d="M166.821 207.995C161.487 213.321 161.487 221.995 166.821 227.321L176.485 237L186.178 227.321C191.513 221.995 191.513 213.321 186.178 207.995C180.844 202.668 172.156 202.668 166.821 207.995ZM170.716 211.592C167.522 214.759 167.522 219.895 170.716 223.061C173.909 226.227 179.09 226.227 182.284 223.061C185.478 219.895 185.478 214.759 182.284 211.592C179.09 208.426 173.909 208.426 170.716 211.592Z" fill="#FF2D34"/>
    <path d="M76.4607 228.549C75.8798 227.953 74.9988 228.832 75.5797 229.428C76.1764 229.998 77.0574 229.119 76.4607 228.549Z" fill="black" stroke="black" stroke-width="0.4"/>
    <path d="M77.3259 224.605C76.7558 224.051 75.8906 224.904 76.4449 225.484C77.0682 226.07 77.9492 225.19 77.3259 224.605Z" fill="black" stroke="black" stroke-width="0.4"/>
    <path d="M76.0403 232.469C75.4593 231.873 74.5784 232.752 75.1593 233.348C75.7402 233.945 76.6212 233.065 76.0403 232.469Z" fill="black" stroke="black" stroke-width="0.4"/>
    <path d="M83.678 230.924C83.1079 230.371 82.2426 231.223 82.797 231.804C83.4045 232.416 84.2855 231.536 83.678 230.924Z" fill="black" stroke="black" stroke-width="0.4"/>
    <path d="M89.0561 231.311C90.413 230.175 90.4472 228.542 90.0153 227.027C89.5511 225.386 88.5122 224.41 88.1787 223.458C87.7091 222.856 88.8145 222.325 89.2304 221.745C90.2515 220.266 87.8963 217.935 86.438 218.939C85.899 219.302 85.343 220.482 84.7413 219.981C83.6187 219.207 82.5019 218.545 81.1585 218.144C79.624 217.701 78.039 217.767 76.9057 219.072C74.5177 219.704 72.8067 222.104 71.7605 224.898C70.7034 227.65 69.4302 233.796 72.0514 236.285C74.6725 238.775 80.7892 237.37 83.3399 236.403C86.0757 235.366 88.3893 233.647 89.0561 231.311ZM80.7985 219.296C81.8445 219.593 83.1149 220.239 83.9775 220.966C85.2922 221.961 85.8983 221.243 86.5782 220.46C87.548 219.31 88.8802 220.639 87.7293 221.61C86.9587 222.303 86.2197 222.943 87.2229 224.221C87.9327 225.145 88.5322 226.255 88.8666 227.388C88.9856 227.854 89.078 228.305 89.0591 228.761C88.9145 228.459 88.754 228.184 88.5197 227.973C87.9387 227.377 87.1104 227.137 86.4042 226.934C85.7246 226.747 85.3159 226.648 85.7989 225.713C86.067 225.261 85.624 224.674 85.0999 224.831C84.7029 224.955 83.5118 225.327 83.1495 224.968C82.7871 224.609 83.1787 223.404 83.3039 223.011C83.4657 222.495 82.9172 222.026 82.4679 222.299C81.6491 222.892 81.4021 222.278 81.2241 221.669C80.8738 220.563 80.5187 219.525 79.4028 219.043C79.8431 219.089 80.3208 219.192 80.7985 219.296ZM82.8783 235.303C80.8675 236.087 75.0267 237.511 72.8368 235.385C70.6154 233.313 72.0224 227.426 72.8281 225.28C73.6022 223.187 74.786 221.373 76.3141 220.554C79.3172 218.885 79.5507 221.036 80.3656 222.813C80.6874 223.543 81.1336 223.7 81.9128 223.659C81.8191 223.999 81.8101 224.317 81.8326 224.582C81.8647 225.679 82.6101 226.301 83.6917 226.296C83.9143 226.284 84.2059 226.277 84.46 226.212C84.4718 226.435 84.4569 226.642 84.5061 226.923C84.6584 227.696 85.407 227.888 86.0866 228.076C87.43 228.477 88.2701 228.94 87.9709 230.595L87.9394 230.649C87.6213 232.76 85.4713 234.325 82.8783 235.303Z" fill="black" stroke="black" stroke-width="0.4"/>
    <path d="M79.967 232.03C79.3861 231.434 78.5051 232.313 79.086 232.909C79.6828 233.479 80.548 232.626 79.967 232.03Z" fill="black" stroke="black" stroke-width="0.4"/>
    <path d="M80.406 227.654C79.8251 227.058 78.9441 227.937 79.525 228.534C80.1059 229.13 80.9869 228.25 80.406 227.654Z" fill="black" stroke="black" stroke-width="0.4"/>
    <path d="M104.732 229.084C105.42 228.653 106.052 229.69 105.364 230.121C104.667 230.523 104.035 229.486 104.732 229.084Z" fill="black" stroke="black" stroke-width="0.4"/>
    <path d="M104.823 225.147C105.491 224.754 106.114 225.762 105.455 226.184C104.729 226.595 104.097 225.558 104.823 225.147Z" fill="black" stroke="black" stroke-width="0.4"/>
    <path d="M104.225 232.896C104.914 232.466 105.545 233.502 104.857 233.933C104.169 234.364 103.537 233.327 104.225 232.896Z" fill="black" stroke="black" stroke-width="0.4"/>
    <path d="M97.344 229.669C98.0122 229.276 98.6352 230.284 97.9759 230.706C97.2588 231.145 96.627 230.109 97.344 229.669Z" fill="black" stroke="black" stroke-width="0.4"/>
    <path d="M92.1578 228.793C91.1344 227.403 91.4791 225.847 92.238 224.512C93.057 223.064 94.2667 222.38 94.8028 221.554C95.3868 221.092 94.4618 220.334 94.2016 219.688C93.5755 218.051 96.3458 216.385 97.4959 217.673C97.9227 218.142 98.1772 219.388 98.8629 219.053C100.105 218.579 101.317 218.209 102.682 218.139C104.239 218.074 105.726 218.502 106.498 220.001C108.615 221.151 109.682 223.821 110.029 226.71C110.395 229.562 110.182 235.68 107.123 237.434C104.065 239.187 98.5926 236.444 96.3988 234.939C94.0457 233.324 92.2502 231.161 92.1578 228.793ZM102.758 219.314C101.698 219.354 100.345 219.672 99.3594 220.162C97.8837 220.802 97.4753 219.981 97.0117 219.082C96.3584 217.768 94.7889 218.72 95.6554 219.906C96.2256 220.741 96.7781 221.518 95.5323 222.498C94.6462 223.209 93.8217 224.123 93.2432 225.12C93.0228 225.534 92.8313 225.939 92.7439 226.376C92.9506 226.123 93.1661 225.9 93.4369 225.754C94.1251 225.323 94.9654 225.287 95.6815 225.258C96.3688 225.237 96.7789 225.238 96.5372 224.24C96.3875 223.75 96.9428 223.296 97.4033 223.566C97.7509 223.775 98.7937 224.402 99.2199 224.146C99.6462 223.89 99.5535 222.657 99.5255 222.256C99.4912 221.73 100.119 221.412 100.482 221.774C101.121 222.525 101.497 222.001 101.806 221.465C102.394 220.497 102.97 219.596 104.139 219.397C103.711 219.338 103.234 219.326 102.758 219.314ZM97.0903 234.002C98.8147 235.21 104.021 237.908 106.587 236.399C109.171 234.949 109.197 229.045 108.929 226.825C108.679 224.663 107.976 222.671 106.717 221.542C104.256 219.266 103.538 221.251 102.356 222.747C101.882 223.365 101.423 223.41 100.694 223.191C100.704 223.535 100.639 223.839 100.557 224.085C100.273 225.117 99.4231 225.534 98.3994 225.279C98.1912 225.217 97.9165 225.143 97.6906 225.023C97.6281 225.231 97.5944 225.431 97.483 225.685C97.16 226.383 96.4062 226.392 95.7189 226.413C94.3531 226.483 93.4503 226.727 93.3515 228.365L93.3691 228.423C93.1828 230.498 94.859 232.477 97.0903 234.002Z" fill="black" stroke="black" stroke-width="0.4"/>
    <path d="M100.605 231.575C101.293 231.144 101.925 232.181 101.237 232.611C100.54 233.013 99.917 232.006 100.605 231.575Z" fill="black" stroke="black" stroke-width="0.4"/>
    <path d="M101.2 227.325C101.889 226.894 102.52 227.931 101.832 228.362C101.144 228.793 100.512 227.756 101.2 227.325Z" fill="black" stroke="black" stroke-width="0.4"/>
    <path d="M303.371 246.454C303.371 246.351 303.319 246.249 303.319 246.146C303.319 246.095 303.319 246.095 303.268 246.044C303.268 246.044 303.268 245.993 303.217 245.993L295.797 233.404V226.803C295.797 224.039 285.511 223.63 279.319 223.63C273.178 223.63 262.841 224.039 262.841 226.803V233.507L253.732 245.942C253.681 245.993 253.681 246.044 253.63 246.095C253.63 246.095 253.63 246.146 253.579 246.146C253.527 246.249 253.527 246.351 253.527 246.454C253.527 246.454 253.527 246.454 253.527 246.505V286.318C253.527 286.83 253.937 287.29 254.5 287.29H285.357H302.347C302.859 287.29 303.319 286.881 303.319 286.318L303.371 246.454ZM255.574 247.375H259.668V254.948C259.668 255.46 260.078 255.921 260.64 255.921C261.152 255.921 261.613 255.511 261.613 254.948V247.375H284.539V268.151C283.72 268.407 282.901 268.663 282.082 268.919C274.202 271.529 265.297 274.446 255.574 270.045V247.375ZM286.432 247.375H301.477V268.561C297.076 265.234 291.908 265.951 286.432 267.537V247.375ZM287.353 245.481L294.773 235.349L300.71 245.481H287.353ZM264.837 227.008C265.86 226.445 270.722 225.472 279.37 225.472C288.018 225.472 292.88 226.393 293.903 227.008V232.637H264.837V227.008ZM264.479 234.581H292.931L284.948 245.481H256.495L264.479 234.581ZM255.574 272.194C259.208 273.729 262.687 274.292 266.065 274.292C272.001 274.292 277.528 272.45 282.645 270.761C283.259 270.556 283.873 270.352 284.487 270.147V285.243H255.574V272.194ZM286.432 285.294V269.584C292.419 267.742 297.332 267.077 301.477 271.119V285.294H286.432Z" fill="black"/>
    <path d="M265.051 170.975L266.433 175.069C268.48 174.71 270.783 175.427 272.523 177.167C275.132 179.777 275.439 183.768 273.188 186.02C272.215 186.992 270.885 187.555 269.401 187.555C269.196 187.555 268.992 187.555 268.838 187.504C267.2 187.35 265.614 186.583 264.335 185.303C264.181 185.15 264.028 184.996 263.874 184.792C262.8 186.429 261.111 187.504 259.217 187.504C258.347 187.504 257.529 187.299 256.812 186.89C256.096 187.299 255.277 187.504 254.458 187.504H242.893C242.023 187.504 241.102 187.248 240.334 186.787C239.311 187.248 238.185 187.504 237.059 187.504C233.323 187.504 230.304 184.894 230.304 181.721C230.304 178.548 233.323 175.939 237.059 175.939C237.366 175.939 237.724 175.939 238.031 175.99V148.816C238.031 146.718 239.362 144.876 241.307 144.262L243.302 143.597C243.661 143.494 243.916 143.136 243.968 142.778L244.582 137.354C244.121 137.251 243.814 136.842 243.814 136.432V130.547C243.814 130.036 244.223 129.575 244.786 129.575H252.514C253.025 129.575 253.486 129.985 253.486 130.547V136.33C253.486 136.791 253.179 137.2 252.718 137.251L253.332 142.778C253.384 143.136 253.639 143.443 253.998 143.597L255.993 144.262C257.989 144.927 259.32 146.769 259.269 148.816V173.636L263.107 170.565V158.488C263.107 157.977 263.516 157.516 264.079 157.516C264.591 157.516 265.051 157.925 265.051 158.488V163.452C266.023 161.61 267.303 159.512 268.838 157.925C270.271 156.493 271.857 155.571 273.597 155.111C274.058 155.008 274.569 155.008 275.03 155.111C276.565 155.52 277.538 157.107 277.128 158.642C276.668 160.382 275.746 161.968 274.314 163.401C271.397 166.318 266.74 168.211 265.051 168.877V170.975ZM265.768 166.523C267.815 165.653 270.885 164.117 272.932 162.07C274.109 160.893 274.877 159.614 275.235 158.232C275.337 157.925 275.235 157.567 274.979 157.311C274.825 157.107 274.569 157.004 274.314 157.004C274.211 157.004 274.16 157.004 274.058 157.055C272.676 157.414 271.397 158.181 270.22 159.358C268.173 161.354 266.638 164.476 265.768 166.523ZM245.759 135.409H251.541V131.571H245.759V135.409ZM239.976 148.816V151.836H257.324V148.919C257.324 147.691 256.505 146.565 255.328 146.155L253.332 145.49C252.258 145.132 251.49 144.16 251.388 143.085L250.774 137.354H246.526L245.912 142.983C245.81 144.108 245.042 145.03 243.968 145.388L241.972 146.053C240.744 146.462 239.976 147.537 239.976 148.816ZM234.193 181.721C234.193 181.209 233.784 180.749 233.221 180.749C232.709 180.749 232.249 181.158 232.249 181.721C232.249 182.284 232.658 182.693 233.221 182.693C233.733 182.693 234.142 182.233 234.193 181.721ZM237.059 185.559C239.72 185.559 241.869 183.819 241.869 181.721C241.869 179.623 239.72 177.883 237.059 177.883C235.882 177.883 234.756 178.241 233.784 178.907C234.91 179.162 235.78 180.032 236.036 181.158C236.343 182.745 235.37 184.28 233.784 184.587C234.756 185.252 235.882 185.61 237.059 185.559ZM254.458 185.559C254.663 185.559 254.919 185.508 255.123 185.457C254.1 184.229 253.435 182.54 253.435 180.698C253.435 177.73 255.072 175.222 257.324 174.301V153.678H239.976V176.45C242.279 177.371 243.814 179.367 243.814 181.67C243.814 183.103 243.2 184.433 242.177 185.457C242.381 185.508 242.637 185.559 242.842 185.559H254.458ZM263.055 180.749C263.055 178.088 261.315 175.939 259.217 175.939C257.068 175.939 255.379 178.088 255.379 180.749C255.379 183.41 257.119 185.559 259.217 185.559C261.367 185.559 263.055 183.41 263.055 180.749ZM265 177.781C264.846 177.934 264.744 178.088 264.591 178.241C265.051 179.674 265.102 181.209 264.744 182.693C265 183.154 265.307 183.512 265.665 183.87C266.586 184.792 267.763 185.354 268.94 185.508C270.066 185.61 271.09 185.303 271.806 184.587C273.29 183.103 272.983 180.339 271.141 178.446C270.22 177.525 269.043 176.962 267.866 176.808C266.689 176.757 265.716 177.116 265 177.781ZM264.591 175.683L263.618 172.715L261.418 174.506C262.339 174.966 263.107 175.631 263.669 176.45C263.925 176.143 264.232 175.887 264.591 175.683Z" fill="black"/>
    <path d="M106.142 148.562C105.716 148.603 105.259 148.683 104.84 148.794C103.098 149.278 101.385 150.421 99.97 152.057C98.5942 153.724 97.8128 155.611 97.6628 157.367C97.5127 159.122 98.0397 160.846 99.4023 161.966C100.762 163.052 102.568 163.223 104.31 162.739C106.053 162.254 107.766 161.111 109.145 159.479C110.521 157.812 111.338 155.921 111.484 154.131C111.634 152.376 111.107 150.651 109.748 149.566C108.703 148.763 107.457 148.468 106.142 148.562ZM106.387 149.965C107.38 149.868 108.225 150.098 108.886 150.626C109.74 151.308 110.142 152.487 110.032 153.925C109.926 155.398 109.231 157.068 107.98 158.549C106.729 160.029 105.183 161.051 103.753 161.435C102.777 161.705 101.92 161.719 101.18 161.479C102.206 160.995 102.971 160.398 103.513 159.718C104.247 158.81 104.539 157.772 104.77 156.844C105.229 154.953 105.39 153.301 107.515 151.979C107.65 151.896 107.778 151.744 107.8 151.602C107.858 151.458 107.841 151.285 107.788 151.116C107.736 150.947 107.619 150.854 107.468 150.765C107.316 150.675 107.135 150.658 106.996 150.706C106.926 150.713 106.823 150.758 106.755 150.8C104.157 152.412 103.81 154.71 103.376 156.493C103.141 157.387 102.897 158.177 102.355 158.856C101.845 159.498 101.112 160.058 99.7989 160.535C99.2282 159.825 98.9883 158.838 99.0894 157.679C99.1956 156.207 99.9264 154.533 101.138 153.022C102.389 151.541 103.939 150.553 105.365 150.135C105.717 150.066 106.068 149.997 106.387 149.965ZM115.254 160.447C113.091 160.659 111.166 161.474 109.811 162.617C108.42 163.763 107.572 165.343 107.742 167.068C107.911 168.792 109.084 170.174 110.636 171.032C112.223 171.886 114.234 172.316 116.396 172.104C118.559 171.892 120.487 171.111 121.839 169.934C123.195 168.791 124.045 167.245 123.919 165.586C123.944 165.479 123.969 165.372 123.924 165.272C123.913 165.169 123.868 165.069 123.826 165.003C123.5 163.503 122.417 162.321 121.018 161.553C119.462 160.661 117.416 160.235 115.254 160.447ZM115.399 161.93C117.349 161.739 119.176 162.117 120.462 162.826C121.523 163.419 122.242 164.184 122.507 165.063C121.405 165.868 120.503 166.165 119.684 166.21C118.83 166.259 118.023 166.06 117.167 165.726C115.869 165.261 114.334 164.576 112.522 164.719C111.92 164.778 111.288 164.91 110.6 165.186C110.497 165.231 110.429 165.272 110.362 165.314C110.297 165.39 110.233 165.466 110.205 165.538C110.176 165.611 110.151 165.717 110.161 165.821C110.171 165.924 110.178 165.993 110.223 166.093C110.269 166.193 110.311 166.259 110.389 166.321C110.466 166.383 110.544 166.445 110.618 166.472C110.693 166.5 110.802 166.524 110.909 166.514C111.015 166.503 111.086 166.496 111.189 166.451C113.426 165.536 114.864 166.335 116.718 166.989C117.645 167.316 118.678 167.632 119.852 167.552C120.706 167.503 121.607 167.206 122.556 166.66C122.34 167.378 121.834 168.054 121.108 168.682C119.984 169.628 118.265 170.354 116.315 170.545C114.365 170.736 112.574 170.355 111.287 169.645C110.001 168.936 109.261 167.963 109.153 166.86C109.048 165.791 109.581 164.659 110.706 163.713C111.766 162.843 113.449 162.121 115.399 161.93ZM97.3633 165.265C96.0549 165.428 94.8546 165.964 94.0207 166.951C92.8982 168.279 92.7161 170.073 93.2076 171.801C93.6957 173.494 94.8322 175.228 96.5376 176.558C98.2108 177.926 100.146 178.676 101.917 178.851C103.72 178.987 105.459 178.469 106.581 177.14C107.704 175.811 107.886 174.018 107.394 172.29C106.906 170.597 105.77 168.863 104.064 167.533C102.391 166.165 100.456 165.414 98.6852 165.24C98.253 165.213 97.7888 165.223 97.3633 165.265ZM97.3922 166.655C97.7113 166.624 98.0692 166.623 98.4305 166.658C99.9112 166.791 101.623 167.459 103.138 168.668C104.652 169.878 105.662 171.415 106.052 172.839C106.38 173.991 106.301 175.009 105.911 175.778C104.494 175.569 103.632 175.166 103.042 174.632C102.379 174.07 101.989 173.377 101.62 172.543C100.849 170.877 100.101 168.722 97.3451 167.635C97.1965 167.579 97.0513 167.559 96.9129 167.607C96.771 167.621 96.636 167.704 96.5043 167.821C96.4081 167.935 96.3507 168.08 96.3288 168.222C96.3069 168.363 96.3592 168.532 96.4436 168.663C96.5281 168.794 96.6446 168.887 96.7932 168.942C99.064 169.834 99.5032 171.392 100.321 173.158C100.731 174.057 101.212 174.95 102.109 175.698C102.772 176.26 103.639 176.697 104.739 176.972C104.061 177.352 103.217 177.505 102.207 177.429C100.726 177.296 99.0143 176.628 97.4997 175.419C95.9852 174.209 94.9754 172.672 94.5886 171.282C94.1984 169.858 94.367 168.658 95.0726 167.822C95.6179 167.177 96.4029 166.787 97.3922 166.655Z" fill="#979797"/>
    <path d="M340.653 126.414C341.013 126.549 341.651 126.799 342.082 127.171C343.582 128.341 342.145 130.039 340.281 129.787C339.9 129.734 339.447 129.62 338.933 129.402C338.254 129.142 337.852 129.172 337.286 129.16C336.142 129.178 334.865 129.205 331.986 127.774C321.856 122.971 326.06 107.58 314.72 110.326C314.07 110.468 313.578 109.817 313.858 109.23C315.697 104.737 320.744 104.698 324.467 106.431C324.785 103.791 325.991 97.4699 329.624 92.641C332.645 88.6668 336.618 89.585 335.343 94.9668C334.601 98.07 334.03 102.401 333.844 105.382C340.094 103.191 347.041 107.934 345.005 115.975C344.786 116.841 343.57 116.797 343.491 115.899C342.741 112.287 338.106 109.314 336.45 111.527C334.504 114.194 337.504 119.474 339.104 121.634C340.109 123.029 340.857 124.053 340.627 125.135C340.449 125.836 340.572 126.218 340.653 126.414ZM329.089 110.322C329.65 108.972 330.593 107.324 332.183 106.234C332.204 103.212 333.015 97.9318 333.82 94.5811C334.76 90.6943 332.708 91.1841 330.887 93.5315C327.039 98.5249 326.088 105.393 325.876 107.27C327.13 108.026 328.311 109.071 329.089 110.322ZM329.922 113.78C329.916 115.534 330.289 118.042 331.108 119.302C331.672 120.191 330.32 121.033 329.746 120.186C328.458 117.315 328.953 114.149 328.3 112.228C326.872 108.181 319.281 104.942 316.127 108.4C327.463 107.058 323.21 121.778 332.65 126.363C335.221 127.628 336.282 127.589 337.25 127.571C337.951 127.573 338.527 127.719 339.453 128.041C339.885 128.238 340.296 128.343 340.543 128.405C341.141 128.469 341.482 128.16 340.638 127.859C340.237 127.713 339.794 127.557 339.63 127.34C339.589 127.33 338.696 126.533 339.145 124.76C339.187 124.42 338.603 123.613 337.865 122.549C335.783 119.696 332.723 113.963 335.248 110.565C337.39 107.641 342.255 109.882 343.925 112.63C343.562 104.201 330.035 104.857 329.922 113.78Z" fill="#979797"/>
    </svg>
