<svg width="414" height="414" viewBox="0 0 414 414" fill="none" xmlns="http://www.w3.org/2000/svg">
    <path d="M196.944 201.146C196.944 201.066 196.904 200.986 196.904 200.906C196.904 200.866 196.904 200.866 196.865 200.826C196.865 200.826 196.865 200.787 196.825 200.787L191.032 190.959V185.806C191.032 183.649 183.003 183.329 178.169 183.329C173.375 183.329 165.306 183.649 165.306 185.806V191.039L158.195 200.747C158.155 200.787 158.155 200.826 158.115 200.866C158.115 200.866 158.115 200.906 158.075 200.906C158.035 200.986 158.035 201.066 158.035 201.146C158.035 201.146 158.035 201.146 158.035 201.186V232.265C158.035 232.665 158.355 233.024 158.794 233.024H182.883H196.145C196.545 233.024 196.904 232.705 196.904 232.265L196.944 201.146ZM159.633 201.865H162.829V207.777C162.829 208.177 163.149 208.536 163.588 208.536C163.988 208.536 164.347 208.217 164.347 207.777V201.865H182.244V218.084C181.605 218.284 180.965 218.483 180.326 218.683C174.174 220.72 167.223 222.997 159.633 219.562V201.865ZM183.722 201.865H195.466V218.403C192.031 215.807 187.996 216.366 183.722 217.604V201.865ZM184.441 200.387L190.233 192.477L194.867 200.387H184.441ZM166.864 185.966C167.663 185.526 171.458 184.767 178.209 184.767C184.96 184.767 188.755 185.487 189.554 185.966V190.36H166.864V185.966ZM166.584 191.878H188.795L182.563 200.387H160.352L166.584 191.878ZM159.633 221.24C162.47 222.438 165.186 222.878 167.823 222.878C172.457 222.878 176.771 221.439 180.766 220.121C181.245 219.961 181.724 219.802 182.204 219.642V231.426H159.633V221.24ZM183.722 231.466V219.202C188.396 217.764 192.231 217.245 195.466 220.401V231.466H183.722Z" fill="black"/>
    <path d="M163.549 212.012C163.149 212.012 162.79 212.332 162.79 212.771V213.81C162.79 214.209 163.109 214.569 163.549 214.569C163.948 214.569 164.308 214.249 164.308 213.81V212.771C164.308 212.371 163.988 212.012 163.549 212.012Z" fill="#979797"/>
    <path d="M264.927 220.179L266.006 223.375C267.603 223.096 269.401 223.655 270.759 225.013C272.797 227.05 273.036 230.166 271.279 231.924C270.52 232.683 269.481 233.122 268.323 233.122C268.163 233.122 268.003 233.122 267.883 233.082C266.605 232.963 265.366 232.363 264.368 231.365C264.248 231.245 264.128 231.125 264.008 230.965C263.169 232.244 261.851 233.082 260.373 233.082C259.694 233.082 259.055 232.923 258.495 232.603C257.936 232.923 257.297 233.082 256.658 233.082H247.63C246.951 233.082 246.231 232.883 245.632 232.523C244.833 232.883 243.954 233.082 243.076 233.082C240.159 233.082 237.802 231.045 237.802 228.568C237.802 226.092 240.159 224.054 243.076 224.054C243.315 224.054 243.595 224.054 243.835 224.094V202.882C243.835 201.244 244.873 199.806 246.391 199.327L247.949 198.807C248.229 198.727 248.429 198.448 248.469 198.168L248.948 193.934C248.588 193.854 248.349 193.534 248.349 193.215V188.621C248.349 188.221 248.668 187.862 249.108 187.862H255.14C255.539 187.862 255.899 188.181 255.899 188.621V193.135C255.899 193.494 255.659 193.814 255.3 193.854L255.779 198.168C255.819 198.448 256.019 198.688 256.298 198.807L257.856 199.327C259.414 199.846 260.453 201.284 260.413 202.882V222.257L263.409 219.86V210.432C263.409 210.033 263.729 209.673 264.168 209.673C264.567 209.673 264.927 209.993 264.927 210.432V214.307C265.686 212.869 266.685 211.231 267.883 209.993C269.002 208.874 270.24 208.155 271.598 207.796C271.958 207.716 272.357 207.716 272.717 207.796C273.915 208.115 274.674 209.354 274.355 210.552C273.995 211.91 273.276 213.149 272.157 214.267C269.88 216.544 266.245 218.022 264.927 218.542V220.179ZM265.486 216.704C267.084 216.025 269.481 214.826 271.079 213.228C271.998 212.31 272.597 211.311 272.877 210.232C272.956 209.993 272.877 209.713 272.677 209.513C272.557 209.354 272.357 209.274 272.157 209.274C272.078 209.274 272.038 209.274 271.958 209.314C270.879 209.593 269.88 210.192 268.962 211.111C267.364 212.669 266.165 215.106 265.486 216.704ZM249.867 192.416H254.381V189.42H249.867V192.416ZM245.353 202.882V205.239H258.895V202.962C258.895 202.003 258.256 201.124 257.337 200.805L255.779 200.285C254.94 200.006 254.341 199.247 254.261 198.408L253.782 193.934H250.466L249.987 198.328C249.907 199.207 249.307 199.926 248.469 200.206L246.911 200.725C245.952 201.044 245.353 201.883 245.353 202.882ZM240.839 228.568C240.839 228.169 240.519 227.809 240.08 227.809C239.68 227.809 239.321 228.129 239.321 228.568C239.321 229.008 239.64 229.327 240.08 229.327C240.479 229.327 240.799 228.968 240.839 228.568ZM243.076 231.564C245.153 231.564 246.831 230.206 246.831 228.568C246.831 226.931 245.153 225.572 243.076 225.572C242.157 225.572 241.278 225.852 240.519 226.371C241.398 226.571 242.077 227.25 242.277 228.129C242.516 229.367 241.757 230.566 240.519 230.805C241.278 231.325 242.157 231.604 243.076 231.564ZM256.658 231.564C256.818 231.564 257.017 231.524 257.177 231.485C256.378 230.526 255.859 229.208 255.859 227.769C255.859 225.452 257.137 223.495 258.895 222.776V206.677H245.353V224.454C247.15 225.173 248.349 226.731 248.349 228.528C248.349 229.647 247.869 230.686 247.07 231.485C247.23 231.524 247.43 231.564 247.59 231.564H256.658ZM263.369 227.809C263.369 225.732 262.011 224.054 260.373 224.054C258.695 224.054 257.377 225.732 257.377 227.809C257.377 229.887 258.735 231.564 260.373 231.564C262.051 231.564 263.369 229.887 263.369 227.809ZM264.887 225.492C264.767 225.612 264.687 225.732 264.567 225.852C264.927 226.97 264.967 228.169 264.687 229.327C264.887 229.687 265.127 229.967 265.406 230.246C266.125 230.965 267.044 231.405 267.963 231.525C268.842 231.604 269.641 231.365 270.2 230.805C271.359 229.647 271.119 227.49 269.681 226.012C268.962 225.293 268.043 224.853 267.124 224.733C266.205 224.693 265.446 224.973 264.887 225.492ZM264.567 223.855L263.808 221.538L262.091 222.936C262.81 223.295 263.409 223.815 263.848 224.454C264.048 224.214 264.288 224.014 264.567 223.855Z" fill="black"/>
    <path d="M230.04 233.34H205.272C203.874 233.34 202.795 232.901 202.036 232.022C200.838 230.663 200.998 228.666 201.038 228.267L200.638 209.611C200.638 205.656 204.633 204.258 204.793 204.218C204.873 204.178 204.953 204.178 205.072 204.178H229.84C230.319 204.178 230.679 204.538 230.679 205.017L231.078 221.156C231.078 221.595 230.799 221.955 230.359 222.035C230.08 222.075 227.603 222.594 227.603 225.191C227.603 227.907 230.199 228.626 230.239 228.626C230.599 228.706 230.879 229.066 230.879 229.465V232.541C230.879 232.941 230.519 233.34 230.04 233.34ZM205.232 205.856C204.673 206.096 202.356 207.134 202.356 209.571L202.755 228.267C202.755 228.307 202.755 228.347 202.755 228.426C202.755 228.426 202.556 229.984 203.355 230.903C203.754 231.383 204.393 231.622 205.272 231.622H229.161V229.984C227.763 229.385 225.885 227.867 225.885 225.111C225.885 222.354 227.843 220.956 229.321 220.477L228.961 205.856H205.232Z" fill="#979797"/>
    <path d="M209.467 214.963C207.869 214.963 206.551 213.645 206.551 212.047C206.551 210.449 207.869 209.131 209.467 209.131C211.065 209.131 212.383 210.449 212.383 212.047C212.343 213.645 211.065 214.963 209.467 214.963ZM209.467 210.409C208.588 210.409 207.829 211.128 207.829 212.047C207.829 212.966 208.548 213.685 209.467 213.685C210.386 213.685 211.105 212.966 211.105 212.047C211.065 211.168 210.346 210.409 209.467 210.409Z" fill="#979797"/>
    <path d="M216.537 229.464C213.621 229.464 211.224 227.068 211.224 224.111C211.224 221.155 213.621 218.758 216.537 218.758C219.453 218.758 221.85 221.155 221.85 224.111C221.85 227.068 219.493 229.464 216.537 229.464ZM216.537 220.356C214.5 220.356 212.822 222.034 212.822 224.072C212.822 226.109 214.5 227.787 216.537 227.787C218.574 227.787 220.252 226.109 220.252 224.072C220.252 222.034 218.574 220.356 216.537 220.356Z" fill="#979797"/>
    <path d="M223.248 216.522C221.97 216.522 220.931 215.483 220.931 214.205C220.931 212.927 221.97 211.888 223.248 211.888C224.527 211.888 225.565 212.927 225.565 214.205C225.565 215.483 224.527 216.522 223.248 216.522ZM223.248 213.046C222.609 213.046 222.13 213.566 222.13 214.165C222.13 214.804 222.649 215.283 223.248 215.283C223.888 215.283 224.367 214.764 224.367 214.165C224.367 213.566 223.888 213.046 223.248 213.046Z" fill="#979797"/>
    <path d="M240.206 179.83C237.17 176.754 232.815 174.597 228.062 173.758C227.982 173.758 227.902 173.718 227.822 173.718C226.344 173.479 224.866 173.359 223.388 173.359C222.149 173.359 220.911 173.439 219.673 173.599C214.4 174.358 209.566 176.635 206.33 180.07C202.775 183.865 200.658 189.897 204.492 194.252C208.367 198.606 215.878 200.204 223.028 200.204C226.903 200.244 230.738 199.764 234.493 198.806C236.89 198.166 240.206 196.848 242.403 194.291C242.922 193.692 243.362 193.053 243.681 192.334C244.001 191.655 244.24 190.896 244.36 190.137C244.88 186.861 243.322 182.986 240.206 179.83ZM242.643 189.897C242.443 191.096 241.923 192.214 241.125 193.133C239.606 194.851 237.13 196.249 234.094 197.088C225.745 199.325 211.284 199.205 205.891 193.093C202.775 189.578 204.532 184.664 207.688 181.348C209.206 179.79 210.964 178.512 212.882 177.553L217.675 182.347C217.755 182.427 217.875 182.507 217.955 182.547C218.075 182.587 218.195 182.627 218.314 182.627C218.434 182.627 218.554 182.587 218.674 182.547C218.794 182.507 218.874 182.427 218.954 182.347C219.033 182.267 219.113 182.147 219.153 182.068C219.193 181.948 219.233 181.828 219.233 181.708C219.233 181.588 219.193 181.468 219.153 181.348C219.113 181.229 219.033 181.149 218.954 181.069L214.599 176.754C216.037 176.195 217.555 175.756 219.073 175.516L225.904 182.347C226.064 182.507 226.304 182.587 226.544 182.587C226.783 182.587 227.023 182.507 227.183 182.307C227.343 182.147 227.462 181.908 227.462 181.668C227.462 181.428 227.382 181.189 227.223 181.029L221.35 175.157C222.03 175.117 222.749 175.077 223.468 175.077C224.746 175.077 226.024 175.157 227.263 175.356L234.174 182.267C234.253 182.347 234.373 182.427 234.453 182.467C234.533 182.507 234.693 182.547 234.813 182.547C234.933 182.547 235.052 182.507 235.172 182.467C235.292 182.427 235.372 182.347 235.452 182.267C235.532 182.187 235.612 182.068 235.652 181.988C235.692 181.868 235.732 181.748 235.732 181.628C235.732 181.508 235.692 181.388 235.652 181.269C235.612 181.149 235.532 181.069 235.452 180.989L230.538 176.075C233.734 176.994 236.65 178.672 239.007 180.989C241.684 183.865 243.042 187.141 242.643 189.897Z" fill="#979797"/>
    <path d="M272.947 162.024C274.066 160.826 277.062 162.104 279.059 163.303C279.299 161.465 280.098 157.99 281.975 157.95C283.773 157.91 285.011 161.225 285.611 163.063C287.488 161.745 290.285 160.267 291.563 161.385C292.362 162.144 292.282 163.462 291.363 165.58C291.123 166.179 290.804 166.858 290.444 167.377C292.322 167.697 295.877 168.536 295.997 170.413C296.117 172.171 292.641 173.329 290.884 173.809C292.282 175.686 293.92 178.443 292.761 179.681C291.803 180.72 289.406 179.921 287.528 178.962C287.209 178.802 286.849 178.603 286.609 178.483C286.37 180.32 285.571 183.796 283.693 183.836C283.414 183.876 283.134 183.796 282.934 183.676C281.736 183.037 280.857 180.959 280.338 179.481C279.818 180.999 278.62 184.155 276.742 187.631C278.54 187.751 281.816 188.11 284.332 189.668C284.532 189.788 284.652 189.988 284.652 190.147C284.652 190.307 284.692 190.587 284.532 190.747C282.535 193.303 277.621 197.298 272.708 194.662C272.628 194.622 272.508 194.542 272.428 194.542C270.191 197.538 267.554 200.414 264.398 202.451C264.159 202.571 263.879 202.611 263.639 202.451C263.52 202.371 263.44 202.331 263.32 202.212C263.08 201.852 263.16 201.373 263.52 201.173C267.714 198.457 271.15 194.102 273.626 189.908C268.952 187.271 269.352 181.119 270.271 178.163C270.351 177.963 270.471 177.764 270.67 177.724C270.87 177.644 271.07 177.604 271.269 177.724C272.108 178.083 272.867 178.563 273.546 179.042C273.507 177.644 274.385 175.726 275.184 174.368C274.106 174.128 272.428 173.769 271.23 173.17C270.351 172.73 269.672 172.131 269.632 171.372C269.512 169.614 272.907 168.496 274.745 167.976C273.507 166.059 271.829 163.223 272.947 162.024ZM282.095 159.388C281.616 159.468 280.777 161.625 280.497 164.181C280.737 164.381 280.937 164.501 281.017 164.541C281.896 165.3 282.335 166.419 282.215 167.497C282.495 167.457 282.854 167.417 283.134 167.497C283.054 167.297 283.054 167.138 283.014 166.858C282.974 165.939 283.254 165.02 283.853 164.381C283.933 164.261 284.053 164.141 284.332 163.982C283.693 161.585 282.575 159.468 282.095 159.388ZM275.144 179.202C275.664 179.481 278.38 178.163 280.058 176.845C280.098 176.765 280.138 176.725 280.178 176.765C280.338 176.605 280.537 176.365 280.697 176.206C281.456 175.367 281.336 174.088 280.497 173.329C280.378 173.21 280.178 173.09 280.058 173.01C279.738 172.85 279.339 172.73 278.979 172.77C278.46 172.81 277.901 173.05 277.541 173.409C276.223 174.927 274.745 178.643 275.144 179.202ZM284.332 172.171C284.692 171.772 284.852 171.292 284.812 170.773C284.812 170.293 284.532 169.814 284.133 169.455C284.013 169.335 283.893 169.255 283.693 169.135C282.974 168.775 281.935 168.895 281.376 169.494C281.017 169.894 280.857 170.373 280.897 170.893C280.897 171.372 281.176 171.851 281.576 172.211C281.975 172.57 282.495 172.77 283.014 172.69C283.453 172.73 284.013 172.491 284.332 172.171ZM290.604 162.464C290.085 162.184 287.368 163.502 285.691 164.821C285.651 164.901 285.611 164.94 285.571 164.901C285.411 165.06 285.211 165.3 285.051 165.46C284.692 165.859 284.492 166.379 284.572 166.898C284.652 167.417 284.892 167.937 285.291 168.336C286.17 169.095 287.448 169.055 288.247 168.216C289.526 166.698 291.004 162.983 290.604 162.464ZM294.559 170.413C294.439 169.934 292.282 169.095 289.605 168.696C289.526 168.895 289.326 169.055 289.206 169.135C288.447 169.974 287.249 170.333 286.13 170.174C286.13 170.333 286.25 170.453 286.25 170.653C286.25 170.813 286.25 170.973 286.21 171.052C286.41 170.973 286.569 171.012 286.849 170.973C287.768 170.973 288.727 171.292 289.406 171.891C289.526 171.971 289.645 172.091 289.845 172.371C292.402 171.931 294.479 170.893 294.559 170.413ZM291.683 178.642C291.962 178.043 290.045 174.448 288.447 173.09C288.327 172.97 288.127 172.85 288.008 172.77C287.688 172.61 287.288 172.491 286.929 172.531C286.41 172.57 285.85 172.81 285.491 173.17C285.131 173.569 284.932 174.088 285.011 174.608C285.091 175.127 285.331 175.646 285.73 176.046C287.288 177.444 291.163 179.002 291.683 178.642ZM283.653 182.238C284.133 182.158 284.932 180.041 285.251 177.444C285.011 177.244 284.812 177.124 284.732 177.085C284.013 176.485 283.573 175.567 283.533 174.688C283.533 174.528 283.573 174.288 283.573 174.128C283.414 174.128 283.254 174.208 283.094 174.208C282.934 174.208 282.814 174.248 282.655 174.248C282.894 175.247 282.615 176.445 281.856 177.244C281.776 177.364 281.656 177.484 281.376 177.644C282.015 180.121 283.174 182.158 283.653 182.238ZM280.138 192.664C281.376 191.905 282.255 190.986 282.814 190.387C280.258 189.229 277.182 189.029 275.983 188.989C275.184 190.387 274.345 191.865 273.347 193.263C275.464 194.342 277.701 194.102 280.138 192.664ZM274.465 188.589C274.545 188.39 274.665 188.19 274.745 187.99C274.825 187.87 274.825 187.791 274.905 187.671C275.584 186.392 276.143 185.234 276.742 184.115C276.023 183.197 274.066 180.76 271.589 179.362C271.23 181.399 270.67 186.432 274.465 188.589ZM277.421 182.637C277.981 181.359 278.38 180.28 278.7 179.481C277.621 180.081 276.543 180.56 275.584 180.64C276.383 181.359 276.982 182.078 277.421 182.637ZM271.19 171.212C271.309 171.692 273.467 172.531 276.143 172.93C276.343 172.69 276.423 172.531 276.463 172.451C277.062 171.772 277.981 171.332 278.899 171.332C279.179 171.292 279.299 171.372 279.459 171.372C279.459 171.212 279.419 171.092 279.419 170.933C279.419 170.773 279.419 170.613 279.419 170.453C278.66 170.613 277.781 170.493 277.062 170.134C276.782 170.014 276.543 169.774 276.343 169.574C276.223 169.494 276.103 169.375 275.903 169.095C273.387 169.734 271.269 170.773 271.19 171.212ZM276.622 167.897C276.702 167.937 276.742 168.016 276.782 168.056C276.942 168.216 277.182 168.416 277.341 168.576C277.741 168.935 278.3 169.175 278.86 169.095C279.379 169.055 279.938 168.815 280.298 168.456C281.057 167.617 280.937 166.339 280.098 165.58C279.938 165.42 279.738 165.3 279.499 165.1C279.419 165.06 279.379 165.02 279.299 164.98C278.86 164.661 278.38 164.421 277.941 164.181C276.343 163.343 274.545 162.743 274.146 162.983C273.826 163.502 275.224 166.179 276.622 167.897Z" fill="#979797"/>
    <path d="M151.133 164.78C149.535 164.1 147.658 164.14 145.141 164.86C142.385 165.658 140.667 166.817 139.748 168.495C138.829 170.173 138.75 172.33 139.549 175.086C140.987 180 145.141 186.152 149.096 187.67L150.015 190.865C149.096 191.465 148.617 192.703 148.936 193.782C149.136 194.461 149.575 195.02 150.175 195.34C150.774 195.659 151.493 195.739 152.172 195.539C152.931 195.34 153.45 194.78 153.77 194.341C154.289 194.541 155.008 194.7 155.767 194.461C156.446 194.261 157.006 193.822 157.325 193.222C157.645 192.623 157.725 191.904 157.525 191.225C157.325 190.546 156.886 189.987 156.287 189.667C155.887 189.467 155.488 189.347 155.048 189.347L154.129 186.152C154.329 185.912 154.489 185.632 154.689 185.313C156.766 181.558 156.686 174.767 155.408 170.412C154.489 167.456 153.091 165.619 151.133 164.78ZM153.81 190.426C153.93 190.825 154.329 191.065 154.729 190.945C155.008 190.865 155.328 190.905 155.568 191.025C155.847 191.185 156.007 191.425 156.127 191.704C156.287 192.264 155.927 192.943 155.368 193.103C154.809 193.262 154.129 192.943 153.93 192.823C153.77 192.703 153.53 192.703 153.33 192.743C153.131 192.783 152.971 192.943 152.851 193.142C152.731 193.382 152.332 194.021 151.773 194.181C151.493 194.261 151.173 194.221 150.934 194.101C150.654 193.941 150.494 193.702 150.374 193.422C150.215 192.863 150.574 192.184 151.133 192.024C151.533 191.904 151.773 191.505 151.653 191.105L150.774 188.069C151.173 188.069 151.533 188.029 151.892 187.909C152.252 187.789 152.611 187.63 152.931 187.39L153.81 190.426ZM153.93 170.892C155.248 175.446 155.008 181.638 153.33 184.674C152.811 185.632 152.172 186.232 151.453 186.471C148.177 187.43 142.704 180.559 140.987 174.687C140.308 172.37 140.348 170.572 141.067 169.254C141.786 167.935 143.224 167.017 145.581 166.338C147.738 165.698 149.296 165.658 150.574 166.178C152.092 166.817 153.211 168.335 153.93 170.892ZM143.144 171.171C143.543 171.131 143.903 171.451 143.943 171.89C144.023 173.608 144.782 175.605 146.26 178.042C146.38 178.282 146.38 178.562 146.26 178.801C146.18 178.921 146.1 179.001 145.98 179.081C145.621 179.281 145.181 179.161 144.941 178.841C143.344 176.165 142.545 174.008 142.425 172.01C142.425 171.531 142.744 171.171 143.144 171.171Z" fill="#979797"/>
    <path d="M173.633 155.425C172.574 154.049 170.918 153.163 168.373 152.555C165.579 151.899 163.514 152.066 161.89 153.077C160.266 154.088 159.138 155.929 158.482 158.723C157.325 163.71 157.927 171.109 160.628 174.372L159.861 177.607C158.767 177.679 157.741 178.523 157.491 179.619C157.331 180.309 157.44 181.012 157.805 181.584C158.171 182.157 158.758 182.579 159.448 182.738C160.207 182.937 160.934 182.704 161.428 182.478C161.783 182.907 162.331 183.399 163.11 183.562C163.8 183.721 164.503 183.613 165.075 183.247C165.647 182.882 166.07 182.295 166.229 181.605C166.388 180.915 166.28 180.212 165.914 179.64C165.664 179.27 165.375 178.969 164.992 178.754L165.759 175.518C166.051 175.407 166.327 175.242 166.658 175.062C170.31 172.809 173.572 166.852 174.595 162.43C175.244 159.404 174.927 157.116 173.633 155.425ZM163.384 179.086C163.292 179.493 163.523 179.898 163.929 179.989C164.212 180.057 164.471 180.249 164.621 180.471C164.787 180.747 164.808 181.034 164.775 181.337C164.64 181.902 163.994 182.318 163.428 182.183C162.862 182.048 162.427 181.436 162.312 181.234C162.232 181.051 162.023 180.933 161.829 180.87C161.636 180.807 161.418 180.868 161.216 180.983C160.994 181.133 160.332 181.494 159.766 181.359C159.483 181.291 159.224 181.1 159.074 180.878C158.909 180.601 158.887 180.314 158.92 180.011C159.055 179.446 159.702 179.03 160.267 179.165C160.674 179.257 161.079 179.027 161.171 178.62L161.894 175.543C162.242 175.739 162.575 175.88 162.947 175.952C163.32 176.024 163.711 176.062 164.107 176.009L163.384 179.086ZM173.072 162.123C171.986 166.738 168.74 172.016 165.788 173.838C164.865 174.419 164.014 174.628 163.27 174.484C159.945 173.712 158.547 165.04 159.931 159.08C160.476 156.728 161.393 155.181 162.666 154.385C163.94 153.589 165.643 153.494 168.03 154.059C170.224 154.56 171.601 155.289 172.46 156.369C173.469 157.671 173.699 159.542 173.072 162.123ZM163.536 157.075C163.903 157.236 164.06 157.691 163.879 158.094C163.106 159.63 162.787 161.742 162.88 164.591C162.867 164.859 162.73 165.102 162.508 165.252C162.379 165.318 162.27 165.348 162.127 165.359C161.715 165.357 161.391 165.037 161.339 164.64C161.26 161.524 161.622 159.253 162.498 157.453C162.733 157.036 163.188 156.879 163.536 157.075Z" fill="#979797"/>
    <path d="M178.516 174.512C177.816 180.891 189.129 180.777 188.429 174.512C188.134 171.757 185.518 171.606 183.454 172.55C181.464 171.644 178.811 171.719 178.516 174.512ZM195.762 157.302C198.304 155.83 200.11 156.246 201.731 158.737C200.147 160.322 198.415 161.341 196.204 160.246C196.72 162.737 197.604 167.832 197.678 173.418C200.331 172.663 203.021 174.022 203.316 177.003C204.237 185.306 189.718 185.57 190.64 177.003C190.971 174.022 193.624 172.663 196.277 173.38C196.167 167.228 195.098 161.756 194.693 159.718C189.534 162.171 186.144 167.908 184.781 170.587C187.25 170.172 189.497 171.682 189.792 174.361C190.713 182.702 176.158 182.891 177.116 174.361C177.448 171.191 180.359 169.908 183.086 170.889C184.044 168.813 187.507 162.133 193.182 158.925C189.166 157.34 188.244 153.868 188.871 149.792C193.624 149.754 195.504 152.698 195.762 157.302ZM199.852 158.51C198.709 157.453 197.236 158.095 196.314 158.623C197.493 159.454 198.709 159.416 199.852 158.51ZM194.398 157.755C194.324 155.906 193.809 151.641 190.087 151.264C189.792 154.547 191.303 156.887 194.398 157.755ZM199.557 176.814C199.299 176.437 200.183 175.569 200.441 175.946C200.441 175.946 201.436 177.494 200.331 179.796C200.147 180.211 199.336 179.494 199.557 179.041C200.478 177.154 199.557 176.814 199.557 176.814ZM192.04 177.154C191.34 183.57 202.652 183.344 201.952 177.154C201.657 174.399 199.041 174.248 197.014 175.192C194.988 174.286 192.335 174.324 192.04 177.154ZM186.107 174.135C185.849 173.757 186.66 172.927 186.918 173.305C186.918 173.305 187.95 174.852 186.807 177.154C186.586 177.569 185.886 176.664 186.107 176.211C187.028 174.324 186.107 174.135 186.107 174.135Z" fill="#979797"/>
    <path d="M247.59 157.734L245.912 160.611L247.59 163.487H250.945L252.623 160.611L250.945 157.734H247.59ZM245.912 167.921L247.59 170.797H250.945L252.623 167.921L250.945 165.045H247.59L245.912 167.921ZM247.59 172.355L245.912 175.232L247.59 178.108H250.945L252.623 175.232L250.945 172.355H247.59ZM244.594 176.03H240.359L237.802 171.596L239.92 167.921L237.802 164.246L240.359 159.812H244.594L246.711 156.137H251.824L253.941 159.812H258.176L260.293 163.487H264.527L267.084 167.921L264.967 171.596L267.084 175.271L264.527 179.706H260.293L258.176 183.381H253.062L250.945 179.706H246.711L244.594 176.03ZM241.238 168.72L239.56 171.596L241.238 174.473H244.594L246.271 171.596L244.594 168.72H241.238ZM244.594 161.41H241.238L239.56 164.286L241.238 167.162H244.594L246.271 164.286L244.594 161.41ZM252.264 164.286L253.941 167.162H257.297L258.975 164.286L257.297 161.41H253.941L252.264 164.286ZM253.941 168.72L252.264 171.596L253.941 174.473H257.297L258.975 171.596L257.297 168.72H253.941ZM258.975 178.907L257.297 176.03H253.941L252.264 178.907L253.941 181.783H257.297L258.975 178.907ZM258.615 175.271L260.293 178.148H263.649L265.326 175.271L263.649 172.395H260.293L258.615 175.271ZM258.615 167.921L260.293 170.797H263.649L265.326 167.921L263.649 165.045H260.293L258.615 167.921Z" fill="#979797"/>
    <path d="M207.446 163.601C206.992 163.136 206.305 163.822 206.758 164.288C207.224 164.732 207.912 164.046 207.446 163.601Z" fill="black" stroke="black" stroke-width="0.4"/>
    <path d="M208.121 160.523C207.676 160.091 207.001 160.756 207.434 161.209C207.92 161.666 208.608 160.98 208.121 160.523Z" fill="black" stroke="black" stroke-width="0.4"/>
    <path d="M207.118 166.662C206.664 166.196 205.976 166.883 206.43 167.348C206.883 167.813 207.571 167.127 207.118 166.662Z" fill="black" stroke="black" stroke-width="0.4"/>
    <path d="M213.08 165.456C212.635 165.024 211.959 165.69 212.392 166.143C212.866 166.62 213.554 165.934 213.08 165.456Z" fill="black" stroke="black" stroke-width="0.4"/>
    <path d="M217.278 165.758C218.337 164.871 218.364 163.596 218.027 162.414C217.665 161.133 216.854 160.371 216.593 159.628C216.227 159.158 217.09 158.744 217.414 158.291C218.211 157.136 216.373 155.316 215.234 156.1C214.814 156.384 214.38 157.305 213.91 156.914C213.034 156.31 212.162 155.793 211.113 155.479C209.915 155.134 208.678 155.185 207.793 156.204C205.929 156.698 204.593 158.571 203.777 160.752C202.952 162.9 201.958 167.698 204.004 169.641C206.05 171.585 210.825 170.488 212.816 169.733C214.952 168.924 216.758 167.582 217.278 165.758ZM210.832 156.379C211.649 156.611 212.64 157.115 213.314 157.683C214.34 158.46 214.813 157.898 215.344 157.287C216.101 156.39 217.141 157.427 216.242 158.185C215.641 158.726 215.064 159.226 215.847 160.223C216.401 160.945 216.869 161.812 217.13 162.696C217.223 163.06 217.295 163.411 217.281 163.767C217.168 163.532 217.042 163.317 216.859 163.153C216.406 162.687 215.759 162.5 215.208 162.342C214.678 162.195 214.358 162.118 214.736 161.388C214.945 161.035 214.599 160.577 214.19 160.699C213.88 160.796 212.95 161.087 212.667 160.807C212.384 160.526 212.69 159.585 212.788 159.279C212.914 158.877 212.486 158.51 212.135 158.723C211.496 159.186 211.303 158.707 211.164 158.231C210.891 157.368 210.614 156.558 209.743 156.182C210.086 156.217 210.459 156.298 210.832 156.379ZM212.456 168.874C210.886 169.486 206.326 170.598 204.617 168.939C202.883 167.321 203.981 162.725 204.61 161.05C205.214 159.416 206.138 158 207.331 157.361C209.676 156.058 209.858 157.737 210.494 159.125C210.745 159.695 211.094 159.817 211.702 159.785C211.629 160.05 211.622 160.299 211.639 160.505C211.664 161.362 212.246 161.847 213.091 161.843C213.264 161.834 213.492 161.829 213.69 161.778C213.7 161.952 213.688 162.113 213.726 162.333C213.845 162.936 214.43 163.086 214.96 163.233C216.009 163.546 216.665 163.907 216.431 165.2L216.406 165.241C216.158 166.89 214.48 168.111 212.456 168.874Z" fill="black" stroke="black" stroke-width="0.4"/>
    <path d="M210.183 166.32C209.73 165.854 209.042 166.541 209.496 167.006C209.961 167.451 210.637 166.785 210.183 166.32Z" fill="black" stroke="black" stroke-width="0.4"/>
    <path d="M210.526 162.903C210.072 162.437 209.384 163.124 209.838 163.589C210.291 164.055 210.979 163.368 210.526 162.903Z" fill="black" stroke="black" stroke-width="0.4"/>
    <path d="M229.516 164.02C230.053 163.684 230.546 164.493 230.009 164.829C229.465 165.143 228.972 164.334 229.516 164.02Z" fill="black" stroke="black" stroke-width="0.4"/>
    <path d="M229.587 160.947C230.108 160.64 230.594 161.427 230.08 161.756C229.513 162.077 229.02 161.268 229.587 160.947Z" fill="black" stroke="black" stroke-width="0.4"/>
    <path d="M229.12 166.995C229.657 166.659 230.15 167.468 229.613 167.805C229.076 168.141 228.583 167.332 229.12 166.995Z" fill="black" stroke="black" stroke-width="0.4"/>
    <path d="M223.748 164.477C224.27 164.17 224.756 164.957 224.241 165.286C223.682 165.629 223.188 164.82 223.748 164.477Z" fill="black" stroke="black" stroke-width="0.4"/>
    <path d="M219.7 163.793C218.901 162.708 219.17 161.494 219.762 160.452C220.402 159.321 221.346 158.787 221.764 158.142C222.22 157.781 221.498 157.19 221.295 156.686C220.806 155.407 222.969 154.107 223.867 155.113C224.2 155.479 224.399 156.452 224.934 156.19C225.904 155.82 226.849 155.531 227.916 155.476C229.131 155.425 230.291 155.76 230.894 156.93C232.547 157.828 233.38 159.912 233.65 162.167C233.936 164.393 233.77 169.17 231.382 170.538C228.995 171.907 224.723 169.766 223.01 168.591C221.173 167.33 219.772 165.642 219.7 163.793ZM227.974 156.394C227.147 156.425 226.091 156.674 225.321 157.056C224.169 157.555 223.851 156.914 223.489 156.213C222.979 155.187 221.754 155.93 222.43 156.856C222.875 157.508 223.306 158.114 222.334 158.879C221.642 159.435 220.999 160.148 220.547 160.926C220.375 161.249 220.225 161.565 220.157 161.906C220.319 161.709 220.487 161.535 220.698 161.421C221.235 161.085 221.891 161.057 222.45 161.034C222.987 161.018 223.307 161.018 223.118 160.239C223.002 159.856 223.435 159.503 223.794 159.713C224.066 159.876 224.88 160.366 225.213 160.166C225.545 159.966 225.473 159.003 225.451 158.69C225.424 158.28 225.915 158.032 226.198 158.314C226.697 158.9 226.99 158.491 227.232 158.073C227.69 157.317 228.14 156.614 229.052 156.458C228.718 156.413 228.346 156.403 227.974 156.394ZM223.55 167.86C224.896 168.802 228.96 170.909 230.963 169.731C232.98 168.598 233.001 163.99 232.792 162.257C232.596 160.569 232.047 159.014 231.065 158.133C229.144 156.356 228.583 157.906 227.66 159.074C227.291 159.556 226.932 159.591 226.363 159.421C226.371 159.689 226.321 159.926 226.256 160.118C226.035 160.924 225.371 161.249 224.572 161.05C224.409 161.002 224.195 160.944 224.019 160.85C223.97 161.013 223.944 161.168 223.857 161.367C223.605 161.912 223.016 161.919 222.48 161.935C221.413 161.99 220.709 162.181 220.631 163.46L220.645 163.505C220.5 165.124 221.808 166.669 223.55 167.86Z" fill="black" stroke="black" stroke-width="0.4"/>
    <path d="M226.294 165.964C226.831 165.628 227.324 166.437 226.787 166.773C226.243 167.087 225.757 166.3 226.294 165.964Z" fill="black" stroke="black" stroke-width="0.4"/>
    <path d="M226.759 162.647C227.296 162.311 227.789 163.12 227.252 163.456C226.715 163.792 226.221 162.983 226.759 162.647Z" fill="black" stroke="black" stroke-width="0.4"/>
    <path d="M318.846 143C318.164 142.034 317.528 141.861 316.346 141.861L145.346 142C144.042 142 143.166 142 142.575 142.412C141.865 142.906 141.823 144.1 142.497 144.643C142.94 145 143.603 145 144.846 145H316.846L278.546 239.293H149.846L119.346 143.5C118.959 142.075 116.346 132 107.021 125.873C100.275 121.837 92.0533 120.91 82.588 123.306C80.6433 123.799 79.3458 124.5 80.3458 126.5C81.3458 127.5 82.9036 126.998 84.8458 126.5C94.5871 124.029 104.334 127.273 109.846 133C114.121 137.443 116.335 144.96 116.346 145C117.055 144.724 116.368 145.085 116.346 145L156.346 270.5C156.819 272.017 157.256 272.5 158.846 272.5L278.346 273C280.352 273 281.105 273.506 281.105 271.5C281.105 269.493 280.352 269.5 278.346 269.5H159.346L150.846 242.5H278.346C279.88 242.5 280.589 242.443 281.105 241L319.346 146C319.744 144.888 319.525 143.969 318.846 143Z" fill="black"/>
    <circle cx="169.846" cy="304" r="21.5" stroke="black" stroke-width="3"/>
    <circle cx="272.846" cy="304" r="21.5" stroke="black" stroke-width="3"/>
    <line x1="212.972" y1="122.879" x2="248.879" y2="86.0275" stroke="black" stroke-width="3" stroke-linecap="round"/>
    <line x1="195.121" y1="105" x2="212.503" y2="122.382" stroke="black" stroke-width="3" stroke-linecap="round"/>
    </svg>
