<svg xmlns="http://www.w3.org/2000/svg" width="355.98" height="392.946" viewBox="0 0 355.98 392.946">
  <g id="_18" data-name="18" transform="translate(0.405 0.573)">
    <circle id="Oval" cx="0.804" cy="0.804" r="0.804" transform="translate(345.814 126.4)" fill="none" stroke="#000" stroke-miterlimit="10" stroke-width="1"/>
    <path id="Shape" d="M49.989,79.074c-1.477,0-2.932-.066-4.326-.2l7.461.1C52.053,79.043,51,79.074,49.989,79.074Zm-5.569-.331c-1.137-.141-2.25-.328-3.309-.554l3.309.552Zm-4.653-.868c-1.054-.268-2.091-.584-3.081-.941l3.082.939Zm-4.422-1.46c-.558-.231-1.1-.475-1.619-.726l1.62.724Zm-3.952-1.988A30.2,30.2,0,0,1,18.315,57.075L31.4,74.425ZM18.311,57.071,3.882,37.932a13.337,13.337,0,0,0,4.631,2.384,21.3,21.3,0,0,0,6.207.949A20.228,20.228,0,0,0,17.3,41.1c-.265,2.093-.448,4.165-.526,5.992a34.543,34.543,0,0,0,1.539,9.979ZM17.3,41.1h0A78.864,78.864,0,0,1,21.95,22.415c2.865-7.092,6.571-11.965,11.016-14.484a13.516,13.516,0,0,1,6.252-2.119A3.827,3.827,0,0,1,42.607,7.5a8.556,8.556,0,0,1,.986,5.33,21.391,21.391,0,0,1-1.537,6.333C38.737,26.553,29.789,39.485,17.3,41.1ZM3.074,37.191a10.033,10.033,0,0,1-1.9-2.731l1.9,2.73ZM.591,32.972a13.853,13.853,0,0,1-.551-2.859l.553,2.859ZM0,27.451H0c.219-4.13,1.643-9.034,4.234-14.574A82.374,82.374,0,0,1,11.818,0Z" transform="translate(299.526 27.33)" fill="none" stroke="#ff2d34" stroke-linecap="round" stroke-miterlimit="10" stroke-width="1"/>
    <path id="Shape-2" data-name="Shape" d="M17,26.874c-.5,0-1-.023-1.479-.068l2.536.036C17.685,26.864,17.33,26.874,17,26.874Zm-1.93-.116c-.383-.048-.751-.111-1.095-.185l1.095.183Zm-1.577-.3c-.347-.089-.691-.194-1.022-.314l1.022.312Zm-2.823-1.167a10.266,10.266,0,0,1-4.443-5.9l4.444,5.894Zm-4.446-5.9-4.9-6.5a4.514,4.514,0,0,0,1.573.809A7.244,7.244,0,0,0,5,14.023a6.881,6.881,0,0,0,.877-.056h0A26.811,26.811,0,0,1,7.46,7.617,9.47,9.47,0,0,1,11.2,2.695a4.593,4.593,0,0,1,2.124-.72,1.3,1.3,0,0,1,1.152.575c.613.912.332,2.695-.187,3.965-1.128,2.51-4.168,6.9-8.412,7.452h0c-.09.708-.152,1.412-.179,2.037a11.743,11.743,0,0,0,.522,3.388ZM1.039,12.634A3.406,3.406,0,0,1,.4,11.711l.643.922ZM0,9.326H0C.161,6.328,2.18,2.543,4.016,0Z" transform="translate(50.413 224.53)" fill="none" stroke="#000" stroke-linecap="round" stroke-miterlimit="10" stroke-width="1"/>
    <circle id="Oval-2" data-name="Oval" cx="0.804" cy="0.804" r="0.804" transform="translate(338.869 232.785)" fill="none" stroke="#000" stroke-miterlimit="10" stroke-width="1"/>
    <circle id="Oval-3" data-name="Oval" cx="0.804" cy="0.804" r="0.804" transform="translate(237.955 163.828)" fill="none" stroke="#000" stroke-miterlimit="10" stroke-width="1"/>
    <circle id="Oval-4" data-name="Oval" cx="0.804" cy="0.804" r="0.804" transform="translate(13.033 145.211)" fill="none" stroke="#000" stroke-miterlimit="10" stroke-width="1"/>
    <circle id="Oval-5" data-name="Oval" cx="0.804" cy="0.804" r="0.804" transform="translate(19.317 326.296)" fill="none" stroke="#000" stroke-miterlimit="10" stroke-width="1"/>
    <circle id="Oval-6" data-name="Oval" cx="0.804" cy="0.804" r="0.804" transform="translate(244.931 15.896)" fill="none" stroke="#000" stroke-miterlimit="10" stroke-width="1"/>
    <circle id="Oval-7" data-name="Oval" cx="0.804" cy="0.804" r="0.804" transform="translate(92.557 268.53)" fill="none" stroke="#000" stroke-miterlimit="10" stroke-width="1"/>
    <circle id="Oval-8" data-name="Oval" cx="0.804" cy="0.804" r="0.804" transform="translate(80.384 41.725)" fill="none" stroke="#000" stroke-miterlimit="10" stroke-width="1"/>
    <path id="Path" d="M0,0,4.426,3.221" transform="translate(104.609 203.017)" fill="none" stroke="#000" stroke-linecap="round" stroke-miterlimit="10" stroke-width="1"/>
    <path id="Path-2" data-name="Path" d="M0,0,4.427,3.22" transform="translate(143.99 0.125)" fill="none" stroke="#000" stroke-linecap="round" stroke-miterlimit="10" stroke-width="1"/>
    <path id="Path-3" data-name="Path" d="M4.491,0,0,3.129" transform="translate(225.942 309.861)" fill="none" stroke="#000" stroke-linecap="round" stroke-miterlimit="10" stroke-width="1"/>
    <path id="Path-4" data-name="Path" d="M4.492,0,0,3.129" transform="translate(345.777 369.951)" fill="none" stroke="#000" stroke-linecap="round" stroke-miterlimit="10" stroke-width="1"/>
    <path id="Path-5" data-name="Path" d="M4.492,0,0,3.129" transform="translate(274.806 191.514)" fill="none" stroke="#000" stroke-linecap="round" stroke-miterlimit="10" stroke-width="1"/>
    <path id="Path-6" data-name="Path" d="M4.492,0,0,3.129" transform="translate(75.289 327.727)" fill="none" stroke="#000" stroke-linecap="round" stroke-miterlimit="10" stroke-width="1"/>
    <path id="Path-7" data-name="Path" d="M4.492,0,0,3.129" transform="translate(0.291 60.009)" fill="none" stroke="#000" stroke-linecap="round" stroke-miterlimit="10" stroke-width="1"/>
    <path id="Path-8" data-name="Path" d="M0,2,5.1,0" transform="translate(299.526 83.749)" fill="none" stroke="#000" stroke-linecap="round" stroke-miterlimit="10" stroke-width="1"/>
    <path id="Path-9" data-name="Path" d="M0,0,2.978,4.593" transform="translate(339.592 3.345)" fill="none" stroke="#000" stroke-linecap="round" stroke-miterlimit="10" stroke-width="1"/>
    <path id="Path-10" data-name="Path" d="M0,0,2.978,4.593" transform="translate(1.805 252.236)" fill="none" stroke="#000" stroke-linecap="round" stroke-miterlimit="10" stroke-width="1"/>
    <path id="Path-11" data-name="Path" d="M0,7.511c2.743-5.668,12.944-13.6,31.81,0s31.263,5.667,35.1,0" transform="translate(287.969 162.121)" fill="none" stroke="#000" stroke-linecap="round" stroke-miterlimit="10" stroke-width="1"/>
    <path id="Path-12" data-name="Path" d="M0,3C1.1.736,5.172-2.434,12.709,3S25.2,5.264,26.733,3" transform="translate(325.343 195.246)" fill="none" stroke="#000" stroke-linecap="round" stroke-miterlimit="10" stroke-width="1"/>
    <circle id="Oval-9" data-name="Oval" cx="7.774" cy="7.774" r="7.774" transform="translate(199.23 376.826)"/>
    <circle id="Oval-10" data-name="Oval" cx="7.774" cy="7.774" r="7.774" transform="translate(87.247 376.826)"/>
    <path id="Shape-3" data-name="Shape" d="M121.95,168.41,57.071,148.186c-11.5-3.949-35.627-17.108-44.654-38.647C9.566,103.681,3.048,79.208,0,67.086L44.656,28.439,65.48,100.126l70.286,17.222L121.95,168.41h0Z" transform="translate(166.166 121.832)" fill="none" stroke="#000" stroke-linecap="round" stroke-miterlimit="10" stroke-width="1"/>
    <path id="Path-13" data-name="Path" d="M27.313,0,0,116.743" transform="translate(143.063 205.155)" fill="none" stroke="#000" stroke-miterlimit="10" stroke-width="1"/>
    <path id="Path-14" data-name="Path" d="M0,0,12.3,74.656l80.937,17.3" transform="translate(207.004 152.638)" fill="none" stroke="#000" stroke-miterlimit="10" stroke-width="1"/>
    <path id="Path-15" data-name="Path" d="M52.546,61.516l-1.514,93.415L0,148.877,7.555,0" transform="translate(126.326 170.979)" fill="none" stroke="#000" stroke-linecap="round" stroke-miterlimit="10" stroke-width="1"/>
    <path id="Path-16" data-name="Path" d="M15.233,1.7c6.172,5.192,5.355,16.05,4.175,20.83-2.033,0-3.087.635-3.358.953,1.407-4.493,2.723-10.846-1.407-10.347C5.712,14.148.983,12.315,0,11.287.529,9.3,7.519-4.794,15.233,1.7Z" transform="translate(156.931 27.33)"/>
    <path id="Path-17" data-name="Path" d="M30.652,4.042C29.628,3.611,9.791,1.168,0,0" transform="translate(145.091 36.108)" fill="none" stroke="#000" stroke-linecap="round" stroke-miterlimit="10" stroke-width="1"/>
    <path id="Path-18" data-name="Path" d="M1.671,0C.172,3.978-1.678,13.9,2.9,21.738a7.147,7.147,0,0,0,1.671,1.828c3.42,2.695,7.479,1.123,9.081,0a12.928,12.928,0,0,0,3-2.963,22.061,22.061,0,0,0,2.324-4.217" transform="translate(155.927 38.556)" fill="none" stroke="#000" stroke-linecap="round" stroke-miterlimit="10" stroke-width="1"/>
    <path id="Shape-4" data-name="Shape" transform="translate(161.37 58.737)" fill="none" stroke="#000" stroke-linecap="round" stroke-miterlimit="10" stroke-width="1"/>
    <path id="Path-19" data-name="Path" d="M5,3.017A6.5,6.5,0,0,1,0,2.6L.5,6C6.424,7.829,9.764,2.9,10.54,0A25.1,25.1,0,0,1,5,3.017Z" transform="translate(161.604 60.442)"/>
    <path id="Path-20" data-name="Path" d="M0,5.777c1.333.231,4.112-.1,4.752-2.215C5.552.924,3.6-.662,1.377.268" transform="translate(172.978 49.196)" fill="none" stroke="#000" stroke-linecap="round" stroke-miterlimit="10" stroke-width="1"/>
    <path id="Path-21" data-name="Path" d="M0,0C1.065,0,3.716.563,4.507,2.479s-.136,6.873-1.656,9.458c.8-.228,1.975-.342,3.725-2.585" transform="translate(156.355 44.385)" fill="none" stroke="#000" stroke-linecap="round" stroke-miterlimit="10" stroke-width="1"/>
    <path id="Path-22" data-name="Path" d="M0,.956a3.755,3.755,0,0,1,5.214.215" transform="translate(165.345 44.986)" fill="none" stroke="#000" stroke-linecap="round" stroke-miterlimit="10" stroke-width="1"/>
    <path id="Path-23" data-name="Path" d="M4.761,0A3.758,3.758,0,0,1,0,2.143" transform="translate(162.75 56.03)" fill="none" stroke="#000" stroke-linecap="round" stroke-miterlimit="10" stroke-width="1"/>
    <path id="Path-24" data-name="Path" d="M0,1.455A3.216,3.216,0,0,1,3.005.022" transform="translate(173.122 51.109)" fill="none" stroke="#000" stroke-linecap="round" stroke-miterlimit="10" stroke-width="1"/>
    <path id="Path-25" data-name="Path" d="M0,1.274a2.9,2.9,0,0,1,4.786,0" transform="translate(165.437 47.582)" fill="none" stroke="#000" stroke-linecap="round" stroke-miterlimit="10" stroke-width="1"/>
    <path id="Path-26" data-name="Path" d="M0,1.274a2.9,2.9,0,0,1,4.786,0" transform="translate(156.114 47.408)" fill="none" stroke="#000" stroke-linecap="round" stroke-miterlimit="10" stroke-width="1"/>
    <path id="Path-27" data-name="Path" d="M61.734,12.76l9.705,16.175L40.133,49.961c-4.637,0-25.293.888-27.259,1.039-4.2.035-3.164,3.6-1.407,4.435l9.444,3.6L1.6,63.718C-1.216,64.76.207,67.533,1.887,67.4l5.426-.421c-.924.484-2.927,1.567-3.551,2.027A3.094,3.094,0,0,0,2.73,70.325c-.807,2.377,1.393,3.364,2.892,2.764-1.279,3.449,2.193,4.267,3.75,3.212-1.2,1.776.47,2.769,2.271,2.511l32.116-7.178L77.729,48.524c7.13-5.153,21.957-14.277,16.176-26.239S82.043,0,82.043,0" transform="translate(141.488 95.606)" fill="none" stroke="#000" stroke-linecap="round" stroke-miterlimit="10" stroke-width="1"/>
    <circle id="Oval-11" data-name="Oval" cx="0.978" cy="0.978" r="0.978" transform="translate(166.852 47.757)"/>
    <circle id="Oval-12" data-name="Oval" cx="0.978" cy="0.978" r="0.978" transform="translate(157.529 47.582)"/>
    <path id="Path-28" data-name="Path" d="M0,0C.425.139,1.09.723.356,1.943" transform="translate(174.627 51.492)" fill="none" stroke="#000" stroke-linecap="round" stroke-miterlimit="10" stroke-width="1"/>
    <path id="Path-29" data-name="Path" d="M17.99,5.3,32.82,3.514c1.053,1.415,4.145,4.095,7.651,3.316s5.887-3.785,6.094-5.094c2.547-.24,7.96-.728,13.6-1.523C71.766-1.363,80.153,6.237,82.9,10.234L98.468,33.322,76.633,49.25,69.116,37.975l3.759,21.119L44.06,65.716,35.109,11.611,0,17.994C6.558,8.825,14.725,5.711,17.99,5.3Z" transform="translate(128.561 64.015)" fill="#ff2d34"/>
    <path id="Path-30" data-name="Path" d="M1.553,8.346,0,0" transform="translate(194.622 90.058)" fill="none" stroke="#000" stroke-linecap="round" stroke-miterlimit="10" stroke-width="1"/>
    <path id="Shape-5" data-name="Shape" transform="translate(147.307 160.15)" fill="none" stroke="#000" stroke-linecap="round" stroke-miterlimit="10" stroke-width="1"/>
    <path id="Path-31" data-name="Path" d="M120.034,69.922,107.943,0,0,18.937l11.8,83.47,79.391-8.74" transform="translate(55.555 75.79)" fill="none" stroke="#000" stroke-miterlimit="10" stroke-width="1"/>
    <path id="Shape-6" data-name="Shape" transform="translate(55.555 75.79)" fill="none" stroke="#000" stroke-miterlimit="10" stroke-width="1"/>
    <path id="Path-32" data-name="Path" d="M0,17.552,1.043,2.971,13.538,1.262a3.574,3.574,0,0,0,3.827,2.861c.029.483,1.194,1.451,1.416,1.612C18.944,5.854,37.412,2,46.968,0l-.9,1.85Z" transform="translate(133.038 168.507)"/>
    <path id="Path-33" data-name="Path" d="M0,32.015H72.254V0H48.667l.786,7.523C45.6,8.055,37.329,9.232,35,9.682,11.8,12.985,2,25.947,0,32.015Z" transform="translate(98.699 331.827)"/>
    <path id="Shape-7" data-name="Shape" d="M72.255,41.569H0c2.076-6.3,12.065-19.068,35-22.333,2.305-.446,10.462-1.608,14.452-2.159l-.786-7.523H72.255V41.568Z" transform="translate(98.699 322.273)" fill="none" stroke="#000" stroke-miterlimit="10" stroke-width="1"/>
    <path id="Path-34" data-name="Path" d="M24.183.838,0,18.385V0Z" transform="translate(171.463 346.112)"/>
    <path id="Path-35" data-name="Path" d="M22.34,76.97,35.863,5.991,4.414,0,0,23.171l7.537.636c-.2,3.878-.591,12.229-.585,14.6C5.855,61.812,16.755,73.866,22.34,76.97Z" transform="translate(301.685 252.708)"/>
    <path id="Shape-8" data-name="Shape" d="M31.914,78.438v0h0c-5.8-3.222-16.47-15.426-15.386-38.561-.006-2.362.38-10.583.585-14.6l-7.535-.636L13.988,1.467l31.45,5.991L31.914,78.437Z" transform="translate(292.112 251.24)" fill="none" stroke="#000" stroke-miterlimit="10" stroke-width="1"/>
    <path id="Path-36" data-name="Path" d="M232.332,16.74c0,.9-.618,1.915-2.123,3.007a26.741,26.741,0,0,1-6.65,3.174c-5.855,2.057-14.362,3.918-24.913,5.486-21.095,3.132-50.255,5.073-82.48,5.073s-61.386-1.941-82.48-5.073c-10.551-1.568-19.058-3.429-24.913-5.486a26.737,26.737,0,0,1-6.65-3.174C.619,18.655,0,17.643,0,16.74s.619-1.915,2.123-3.007a26.737,26.737,0,0,1,6.65-3.174C14.628,8.5,23.135,6.639,33.686,5.073,54.78,1.941,83.942,0,116.166,0s61.385,1.941,82.48,5.073C209.2,6.639,217.7,8.5,223.558,10.559a26.741,26.741,0,0,1,6.65,3.174C231.713,14.825,232.332,15.836,232.332,16.74Z" transform="translate(36.433 345.803)" fill="none" stroke="#000" stroke-miterlimit="10" stroke-width="1"/>
  </g>
</svg>
