<svg width="414" height="302" viewBox="0 0 414 302" fill="none" xmlns="http://www.w3.org/2000/svg">
    <path d="M107.631 113.987C102.632 113.101 97.0112 113.994 91.9165 116.424C91.8406 116.479 91.7372 116.495 91.6612 116.549C90.0917 117.325 88.6045 118.216 87.1996 119.221C86.0225 120.064 84.9003 120.983 83.833 121.979C79.3423 126.296 76.312 131.77 75.5963 137.268C74.8239 143.329 76.9551 150.558 83.5914 152.126C90.2656 153.667 98.5016 150.09 105.298 145.224C109.009 142.625 112.325 139.556 115.235 136.081C117.075 133.836 119.32 130.315 119.653 126.367C119.735 125.439 119.713 124.526 119.523 123.619C119.36 122.75 119.067 121.859 118.659 121.049C116.903 117.552 112.76 114.894 107.631 113.987ZM116.862 121.988C117.495 123.273 117.77 124.7 117.642 126.125C117.379 128.806 115.985 131.833 113.676 134.704C107.277 142.532 93.449 152.258 84.1245 150.063C78.748 148.81 77.0434 142.899 77.7655 137.571C78.1381 135.043 78.9307 132.62 80.0947 130.395L87.9441 131.733C88.0749 131.755 88.2437 131.75 88.3471 131.734C88.4884 131.691 88.6298 131.648 88.7437 131.566C88.8576 131.485 88.9441 131.365 89.0305 131.245C89.117 131.125 89.1381 130.994 89.1591 130.863C89.1802 130.732 89.1738 130.563 89.1569 130.459C89.1125 130.317 89.0682 130.174 88.9858 130.059C88.9035 129.944 88.7832 129.857 88.6629 129.769C88.5427 129.681 88.4118 129.659 88.281 129.636L81.1786 128.46C82.1613 126.945 83.3024 125.49 84.5806 124.227L95.766 126.133C96.0276 126.178 96.3103 126.091 96.5381 125.928C96.766 125.765 96.9389 125.525 96.9536 125.225C96.9957 124.963 96.945 124.651 96.7803 124.421C96.6157 124.191 96.3751 124.016 96.1134 123.971L86.4979 122.333C87.116 121.832 87.772 121.305 88.4555 120.815C89.6705 119.945 90.9405 119.152 92.2547 118.501L103.571 120.429C103.702 120.452 103.871 120.447 103.974 120.431C104.077 120.415 104.257 120.344 104.371 120.263C104.484 120.181 104.571 120.061 104.657 119.942C104.744 119.822 104.765 119.691 104.786 119.56C104.807 119.429 104.801 119.259 104.784 119.155C104.739 119.013 104.695 118.871 104.613 118.756C104.53 118.641 104.41 118.553 104.29 118.465C104.17 118.378 104.039 118.355 103.908 118.333L95.8623 116.962C99.531 115.669 103.455 115.294 107.287 115.914C111.807 116.852 115.348 119.071 116.862 121.988Z" fill="#979797"/>
    <path d="M88.3733 196.591C86.4298 200.892 81.3288 202.857 77.0272 200.913C72.7257 198.97 70.7614 193.869 72.7049 189.567C74.6484 185.266 79.7494 183.301 84.051 185.245C88.3525 187.188 90.3169 192.289 88.3733 196.591ZM86.4342 195.767C87.9129 192.469 86.409 188.618 83.1662 187.134C79.8676 185.655 76.0166 187.159 74.5325 190.402C73.0538 193.7 74.5576 197.551 77.8005 199.035C81.0991 200.514 84.95 199.01 86.4342 195.767Z" fill="black"/>
    <path d="M94.9721 198.984C93.2189 202.929 89.8612 206.018 85.7707 207.377C81.9537 208.652 77.9387 208.482 74.289 206.869C73.9379 206.735 73.6371 206.539 73.2806 206.348C66.5062 202.733 63.3377 194.54 65.945 187.245C67.0497 184.152 69.0512 181.59 71.6815 179.699C73.6305 178.325 75.5412 176.561 77.3185 174.585C82.0805 169.162 86.5133 166.7 90.2373 167.349C90.3172 166.44 90.5436 164.728 91.3113 162.795C90.3434 164.41 88.9468 165.673 87.2614 166.289C85.2522 167.049 82.9882 166.933 80.9266 166.009C80.57 165.819 80.2135 165.629 79.857 165.438C79.4392 165.198 79.2784 164.707 79.402 164.244C80.266 161.569 82.0378 159.537 84.3707 158.632C86.6532 157.789 89.1513 157.995 91.4798 159.343C92.8742 159.206 93.9745 158.366 93.969 158.311C94.3879 157.988 95.007 157.984 95.3854 158.397C95.7583 158.755 95.8185 159.368 95.4663 159.797C92.3974 163.533 92.3219 167.933 92.3329 168.045C95.9093 170.059 97.3158 175.215 96.3468 183.138C96.069 185.474 96.0362 188.011 96.337 191.079C96.5547 193.874 96.0866 196.566 94.9721 198.984ZM89.9541 161.013C89.8983 161.019 89.8928 160.963 89.837 160.968C88.2435 160.223 86.5482 160.164 85.0805 160.703C83.5624 161.302 82.3276 162.493 81.6441 164.137C83.3546 164.926 84.9941 164.991 86.5176 164.447C88.0412 163.904 89.2705 162.657 89.9541 161.013ZM93.0887 198.155C94.0632 196.033 94.4526 193.685 94.2283 191.399C93.9112 188.163 93.933 185.514 94.2502 183.005C94.7434 178.846 94.9917 171.613 90.9297 169.815C86.8676 168.017 81.6605 172.92 78.9273 176.06C77.0549 178.215 75.0381 180.046 72.9273 181.492C70.6097 183.127 68.9155 185.377 67.9345 188.007C65.6804 194.31 68.4048 201.42 74.2879 204.56C77.6751 206.368 81.4779 206.671 85.0718 205.418C88.6712 204.22 91.5652 201.571 93.0887 198.155Z" fill="black"/>
    <path d="M243.682 64.04C242.972 59.8968 239.561 56.6847 235.385 56.2055C231.209 55.7264 227.159 58.0823 225.536 61.9015L223.28 60.9094C225.359 56.0706 230.438 53.0993 235.672 53.6999C240.962 54.3068 245.237 58.3514 246.159 63.5909L243.682 64.04Z" fill="black"/>
    <path d="M223.145 86.6749C221.697 86.5087 220.716 85.7192 220.278 85.1049L220.229 85.0428L210.059 67.9671L210.29 67.4294C212.227 62.3487 217.437 59.2232 222.839 59.843C223.507 59.9196 224.113 60.0456 224.713 60.2272L224.048 62.5768C223.56 62.4079 223.059 62.3504 222.557 62.2929C218.437 61.8201 214.511 64.0776 212.79 67.7726L222.301 83.7009C222.4 83.8251 223.109 84.527 224.683 84.087C225.792 83.763 226.136 82.7306 226.17 81.9447L228.632 82.1144C228.495 84.2988 227.301 85.8542 225.374 86.4229C224.549 86.7232 223.813 86.7515 223.145 86.6749Z" fill="black"/>
    <path d="M240.462 88.662C239.794 88.5853 239.089 88.3352 238.292 87.9053C236.754 87.0518 235.967 85.5512 236.067 83.7009L238.536 83.815C238.487 85.2198 239.284 85.6497 239.55 85.793C240.927 86.5716 241.771 86.1043 241.957 85.9564L254.829 72.5964C253.989 68.6075 250.677 65.5195 246.556 65.0467C246.055 64.9892 245.548 64.9874 245.04 64.9856L244.925 62.5466C245.55 62.5055 246.225 62.5265 246.837 62.5967C252.294 63.2229 256.605 67.4409 257.341 72.8282L257.444 73.4042L243.554 87.7756C243.044 88.2813 241.965 88.8345 240.462 88.662Z" fill="black"/>
    <path d="M232.138 86.4661C229.354 86.1466 227.021 84.3557 225.966 81.7524L225.886 81.4612L223.203 61.5776L225.668 61.2399L228.363 81.0121C229.076 82.6734 230.631 83.8673 232.468 84.0782C234.306 84.289 236.029 83.5277 237.155 82.0772L243.925 63.3911L246.255 64.2227L239.342 83.1744L239.267 83.3351C237.6 85.5696 234.866 86.7791 232.138 86.4661Z" fill="black"/>
    <path d="M250.334 90.1326C247.717 89.8323 245.414 88.2705 244.153 85.9822L246.317 84.8201C247.203 86.4449 248.827 87.5339 250.609 87.7383C253.727 88.0961 256.52 85.8779 256.878 82.7598C256.897 82.5927 256.91 82.4814 256.929 82.3143L256.899 82.0852L254.196 74.6669L256.495 73.8024L259.327 81.574L259.423 82.2057C259.447 82.4905 259.422 82.7132 259.39 82.9916C258.816 87.4954 254.788 90.6437 250.334 90.1326Z" fill="black"/>
    <path d="M213.084 85.8589C208.63 85.3478 205.426 81.3133 205.937 76.8588C205.969 76.5804 205.994 76.3576 206.082 76.0856L206.163 75.8693L206.463 75.2267L210.844 68.5084L212.888 69.8712L208.5 76.6452C208.481 76.8122 208.468 76.9236 208.449 77.0906C208.091 80.2087 210.309 83.0019 213.427 83.3597C215.265 83.5705 217.093 82.8777 218.268 81.4893L220.113 83.1113C218.298 85.1597 215.701 86.1592 213.084 85.8589Z" fill="black"/>
    <path d="M132.106 67.0485C131.512 67.1068 130.873 67.218 130.289 67.3725C127.857 68.0484 125.465 69.6438 123.49 71.9274C121.57 74.2543 120.479 76.8888 120.269 79.3395C120.06 81.7903 120.796 84.1971 122.698 85.7604C124.595 87.2755 127.117 87.5143 129.549 86.8384C131.981 86.1626 134.373 84.5671 136.298 82.2883C138.219 79.9614 139.359 77.3222 139.564 74.8232C139.773 72.3725 139.037 69.9657 137.14 68.4506C135.681 67.3299 133.942 66.9171 132.106 67.0485ZM132.448 69.0078C133.833 68.8719 135.014 69.1936 135.936 69.9296C137.128 70.8819 137.69 72.5281 137.537 74.5359C137.388 76.5918 136.418 78.9229 134.672 80.9896C132.926 83.0564 130.767 84.4832 128.771 85.0191C127.409 85.3957 126.212 85.4159 125.179 85.0796C126.612 84.4045 127.68 83.5708 128.436 82.6217C129.461 81.3547 129.869 79.9052 130.191 78.6098C130.832 75.9709 131.055 73.6646 134.022 71.8183C134.211 71.7026 134.39 71.4907 134.421 71.2932C134.501 71.091 134.477 70.8503 134.404 70.6144C134.331 70.3785 134.168 70.2487 133.956 70.1236C133.744 69.9986 133.492 69.9747 133.299 70.0423C133.2 70.052 133.056 70.1147 132.962 70.1725C129.335 72.4237 128.85 75.6306 128.244 78.1202C127.917 79.3674 127.575 80.4702 126.819 81.4193C126.107 82.3153 125.085 83.0961 123.251 83.7619C122.455 82.7707 122.12 81.394 122.261 79.7762C122.409 77.7202 123.429 75.3844 125.121 73.2743C126.867 71.2075 129.031 69.8289 131.022 69.2448C131.512 69.1481 132.002 69.0515 132.448 69.0078ZM144.825 83.6396C141.806 83.9356 139.119 85.0739 137.227 86.6689C135.285 88.2688 134.103 90.4748 134.339 92.8819C134.575 95.2891 136.213 97.2185 138.379 98.4156C140.594 99.608 143.401 100.208 146.42 99.9117C149.439 99.6157 152.131 98.5256 154.018 96.8824C155.91 95.2873 157.098 93.1294 156.921 90.8138C156.956 90.6645 156.991 90.5152 156.928 90.3756C156.914 90.2312 156.85 90.0916 156.791 90.0002C156.336 87.9062 154.825 86.2559 152.871 85.1838C150.7 83.9384 147.844 83.3436 144.825 83.6396ZM145.028 85.7097C147.75 85.4428 150.3 85.9705 152.096 86.9609C153.576 87.7879 154.58 88.856 154.95 90.0834C153.412 91.2064 152.153 91.6214 151.01 91.6849C149.818 91.7532 148.691 91.4748 147.496 91.0087C145.684 90.3601 143.541 89.4036 141.013 89.6029C140.171 89.6854 139.29 89.8691 138.328 90.2549C138.185 90.3176 138.09 90.3755 137.996 90.4333C137.906 90.5393 137.817 90.6453 137.777 90.7465C137.737 90.8476 137.701 90.9969 137.716 91.1413C137.73 91.2857 137.739 91.382 137.803 91.5216C137.867 91.6612 137.925 91.7526 138.034 91.8392C138.142 91.9258 138.251 92.0123 138.354 92.0508C138.458 92.0892 138.611 92.1228 138.76 92.1082C138.908 92.0937 139.007 92.084 139.151 92.0213C142.274 90.743 144.282 91.8585 146.87 92.7713C148.163 93.2277 149.606 93.6696 151.244 93.5576C152.436 93.4893 153.695 93.0743 155.019 92.3125C154.718 93.3142 154.011 94.2584 152.997 95.1354C151.428 96.4558 149.029 97.4687 146.307 97.7356C143.585 98.0025 141.084 97.4699 139.288 96.4795C137.492 95.489 136.46 94.1321 136.309 92.5916C136.163 91.0992 136.907 89.5194 138.476 88.199C139.956 86.9846 142.306 85.9766 145.028 85.7097ZM119.851 90.3653C118.025 90.593 116.349 91.3405 115.185 92.7184C113.618 94.5732 113.364 97.0769 114.05 99.4885C114.732 101.852 116.318 104.273 118.699 106.129C121.034 108.039 123.735 109.086 126.208 109.33C128.725 109.521 131.152 108.797 132.719 106.942C134.286 105.087 134.54 102.583 133.854 100.172C133.173 97.8081 131.586 95.3876 129.206 93.531C126.87 91.6214 124.169 90.5738 121.697 90.3302C121.093 90.2921 120.445 90.3071 119.851 90.3653ZM119.892 92.3055C120.337 92.2619 120.837 92.2615 121.341 92.3092C123.408 92.4954 125.798 93.4277 127.912 95.116C130.026 96.8043 131.436 98.9505 131.981 100.939C132.438 102.546 132.327 103.967 131.783 105.041C129.806 104.749 128.601 104.186 127.779 103.441C126.853 102.656 126.308 101.689 125.794 100.524C124.717 98.1997 123.672 95.1914 119.826 93.6729C119.618 93.596 119.416 93.5673 119.223 93.6349C119.025 93.6543 118.836 93.77 118.652 93.9338C118.518 94.0928 118.438 94.2951 118.407 94.4925C118.377 94.6899 118.45 94.9258 118.568 95.1086C118.685 95.2915 118.848 95.4214 119.055 95.4982C122.225 96.7428 122.839 98.9185 123.98 101.383C124.552 102.639 125.224 103.885 126.476 104.929C127.402 105.713 128.611 106.324 130.148 106.708C129.201 107.238 128.022 107.451 126.613 107.346C124.546 107.16 122.156 106.228 120.042 104.539C117.928 102.851 116.518 100.705 115.978 98.7649C115.433 96.7769 115.669 95.1012 116.654 93.9353C117.415 93.0344 118.511 92.4895 119.892 92.3055Z" fill="black"/>
    <path d="M340.155 147.981C340.907 156.919 339.085 162.579 334.678 164.557L333.006 165.347L333.315 163.599C333.315 163.599 334.017 158.849 332.969 153.557L332.902 153.147C331.137 144.671 325.979 139.723 317.651 138.33C314.827 142.843 313.753 147.38 314.653 151.965C316.348 161.066 325.241 167.007 325.284 167.126L326.753 168.153L325.031 168.88C323.782 169.43 322.403 169.621 320.951 169.458C317.376 169.058 313.329 166.305 309.009 161.451C304.082 155.955 299.225 147.822 295.498 139.183C288.453 122.813 295.111 112.348 303.448 108.108L304.337 107.748L305.225 107.387C313.851 104.1 325.964 106.032 333.122 122.414C335.423 127.616 337.234 133.165 338.523 138.312C339.377 141.799 339.914 145.079 340.155 147.981ZM325.007 113.571C320.905 112.824 316.719 113.332 312.847 115.083C311.653 115.639 310.447 116.309 309.346 117.048L310.92 120.674C312.033 119.821 313.128 119.139 314.433 118.595C319.138 116.478 324.545 116.681 329.102 118.916C327.879 116.71 326.549 114.951 325.007 113.571ZM306.785 136.883C307.397 135.457 308.499 134.2 309.985 133.562C311.24 132.955 312.892 132.853 314.201 133.287L312.399 129.176C310.99 129.133 309.667 129.33 308.411 129.936C305.975 130.986 304.169 132.968 303.213 135.448C302.256 137.928 302.354 140.583 303.385 142.999C304.958 146.624 308.435 148.911 312.29 148.826C312.325 147.507 312.465 146.258 312.723 144.965C312.431 145.047 312.04 145.003 311.705 144.966C309.582 144.728 307.754 143.373 306.847 141.374C306.28 139.873 306.166 138.366 306.785 136.883ZM307.625 117.775C306.401 118.098 305.108 118.528 303.859 119.078C300.042 120.835 296.782 123.689 294.518 127.23C294.575 129.248 295.004 131.481 295.649 133.796C297.047 128.893 300.566 124.745 305.327 122.634C306.576 122.084 307.862 121.711 309.192 121.457L307.625 117.775ZM323.661 138.199C325.26 137.056 326.004 134.954 325.19 133.138C324.295 131.026 321.963 130.132 319.881 131.049C318.868 131.51 318.158 132.293 317.764 133.284C317.358 134.388 317.355 135.423 317.805 136.45C319.977 136.751 322 137.38 323.661 138.199ZM325.527 139.213C326.748 139.924 327.69 140.605 328.669 141.462C331.253 138.589 332.003 134.419 330.43 130.793C329.406 128.321 327.461 126.494 325.024 125.531C322.587 124.568 319.973 124.677 317.592 125.733C316.337 126.34 315.167 127.186 314.202 128.228L316.004 132.339C316.597 131.083 317.693 129.884 319.067 129.233C322.106 127.849 325.629 129.221 326.98 132.304C328.01 134.719 327.426 137.413 325.527 139.213ZM306.034 109.26L308.643 115.244C309.744 114.505 310.845 113.766 312.144 113.279C315.413 111.863 318.941 111.166 322.492 111.277C317.108 107.339 311.111 107.357 306.034 109.26ZM294.67 123.855C296.963 121.065 299.818 118.797 303.088 117.381C304.281 116.825 305.511 116.446 306.853 116.079L304.243 110.095C299.438 112.603 295.427 117.098 294.67 123.855ZM297.381 138.531C299.534 143.545 302.16 148.38 304.855 152.592C307.409 154.028 310.331 154.7 313.231 154.565C313.028 153.853 312.819 153.197 312.727 152.497C312.623 151.91 312.464 151.317 312.471 150.743C312.012 150.807 311.509 150.75 311.062 150.7C306.985 150.243 303.385 147.54 301.669 143.669C300.411 140.768 300.314 137.595 301.495 134.623C302.571 131.582 304.806 129.302 307.665 128.013C308.915 127.463 310.306 127.159 311.623 127.019L310.056 123.336C308.726 123.59 307.434 124.02 306.191 124.513C301.063 126.871 297.498 131.933 297.03 137.63C297.054 137.92 297.189 138.223 297.381 138.531ZM310.558 160.245C310.67 160.257 310.67 160.257 310.67 160.257C312.346 160.445 314.109 160.355 315.836 160.089C315.112 158.973 314.402 157.743 313.927 156.425C312.778 156.584 311.593 156.566 310.475 156.441C309.302 156.31 308.086 156.058 306.945 155.643C308.058 157.32 309.302 158.839 310.558 160.245ZM316.992 161.886C315.489 162.177 313.949 162.292 312.471 162.356C315.418 165.331 319.03 167.921 322.452 167.672C321.058 166.481 318.959 164.521 316.992 161.886ZM316.028 137.171C315.732 136.276 315.02 135.563 314.103 135.173C313.142 134.663 311.887 134.753 310.818 135.208C309.805 135.669 309.095 136.452 308.702 137.443C308.308 138.433 308.292 139.581 308.743 140.609C309.495 142.476 311.541 143.395 313.349 142.908C313.907 140.958 314.8 139.046 316.028 137.171ZM332.239 145.944C334.336 143.879 335.765 141.222 336.487 138.313C335.29 133.35 333.504 128.091 331.338 123.191C331.258 122.895 331.122 122.592 330.986 122.289C326.52 118.742 320.556 117.959 315.31 120.361C314.11 120.974 312.897 121.7 311.895 122.565L313.462 126.248C314.415 125.32 315.528 124.467 316.827 123.98C319.686 122.691 322.809 122.581 325.73 123.77C328.72 124.853 330.955 127.115 332.213 130.016C334.151 134.43 333.305 139.452 330.093 142.886C330.897 143.781 331.621 144.897 332.239 145.944ZM334.637 152.307C335.969 151.019 337.195 149.661 338.224 148.052C338.043 146.134 337.707 144.084 337.322 141.971C336.341 144.161 334.982 146.194 333.221 147.779C333.85 149.229 334.349 150.837 334.637 152.307ZM338.495 151.187C337.511 152.399 336.477 153.548 335.239 154.501C335.647 157.422 335.634 160.065 335.555 161.781C337.957 159.52 338.496 155.211 338.495 151.187Z" fill="#979797"/>
    <path d="M268.595 101.081C268.611 101.248 268.438 104.851 270.719 106.645C272.24 107.841 274.347 107.859 275.621 107.734C275.679 107.728 275.736 107.723 275.794 107.717L276.518 115.1C276.567 115.6 277.011 115.948 277.532 115.897C278.053 115.846 278.42 115.418 278.371 114.918L277.648 107.535C277.706 107.53 277.763 107.524 277.821 107.518C279.095 107.393 281.159 106.967 282.418 105.498C284.307 103.296 283.437 99.7941 283.421 99.6276C283.325 99.2447 283.008 98.9956 282.597 98.9798C282.539 98.9855 282.244 98.9584 281.839 98.9981C283.67 96.801 282.859 93.2937 282.79 93.1884C282.694 92.8055 282.377 92.5564 281.966 92.5406C281.908 92.5463 281.671 92.5134 281.324 92.5475C282.981 90.3674 282.186 87.0267 282.175 86.9157C282.079 86.5328 281.762 86.2836 281.351 86.2679C281.235 86.2792 279.592 86.2162 277.951 86.7694C278.128 86.1916 278.242 85.5639 278.176 84.8978C277.953 82.6219 275.862 80.9774 274.986 80.3908L274.682 77.2822C274.633 76.7826 274.189 76.4338 273.668 76.4849C273.147 76.536 272.779 76.9643 272.828 77.4639L273.133 80.5725C272.388 81.3181 270.656 83.3373 270.879 85.6132C270.944 86.2794 271.178 86.873 271.464 87.4054C269.747 87.1815 268.141 87.5069 268.031 87.5738C267.631 87.6691 267.369 87.975 267.349 88.3693C267.365 88.5358 267.17 91.9175 269.278 93.7285C268.93 93.7626 268.704 93.8408 268.646 93.8465C268.246 93.9418 267.984 94.2477 267.964 94.642C267.98 94.8085 267.802 98.3568 270.025 100.156C269.619 100.196 269.335 100.28 269.277 100.286C268.93 100.32 268.615 100.687 268.595 101.081ZM281.019 104.347C280.127 105.387 278.458 105.663 277.473 105.759C277.381 104.815 277.339 103.194 278.231 102.154C279.123 101.114 280.792 100.838 281.776 100.742C281.869 101.685 281.911 103.306 281.019 104.347ZM280.382 97.8519C279.49 98.8921 277.821 99.1678 276.837 99.2644C276.744 98.3207 276.702 96.6995 277.594 95.6593C278.486 94.6191 280.155 94.3434 281.139 94.2469C281.232 95.1906 281.274 96.8117 280.382 97.8519ZM280.519 87.9187C280.611 88.8624 280.653 90.4836 279.761 91.5238C278.869 92.564 277.201 92.8396 276.216 92.9361C276.124 91.9925 276.082 90.3713 276.974 89.3311C277.866 88.2909 279.534 88.0152 280.519 87.9187ZM274.207 81.9804C274.967 82.5784 276.187 83.6918 276.318 85.024C276.448 86.3563 275.468 87.6854 274.838 88.4196C274.078 87.8216 272.858 86.7083 272.727 85.376C272.591 83.9883 273.572 82.6592 274.207 81.9804ZM269.168 89.0316C270.152 88.9351 271.843 88.8814 272.92 89.7286C273.997 90.5757 274.276 92.2297 274.363 93.1178C273.378 93.2144 271.688 93.268 270.611 92.4209C269.539 91.6292 269.26 89.9753 269.168 89.0316ZM269.788 95.3598C270.773 95.2633 272.463 95.2096 273.54 96.0568C274.617 96.9039 274.896 98.5579 274.983 99.4461C273.999 99.5426 272.309 99.5962 271.231 98.7491C270.154 97.9019 269.881 96.3035 269.788 95.3598ZM270.425 101.855C271.41 101.758 273.1 101.704 274.177 102.552C275.254 103.399 275.533 105.053 275.62 105.941C274.636 106.037 272.945 106.091 271.868 105.244C270.791 104.397 270.518 102.798 270.425 101.855Z" fill="black"/>
    <path d="M312.863 76.8773C312.503 76.5706 311.959 76.6239 311.666 76.9947L309.765 79.4615C308.726 79.5064 306.222 79.7518 304.805 81.544C304.414 82.0384 304.143 82.6351 303.98 83.2211C303.02 81.833 301.675 80.9958 301.615 80.9446C301.266 80.7508 300.885 80.7881 300.581 81.046C300.483 81.1696 298.076 83.515 298.184 86.2979C297.944 86.0933 297.715 86.0017 297.71 85.9453C297.361 85.7514 296.98 85.7888 296.676 86.0466C296.578 86.1702 294.019 88.6446 294.301 91.5244C294.001 91.2687 293.767 91.1206 293.707 91.0695C293.359 90.8756 292.978 90.913 292.673 91.1709C292.576 91.2945 290.016 93.7688 290.299 96.6486C290.498 98.6814 292.024 100.242 292.978 101.004L288.443 106.864C288.15 107.235 288.205 107.8 288.571 108.163C288.751 108.316 288.979 108.408 289.197 108.387C289.415 108.365 289.621 108.231 289.768 108.046L294.303 102.185C295.207 103.009 296.978 104.26 298.883 104.073C301.658 103.801 303.438 100.662 303.536 100.539C303.72 100.179 303.681 99.7833 303.431 99.4659C303.425 99.4094 303.24 99.1995 302.94 98.9439C305.661 98.6771 307.495 95.5327 307.538 95.4145C307.723 95.0543 307.684 94.659 307.433 94.3416C307.428 94.2851 307.248 94.1317 307.008 93.9272C309.603 93.5017 311.345 90.5375 311.443 90.4139C311.628 90.0537 311.589 89.6584 311.338 89.341C311.278 89.2898 310.226 88.0818 308.722 87.317C309.244 87.0378 309.755 86.6457 310.146 86.1512C311.564 84.359 311.303 81.705 311.089 80.6428L312.99 78.1761C313.278 77.7488 313.223 77.1841 312.863 76.8773ZM301.253 82.8614C301.973 83.475 303.128 84.6159 303.267 86.0276C303.4 87.3828 302.493 88.7829 301.906 89.5245C301.187 88.9109 300.031 87.77 299.893 86.3583C299.76 85.0031 300.667 83.603 301.253 82.8614ZM297.354 87.9185C298.073 88.5321 299.229 89.673 299.367 91.0847C299.5 92.4399 298.594 93.84 298.007 94.5816C297.288 93.968 296.132 92.8271 295.994 91.4154C295.855 90.0038 296.762 88.6036 297.354 87.9185ZM293.999 99.6494C293.28 99.0358 292.124 97.8949 291.986 96.4832C291.853 95.128 292.759 93.7279 293.346 92.9863C294.065 93.5998 295.221 94.7408 295.359 96.1524C295.498 97.5641 294.591 98.9642 293.999 99.6494ZM298.657 102.328C297.351 102.456 296.043 101.444 295.324 100.831C295.856 100.094 296.997 98.8424 298.302 98.7144C299.608 98.5863 300.916 99.5983 301.636 100.212C301.049 100.954 299.963 102.2 298.657 102.328ZM302.654 97.1476C301.348 97.2756 300.04 96.2636 299.321 95.6501C299.907 94.9084 300.994 93.6617 302.3 93.5337C303.606 93.4056 304.913 94.4176 305.633 95.0312C305.106 95.8239 303.96 97.0195 302.654 97.1476ZM309.538 90.0306C308.951 90.7722 307.865 92.0189 306.559 92.1469C305.253 92.275 303.945 91.263 303.225 90.6494C303.758 89.9131 304.898 88.6611 306.204 88.5331C307.51 88.405 308.818 89.417 309.538 90.0306ZM308.767 84.9752C307.936 86.0258 306.369 86.2935 305.444 86.3842C305.35 85.4242 305.293 83.7196 306.124 82.6689C306.955 81.6183 308.522 81.3506 309.447 81.2599C309.541 82.2199 309.598 83.9246 308.767 84.9752Z" fill="black"/>
    <path d="M201.99 85.8991L169.281 89.106C167.434 89.287 165.954 88.8565 164.84 87.8145C163.084 86.2075 163.041 83.5953 163.043 83.0718L160.143 58.9189C159.64 53.7877 164.738 51.4564 164.943 51.3839C165.044 51.3217 165.149 51.3114 165.308 51.2959L198.017 48.089C198.65 48.0269 199.171 48.4468 199.232 49.0688L201.812 69.9564C201.868 70.5266 201.544 71.0292 200.974 71.1898C200.61 71.2778 197.405 72.2723 197.735 75.6413C198.081 79.1657 201.602 79.7624 201.654 79.7573C202.139 79.8144 202.554 80.2446 202.605 80.7629L202.996 84.7539C203.047 85.2722 202.623 85.837 201.99 85.8991ZM165.732 53.452C165.024 53.8354 162.096 55.483 162.406 58.6446L165.312 82.8494C165.317 82.9012 165.322 82.953 165.332 83.0567C165.332 83.0567 165.267 85.1039 166.439 86.1926C167.027 86.7628 167.902 86.991 169.062 86.8773L200.611 83.7842L200.403 81.6591C198.48 81.0627 195.807 79.3363 195.457 75.76C195.106 72.1837 197.513 70.1162 199.404 69.3029L197.07 50.3796L165.732 53.452Z" fill="#979797"/>
    <path d="M172.8 64.8864C170.567 65.1053 168.55 63.5042 168.339 61.3446C168.127 59.185 169.794 57.2228 172.027 57.0039C174.26 56.7849 176.277 58.386 176.489 60.5456C176.645 62.7106 175.033 64.6674 172.8 64.8864ZM172.197 58.7315C170.968 58.8519 170.003 59.9277 170.125 61.1695C170.247 62.4112 171.347 63.2846 172.631 63.1587C173.915 63.0328 174.824 61.9625 174.702 60.7207C174.53 59.5384 173.425 58.6111 172.197 58.7315Z" fill="#979797"/>
    <path d="M183.508 82.1409C179.831 82.5014 176.514 79.7977 176.151 76.0976C175.788 72.3976 178.517 69.1012 182.194 68.7406C185.872 68.3801 189.189 71.0838 189.551 74.7839C189.914 78.4839 187.236 81.7754 183.508 82.1409ZM182.39 70.7407C179.821 70.9926 177.911 73.3 178.161 75.8501C178.411 78.4001 180.733 80.2927 183.302 80.0408C185.871 79.7889 187.781 77.4815 187.531 74.9314C187.281 72.3814 184.96 70.4888 182.39 70.7407Z" fill="#979797"/>
    <path d="M189.845 65.6023C187.888 65.7942 186.143 64.3688 185.952 62.4226C185.761 60.4764 187.197 58.7392 189.154 58.5474C191.111 58.3555 192.856 59.7809 193.047 61.7271C193.237 63.6733 191.802 65.4105 189.845 65.6023ZM189.326 60.3111C188.348 60.407 187.692 61.2697 187.781 62.1819C187.876 63.155 188.743 63.8069 189.66 63.717C190.639 63.621 191.295 62.7584 191.206 61.8462C191.116 60.9339 190.305 60.2152 189.326 60.3111Z" fill="#979797"/>
    <path d="M325.318 192.058C324.056 191.848 323.765 193.737 325.026 193.948C326.282 194.111 326.574 192.221 325.318 192.058Z" fill="black" stroke="black" stroke-width="0.8"/>
    <path d="M322.805 186.388C321.596 186.22 321.3 188.063 322.514 188.278C323.817 188.436 324.109 186.547 322.805 186.388Z" fill="black" stroke="black" stroke-width="0.8"/>
    <path d="M328.36 197.294C327.099 197.084 326.807 198.973 328.068 199.183C329.329 199.394 329.621 197.504 328.36 197.294Z" fill="black" stroke="black" stroke-width="0.8"/>
    <path d="M336.413 188.442C335.204 188.274 334.908 190.116 336.121 190.331C337.43 190.537 337.722 188.647 336.413 188.442Z" fill="black" stroke="black" stroke-width="0.8"/>
    <path d="M343.425 184.032C344.073 181.392 342.631 179.339 340.72 177.856C338.654 176.246 336.481 175.982 335.202 175.105C334.073 174.786 334.96 173.125 334.948 172.029C334.868 169.269 329.833 168.522 328.94 171.091C328.603 172.03 328.986 173.997 327.786 173.924C325.693 173.986 323.708 174.18 321.68 174.904C319.377 175.75 317.475 177.272 317.257 179.918C314.874 182.871 314.937 187.398 316.18 191.809C317.372 196.177 321.38 204.945 326.888 205.645C332.396 206.346 338.695 199.048 340.974 195.533C343.42 191.762 344.722 187.531 343.425 184.032ZM322.281 176.658C323.846 176.075 326.006 175.72 327.735 175.837C330.268 175.875 330.365 174.434 330.496 172.847C330.651 170.541 333.509 170.977 332.966 173.225C332.642 174.783 332.308 176.248 334.712 176.918C336.431 177.418 338.182 178.248 339.626 179.347C340.197 179.816 340.72 180.289 341.111 180.871C340.658 180.63 340.21 180.435 339.728 180.387C338.467 180.176 337.223 180.632 336.164 181.022C335.152 181.408 334.556 181.657 334.304 180.06C334.225 179.256 333.144 178.933 332.637 179.603C332.258 180.117 331.121 181.66 330.347 181.545C329.572 181.43 328.961 179.582 328.759 178.981C328.491 178.196 327.386 178.114 327.077 178.86C326.602 180.338 325.738 179.802 324.965 179.21C323.526 178.158 322.143 177.196 320.323 177.613C320.91 177.27 321.595 176.964 322.281 176.658ZM339.403 194.589C337.625 197.388 331.686 204.459 327.043 203.817C322.409 203.269 318.802 194.701 317.849 191.311C316.906 188.016 316.723 184.694 317.871 182.291C320.073 177.495 322.317 179.947 324.941 181.407C326.003 182.019 326.698 181.807 327.626 181.048C327.819 181.554 328.097 181.957 328.365 182.264C329.402 183.594 330.89 183.687 332.225 182.697C332.49 182.48 332.845 182.207 333.1 181.895C333.317 182.16 333.487 182.43 333.803 182.733C334.694 183.552 335.796 183.11 336.808 182.725C338.836 182.001 340.297 181.81 341.431 184.132L341.44 184.227C342.965 187.131 341.725 191.022 339.403 194.589Z" fill="black"/>
    <path d="M332.823 193.183C331.562 192.972 331.27 194.862 332.531 195.072C333.788 195.235 334.084 193.393 332.823 193.183Z" fill="black" stroke="black" stroke-width="0.8"/>
    <path d="M329.39 187.364C328.129 187.154 327.837 189.043 329.098 189.253C330.359 189.464 330.651 187.574 329.39 187.364Z" fill="black" stroke="black" stroke-width="0.8"/>
    <path d="M312.558 244.951C312.591 245.416 312.637 246.246 312.444 246.911C311.909 249.157 309.308 248.426 308.646 246.241C308.512 245.794 308.41 245.236 308.392 244.558C308.336 243.678 308.1 243.249 307.827 242.617C307.231 241.364 306.556 239.967 306.684 236.066C306.877 222.457 325.993 219.334 317.24 208.197C316.755 207.551 317.226 206.679 318.015 206.692C323.905 206.456 326.494 212.01 326.459 216.995C329.534 216.014 337.123 214.157 344.287 215.732C350.2 217.063 351.191 221.913 344.605 223.22C340.804 223.967 335.733 225.521 332.347 226.821C337.92 232.616 336.188 242.68 326.281 244.489C325.214 244.684 324.65 243.319 325.601 242.779C329.212 240.128 330.156 233.51 326.876 232.798C322.95 231.995 318.634 237.972 317.055 240.828C316.021 242.641 315.269 243.984 313.957 244.276C313.094 244.434 312.734 244.761 312.558 244.951ZM324.494 224.062C326.268 224 328.563 224.21 330.569 225.416C333.917 223.914 340.156 222.146 344.262 221.344C349.028 220.421 347.453 218.403 343.942 217.576C336.486 215.846 328.422 218.261 326.242 218.974C326.04 220.74 325.482 222.571 324.494 224.062ZM321.096 226.726C319.156 227.604 316.575 229.281 315.596 230.822C314.899 231.893 313.287 230.825 313.933 229.763C316.454 226.892 320.199 225.842 321.991 224.152C325.74 220.533 325.486 210.517 320.076 208.779C327.278 220.619 308.877 223.349 308.577 236.087C308.477 239.564 309.055 240.716 309.564 241.776C309.915 242.551 310.045 243.261 310.156 244.446C310.156 245.022 310.249 245.529 310.304 245.834C310.536 246.525 311.049 246.746 310.956 245.662C310.914 245.146 310.863 244.579 311.02 244.288C311.011 244.237 311.439 242.849 313.624 242.45C314.021 242.325 314.617 241.273 315.42 239.921C317.52 236.184 322.307 229.912 327.333 230.985C331.643 231.876 331.623 238.378 329.43 241.608C338.555 236.955 331.006 222.349 321.096 226.726Z" fill="black"/>
    <path d="M102.969 245.029C105.551 243.214 106.514 239.865 105.363 236.99C104.75 235.463 101.444 229.002 97.864 223.038C90.5734 210.859 88.8607 211.556 87.929 211.961C86.9972 212.367 85.2565 213.027 88.5098 226.884C90.123 233.677 92.2522 240.61 92.8653 242.136C94.1937 245.405 97.8403 247.056 101.189 245.952C102.88 248.132 105.513 249.373 108.275 249.292L108.426 247.135C106.397 247.252 104.427 246.507 102.969 245.029ZM103.816 240.424C100.91 239.212 97.5876 240.588 96.3157 243.525C95.5573 242.983 94.9594 242.263 94.6157 241.411C92.9898 237.43 87.4102 216.612 88.625 213.835C91.4474 214.935 101.949 233.763 103.537 237.772C103.918 238.596 104.017 239.514 103.816 240.424ZM98.0878 244.243C98.9418 242.319 101.153 241.424 103.085 242.198C102.007 243.822 100.04 244.651 98.0878 244.243Z" fill="#979797"/>
    <path d="M81.9733 232.626C79.541 234.126 76.4103 233.732 74.4292 231.747C73.3778 230.692 69.1823 225.634 65.4989 220.526C57.9681 210.11 59.1602 208.934 59.8301 208.304C60.5 207.673 61.6709 206.461 72.0395 214.116C77.1155 217.884 82.1232 222.131 83.1746 223.187C85.4199 225.459 85.4915 229.083 83.3766 231.475C84.5872 233.66 84.6791 236.295 83.6251 238.564L81.777 237.919C82.5992 236.273 82.6821 234.368 81.9733 232.626ZM77.8392 231.687C77.8686 228.836 80.2 226.563 83.0981 226.554C82.918 225.729 82.532 224.974 81.9456 224.384C79.2142 221.61 63.8852 209.533 61.1403 209.552C61.0475 212.293 72.9637 227.754 75.732 230.507C76.2815 231.119 77.0103 231.53 77.8392 231.687ZM83.0625 228.285C81.1569 228.308 79.622 229.828 79.576 231.712C81.3125 231.395 82.705 230.054 83.0625 228.285Z" fill="#979797"/>
    <path d="M138.75 169.453C136.017 171.889 137.723 176.412 141.384 176.437C146.02 176.469 150.551 176.5 151 176.5V243.5C151 245.157 152.343 246.5 154 246.5H189C190.657 246.5 192 245.157 192 243.5V226H223V243.5C223 245.157 224.343 246.5 226 246.5H261C262.657 246.5 264 245.157 264 243.5V176.5H274.5C278.15 176.453 279.795 171.91 277.022 169.537L210.512 112.612C210.256 112.394 209.877 112.067 209.474 111.717C208.341 110.735 206.658 110.735 205.525 111.717C205.122 112.067 204.743 112.394 204.488 112.612L181 133V125.5C181 124.672 180.328 124 179.5 124H163C161.343 124 160 125.343 160 127V150.5L138.75 169.453ZM163 128C163 127.448 163.448 127 164 127H177C177.552 127 178 127.448 178 128V135.5L163 148.5V128ZM206.849 114.565C207.223 114.241 207.779 114.239 208.155 114.561L274.945 171.74C275.65 172.344 275.223 173.5 274.294 173.5H227.023C226.475 173.5 226.029 173.941 226.023 174.489L226.012 175.489C226.005 176.045 226.455 176.5 227.011 176.5H261V242.5C261 243.052 260.552 243.5 260 243.5H227C226.448 243.5 226 243.052 226 242.5V223H188.965V242.5C188.965 243.052 188.517 243.5 187.965 243.5H155C154.448 243.5 154 243.052 154 242.5V176.5H187.977C188.524 176.5 188.97 176.059 188.977 175.512L188.988 174.512C188.995 173.955 188.545 173.5 187.988 173.5H141.676C140.751 173.5 140.322 172.352 141.02 171.745L206.849 114.565Z" fill="black"/>
    <path d="M138.75 169.453C136.017 171.889 137.723 176.412 141.384 176.437C146.02 176.469 150.551 176.5 151 176.5V243.5C151 245.157 152.343 246.5 154 246.5H189C190.657 246.5 192 245.157 192 243.5V226H223V243.5C223 245.157 224.343 246.5 226 246.5H261C262.657 246.5 264 245.157 264 243.5V176.5H274.5C278.15 176.453 279.795 171.91 277.022 169.537L210.512 112.612C210.256 112.394 209.877 112.067 209.474 111.717C208.341 110.735 206.658 110.735 205.525 111.717C205.122 112.067 204.743 112.394 204.488 112.612L181 133V125.5C181 124.672 180.328 124 179.5 124H163C161.343 124 160 125.343 160 127V150.5L138.75 169.453ZM163 128C163 127.448 163.448 127 164 127H177C177.552 127 178 127.448 178 128V135.5L163 148.5V128ZM206.849 114.565C207.223 114.241 207.779 114.239 208.155 114.561L274.945 171.74C275.65 172.344 275.223 173.5 274.294 173.5H227.023C226.475 173.5 226.029 173.941 226.023 174.489L226.012 175.489C226.005 176.045 226.455 176.5 227.011 176.5H261V242.5C261 243.052 260.552 243.5 260 243.5H227C226.448 243.5 226 243.052 226 242.5V223H188.965V242.5C188.965 243.052 188.517 243.5 187.965 243.5H155C154.448 243.5 154 243.052 154 242.5V176.5H187.977C188.524 176.5 188.97 176.059 188.977 175.512L188.988 174.512C188.995 173.955 188.545 173.5 187.988 173.5H141.676C140.751 173.5 140.322 172.352 141.02 171.745L206.849 114.565Z" stroke="#F4F4F4"/>
    <path fill-rule="evenodd" clip-rule="evenodd" d="M190.321 163.9C181.107 173.1 181.107 188.083 190.321 197.282L207.012 214L223.756 197.282C232.97 188.083 232.97 173.1 223.756 163.9C214.541 154.7 199.535 154.7 190.321 163.9ZM197.048 170.114C191.531 175.583 191.531 184.455 197.048 189.924C202.564 195.392 211.513 195.392 217.029 189.924C222.546 184.455 222.546 175.583 217.029 170.114C211.513 164.645 202.564 164.645 197.048 170.114Z" fill="#FF2D34"/>
    </svg>
