<svg width="414" height="414" viewBox="0 0 414 414" fill="none" xmlns="http://www.w3.org/2000/svg">
    <path d="M319.846 145C319.164 144.034 318.528 143.861 317.346 143.861L146.346 144C145.042 144 144.166 144 143.575 144.412C142.865 144.906 142.823 146.1 143.497 146.643C143.94 147 144.603 147 145.846 147H317.846L279.546 241.293H150.846L120.346 145.5C119.959 144.075 117.346 134 108.021 127.873C101.275 123.837 93.0533 122.91 83.588 125.306C81.6433 125.799 80.3458 126.5 81.3458 128.5C82.3458 129.5 83.9036 128.998 85.8458 128.5C95.5871 126.029 105.334 129.273 110.846 135C115.121 139.443 117.335 146.96 117.346 147C118.055 146.724 117.368 147.085 117.346 147L157.346 272.5C157.819 274.017 158.256 274.5 159.846 274.5L279.346 275C281.352 275 282.105 275.506 282.105 273.5C282.105 271.493 281.352 271.5 279.346 271.5H160.346L151.846 244.5H279.346C280.88 244.5 281.589 244.443 282.105 243L320.346 148C320.744 146.888 320.525 145.969 319.846 145Z" fill="black"/>
    <circle cx="170.846" cy="306" r="21.5" stroke="black" stroke-width="3"/>
    <circle cx="273.846" cy="306" r="21.5" stroke="black" stroke-width="3"/>
    <line x1="200.121" y1="85" x2="244" y2="128.879" stroke="black" stroke-width="3" stroke-linecap="round"/>
    <line x1="200" y1="128.879" x2="243.879" y2="85" stroke="black" stroke-width="3" stroke-linecap="round"/>
    </svg>
