<svg width="414" height="412" viewBox="0 0 414 412" fill="none" xmlns="http://www.w3.org/2000/svg">
    <g clip-path="url(#clip0)">
    <circle cx="122" cy="256" r="25.5" stroke="black" stroke-width="3"/>
    <circle cx="284" cy="256" r="25.5" stroke="black" stroke-width="3"/>
    <path d="M65.5 207.5H325C337.979 207.5 348.5 218.021 348.5 231V252C348.5 252.276 348.276 252.5 348 252.5H309.306C306.974 238.002 295.094 230.719 283.496 230.703C271.898 230.687 260.321 237.944 258.633 252.5H147.332C143.24 223.435 100.65 223.349 96.6623 252.5H65.5V207.5Z" stroke="black" stroke-width="3"/>
    <path d="M65.5 120C65.5 112.544 71.5442 106.5 79 106.5H218C225.456 106.5 231.5 112.544 231.5 120V207.5H65.5V120Z" stroke="black" stroke-width="3"/>
    <line x1="231.5" y1="209" x2="231.5" y2="252" stroke="black" stroke-width="3"/>
    <path d="M231.5 135.5H284.134C292.516 135.5 299.85 141.135 302.01 149.233L317.548 207.5H231.5V135.5Z" stroke="black" stroke-width="3"/>
    <rect x="74" y="163.073" width="78.3555" height="37.5677" rx="7" stroke="#979797" stroke-width="2"/>
    <path d="M100.308 182.647C99.7715 182.096 98.9571 182.909 99.4941 183.46C100.046 183.987 100.86 183.174 100.308 182.647Z" fill="#979797" stroke="#979797" stroke-width="0.4"/>
    <path d="M101.109 179.001C100.582 178.489 99.7817 179.278 100.294 179.814C100.87 180.355 101.685 179.542 101.109 179.001Z" fill="#979797" stroke="#979797" stroke-width="0.4"/>
    <path d="M99.9198 186.271C99.3828 185.72 98.5684 186.533 99.1054 187.084C99.6424 187.635 100.457 186.822 99.9198 186.271Z" fill="#979797" stroke="#979797" stroke-width="0.4"/>
    <path d="M106.98 184.843C106.453 184.331 105.653 185.119 106.166 185.656C106.727 186.222 107.542 185.409 106.98 184.843Z" fill="#979797" stroke="#979797" stroke-width="0.4"/>
    <path d="M111.952 185.2C113.206 184.15 113.237 182.64 112.838 181.241C112.409 179.724 111.449 178.822 111.14 177.941C110.706 177.385 111.728 176.894 112.113 176.358C113.057 174.991 110.879 172.836 109.531 173.764C109.033 174.1 108.519 175.19 107.963 174.727C106.925 174.012 105.893 173.4 104.651 173.029C103.233 172.619 101.768 172.681 100.72 173.887C98.5125 174.471 96.9309 176.69 95.9637 179.273C94.9866 181.816 93.8097 187.498 96.2326 189.799C98.6556 192.1 104.31 190.802 106.668 189.908C109.196 188.949 111.335 187.36 111.952 185.2ZM104.318 174.094C105.285 174.368 106.46 174.965 107.257 175.638C108.472 176.558 109.032 175.893 109.661 175.17C110.557 174.107 111.789 175.335 110.725 176.233C110.013 176.873 109.33 177.465 110.257 178.646C110.913 179.501 111.467 180.527 111.776 181.574C111.886 182.005 111.972 182.421 111.954 182.843C111.821 182.564 111.672 182.31 111.456 182.115C110.919 181.564 110.153 181.343 109.5 181.155C108.872 180.981 108.494 180.89 108.941 180.025C109.188 179.608 108.779 179.066 108.294 179.21C107.927 179.325 106.826 179.669 106.492 179.337C106.157 179.005 106.518 177.891 106.634 177.528C106.784 177.052 106.277 176.618 105.861 176.87C105.105 177.418 104.876 176.85 104.712 176.288C104.388 175.265 104.06 174.306 103.028 173.86C103.435 173.902 103.877 173.998 104.318 174.094ZM106.241 188.89C104.382 189.615 98.983 190.932 96.9587 188.967C94.9053 187.051 96.2059 181.609 96.9506 179.625C97.6662 177.691 98.7605 176.014 100.173 175.257C102.949 173.714 103.165 175.702 103.918 177.345C104.216 178.02 104.628 178.165 105.348 178.127C105.262 178.441 105.253 178.735 105.274 178.98C105.304 179.995 105.993 180.57 106.993 180.565C107.199 180.554 107.468 180.547 107.703 180.487C107.714 180.693 107.7 180.884 107.746 181.144C107.886 181.859 108.578 182.037 109.207 182.21C110.448 182.581 111.225 183.008 110.948 184.539L110.919 184.588C110.625 186.54 108.638 187.986 106.241 188.89Z" fill="#979797" stroke="#979797" stroke-width="0.4"/>
    <path d="M103.55 185.865C103.013 185.314 102.198 186.127 102.735 186.678C103.287 187.205 104.087 186.416 103.55 185.865Z" fill="#979797" stroke="#979797" stroke-width="0.4"/>
    <path d="M103.955 181.82C103.418 181.269 102.604 182.082 103.141 182.633C103.678 183.184 104.492 182.371 103.955 181.82Z" fill="#979797" stroke="#979797" stroke-width="0.4"/>
    <path d="M126.442 183.142C127.078 182.744 127.662 183.702 127.026 184.1C126.382 184.472 125.798 183.514 126.442 183.142Z" fill="#979797" stroke="#979797" stroke-width="0.4"/>
    <path d="M126.526 179.503C127.144 179.14 127.719 180.071 127.11 180.461C126.439 180.841 125.855 179.883 126.526 179.503Z" fill="#979797" stroke="#979797" stroke-width="0.4"/>
    <path d="M125.974 186.666C126.61 186.268 127.194 187.226 126.558 187.624C125.921 188.022 125.337 187.064 125.974 186.666Z" fill="#979797" stroke="#979797" stroke-width="0.4"/>
    <path d="M119.613 183.683C120.23 183.319 120.806 184.251 120.197 184.641C119.534 185.047 118.95 184.089 119.613 183.683Z" fill="#979797" stroke="#979797" stroke-width="0.4"/>
    <path d="M114.819 182.873C113.873 181.588 114.191 180.15 114.893 178.916C115.65 177.577 116.768 176.944 117.264 176.181C117.804 175.754 116.948 175.053 116.708 174.456C116.129 172.943 118.69 171.403 119.753 172.594C120.148 173.027 120.383 174.18 121.017 173.869C122.165 173.431 123.285 173.089 124.547 173.025C125.986 172.964 127.36 173.361 128.075 174.745C130.032 175.809 131.018 178.276 131.338 180.947C131.677 183.584 131.48 189.239 128.653 190.86C125.825 192.481 120.767 189.946 118.739 188.554C116.564 187.061 114.904 185.062 114.819 182.873ZM124.617 174.111C123.637 174.148 122.387 174.442 121.476 174.895C120.112 175.486 119.734 174.727 119.306 173.896C118.702 172.682 117.251 173.562 118.052 174.658C118.579 175.43 119.09 176.148 117.938 177.053C117.119 177.712 116.357 178.556 115.822 179.477C115.618 179.86 115.441 180.235 115.36 180.638C115.552 180.405 115.751 180.199 116.001 180.064C116.637 179.666 117.414 179.632 118.076 179.605C118.711 179.586 119.09 179.587 118.867 178.664C118.729 178.211 119.242 177.792 119.668 178.041C119.989 178.234 120.953 178.814 121.347 178.577C121.741 178.34 121.655 177.201 121.629 176.83C121.598 176.344 122.178 176.05 122.513 176.385C123.104 177.079 123.452 176.594 123.738 176.099C124.28 175.204 124.813 174.371 125.893 174.187C125.498 174.133 125.057 174.122 124.617 174.111ZM119.378 187.688C120.972 188.805 125.785 191.299 128.157 189.904C130.545 188.563 130.569 183.106 130.321 181.054C130.09 179.055 129.44 177.214 128.277 176.17C126.002 174.067 125.338 175.901 124.245 177.284C123.808 177.855 123.383 177.897 122.709 177.695C122.719 178.013 122.659 178.293 122.583 178.521C122.32 179.475 121.535 179.861 120.588 179.625C120.396 179.567 120.142 179.499 119.933 179.388C119.875 179.58 119.844 179.765 119.741 180C119.443 180.645 118.746 180.654 118.111 180.673C116.848 180.738 116.013 180.963 115.922 182.478L115.938 182.531C115.766 184.449 117.316 186.278 119.378 187.688Z" fill="#979797" stroke="#979797" stroke-width="0.4"/>
    <path d="M122.627 185.444C123.264 185.046 123.848 186.004 123.211 186.403C122.567 186.774 121.991 185.843 122.627 185.444Z" fill="#979797" stroke="#979797" stroke-width="0.4"/>
    <path d="M123.177 181.516C123.813 181.118 124.397 182.076 123.761 182.474C123.125 182.873 122.541 181.914 123.177 181.516Z" fill="#979797" stroke="#979797" stroke-width="0.4"/>
    <rect x="74" y="116" width="78.3555" height="37.5677" rx="7" stroke="#979797" stroke-width="2"/>
    <rect x="161" y="116" width="60" height="84" rx="7" stroke="black" stroke-width="2"/>
    <path d="M123.194 122.146C124.706 122.205 125.618 125.07 125.984 127.189C127.413 126.249 130.325 124.713 131.484 126.001C132.595 127.234 131.024 130.098 130.101 131.624C132.154 132.142 134.872 133.206 134.861 134.774C134.812 135.79 133.842 136.529 131.808 137.162C131.245 137.356 130.578 137.542 129.998 137.604C130.906 139.109 132.463 142.1 131.222 143.315C130.066 144.458 127.161 142.727 125.767 141.787C125.297 143.896 124.357 146.703 122.793 146.639C121.489 146.595 120.603 144.438 120.142 142.547C120.061 142.228 119.984 141.856 119.923 141.616C118.494 142.556 115.583 144.092 114.424 142.804C114.227 142.633 114.114 142.389 114.078 142.177C113.802 140.954 114.725 139.088 115.445 137.834C114.071 138.386 111.142 139.45 107.581 140.232C108.581 141.561 110.304 144.068 110.732 146.766C110.768 146.978 110.701 147.182 110.589 147.278C110.478 147.375 110.306 147.571 110.098 147.556C107.107 147.7 101.353 146.673 100.235 141.649C100.214 141.569 100.198 141.438 100.15 141.382C96.707 141.624 93.1073 141.514 89.781 140.536C89.5528 140.441 89.3563 140.269 89.3235 140.005C89.3071 139.873 89.2869 139.793 89.2985 139.637C89.4053 139.253 89.7886 139.02 90.1449 139.151C94.572 140.446 99.6865 140.223 104.111 139.426C103.138 134.57 107.679 131.141 110.299 130.002C110.487 129.938 110.699 129.901 110.847 130.016C111.023 130.108 111.172 130.223 111.208 130.435C111.463 131.238 111.585 132.058 111.659 132.822C112.612 131.951 114.483 131.41 115.914 131.15C115.431 130.251 114.671 128.862 114.368 127.663C114.145 126.783 114.155 125.947 114.661 125.462C115.818 124.319 118.646 126.018 120.117 126.99C120.711 124.969 121.682 122.086 123.194 122.146ZM130.551 126.952C130.206 126.665 128.193 127.379 126.237 128.724C126.242 129.012 126.278 129.224 126.299 129.304C126.298 130.376 125.781 131.357 124.954 131.923C125.151 132.095 125.395 132.322 125.508 132.565C125.6 132.389 125.711 132.293 125.883 132.096C126.501 131.515 127.312 131.156 128.12 131.19C128.252 131.174 128.408 131.185 128.688 131.284C129.978 129.393 130.784 127.335 130.551 126.952ZM112.51 134.035C112.628 134.567 115.187 135.671 117.12 136.049C117.2 136.029 117.252 136.033 117.248 136.085C117.456 136.1 117.744 136.095 117.952 136.111C118.996 136.136 119.817 135.282 119.842 134.238C119.853 134.082 119.817 133.87 119.8 133.738C119.72 133.418 119.563 133.067 119.318 132.839C118.977 132.5 118.472 132.254 118.004 132.219C116.149 132.213 112.661 133.419 112.51 134.035ZM122.963 136.22C123.459 136.231 123.89 136.054 124.229 135.713C124.565 135.424 124.731 134.939 124.742 134.443C124.753 134.287 124.737 134.155 124.7 133.944C124.518 133.224 123.808 132.57 123.052 132.541C122.556 132.53 122.125 132.707 121.786 133.048C121.451 133.337 121.284 133.822 121.274 134.317C121.263 134.813 121.437 135.297 121.806 135.612C122.042 135.943 122.547 136.189 122.963 136.22ZM133.529 134.754C133.412 134.222 130.853 133.118 128.92 132.74C128.84 132.76 128.788 132.756 128.792 132.704C128.584 132.689 128.296 132.693 128.088 132.678C127.592 132.667 127.109 132.841 126.794 133.21C126.479 133.578 126.26 134.059 126.222 134.579C126.221 135.651 127.019 136.52 128.087 136.573C129.919 136.552 133.407 135.346 133.529 134.754ZM130.356 142.31C130.618 141.937 129.905 139.924 128.571 137.812C128.383 137.876 128.151 137.833 128.023 137.797C126.979 137.772 126.005 137.151 125.443 136.273C125.331 136.369 125.32 136.525 125.18 136.646C125.068 136.742 124.957 136.838 124.877 136.859C125.053 136.95 125.121 137.086 125.318 137.257C125.872 137.9 126.226 138.762 126.216 139.598C126.233 139.73 126.221 139.886 126.146 140.194C127.994 141.717 129.972 142.543 130.356 142.31ZM122.869 145.259C123.457 145.093 124.814 141.586 124.801 139.65C124.812 139.494 124.776 139.283 124.759 139.151C124.678 138.831 124.521 138.479 124.277 138.252C123.936 137.913 123.431 137.667 122.963 137.632C122.467 137.621 121.984 137.795 121.669 138.164C121.354 138.533 121.136 139.013 121.097 139.533C121.059 141.465 122.305 145.113 122.869 145.259ZM115.517 141.813C115.861 142.1 117.823 141.382 119.831 140.041C119.826 139.753 119.789 139.541 119.769 139.461C119.755 138.597 120.132 137.736 120.722 137.179C120.834 137.082 121.026 136.966 121.137 136.869C121.041 136.758 120.889 136.694 120.793 136.583C120.696 136.471 120.596 136.411 120.5 136.299C119.946 137.069 118.94 137.596 117.924 137.547C117.792 137.563 117.636 137.552 117.356 137.452C116.009 139.392 115.284 141.43 115.517 141.813ZM106.109 145.64C107.386 146.048 108.558 146.108 109.314 146.138C108.583 143.653 106.869 141.382 106.174 140.52C104.715 140.805 103.176 141.109 101.597 141.253C102.119 143.384 103.635 144.803 106.109 145.64ZM105.539 139.218C105.726 139.154 105.938 139.117 106.126 139.053C106.258 139.036 106.314 138.988 106.446 138.972C107.749 138.676 108.896 138.369 110.039 138.113C110.248 137.057 110.771 134.22 110.256 131.646C108.615 132.623 104.759 135.265 105.539 139.218ZM111.481 137.697C112.712 137.318 113.707 136.947 114.458 136.689C113.389 136.296 112.404 135.831 111.77 135.209C111.749 136.201 111.607 137.053 111.481 137.697ZM115.712 126.455C115.449 126.828 116.163 128.841 117.497 130.953C117.785 130.948 117.945 130.908 118.024 130.887C118.86 130.897 119.721 131.274 120.275 131.917C120.472 132.088 120.488 132.22 120.584 132.332C120.696 132.235 120.756 132.135 120.867 132.039C120.979 131.943 121.091 131.846 121.202 131.75C120.633 131.316 120.187 130.629 120.005 129.91C119.921 129.642 119.944 129.33 119.963 129.07C119.946 128.938 119.958 128.782 120.033 128.474C118.069 127.1 116.067 126.246 115.712 126.455ZM121.304 128.254C121.324 128.334 121.293 128.41 121.289 128.462C121.273 128.67 121.278 128.958 121.263 129.166C121.252 129.662 121.422 130.198 121.815 130.541C122.156 130.879 122.66 131.126 123.128 131.161C124.172 131.186 124.994 130.331 125.019 129.287C125.034 129.079 124.997 128.868 124.993 128.58C124.972 128.5 124.976 128.448 124.956 128.368C124.915 127.868 124.793 127.388 124.696 126.937C124.319 125.314 123.655 123.696 123.246 123.561C122.691 123.651 121.662 126.242 121.304 128.254Z" fill="#979797"/>
    <path fill-rule="evenodd" clip-rule="evenodd" d="M179.071 143.651C172.31 150.401 172.31 161.395 179.071 168.146L191.318 180.412L203.604 168.146C210.365 161.395 210.365 150.401 203.604 143.651C196.843 136.9 185.832 136.9 179.071 143.651ZM184.007 148.211C179.959 152.224 179.959 158.734 184.007 162.746C188.055 166.759 194.621 166.759 198.669 162.746C202.716 158.734 202.716 152.224 198.669 148.211C194.621 144.198 188.055 144.198 184.007 148.211Z" fill="#FF2D34"/>
    </g>
    <defs>
    <clipPath id="clip0">
    <rect width="414" height="412" fill="white"/>
    </clipPath>
    </defs>
    </svg>
