<svg xmlns="http://www.w3.org/2000/svg" xmlns:xlink="http://www.w3.org/1999/xlink" width="16" height="16" viewBox="0 0 16 16">
  <defs>
    <clipPath id="clip-path">
      <path id="Combined_Shape" data-name="Combined Shape" d="M7,15V9H1A1,1,0,1,1,1,7H7V1A1,1,0,1,1,9,1V7h6a1,1,0,0,1,0,2H9v6a1,1,0,1,1-2,0Z" transform="translate(4 4)"/>
    </clipPath>
  </defs>
  <g id="Group_187" data-name="Group 187" transform="translate(-4 -4)">
    <path id="Combined_Shape-2" data-name="Combined Shape" d="M7,15V9H1A1,1,0,1,1,1,7H7V1A1,1,0,1,1,9,1V7h6a1,1,0,0,1,0,2H9v6a1,1,0,1,1-2,0Z" transform="translate(4 4)"/>
    <g id="Mask_Group_187" data-name="Mask Group 187" clip-path="url(#clip-path)">
      <g id="COLOR_black" data-name="COLOR/ black">
        <rect id="Rectangle" width="24" height="24" fill="#ff2d34"/>
      </g>
    </g>
  </g>
</svg>
