<?xml version="1.0" encoding="utf-8"?>
<svg width="20px" height="14px" viewBox="0 0 20 14" version="1.1" xmlns:xlink="http://www.w3.org/1999/xlink" xmlns="http://www.w3.org/2000/svg">
  <desc>Created with Lunacy</desc>
  <defs>
    <path d="M1.999 0L17.601 0Q17.6992 0 17.7969 0.00962573Q17.8947 0.0192515 17.991 0.0384102Q18.0873 0.057569 18.1813 0.0860763Q18.2753 0.114584 18.366 0.152165Q18.4567 0.189746 18.5433 0.236039Q18.6299 0.282333 18.7116 0.336892Q18.7932 0.391452 18.8692 0.453752Q18.9451 0.516052 19.0145 0.585494Q19.0839 0.654935 19.1462 0.730848Q19.2085 0.806761 19.2631 0.888415Q19.3177 0.970069 19.364 1.05668Q19.4103 1.14329 19.4478 1.23402Q19.4854 1.32474 19.5139 1.41872Q19.5424 1.5127 19.5616 1.60901Q19.5807 1.70533 19.5904 1.80306Q19.6 1.9008 19.6 1.999L19.6 12.001Q19.6 12.0992 19.5904 12.1969Q19.5807 12.2947 19.5616 12.391Q19.5424 12.4873 19.5139 12.5813Q19.4854 12.6753 19.4478 12.766Q19.4103 12.8567 19.364 12.9433Q19.3177 13.0299 19.2631 13.1116Q19.2085 13.1932 19.1462 13.2692Q19.0839 13.3451 19.0145 13.4145Q18.9451 13.4839 18.8692 13.5462Q18.7932 13.6085 18.7116 13.6631Q18.6299 13.7177 18.5433 13.764Q18.4567 13.8103 18.366 13.8478Q18.2753 13.8854 18.1813 13.9139Q18.0873 13.9424 17.991 13.9616Q17.8947 13.9807 17.7969 13.9904Q17.6992 14 17.601 14L1.999 14Q1.9008 14 1.80306 13.9904Q1.70533 13.9807 1.60901 13.9616Q1.5127 13.9424 1.41872 13.9139Q1.32474 13.8854 1.23402 13.8478Q1.14329 13.8103 1.05668 13.764Q0.970069 13.7177 0.888415 13.6631Q0.806761 13.6085 0.730848 13.5462Q0.654935 13.4839 0.585494 13.4145Q0.516052 13.3451 0.453752 13.2692Q0.391452 13.1932 0.336892 13.1116Q0.282333 13.0299 0.236039 12.9433Q0.189746 12.8567 0.152165 12.766Q0.114584 12.6753 0.0860763 12.5813Q0.057569 12.4873 0.0384102 12.391Q0.0192515 12.2947 0.00962573 12.1969Q0 12.0992 0 12.001L0 1.999Q0 1.9008 0.00962573 1.80306Q0.0192515 1.70533 0.0384102 1.60901Q0.057569 1.5127 0.0860763 1.41872Q0.114584 1.32474 0.152165 1.23402Q0.189746 1.14329 0.236039 1.05668Q0.282333 0.970069 0.336892 0.888415Q0.391452 0.806761 0.453752 0.730848Q0.516052 0.654935 0.585494 0.585494Q0.654935 0.516052 0.730848 0.453752Q0.806761 0.391452 0.888415 0.336892Q0.970069 0.282333 1.05668 0.236039Q1.14329 0.189746 1.23402 0.152165Q1.32474 0.114584 1.41872 0.0860763Q1.5127 0.057569 1.60901 0.0384102Q1.70533 0.0192515 1.80306 0.00962573Q1.9008 0 1.999 0Z" id="path_1" />
    <clipPath id="mask_1">
      <use xlink:href="#path_1" />
    </clipPath>
  </defs>
  <g id="RU">
    <g id="Mask">
      <use stroke="none" fill="#FFFFFF" xlink:href="#path_1" />
      <g clip-path="url(#mask_1)">
        <use xlink:href="#path_1" fill="none" stroke="#F5F5F5" stroke-width="1" />
      </g>
    </g>
    <g clip-path="url(#mask_1)">
      <path d="M0 4.66667L19.6 4.66667L19.6 0L0 0L0 4.66667Z" transform="translate(0 4.666667)" id="Rectangle-2" fill="#0C47B7" stroke="none" />
      <path d="M0 4.66667L19.6 4.66667L19.6 0L0 0L0 4.66667Z" transform="translate(0 9.333333)" id="Rectangle-2" fill="#E53B35" stroke="none" />
    </g>
  </g>
</svg>