<?xml version="1.0" encoding="utf-8"?>
<svg width="414px" height="363px" viewBox="0 0 414 363" version="1.1" xmlns:xlink="http://www.w3.org/1999/xlink" xmlns="http://www.w3.org/2000/svg">
  <desc>Created with Lunacy</desc>
  <g id="10_surprise">
    <g id="background">
      <g id="background_1_">
        <path d="M12.575 10.0694C8.56854 10.0694 4.35342 7.02281 0.0548261 0.929659C-0.0286416 0.804457 -0.0286416 0.595788 0.138294 0.51232C0.263496 0.428853 0.472165 0.428853 0.555633 0.595788C4.89596 6.68893 9.06934 9.65204 12.9506 9.44337C16.1224 9.27644 18.3343 7.10627 20.6296 4.85264C22.9667 2.55728 25.3873 0.178449 28.8929 0.0115137C32.7742 -0.197156 36.8641 2.43208 40.9123 7.77402C41.0375 7.89922 40.9958 8.10789 40.8706 8.23309C40.7454 8.35829 40.5367 8.31656 40.4115 8.19135C36.4468 3.01635 32.6072 0.51232 28.8929 0.679256C25.6377 0.846191 23.3841 3.01635 21.047 5.35345C18.7516 7.60708 16.3728 9.94418 12.9506 10.1528C12.8671 10.0694 12.7419 10.0694 12.575 10.0694Z" transform="translate(368.2049 86.1272)" id="Path" fill="#000000" stroke="none" />
        <path d="M14.453 11.5706C9.86229 11.5706 5.02116 8.06494 0.0548261 1.09538C-0.0286416 0.970176 -0.0286416 0.761506 0.138294 0.678039C0.263496 0.594571 0.472165 0.594571 0.555633 0.761506C5.5637 7.7728 10.3631 11.195 14.8703 10.9446C18.5429 10.7359 21.047 8.27361 23.7597 5.60264C26.4306 2.9734 29.2268 0.218966 33.2333 0.0102962C37.6988 -0.198373 42.373 2.76473 47.0472 8.89962C47.1724 9.02482 47.1306 9.23349 47.0054 9.35869C46.8802 9.44216 46.6716 9.44216 46.5464 9.31696C41.9974 3.34901 37.5318 0.469369 33.275 0.678039C29.4772 0.844974 26.9314 3.39074 24.2187 6.06171C21.5895 8.64921 18.8351 11.3619 14.9538 11.5706C14.7451 11.5706 14.6199 11.5706 14.453 11.5706Z" transform="translate(28.36594 327.6006)" id="Path" fill="#000000" stroke="none" />
        <path d="M11.1978 9.023C7.65039 9.023 3.89434 6.3103 0.0548261 0.926633C-0.0286416 0.801432 -0.0286416 0.592762 0.138294 0.509295C0.263496 0.425827 0.472165 0.425827 0.555633 0.592762C4.39515 5.97643 8.06773 8.60567 11.5316 8.397C14.3278 8.23006 16.2476 6.35204 18.2925 4.30708C20.3792 2.26212 22.5076 0.175424 25.6377 0.00848825C29.1016 -0.158447 32.6907 2.13692 36.3216 6.89458C36.4468 7.01978 36.405 7.22845 36.2798 7.35365C36.1546 7.47885 35.946 7.43712 35.8208 7.31192C32.3568 2.67946 28.9347 0.467561 25.6794 0.634496C22.7998 0.759698 20.8383 2.72119 18.7516 4.76615C16.7066 6.76938 14.6199 8.81433 11.5734 8.98127C11.4482 8.98127 11.323 9.023 11.1978 9.023Z" transform="translate(0.4042464 16.47639)" id="Path" fill="#000000" stroke="none" />
        <path d="M0 0L9.51511 0L9.51511 9.51511L0 9.51511L0 0Z" transform="matrix(0.8660254 0.5 -0.5 0.8660254 26.93458 86.94224)" id="Rectangle" fill="#FF2D34" stroke="none" />
        <path d="M0 0L7.09476 3.93838e-16L7.09476 7.09476L0 7.09476L0 0Z" transform="matrix(0.7419758 0.6704266 -0.6704266 0.7419758 352.1052 316.3134)" id="Rectangle" fill="#FF2D34" stroke="none" />
        <path d="M0.324882 8.42125C0.283148 8.42125 0.241414 8.42125 0.19968 8.42125C0.0327448 8.37952 -0.0507229 8.17085 0.0327448 8.00391L2.99585 0.19968C3.03758 0.0327448 3.24625 -0.0507229 3.41319 0.0327448C3.58012 0.0744787 3.66359 0.283148 3.58012 0.450084L0.617019 8.25432C0.575285 8.33779 0.491817 8.42125 0.324882 8.42125Z" transform="translate(132.2636 0.008989071)" id="Path" fill="#000000" stroke="none" />
        <path d="M7.67903 4.63246C7.6373 4.63246 7.59556 4.63246 7.5121 4.59073L0.166935 0.584274C0 0.500807 -0.0417339 0.292137 0.0417339 0.166936C0.125202 0 0.333871 -0.0417339 0.459073 0.0417339L7.80423 4.04819C7.97117 4.13165 8.0129 4.34032 7.92943 4.46553C7.8877 4.54899 7.80423 4.63246 7.67903 4.63246Z" transform="translate(77.79194 142.1038)" id="Path" fill="#000000" stroke="none" />
        <path d="M0.333871 7.8877C0.292137 7.8877 0.208669 7.8877 0.166936 7.84596C0 7.76249 -0.0417339 7.55382 0.0417339 7.42862L4.17339 0.166935C4.25686 0 4.46552 -0.0417338 4.59073 0.0417338C4.75766 0.125202 4.7994 0.333871 4.71593 0.459072L0.626008 7.72076C0.54254 7.80423 0.459073 7.8877 0.333871 7.8877Z" transform="translate(19.40625 210.7978)" id="Path" fill="#000000" stroke="none" />
        <path d="M0.326 5.79315C0.242532 5.79315 0.159064 5.75142 0.0755963 5.66795C-0.0496054 5.54275 -0.0078715 5.33408 0.11733 5.20888L6.71128 0.0755964C6.83649 -0.0496055 7.04515 -0.00787152 7.17036 0.11733C7.29556 0.242532 7.25382 0.451202 7.12862 0.576404L0.534669 5.70968C0.492935 5.75142 0.409467 5.79315 0.326 5.79315Z" transform="translate(56.64074 277.6633)" id="Path" fill="#000000" stroke="none" />
        <path d="M0.333871 7.97117C0.292137 7.97117 0.250403 7.97117 0.166936 7.92943C0 7.84597 -0.0417339 7.6373 0.0417339 7.5121L4.00645 0.166935C4.08992 0 4.29859 -0.0417339 4.42379 0.0417339C4.59073 0.125202 4.63246 0.333871 4.549 0.459073L0.584275 7.80423C0.584275 7.8877 0.459073 7.97117 0.333871 7.97117Z" transform="translate(337.4601 39.27157)" id="Path" fill="#000000" stroke="none" />
        <path d="M4.88455 7.55552C4.80108 7.55552 4.67588 7.51379 4.63414 7.43032L0.0434248 0.460764C-0.0400428 0.335562 0.00169099 0.126893 0.126892 0.0434249C0.252094 -0.0400429 0.460763 0.00169099 0.544231 0.126893L5.13495 7.09645C5.21842 7.22165 5.17668 7.43032 5.05148 7.51379C5.00975 7.55552 4.96802 7.55552 4.88455 7.55552Z" transform="translate(408.406 13.01928)" id="Path" fill="#000000" stroke="none" />
        <path d="M4.71762 7.72246C4.59242 7.72246 4.50895 7.68072 4.46721 7.55552L0.0434248 0.460764C-0.0400429 0.293828 0.00169099 0.126893 0.126893 0.0434249C0.293828 -0.0400429 0.460763 0.00169099 0.544231 0.126893L4.92629 7.26339C5.00975 7.43032 4.96802 7.59726 4.84282 7.68072C4.80108 7.72246 4.75935 7.72246 4.71762 7.72246Z" transform="translate(73.86726 53.79327)" id="Path" fill="#000000" stroke="none" />
        <path d="M5.3133 7.31651C5.22983 7.31651 5.10463 7.27478 5.0629 7.19131L0.0548262 0.472164C-0.0286416 0.346963 -0.0286416 0.138294 0.138294 0.0548261C0.263496 -0.0286416 0.472165 -0.0286416 0.555633 0.138294L5.5637 6.85744C5.64717 6.98264 5.64717 7.19131 5.48024 7.27478C5.4385 7.27478 5.39677 7.31651 5.3133 7.31651Z" transform="translate(295.1288 168.8839)" id="Path" fill="#000000" stroke="none" />
        <path d="M0.341961 8.7722C0.300227 8.7722 0.300227 8.7722 0.258493 8.7722C0.0915566 8.73047 -0.0336453 8.56353 0.00808867 8.3966L1.92785 0.258492C1.96959 0.0915564 2.13652 -0.0336452 2.30346 0.00808864C2.47039 0.0498225 2.5956 0.216758 2.55386 0.383693L0.634098 8.5218C0.634098 8.647 0.467163 8.7722 0.341961 8.7722Z" transform="translate(365.998 236.0387)" id="Path" fill="#000000" stroke="none" />
        <path d="M2.89028 8.52435C2.76508 8.52435 2.63988 8.44089 2.59814 8.31568L0.0106352 0.38624C-0.0310988 0.219305 0.0523692 0.0523691 0.219305 0.0106352C0.386241 -0.0310987 0.553177 0.0523691 0.594911 0.219305L3.18242 8.14875C3.22415 8.31568 3.14068 8.48262 2.97375 8.52435C2.97375 8.52435 2.93201 8.52435 2.89028 8.52435Z" transform="translate(405.8095 330.0208)" id="Path" fill="#000000" stroke="none" />
        <path d="M0.683559 4.85695C1.26783 5.56642 2.10251 5.94203 2.97892 5.94203C3.64666 5.94203 4.31441 5.69162 4.85695 5.27428C6.10896 4.23094 6.31763 2.35291 5.27428 1.1009C4.77348 0.47489 4.064 0.0992849 3.27106 0.0158172C2.47812 -0.0676506 1.72691 0.182753 1.1009 0.683559C0.47489 1.18437 0.0992849 1.89384 0.0158172 2.68678C-0.0676506 3.47973 0.182753 4.23094 0.683559 4.85695ZM1.51824 1.14263C1.93558 0.767027 2.43638 0.600091 2.97892 0.600091C3.06239 0.600091 3.14586 0.600091 3.22933 0.641825C3.85533 0.683559 4.43961 0.975696 4.81521 1.4765C5.64989 2.47812 5.48295 3.9388 4.48134 4.77348C3.47973 5.60816 2.01904 5.44122 1.18437 4.43961C0.808761 3.98054 0.641825 3.35453 0.683559 2.72852C0.725293 2.10251 1.01743 1.51824 1.51824 1.14263Z" transform="translate(403.1334 185.9921)" id="Shape" fill="#000000" fill-rule="evenodd" stroke="none" />
        <path d="M2.09811 4.64388L2.34851 4.64388C3.51706 4.64388 4.56041 3.72573 4.64388 2.55718C4.72734 1.93117 4.51867 1.3469 4.14307 0.846094C3.72573 0.387022 3.18319 0.0948844 2.55718 0.0114167C1.30517 -0.113785 0.136618 0.80436 0.0114167 2.09811C-0.113785 3.35013 0.80436 4.51867 2.09811 4.64388ZM0.637425 2.13984C0.720892 1.26343 1.4721 0.595691 2.34851 0.595691L2.51545 0.595691C2.97452 0.637425 3.39186 0.887828 3.684 1.2217C3.97613 1.55557 4.10134 2.01464 4.0596 2.47372C3.97613 3.43359 3.09972 4.10134 2.18158 4.01787C1.2217 3.9344 0.553957 3.05799 0.637425 2.13984Z" transform="translate(243.8813 17.97588)" id="Shape" fill="#000000" fill-rule="evenodd" stroke="none" />
        <path d="M4.13165 8.26331C6.4135 8.26331 8.26331 6.4135 8.26331 4.13165C8.26331 1.8498 6.4135 0 4.13165 0C1.8498 0 0 1.8498 0 4.13165C0 6.4135 1.8498 8.26331 4.13165 8.26331Z" transform="translate(333.6623 119.4423)" id="Oval" fill="#FF2D34" stroke="none" />
        <path d="M3.53555 8.49832C3.78595 8.54005 4.03635 8.58178 4.28676 8.58178C6.33172 8.58178 8.12627 7.1211 8.50188 5.03441C8.71055 3.90759 8.46014 2.73904 7.7924 1.8209C7.12466 0.902752 6.16478 0.276744 5.03797 0.068075C2.70087 -0.349264 0.488974 1.19489 0.071635 3.53199C-0.137034 4.6588 0.113369 5.82735 0.781111 6.74549C1.44885 7.66364 2.40873 8.28965 3.53555 8.49832ZM1.28192 6.41162C0.739377 5.61868 0.530708 4.6588 0.697643 3.69892C1.07325 1.6957 2.95127 0.401946 4.91276 0.735817C5.87264 0.902752 6.70732 1.44529 7.24986 2.23824C7.7924 3.03118 8.00107 3.99106 7.83413 4.95094C7.50026 6.95416 5.58051 8.24791 3.61901 7.91404C2.65913 7.74711 1.82446 7.20457 1.28192 6.41162Z" transform="translate(91.57594 210.3958)" id="Shape" fill="#000000" fill-rule="evenodd" stroke="none" />
      </g>
    </g>
    <g id="general_1_" transform="translate(111.8468 25.45766)">
      <g id="general_2_">
        <g id="man_1_">
          <path d="M55.1722 37.2266C52.5429 37.2266 48.9121 37.1849 44.53 36.9345C40.5653 36.6841 36.9762 36.4754 33.721 35.8494C27.0018 34.6391 24.3308 32.4272 10.1413 25.2907C5.84274 23.1623 2.3371 21.4512 0 20.3661C1.25202 17.1526 2.54577 13.9391 3.83952 10.7256C5.25847 7.13649 6.67742 3.58911 8.1381 0C15.8171 2.12843 23.5379 4.21512 31.2169 6.34355C30.4657 10.4752 29.5893 15.4833 29.4224 17.1109C31.1752 18.2794 33.8879 19.8653 37.4353 21.0756C44.071 23.3292 47.3679 22.119 50.5397 24.3309C52.7933 25.9167 55.0887 29.2555 55.1722 37.2266Z" transform="translate(0.08346774 282.2044)" id="shoe_1_" fill="#000000" stroke="none" />
          <path d="M4.00938 9.64337C4.00938 9.64337 3.96765 9.64337 3.96765 9.64337C1.63055 9.22603 -0.0805412 7.05587 0.00292653 4.67704C0.0446604 4.05103 0.169862 3.46676 0.378531 2.92422C0.420265 2.84075 0.461999 2.75728 0.503733 2.67381C0.754136 2.13127 1.12974 1.6722 1.58881 1.25486C2.54869 0.37845 3.75898 -0.0388884 5.05273 0.00284549C6.76381 0.0445794 8.3497 1.04619 9.14265 2.54861C9.43478 3.04942 9.60172 3.59196 9.68519 4.17623C9.72692 4.34317 9.60172 4.5101 9.43478 4.5101C9.26785 4.55184 9.10091 4.42664 9.10091 4.2597C9.01744 3.75889 8.85051 3.25809 8.64184 2.84075C7.93236 1.50526 6.55515 0.670587 5.05273 0.628853C3.92591 0.58712 2.88256 0.962724 2.04789 1.71393C1.67228 2.08954 1.33841 2.50688 1.08801 2.96595C1.04627 3.04942 1.00454 3.13288 1.00454 3.17462C0.79587 3.67543 0.670669 4.17623 0.670669 4.67704C0.587201 6.76373 2.08962 8.64176 4.13458 9.01736C4.30152 9.05909 4.42672 9.22603 4.38498 9.39296C4.30152 9.5599 4.17631 9.64337 4.00938 9.64337Z" transform="translate(86.38618 31.88183)" id="Path" fill="#000000" stroke="none" />
          <g id="hand_l_1_" transform="translate(21.70161 0)">
            <path d="M2.50572 20.7759C2.42226 20.7759 2.33879 20.7342 2.29705 20.6924C2.17185 20.5672 2.17185 20.3585 2.29705 20.2333C8.0146 14.1402 12.3132 9.38254 13.8156 7.75492C14.1912 7.37931 14.9842 6.46117 14.7755 5.70996C14.692 5.37609 14.3164 5.04222 13.9408 4.95875C13.2313 4.79181 12.5219 5.41782 12.188 5.66823C10.5604 7.00371 7.13818 10.1755 3.42387 13.6811C3.29867 13.8063 3.13173 13.8063 3.00653 13.6811C2.88133 13.5977 2.83959 13.389 2.9648 13.2638C4.13334 11.4692 5.38536 9.71641 6.63738 8.04706C7.05472 7.50452 7.43032 6.96198 7.80592 6.5029C9.72568 3.95714 11.1446 2.12085 10.6438 1.11923C10.6021 0.994033 10.4352 0.743629 10.143 0.660161C9.35008 0.368024 8.0146 1.78698 7.51379 2.28778C5.05149 4.87528 2.08838 9.04867 0.544231 11.2606C0.460764 11.3858 0.252094 11.4275 0.126893 11.344C0.00169099 11.2606 -0.0400429 11.0519 0.0434249 10.9267C1.58758 8.67306 4.59242 4.49968 7.05472 1.87044C8.09806 0.785363 9.26661 -0.299717 10.3517 0.0758874C10.8108 0.242823 11.0612 0.618428 11.1864 0.827097C11.8958 2.16258 10.5186 3.9154 8.30673 6.87851C7.93113 7.37931 7.55552 7.88012 7.13818 8.42266C6.47044 9.34081 5.8027 10.259 5.13496 11.2188C8.0146 8.50613 10.5186 6.2525 11.8124 5.16742C12.188 4.83355 13.1061 4.08234 14.1077 4.33274C14.692 4.45794 15.2346 4.95875 15.4015 5.50129C15.7354 6.58637 14.7337 7.67145 14.3164 8.13052C12.7305 9.88335 8.47367 14.5158 2.79786 20.609C2.67266 20.7342 2.58919 20.7759 2.50572 20.7759Z" transform="translate(13.77049 0.7170562)" id="Path" fill="#000000" stroke="none" />
            <path d="M0.30719 24.4059C0.265456 24.4059 0.223722 24.4059 0.181988 24.3641C0.0150526 24.2807 -0.0266813 24.1137 0.0150526 23.9468C5.19005 12.5117 8.6957 4.99963 9.90598 2.6208C10.2816 1.86959 11.1997 0.0750337 12.5352 0.0750337C13.1612 0.0750337 13.7872 0.408905 14.0794 0.909711C14.6636 1.82786 14.0376 2.9964 12.9526 5.0831C12.7439 5.4587 12.5352 5.87604 12.3265 6.29338C12.9943 5.3335 13.662 4.41536 14.3298 3.49721C15.9157 1.41052 17.3346 -0.258837 18.837 0.0332998C19.3796 0.158501 19.6717 0.408905 19.7969 0.617574C20.4646 1.61919 19.4213 3.20507 18.0858 5.2083C17.9189 5.4587 17.7937 5.66737 17.6267 5.91778C16.4165 7.7958 15.2062 9.75729 14.1211 11.8023C14.0376 11.9692 13.829 12.0109 13.7038 11.9275C13.5368 11.844 13.4951 11.6353 13.5786 11.5101C14.7054 9.46515 15.8739 7.46193 17.1259 5.5839C17.2929 5.3335 17.4598 5.12483 17.585 4.87443C18.7118 3.20507 19.7552 1.61919 19.2961 0.951445C19.2126 0.826243 19.0457 0.701042 18.7118 0.617574C17.6685 0.408905 16.4582 1.70265 14.8306 3.83108C13.203 5.95951 11.6588 8.25487 10.2399 10.6337C10.1564 10.7589 9.98945 10.8424 9.82251 10.7589C9.65558 10.6754 9.61384 10.5085 9.69731 10.3416C10.3233 8.92261 10.9911 7.50366 11.6588 6.12645C11.9092 5.62564 12.1596 5.12483 12.41 4.70749C13.4116 2.82947 13.9542 1.78612 13.5368 1.16011C13.3282 0.784509 12.8691 0.617574 12.5352 0.617574C11.5336 0.617574 10.7407 2.24519 10.4485 2.82947C9.23824 5.2083 5.69086 12.7204 0.557593 24.1555C0.557593 24.3224 0.432391 24.4059 0.30719 24.4059Z" transform="translate(0.2353507 0.05016793)" id="Path" fill="#000000" stroke="none" />
            <path d="M9.18145 9.72729C9.09798 9.72729 9.01452 9.68556 8.93105 9.60209C8.80585 9.47689 8.84758 9.26822 8.97278 9.14302C10.35 8.09967 13.7722 5.42871 15.8589 3.34201C16.1927 3.00814 16.9022 2.29867 16.777 1.63093C16.6935 1.17185 16.3179 0.754514 15.9006 0.629312C15.4833 0.504111 15.1494 0.71278 13.8556 1.50572L13.1879 1.92306C12.228 2.50734 11.2264 3.09161 10.5587 3.42548C9.55706 3.96802 8.51371 4.42709 7.38689 4.84443C7.26169 4.88617 7.13649 4.84443 7.05302 4.76096C6.42702 4.09322 5.63407 3.59242 4.79939 3.34201C2.75444 2.71601 0.959879 3.59242 0.459073 3.88455C0.292137 3.96802 0.125202 3.92629 0.0417339 3.75935C-0.0417339 3.59242 0 3.42548 0.166935 3.34201C0.876411 2.92467 2.79617 2.04826 5.00806 2.75774C5.88448 3.04988 6.71915 3.50895 7.38689 4.21842C8.38851 3.84282 9.34839 3.38375 10.2665 2.92467C10.9343 2.5908 11.8942 2.00653 12.854 1.42226L13.5218 1.00492C14.899 0.17024 15.3998 -0.121897 16.1093 0.0450382C16.777 0.253708 17.3196 0.879716 17.4448 1.54746C17.6117 2.54907 16.7353 3.42548 16.3597 3.80109C14.2312 5.88778 10.8091 8.60048 9.43185 9.64383C9.30665 9.72729 9.26492 9.72729 9.18145 9.72729Z" transform="translate(8.972782 16.60678)" id="Path" fill="#000000" stroke="none" />
            <path d="M8.85567 5.38367C8.73047 5.38367 8.60527 5.3002 8.56353 5.21673C7.97926 3.92298 6.93591 2.87964 5.47523 2.08669C4.51535 1.54415 3.38853 1.12681 2.13652 0.876411C1.09317 0.667742 0.383693 0.626008 0.34196 0.626008C0.175024 0.626008 0.0498225 0.500806 0.00808864 0.375605C-0.0336452 0.208669 0.0915564 0.0417339 0.258492 0C0.34196 0 1.17664 0.0417339 2.26172 0.250403C3.5972 0.54254 4.76575 0.959879 5.8091 1.54415C7.35325 2.42056 8.48006 3.54738 9.14781 4.96633C9.23127 5.13327 9.14781 5.3002 8.98087 5.38367C8.93914 5.38367 8.8974 5.38367 8.85567 5.38367Z" transform="translate(8.797758 10.35)" id="Path" fill="#000000" stroke="none" />
          </g>
          <g id="hand_r_1_" transform="translate(145.6512 51.75)">
            <path d="M0.293828 17.716C0.252094 17.716 0.168626 17.716 0.126893 17.6742C0.00169099 17.5908 -0.0400429 17.3821 0.0434249 17.2569C0.0851587 17.1734 0.460764 16.3805 0.878102 15.4624C2.42226 12.1654 5.63576 5.23755 7.47205 2.60832C8.80754 0.688561 9.93435 -0.146117 10.9777 0.0208189C11.562 0.104287 12.1045 0.479891 12.3549 0.980698C12.9392 2.10751 12.0628 3.52646 11.6872 4.15247C11.4368 4.52808 11.2281 4.94542 10.9777 5.32102C13.7739 1.31457 15.0676 0.89723 15.9023 1.06417C16.4448 1.18937 16.9456 1.52324 17.196 1.98231C17.9055 3.27606 16.6118 4.98715 15.2346 6.82344C15.0676 7.07384 14.9007 7.28251 14.7337 7.53292C13.0644 9.87001 11.562 12.4575 10.2682 15.2119C10.1848 15.3789 10.0178 15.4206 9.85088 15.3789C9.68395 15.2954 9.64222 15.1285 9.68395 14.9615C10.9777 12.1236 12.5219 9.53614 14.2329 7.15731C14.3999 6.90691 14.5668 6.69824 14.7337 6.44784C15.9023 4.86195 17.1543 3.19259 16.6535 2.27445C16.4866 1.98231 16.1527 1.73191 15.7771 1.64844C14.7337 1.43977 12.8557 3.48473 10.1848 7.61638C9.35008 8.95187 8.265 10.7047 7.51379 11.9567C7.51379 11.9567 7.51379 11.9567 7.51379 11.9984L7.47205 12.1236C6.67911 13.7513 6.67911 13.793 6.47044 13.8765C6.38697 13.9182 6.30351 13.8765 6.22004 13.8347C5.9279 13.6261 5.9279 13.5426 6.97125 11.7063C6.97125 11.7063 6.97125 11.7063 6.97125 11.6646C6.97125 11.6646 6.97125 11.6646 6.97125 11.6646C7.80592 9.95348 9.30834 6.73997 11.1446 3.8186C11.4368 3.31779 12.2297 2.06578 11.8124 1.27284C11.6454 0.938964 11.2698 0.688561 10.8942 0.646827C10.143 0.521625 9.18314 1.31457 8.01459 2.98392C6.22004 5.57142 3.00653 12.4575 1.46238 15.7545C0.836368 17.09 0.627699 17.549 0.544231 17.6325C0.502497 17.6742 0.41903 17.716 0.293828 17.716Z" transform="translate(7.55214 0.3547859)" id="Path" fill="#000000" stroke="none" />
            <path d="M0.302571 25.8602C0.219103 25.8602 0.135635 25.8185 0.0939012 25.7768C-0.0313004 25.6516 -0.0313004 25.4429 0.0939012 25.3177C6.18705 18.8907 9.98483 15.0094 12.8227 12.2967L12.8645 12.255C13.8243 11.3369 16.3701 8.9163 15.8276 7.41388C15.7024 7.08001 15.5354 6.95481 15.4102 6.87134C14.7425 6.5792 13.3653 7.87295 11.0699 10.0014C9.60922 11.3369 8.44068 12.4637 7.7312 13.1314C7.606 13.2566 7.43906 13.2566 7.31386 13.1314C7.18866 13.0479 7.14692 12.8393 7.23039 12.7141C8.73281 10.377 10.3187 8.08162 11.9463 5.95319L12.2802 5.53585C13.6157 3.78303 14.8677 2.11368 14.3669 1.19553C14.1999 0.903394 13.8661 0.652991 13.5322 0.611257C12.4889 0.402588 11.3203 1.94674 9.44229 4.45077C8.06507 6.3288 6.64612 8.20682 5.31064 10.1266C5.22717 10.2518 5.0185 10.2935 4.8933 10.21C4.76809 10.1266 4.72636 9.91791 4.80983 9.79271C6.18705 7.87295 7.56426 5.95319 8.98322 4.1169C11.1116 1.279 12.2802 -0.22342 13.6991 0.026983C14.2417 0.110451 14.7425 0.486056 14.9512 0.945128C15.6189 2.19714 14.3252 3.94997 12.781 5.95319L12.4471 6.37053C11.362 7.78948 10.277 9.2919 9.23362 10.8361C9.65096 10.4605 10.11 10.0014 10.6108 9.5423C13.3235 6.99654 14.5756 5.82799 15.6189 6.28706C15.8693 6.37053 16.1614 6.62093 16.3701 7.16348C17.0796 8.99976 14.4921 11.4621 13.2401 12.6723L13.2401 12.7975C10.4439 15.4685 6.64612 19.3498 0.552974 25.7768C0.469506 25.8602 0.386038 25.8602 0.302571 25.8602Z" transform="translate(12.63493 5.148017)" id="Path" fill="#000000" stroke="none" />
            <path d="M12.0717 17.3356C11.9048 17.3356 11.7796 17.2104 11.7379 17.0435C11.6961 16.1671 11.4874 14.4143 10.3189 12.7866C9.60943 11.8268 8.69128 11.0338 7.6062 10.4913C7.481 10.4496 7.39753 10.2826 7.43926 10.1574C7.81487 7.86205 8.27394 5.73362 8.81648 3.77213L8.85822 3.64693C9.10862 2.77052 9.44249 1.56024 8.94168 0.975963C8.69128 0.72556 8.31568 0.600358 7.89834 0.642092C6.98019 0.767293 6.35418 2.10278 5.68644 3.48C2.34773 10.5748 1.59652 12.578 0.887047 14.6229L0.636643 15.2907C0.594909 15.4576 0.38624 15.5411 0.219305 15.4993C0.0523691 15.4576 -0.0310987 15.2489 0.0106352 15.082L0.261038 14.4143C1.01225 12.3693 1.76346 10.3661 5.10217 3.22959C5.85338 1.6437 6.52112 0.183019 7.81487 0.0160837C8.39914 -0.067384 9.02515 0.183019 9.35902 0.558624C10.1102 1.3933 9.73463 2.77052 9.44249 3.81387L9.40076 3.93907C8.85822 5.81709 8.39914 7.86205 8.06527 10.0322C9.15035 10.6165 10.1102 11.4094 10.8197 12.411C12.1135 14.2056 12.3639 16.0836 12.3639 17.0435C12.4056 17.1687 12.2387 17.3356 12.0717 17.3356C12.0717 17.3356 12.0717 17.3356 12.0717 17.3356Z" transform="translate(0.1145664 7.579481)" id="Path" fill="#000000" stroke="none" />
            <path d="M8.38851 5.47408C8.26331 5.47408 8.17984 5.39062 8.09637 5.30715C7.6373 4.34727 6.51048 2.59445 4.38206 1.50937C2.8379 0.716424 1.33548 0.591223 0.333871 0.632957C0.166935 0.632957 0 0.507755 0 0.34082C0 0.173884 0.125202 0.00694859 0.292137 0.00694859C1.33548 -0.0347853 2.9631 0.0904163 4.63246 0.966827C6.96956 2.13538 8.1381 4.05513 8.63891 5.05675C8.72238 5.22368 8.63891 5.39062 8.51371 5.47408C8.51371 5.47408 8.47198 5.47408 8.38851 5.47408Z" transform="translate(12.10282 13.68176)" id="Path" fill="#000000" stroke="none" />
          </g>
          <g id="hair_1_" transform="translate(87.22379 19.61492)">
            <path d="M28.5877 13.0463C25.6663 12.1281 22.7032 11.21 19.6984 10.2919C17.57 9.66584 15.4415 8.9981 13.3548 8.37209C11.1847 10.9179 9.05625 13.5054 6.88609 16.0511C6.84436 15.6755 6.71915 15.0912 6.38528 14.4652C5.50887 12.8794 3.92298 12.4203 3.67258 12.3368C1.75282 11.7943 0.250403 12.7542 0 12.8794C0.0417339 12.5872 0.125202 12.2116 0.250403 11.7108C0.500806 10.7092 2.17016 4.40738 8.05464 1.44427C11.2681 -0.183349 14.273 -0.0164138 15.3163 0.02532C16.4014 0.0670539 22.0772 0.400925 25.7915 5.15859C28.1704 8.33036 28.546 11.5856 28.5877 13.0463Z" transform="translate(1.711089 0.1833493)" id="Path" fill="#000000" stroke="none" />
            <path d="M1.01857 0C0.809898 0.166935 0.309092 0.584274 0.100423 1.29375C-0.275182 2.54577 0.517761 3.63085 0.601229 3.75605C1.01857 2.7127 1.47764 1.66935 1.89498 0.626008C1.60284 0.417339 1.3107 0.208669 1.01857 0Z" transform="translate(0.1499805 20.7)" id="Path" fill="#000000" stroke="none" />
          </g>
          <g id="face_1_" transform="translate(81.38105 32.13508)">
            <path d="M3.85517 28.546C3.81343 28.546 3.72996 28.546 3.68823 28.5042C2.51968 27.753 1.3094 27.0435 0.140852 26.2923C0.0156502 26.2089 -0.0260837 26.0837 0.0156502 25.9167L2.06061 19.3228C2.10234 19.1558 2.26928 19.0724 2.43621 19.1141C3.68823 19.3645 4.94025 19.3645 6.15053 19.1976C8.48763 18.822 12.9531 17.2361 16.2919 10.6839C18.4203 6.51048 18.2534 2.5875 18.0864 1.08508L18.0447 0.834677C18.0447 0.667742 18.0029 0.500806 18.0029 0.333871C17.9612 0.166935 18.0864 0 18.2951 0C18.462 0 18.629 0.0834677 18.629 0.292137C18.6707 0.459073 18.6707 0.626008 18.6707 0.792944L18.7124 1.04335C18.8794 2.5875 19.0463 6.67742 16.8761 10.976C15.6659 13.3548 12.2437 18.9472 6.27573 19.8236C5.06545 19.9905 3.85517 19.9905 2.64488 19.7819L0.76686 25.875C1.89367 26.5427 3.02049 27.2522 4.10557 27.92C4.27251 28.0034 4.31424 28.2121 4.18904 28.3373C4.06384 28.5042 3.93863 28.546 3.85517 28.546Z" transform="translate(17.72124 0.333871)" id="Path" fill="#000000" stroke="none" />
            <path d="M2.67097 10.7407C2.62923 10.7407 2.62923 10.7407 2.5875 10.7407C2.12843 10.6155 1.66935 10.532 1.21028 10.4903C0.918145 10.4485 0.584274 10.4485 0.292137 10.4485C0.125202 10.4485 0 10.3233 0 10.1146C0 9.94771 0.166935 9.82251 0.333871 9.82251C0.667742 9.82251 1.00161 9.86425 1.33548 9.90598C1.75282 9.94771 2.12843 10.0312 2.54577 10.1146C3.63085 8.02796 7.34516 0.223722 7.38689 0.181988C7.47036 0.0150526 7.6373 -0.0266813 7.80423 0.0150526C7.97117 0.0985203 8.0129 0.265456 7.97117 0.432391C7.92943 0.474125 3.88125 8.98783 3.00484 10.6155C2.87964 10.6572 2.79617 10.7407 2.67097 10.7407Z" transform="translate(0.2504032 8.665592)" id="Path" fill="#000000" stroke="none" />
            <path d="M8.93105 6.67742C8.55544 7.7625 8.17984 8.84758 7.7625 9.97439C6.67742 9.47359 5.175 8.63891 3.75605 7.17823C1.08508 4.50726 0.292137 1.37722 0 0C0.667742 1.21028 2.12843 3.46391 4.9246 5.13327C6.46875 6.00968 7.8877 6.46875 8.93105 6.67742Z" transform="translate(11.30988 12.89577)" id="Path" fill="#000000" stroke="none" />
          </g>
          <g id="tshirt_1_" transform="translate(8.764112 23.78831)">
            <path d="M31.4223 1.87802C29.9199 6.55222 24.1189 33.3871 23.4094 40.4819C26.915 38.5204 31.9648 35.7659 38.3084 32.8863C45.3197 29.7145 48.9088 28.0869 53.8334 27.0018C58.0068 26.0837 64.7259 25.249 73.49 26.8766C68.9828 31.8429 68.6906 39.1046 72.4467 43.9458C76.2027 48.7869 83.7983 50.7484 88.7646 47.1175C93.7309 43.4867 93.0632 36.4754 93.0215 36.0998C103.163 40.0645 108.087 45.6569 110.508 49.079C112.929 52.5012 114.598 56.8415 117.978 65.4804C120.107 70.8641 121.651 75.3714 122.694 78.4597C127.535 68.8609 132.335 59.2621 137.176 49.6633C142.184 52.7933 147.234 55.9234 152.242 59.0534C151.574 62.9347 150.322 68.2766 147.86 74.3698C144.771 82.0488 135.673 104.585 121.818 104.752C110.216 104.877 101.702 89.1853 100.575 87.0986C99.7406 93.1083 96.0263 123.574 95.1082 132.422C71.6537 128.206 48.1576 124.033 24.7031 119.818C27.2072 110.595 29.6277 101.372 32.0483 92.1484C34.5941 82.3827 37.0981 72.6587 39.5187 62.8929C36.9729 64.0198 33.2168 65.3552 28.4592 66.1065C23.6181 66.8577 13.3098 68.4018 6.96624 63.9363C-8.14142 53.2107 5.92289 12.4367 6.63237 10.5169C8.17652 6.13488 9.80414 2.54577 11.0979 0C17.9422 0.500806 24.6614 1.21028 31.4223 1.87802Z" transform="translate(0.2537223 -2.96537E-14)" id="Path" fill="#000000" stroke="none" />
            <path d="M9.7188 20.0323C8.96759 20.0323 8.34158 19.9488 7.84078 19.8653C7.84078 19.8653 7.79904 19.8653 7.79904 19.8653C5.54541 19.1141 3.70912 17.9038 2.41537 16.2762C-0.798135 12.2698 -0.798135 5.96794 2.37364 0.166936C2.45711 0 2.66578 -0.0417339 2.79098 0.0417339C2.95791 0.125202 2.99965 0.333871 2.91618 0.459073C-0.130393 6.05141 -0.172127 12.1028 2.87445 15.9006C4.08473 17.403 5.83755 18.5716 7.96598 19.281C9.38493 19.4897 12.0976 19.6567 14.6851 18.1125C17.7317 16.2762 19.6097 12.6454 19.568 8.59718C19.568 8.43024 19.6932 8.26331 19.8601 8.26331C20.0271 8.26331 20.194 8.38851 20.194 8.55544C20.2357 12.8123 18.2742 16.6935 15.019 18.6133C13.141 19.7401 11.2212 20.0323 9.7188 20.0323Z" transform="translate(72.07959 26.96008)" id="Path" fill="#000000" stroke="none" />
          </g>
          <g id="legs_1_" transform="translate(5.008065 144.3992)">
            <path d="M25.668 54.7565C25.5428 54.7565 25.4176 54.6731 25.3759 54.5061C24.0404 48.9138 21.5781 43.0293 17.6134 33.9313C12.6888 22.538 6.76258 11.2698 0.0434249 0.460764C-0.0400429 0.293828 0.00169099 0.126893 0.126893 0.0434249C0.293828 -0.0400429 0.460764 0.00169099 0.544231 0.126893C7.30512 10.9777 13.2313 22.2458 18.1559 33.6809C22.1206 42.8206 24.5829 48.7051 25.9184 54.3392C25.9602 54.5061 25.835 54.6731 25.668 54.7148C25.7098 54.7565 25.668 54.7565 25.668 54.7565Z" transform="translate(93.10658 9.054559)" id="Path" fill="#000000" stroke="none" />
            <path d="M27.555 144.869C27.5133 144.869 27.5133 144.869 27.4715 144.869L0.219305 137.357C0.0523691 137.315 -0.0310987 137.148 0.0106352 136.981L35.1923 0.219305C35.234 0.0523691 35.401 -0.0310987 35.5679 0.0106352C35.7348 0.0523691 35.8183 0.219305 35.7766 0.38624L0.678377 136.856L27.3881 144.201L31.6449 132.349C36.9451 117.533 42.2453 102.676 47.5872 87.8604C48.5889 85.0643 49.5905 82.2264 50.5921 79.4302C54.2229 69.2889 57.8538 59.1058 61.4846 48.9645L67.703 31.5614C67.7447 31.4362 67.8699 31.3528 67.9951 31.3528C68.1203 31.3528 68.2455 31.4362 68.2873 31.5197C73.1284 42.0784 77.9695 52.637 82.8106 63.1957C82.8941 63.3626 82.8106 63.5296 82.6437 63.6131C82.4768 63.6965 82.3098 63.6131 82.2264 63.4461C77.5104 53.1379 72.7528 42.7878 68.0368 32.4796L62.0689 49.1731C58.4381 59.3145 54.8072 69.4558 51.1764 79.6389C50.1748 82.435 49.1731 85.2729 48.1715 88.0691C42.8713 102.885 37.5711 117.742 32.2292 132.557L27.8889 144.66C27.7637 144.785 27.6802 144.869 27.555 144.869Z" transform="translate(0.1980342 0.03109866)" id="Path" fill="#000000" stroke="none" />
            <path d="M0.302772 138.317C0.261038 138.317 0.261038 138.317 0.219305 138.317C0.0523691 138.275 -0.0310987 138.108 0.0106352 137.941L34.4828 0.219305C34.5245 0.0523691 34.6915 -0.0310987 34.8584 0.0106352C35.0254 0.0523691 35.1088 0.219305 35.0671 0.38624L0.594909 138.108C0.553176 138.233 0.427974 138.317 0.302772 138.317Z" transform="translate(8.628276 1.408316)" id="Path" fill="#000000" stroke="none" />
            <path d="M18.2394 26.9618C18.1559 26.9618 18.0307 26.92 17.989 26.8366L0.0434249 0.460764C-0.0400429 0.335562 0.00169099 0.126893 0.126893 0.0434249C0.252094 -0.0400429 0.460763 0.00169099 0.544231 0.126893L18.4898 26.5027C18.5733 26.6279 18.5315 26.8366 18.4063 26.92C18.3646 26.92 18.2811 26.9618 18.2394 26.9618Z" transform="translate(67.85758 31.42391)" id="Path" fill="#000000" stroke="none" />
          </g>
          <g id="lines_1_" transform="translate(77.625 6.677419)">
            <path d="M8.09637 1.41895C8.05464 1.41895 8.05464 1.41895 8.09637 1.41895L0.292137 0.626008C0.125202 0.626008 0 0.459072 0 0.292137C0 0.125202 0.166935 0 0.333871 0L8.09637 0.751209C8.26331 0.751209 8.38851 0.918145 8.38851 1.08508C8.38851 1.29375 8.22157 1.41895 8.09637 1.41895Z" transform="translate(0.1252016 20.11573)" id="Path" fill="#000000" stroke="none" />
            <path d="M5.20886 6.75302C5.1254 6.75302 5.04193 6.71128 4.95846 6.62781L0.0755963 0.534669C-0.0496054 0.409467 -0.0078715 0.200798 0.11733 0.0755962C0.242532 -0.0496054 0.451201 -0.0078715 0.576403 0.11733L5.45927 6.21048C5.58447 6.33568 5.54273 6.54435 5.41753 6.66955C5.33406 6.71128 5.2506 6.75302 5.20886 6.75302Z" transform="translate(10.06573 4.682065)" id="Path" fill="#000000" stroke="none" />
            <path d="M0.300133 8.38851C0.300133 8.38851 0.258399 8.38851 0.300133 8.38851C0.091464 8.38851 -0.0337376 8.22157 0.00799628 8.05464L0.759206 0.292137C0.759206 0.125202 0.926141 0 1.09308 0C1.26001 0 1.38521 0.166935 1.38521 0.333871L0.634004 8.09637C0.59227 8.26331 0.467069 8.38851 0.300133 8.38851Z" transform="translate(24.78192 -5.93074E-15)" id="Path" fill="#000000" stroke="none" />
          </g>
        </g>
        <path d="M167.687 30.9248L155.292 78.7936L143.565 83.9686L137.471 104.752C135.301 99.4936 133.131 94.2351 130.961 88.9766C109.176 86.9317 87.349 84.8032 65.5639 82.5913C48.9121 80.922 32.2186 79.2109 15.5667 77.4163L6.84436 54.254L0 36.0998L9.84919 45.8238L22.6198 58.4274L41.4835 29.5893L56.7163 6.30182L56.7163 45.9073L77.5833 29.798L112.306 2.96311L104.627 55.4643L147.571 0C146.695 17.6117 145.776 35.1817 144.9 52.7934C152.537 45.5317 160.091 38.2282 167.687 30.9248Z" transform="translate(46.15766 178.1202)" id="flame_1_" fill="#FF2D34" stroke="none" />
        <g id="box_1_" transform="translate(55.08871 250.8206)">
          <path d="M124.983 81.2558C119.599 81.2558 105.91 80.8385 70.812 79.0022C42.8085 77.5415 14.6382 75.9139 14.3878 75.8722C14.2208 75.8722 14.0956 75.747 14.0956 75.58C13.9287 73.3264 9.58836 20.4913 9.54662 16.6518L0.0313004 0.500806C-0.0104335 0.417339 -0.0104335 0.292137 0.0313004 0.166935C0.0730343 0.0834677 0.198236 0 0.323438 0L6.58352 0.459073C6.75045 0.459073 6.87566 0.626008 6.87566 0.792944C6.87566 0.959879 6.70872 1.08508 6.54178 1.08508L0.865978 0.667742L10.1309 16.3597C10.1726 16.4014 10.1726 16.4431 10.1726 16.5266C10.1726 19.4063 14.346 70.9893 14.7216 75.2044C45.6047 76.999 125.066 81.4228 128.196 80.4629C128.238 80.4212 128.321 80.3794 128.405 80.3794C128.572 80.3794 128.739 80.5046 128.739 80.7133C128.739 80.7968 128.697 80.922 128.613 80.9637C128.488 81.0889 128.279 81.2558 124.983 81.2558Z" transform="translate(0.1356351 3.922984)" id="Shape" fill="#000000" stroke="none" />
          <g id="Group" transform="translate(128.123 0)">
            <path d="M0 31.3839L6.09315 10.6004L17.8204 5.4254L30.2153 0L20.074 23.8718L20.7417 71.4067L0 83.9686L0 31.3839Z" transform="translate(0.4173387 0.667742)" id="Path" fill="#000000" stroke="none" />
            <path d="M0.166935 84.5778C0.208669 84.6195 0.292137 84.6195 0.333871 84.6195C0.347782 84.6195 0.361694 84.6149 0.375605 84.6102C0.403427 84.601 0.43125 84.5917 0.459073 84.6195L21.2425 72.0576C21.3677 71.9742 21.4095 71.8907 21.4095 71.7655L20.7417 24.2723L30.8413 0.442299C30.8831 0.317097 30.8413 0.233629 30.7579 0.108428C30.6744 -0.0167738 30.5492 -0.0167738 30.424 0.02496L6.30181 10.6254C6.21835 10.6671 6.17661 10.7506 6.13488 10.834L0 31.6175L0 84.2856C0 84.4108 0.0834677 84.536 0.166935 84.5778ZM0.626008 83.7431L0.626008 31.7427L6.71915 11.1262L29.9649 0.901371L20.1157 24.0637C20.074 24.1054 20.074 24.1471 20.074 24.1889L20.7417 71.5568L0.626008 83.7431Z" transform="translate(0.08346774 0.3506448)" id="Shape" fill="#000000" fill-rule="evenodd" stroke="none" />
          </g>
          <path d="M118.9 12.1863C118.858 12.1863 118.858 12.1863 118.9 12.1863L0.292137 0.626008C0.125202 0.626008 0 0.459073 0 0.292137C0 0.125202 0.166935 0 0.333871 0L118.858 11.5603L138.89 4.08992C139.057 4.04819 139.224 4.13165 139.308 4.25686C139.349 4.42379 139.266 4.59073 139.141 4.67419L119.067 12.1863C118.983 12.1863 118.942 12.1863 118.9 12.1863Z" transform="translate(9.640524 20.15746)" id="Path" fill="#000000" stroke="none" />
        </g>
      </g>
    </g>
  </g>
</svg>