<svg width="414" height="414" viewBox="0 0 414 414" fill="none" xmlns="http://www.w3.org/2000/svg">
    <line x1="71" y1="73.5" x2="348" y2="73.5" stroke="#B3B3B3" stroke-width="3"/>
    <line x1="71" y1="163.5" x2="348" y2="163.5" stroke="#B3B3B3" stroke-width="3"/>
    <line x1="71" y1="250.5" x2="348" y2="250.5" stroke="#B3B3B3" stroke-width="3"/>
    <line x1="71" y1="340.5" x2="348" y2="340.5" stroke="#B3B3B3" stroke-width="3"/>
    <rect x="39.5" y="38.5" width="68" height="68" rx="13.5" fill="white" stroke="#B3B3B3" stroke-width="3"/>
    <rect x="39.5" y="128.5" width="68" height="68" rx="13.5" fill="white" stroke="#B3B3B3" stroke-width="3"/>
    <rect x="39.5" y="216.5" width="68" height="68" rx="13.5" fill="white" stroke="#B3B3B3" stroke-width="3"/>
    <rect x="39.5" y="306.5" width="68" height="68" rx="13.5" fill="white" stroke="#B3B3B3" stroke-width="3"/>
    <rect x="217.5" y="38.5" width="68" height="68" rx="13.5" fill="white" stroke="#B3B3B3" stroke-width="3"/>
    <rect x="217.5" y="128.5" width="68" height="68" rx="13.5" fill="white" stroke="#B3B3B3" stroke-width="3"/>
    <rect x="217.5" y="216.5" width="68" height="68" rx="13.5" fill="white" stroke="#B3B3B3" stroke-width="3"/>
    <rect x="217.5" y="306.5" width="68" height="68" rx="13.5" fill="white" stroke="#B3B3B3" stroke-width="3"/>
    <rect x="129.5" y="38.5" width="68" height="68" rx="13.5" fill="white" stroke="#B3B3B3" stroke-width="3"/>
    <rect x="129.5" y="128.5" width="68" height="68" rx="13.5" fill="white" stroke="#B3B3B3" stroke-width="3"/>
    <rect x="129.5" y="216.5" width="68" height="68" rx="13.5" fill="white" stroke="#B3B3B3" stroke-width="3"/>
    <rect x="129.5" y="306.5" width="68" height="68" rx="13.5" fill="white" stroke="#B3B3B3" stroke-width="3"/>
    <rect x="307.5" y="38.5" width="68" height="68" rx="13.5" fill="white" stroke="#B3B3B3" stroke-width="3"/>
    <rect x="307.5" y="128.5" width="68" height="68" rx="13.5" fill="white" stroke="#B3B3B3" stroke-width="3"/>
    <rect x="307.5" y="216.5" width="68" height="68" rx="13.5" fill="white" stroke="#B3B3B3" stroke-width="3"/>
    <rect x="307.5" y="306.5" width="68" height="68" rx="13.5" fill="white" stroke="#B3B3B3" stroke-width="3"/>
    <path d="M182.51 183.431C183.048 183.492 184.004 183.616 184.721 183.986C187.171 185.096 185.796 187.994 183.167 188.302C182.629 188.364 181.972 188.364 181.195 188.241C180.179 188.117 179.642 188.302 178.865 188.487C177.311 188.919 175.578 189.412 171.156 188.426C155.679 185.281 156.098 162.156 141.577 170.049C140.74 170.481 139.844 169.741 140.023 168.816C140.979 161.848 147.851 159.998 153.528 161.108C153.05 157.285 152.512 147.973 155.799 139.895C158.548 133.235 164.284 133.112 164.404 141.128C164.463 145.753 165.181 152.043 165.957 156.298C173.726 150.995 184.84 155.188 184.84 167.213C184.84 168.508 183.167 168.878 182.749 167.644C180.478 162.834 173.128 160.306 171.634 164.006C169.901 168.446 175.817 174.798 178.745 177.264C180.598 178.867 181.972 180.039 182.032 181.642C182.032 182.691 182.331 183.184 182.51 183.431ZM161.177 164.931C161.476 162.834 162.193 160.183 163.985 158.086C162.97 153.831 162.252 146.123 162.193 141.128C162.133 135.332 159.504 136.75 157.83 140.697C154.305 149.083 155.38 159.073 155.739 161.786C157.711 162.403 159.683 163.451 161.177 164.931ZM163.507 169.494C164.105 171.961 165.479 175.353 167.033 176.832C168.109 177.881 166.555 179.546 165.479 178.559C162.73 174.983 162.312 170.358 160.759 167.891C157.412 162.711 145.939 160.861 142.832 166.843C157.83 160.923 157.113 183.122 171.574 186.206C175.518 187.069 176.952 186.637 178.267 186.267C179.223 186.021 180.06 186.021 181.434 186.144C182.092 186.267 182.689 186.267 183.048 186.267C183.884 186.144 184.243 185.589 182.988 185.466C182.39 185.404 181.733 185.342 181.434 185.096C181.374 185.096 179.881 184.294 179.881 181.642C179.821 181.149 178.745 180.224 177.371 178.991C173.546 175.722 167.391 168.754 169.662 163.081C171.574 158.21 178.984 159.628 182.211 162.896C178.805 151.18 160.579 156.915 163.507 169.494Z" fill="#020203"/>
    <path d="M234.092 177.613C244.777 189.091 262.952 189.82 274.643 179.329C275.093 178.916 275.15 178.196 274.727 177.749L270.097 172.768L259.146 161.019C259.099 160.94 259.052 160.86 258.943 160.764C258.879 160.747 258.879 160.747 258.833 160.668L242.047 142.613L237.416 137.632C236.994 137.185 236.265 137.124 235.815 137.537C224.153 148.17 223.407 166.135 234.092 177.613ZM252.82 160.593C251.865 159.602 251.773 158.175 252.36 156.997L256.412 161.355C255.183 161.894 253.758 161.645 252.82 160.593ZM249.778 159.043C249.847 159.796 250.123 160.538 250.496 161.172L240.024 170.654C236.338 166.194 234.954 160.48 235.897 155.19L249.778 159.043ZM252.013 162.847C252.641 163.283 253.367 163.611 254.079 163.735L256.352 177.767C250.985 178.066 245.566 176.28 241.541 172.33L252.013 162.847ZM258.593 177.5L256.333 163.671C256.906 163.558 257.432 163.365 257.929 163.03L267.566 173.359C264.934 175.592 261.853 176.971 258.593 177.5ZM250.78 155.304C250.457 155.752 250.18 156.279 250.03 156.84L236.402 153.055C237.267 150.081 238.827 147.293 241.143 144.975L250.78 155.304ZM239.609 143.362C231.536 151.484 231.202 164.617 239.103 173.079C244.046 178.41 251.03 180.682 257.816 179.896C257.816 179.896 257.816 179.896 257.879 179.913C261.868 179.446 265.825 177.835 269.129 175.114L272.243 178.419C261.509 187.363 245.352 186.44 235.715 176.111C226.077 165.782 226.559 149.816 236.512 139.995L239.609 143.362Z" fill="#020203"/>
    <path d="M154.715 318.715H154.658L154.629 318.764L151.592 323.831L151.561 323.883L151.592 323.934L154.629 329.002L154.658 329.05H154.715H160.789H160.845L160.874 329.002L163.911 323.934L163.942 323.883L163.911 323.831L160.874 318.764L160.845 318.715H160.789H154.715ZM151.592 336.711L151.561 336.762L151.592 336.814L154.629 341.881L154.658 341.93H154.715H160.789H160.845L160.874 341.881L163.911 336.814L163.942 336.762L163.911 336.711L160.874 331.644L160.845 331.595H160.789H154.715H154.658L154.629 331.644L151.592 336.711ZM154.715 344.475H154.658L154.629 344.523L151.592 349.591L151.561 349.642L151.592 349.694L154.629 354.761L154.658 354.81H154.715H160.789H160.845L160.874 354.761L163.911 349.694L163.942 349.642L163.911 349.591L160.874 344.523L160.845 344.475H160.789H154.715ZM149.378 350.999L149.349 350.95H149.292H141.685L137.116 343.238L140.918 336.813L140.948 336.762L140.918 336.712L137.116 330.287L141.685 322.575H149.292H149.349L149.378 322.526L153.181 316.1H162.322L166.125 322.526L166.154 322.575H166.211H173.819L177.622 329.001L177.651 329.05H177.708H185.315L189.884 336.762L186.082 343.187L186.052 343.238L186.082 343.288L189.884 349.713L185.315 357.425H177.708H177.651L177.622 357.474L173.819 363.9H164.678L160.875 357.474L160.846 357.425H160.789H153.181L149.378 350.999ZM143.218 338.07H143.162L143.133 338.119L140.096 343.186L140.065 343.238L140.096 343.289L143.133 348.356L143.162 348.405H143.218H149.292H149.349L149.378 348.356L152.415 343.289L152.445 343.238L152.415 343.186L149.378 338.119L149.349 338.07H149.292H143.218ZM149.378 325.169L149.349 325.12H149.292H143.218H143.162L143.133 325.169L140.096 330.236L140.065 330.287L140.096 330.339L143.133 335.406L143.162 335.455H143.218H149.292H149.349L149.378 335.406L152.415 330.339L152.445 330.287L152.415 330.236L149.378 325.169ZM163.089 330.307L163.058 330.358L163.089 330.409L166.126 335.477L166.155 335.525H166.211H172.285H172.342L172.371 335.477L175.408 330.409L175.438 330.358L175.408 330.307L172.371 325.169L172.342 325.12H172.285H166.211H166.154L166.125 325.169L163.089 330.307ZM166.211 338.07H166.155L166.126 338.119L163.089 343.186L163.058 343.238L163.089 343.289L166.126 348.356L166.155 348.405H166.211H172.285H172.342L172.371 348.356L175.408 343.289L175.439 343.238L175.408 343.186L172.371 338.119L172.342 338.07H172.285H166.211ZM175.408 356.169L175.439 356.117L175.408 356.066L172.371 350.998L172.342 350.95H172.285H166.211H166.155L166.126 350.998L163.089 356.066L163.058 356.117L163.089 356.169L166.126 361.236L166.155 361.285H166.211H172.285H172.342L172.371 361.236L175.408 356.169ZM174.585 349.591L174.555 349.642L174.585 349.694L177.622 354.761L177.651 354.81H177.708H183.782H183.838L183.867 354.761L186.904 349.694L186.935 349.642L186.904 349.591L183.867 344.523L183.838 344.475H183.782H177.708H177.651L177.622 344.523L174.585 349.591ZM174.585 336.711L174.555 336.762L174.585 336.814L177.622 341.881L177.651 341.93H177.708H183.782H183.838L183.867 341.881L186.904 336.814L186.935 336.762L186.904 336.711L183.867 331.644L183.838 331.595H183.782H177.708H177.651L177.622 331.644L174.585 336.711Z" fill="#020203" stroke="white" stroke-width="0.2"/>
    <path d="M233.361 353.297V353.247H233.311H233.311H233.31H233.31H233.309H233.309H233.309H233.308H233.308H233.307H233.307H233.306H233.306H233.306H233.305H233.305H233.304H233.304H233.303H233.303H233.303H233.302H233.302H233.301H233.301H233.3H233.3H233.3H233.299H233.299H233.298H233.298H233.297H233.297H233.297H233.296H233.296H233.295H233.295H233.294H233.294H233.294H233.293H233.293H233.292H233.292H233.291H233.291H233.291H233.29H233.29H233.289H233.289H233.288H233.288H233.287H233.287H233.287H233.286H233.286H233.285H233.285H233.284H233.284H233.284H233.283H233.283H233.282H233.282H233.281H233.281H233.281H233.28H233.28H233.279H233.279H233.278H233.278H233.278H233.277H233.277H233.276H233.276H233.275H233.275H233.275H233.274H233.274H233.273H233.273H233.272H233.272H233.272H233.271H233.271H233.27H233.27H233.269H233.269H233.269H233.268H233.268H233.267H233.267H233.266H233.266H233.266H233.265H233.265H233.264H233.264H233.263H233.263H233.263H233.262H233.262H233.261H233.261H233.26H233.26H233.26H233.259H233.259H233.258H233.258H233.257H233.257H233.256H233.256H233.256H233.255H233.255H233.254H233.254H233.253H233.253H233.253H233.252H233.252H233.251H233.251H233.25H233.25H233.25H233.249H233.249H233.248H233.248H233.247H233.247H233.247H233.246H233.246H233.245H233.245H233.244H233.244H233.244H233.243H233.243H233.242H233.242H233.241H233.241H233.241H233.24H233.24H233.239H233.239H233.238H233.238H233.238H233.237H233.237H233.236H233.236H233.235H233.235H233.235H233.234H233.234H233.233H233.233H233.232H233.232H233.232H233.231H233.231H233.23H233.23H233.229H233.229H233.229H233.228H233.228H233.227H233.227H233.226H233.226H233.226H233.225H233.225H233.224H233.224H233.223H233.223H233.222H233.222H233.222H233.221H233.221H233.22H233.22H233.219H233.219H233.219H233.218H233.218H233.217H233.217H233.216H233.216H233.216H233.215H233.215H233.214H233.214H233.213H233.213H233.213H233.212H233.212H233.211H233.211H233.21H233.21H233.21H233.209H233.209H233.208H233.208H233.207H233.207H233.207H233.206H233.206H233.205H233.205H233.204H233.204H233.204H233.203H233.203H233.202H233.202H233.201H233.201H233.201H233.2H233.2H233.199H233.199H233.198H233.198H233.198H233.197H233.197H233.196H233.196H233.195H233.195H233.195H233.194H233.194H233.193H233.193H233.192H233.192H233.191H233.191H233.191H233.19H233.19H233.189H233.189H233.188H233.188H233.188H233.187H233.187H233.186H233.186H233.185H233.185H233.185H233.184H233.184H233.183H233.183H233.182H233.182H233.182H233.181H233.181H233.18H233.18H233.179H233.179H233.179H233.178H233.178H233.177H233.177H233.176H233.176H233.176H233.175H233.175H233.174H233.174H233.173H233.173H233.173H233.172H233.172H233.171H233.171H233.17H233.17H233.17H233.169H233.169H233.168H233.168H233.167H233.167H233.167H233.166H233.166H233.165H233.165H233.164H233.164H233.164H233.163H233.163H233.162H233.162H233.161H233.161H233.161H233.16H233.16H233.159H233.159H233.158H233.158H233.157H233.157H233.157H233.156H233.156H233.155H233.155H233.154H233.154H233.154H233.153H233.153H233.152H233.152H233.151H233.151H233.151H233.15H233.15H233.149H233.149H233.148H233.148H233.148H233.147H233.147H233.146H233.146H233.145H233.145H233.145H233.144H233.144H233.143H233.143H233.142H233.142H233.142H233.141H233.141H233.14H233.14H233.139H233.139H233.139H233.138H233.138H233.137H233.137H233.136H233.136H233.136H233.135H233.135H233.134H233.134H233.133H233.133H233.133H233.132H233.132H233.131H233.131H233.13H233.13H233.13H233.129H233.129H233.128H233.128H233.127H233.127H233.126H233.126H233.126H233.125H233.125H233.124H233.124H233.123H233.123H233.123H233.122H233.122H233.121H233.121H233.12H233.12H233.12H233.119H233.119H233.118H233.118H233.117H233.117H233.117H233.116H233.116H233.115H233.115H233.114H233.114H233.114H233.113H233.113H233.112H233.112H233.111H233.111H233.111H233.11H233.11H233.109H233.109H233.108H233.108H233.108H233.107H233.107H233.106H233.106H233.105H233.105H233.105H233.104H233.104H233.103H233.103H233.102H233.102H233.102H233.101H233.101H233.1H233.1H233.099H233.099H233.099H233.098H233.098H233.097H233.097H233.096H233.096H233.095H233.095H233.095H233.094H233.094H233.093H233.093H233.092H233.092H233.092H233.091H233.091C231.477 353.247 228.849 352.96 227.101 351.25C225.791 349.969 225.297 348.187 225.132 346.692C224.993 345.433 225.088 344.391 225.122 344.022C225.128 343.956 225.132 343.912 225.132 343.891C225.168 343.653 225.29 343.431 225.457 343.268C225.625 343.104 225.833 343.004 226.037 343.004C226.06 343.004 226.101 342.998 226.152 342.992L226.168 342.99C226.218 342.983 226.281 342.975 226.355 342.967C226.519 342.95 226.738 342.932 226.993 342.932H227.113L227.028 342.846C225.754 341.565 225.279 339.801 225.123 338.324C224.992 337.085 225.087 336.061 225.121 335.692C225.128 335.626 225.132 335.58 225.132 335.559C225.203 335.081 225.551 334.741 226.041 334.671C226.064 334.671 226.099 334.665 226.14 334.659C226.147 334.658 226.155 334.657 226.163 334.656C226.204 334.65 226.253 334.642 226.31 334.635C226.447 334.617 226.628 334.599 226.846 334.599H226.961L226.882 334.515C225.681 333.234 225.242 331.523 225.105 330.1C224.99 328.917 225.085 327.947 225.12 327.582C225.127 327.512 225.132 327.464 225.132 327.442C225.204 326.964 225.553 326.622 226.044 326.554L226.052 326.553L226.059 326.549C226.063 326.547 226.075 326.543 226.098 326.538C226.12 326.533 226.15 326.527 226.186 326.522C226.259 326.51 226.359 326.498 226.482 326.487C226.727 326.464 227.063 326.446 227.461 326.446C228.257 326.446 229.3 326.518 230.361 326.768L230.455 326.791L230.419 326.701C230.126 325.986 229.908 325.203 229.908 324.349C229.908 322.89 230.509 321.571 231.24 320.508C231.971 319.444 232.831 318.639 233.343 318.21L233.361 318.195V318.172V314.149C233.361 313.532 233.852 313.05 234.487 313.05C235.121 313.05 235.612 313.532 235.612 314.149V318.172V318.195L235.63 318.21C236.142 318.639 237.002 319.444 237.733 320.508C238.465 321.571 239.065 322.89 239.065 324.349C239.065 325.203 238.847 325.986 238.555 326.701L238.518 326.791L238.613 326.768C240.469 326.33 242.266 326.495 242.792 326.543C242.863 326.549 242.91 326.554 242.932 326.554C243.422 326.624 243.77 326.965 243.841 327.442C243.842 327.456 243.844 327.487 243.849 327.532C243.877 327.84 243.967 328.84 243.841 330.073C243.695 331.505 243.256 333.234 242.091 334.516L242.015 334.599H242.128C242.345 334.599 242.527 334.617 242.663 334.635C242.72 334.642 242.77 334.65 242.811 334.656C242.818 334.657 242.826 334.658 242.833 334.659C242.874 334.665 242.909 334.671 242.932 334.671C243.423 334.741 243.772 335.083 243.842 335.562L243.843 335.57L243.847 335.578C243.846 335.576 243.848 335.58 243.851 335.593C243.854 335.605 243.857 335.621 243.861 335.641C243.868 335.682 243.877 335.74 243.886 335.811C243.904 335.954 243.923 336.155 243.935 336.399C243.96 336.889 243.96 337.555 243.878 338.297C243.713 339.783 243.22 341.565 241.945 342.846L241.861 342.932H241.981C242.236 342.932 242.454 342.95 242.618 342.967C242.692 342.975 242.755 342.983 242.806 342.99L242.822 342.992C242.87 342.998 242.909 343.003 242.932 343.003C243.422 343.073 243.77 343.414 243.841 343.891C243.842 343.912 243.846 343.956 243.852 344.022C243.885 344.391 243.98 345.433 243.841 346.692C243.677 348.187 243.183 349.969 241.872 351.25C240.124 352.96 237.497 353.247 235.883 353.247H235.882H235.882H235.881H235.881H235.881H235.88H235.88H235.879H235.879H235.878H235.878H235.878H235.877H235.877H235.876H235.876H235.875H235.875H235.874H235.874H235.874H235.873H235.873H235.872H235.872H235.871H235.871H235.871H235.87H235.87H235.869H235.869H235.868H235.868H235.868H235.867H235.867H235.866H235.866H235.865H235.865H235.865H235.864H235.864H235.863H235.863H235.862H235.862H235.862H235.861H235.861H235.86H235.86H235.859H235.859H235.859H235.858H235.858H235.857H235.857H235.856H235.856H235.856H235.855H235.855H235.854H235.854H235.853H235.853H235.853H235.852H235.852H235.851H235.851H235.85H235.85H235.85H235.849H235.849H235.848H235.848H235.847H235.847H235.847H235.846H235.846H235.845H235.845H235.844H235.844H235.843H235.843H235.843H235.842H235.842H235.841H235.841H235.84H235.84H235.84H235.839H235.839H235.838H235.838H235.837H235.837H235.837H235.836H235.836H235.835H235.835H235.834H235.834H235.834H235.833H235.833H235.832H235.832H235.831H235.831H235.831H235.83H235.83H235.829H235.829H235.828H235.828H235.828H235.827H235.827H235.826H235.826H235.825H235.825H235.825H235.824H235.824H235.823H235.823H235.822H235.822H235.822H235.821H235.821H235.82H235.82H235.819H235.819H235.819H235.818H235.818H235.817H235.817H235.816H235.816H235.816H235.815H235.815H235.814H235.814H235.813H235.813H235.813H235.812H235.812H235.811H235.811H235.81H235.81H235.809H235.809H235.809H235.808H235.808H235.807H235.807H235.806H235.806H235.806H235.805H235.805H235.804H235.804H235.803H235.803H235.803H235.802H235.802H235.801H235.801H235.8H235.8H235.8H235.799H235.799H235.798H235.798H235.797H235.797H235.797H235.796H235.796H235.795H235.795H235.794H235.794H235.794H235.793H235.793H235.792H235.792H235.791H235.791H235.791H235.79H235.79H235.789H235.789H235.788H235.788H235.788H235.787H235.787H235.786H235.786H235.785H235.785H235.785H235.784H235.784H235.783H235.783H235.782H235.782H235.782H235.781H235.781H235.78H235.78H235.779H235.779H235.778H235.778H235.778H235.777H235.777H235.776H235.776H235.775H235.775H235.775H235.774H235.774H235.773H235.773H235.772H235.772H235.772H235.771H235.771H235.77H235.77H235.769H235.769H235.769H235.768H235.768H235.767H235.767H235.766H235.766H235.766H235.765H235.765H235.764H235.764H235.763H235.763H235.763H235.762H235.762H235.761H235.761H235.76H235.76H235.76H235.759H235.759H235.758H235.758H235.757H235.757H235.757H235.756H235.756H235.755H235.755H235.754H235.754H235.754H235.753H235.753H235.752H235.752H235.751H235.751H235.751H235.75H235.75H235.749H235.749H235.748H235.748H235.748H235.747H235.747H235.746H235.746H235.745H235.745H235.744H235.744H235.744H235.743H235.743H235.742H235.742H235.741H235.741H235.741H235.74H235.74H235.739H235.739H235.738H235.738H235.738H235.737H235.737H235.736H235.736H235.735H235.735H235.735H235.734H235.734H235.733H235.733H235.732H235.732H235.732H235.731H235.731H235.73H235.73H235.729H235.729H235.729H235.728H235.728H235.727H235.727H235.726H235.726H235.726H235.725H235.725H235.724H235.724H235.723H235.723H235.723H235.722H235.722H235.721H235.721H235.72H235.72H235.72H235.719H235.719H235.718H235.718H235.717H235.717H235.717H235.716H235.716H235.715H235.715H235.714H235.714H235.713H235.713H235.713H235.712H235.712H235.711H235.711H235.71H235.71H235.71H235.709H235.709H235.708H235.708H235.707H235.707H235.707H235.706H235.706H235.705H235.705H235.704H235.704H235.704H235.703H235.703H235.702H235.702H235.701H235.701H235.701H235.7H235.7H235.699H235.699H235.698H235.698H235.698H235.697H235.697H235.696H235.696H235.695H235.695H235.695H235.694H235.694H235.693H235.693H235.692H235.692H235.692H235.691H235.691H235.69H235.69H235.689H235.689H235.689H235.688H235.688H235.687H235.687H235.686H235.686H235.686H235.685H235.685H235.684H235.684H235.683H235.683H235.682H235.682H235.682H235.681H235.681H235.68H235.68H235.679H235.679H235.679H235.678H235.678H235.677H235.677H235.676H235.676H235.676H235.675H235.675H235.674H235.674H235.673H235.673H235.673H235.672H235.672H235.671H235.671H235.67H235.67H235.67H235.669H235.669H235.668H235.668H235.667H235.667H235.667H235.666H235.666H235.665H235.665H235.664H235.664H235.664H235.663H235.663H235.662H235.612V353.297V362.851C235.612 363.469 235.121 363.95 234.487 363.95C233.852 363.95 233.361 363.469 233.361 362.851V353.297ZM235.612 350.999V351.049H235.662C236.288 351.049 237.137 351.013 237.988 350.823C238.837 350.633 239.692 350.289 240.326 349.67C240.96 349.05 241.312 348.214 241.506 347.382C241.7 346.551 241.737 345.721 241.737 345.108V345.058H241.687C241.061 345.058 240.212 345.094 239.362 345.284C238.512 345.474 237.657 345.818 237.023 346.438C236.389 347.057 236.037 347.893 235.843 348.725C235.649 349.556 235.612 350.386 235.612 350.999ZM235.612 342.594V342.644H235.662C236.288 342.644 237.137 342.608 237.988 342.419C238.837 342.229 239.692 341.885 240.326 341.265C240.96 340.646 241.312 339.809 241.506 338.978C241.7 338.147 241.737 337.316 241.737 336.704V336.654H241.687C241.061 336.654 240.212 336.69 239.362 336.88C238.512 337.07 237.657 337.414 237.023 338.033C236.389 338.653 236.037 339.489 235.843 340.32C235.649 341.152 235.612 341.982 235.612 342.594ZM241.737 328.516V328.466H241.687C241.061 328.466 240.212 328.501 239.362 328.691C238.512 328.881 237.657 329.225 237.023 329.845C236.389 330.464 236.037 331.3 235.843 332.132C235.649 332.963 235.612 333.793 235.612 334.406V334.456H235.662C236.288 334.456 237.137 334.42 237.988 334.23C238.837 334.04 239.692 333.696 240.326 333.077C240.96 332.457 241.312 331.621 241.506 330.79C241.7 329.958 241.737 329.128 241.737 328.516ZM234.522 320.076L234.488 320.043L234.453 320.074C234.01 320.471 233.438 321.067 232.975 321.79C232.513 322.513 232.159 323.367 232.159 324.277C232.159 325.153 232.513 325.988 232.975 326.711C233.437 327.434 234.01 328.047 234.452 328.479L234.487 328.514L234.522 328.479C234.964 328.047 235.536 327.434 235.998 326.711C236.46 325.988 236.814 325.153 236.814 324.277C236.814 323.402 236.46 322.567 235.998 321.844C235.536 321.121 234.964 320.508 234.522 320.076ZM227.287 328.466H227.237V328.516C227.237 329.128 227.273 329.976 227.467 330.816C227.661 331.656 228.013 332.493 228.648 333.077C229.282 333.696 230.137 334.04 230.986 334.23C231.836 334.42 232.685 334.456 233.311 334.456H233.361V334.406C233.361 333.829 233.324 332.999 233.13 332.159C232.936 331.319 232.584 330.464 231.95 329.845C231.316 329.225 230.461 328.881 229.612 328.691C228.762 328.501 227.913 328.466 227.287 328.466ZM227.287 336.654H227.237V336.704C227.237 337.316 227.273 338.147 227.467 338.978C227.661 339.809 228.014 340.646 228.648 341.265C229.281 341.885 230.136 342.229 230.986 342.419C231.836 342.608 232.685 342.644 233.311 342.644H233.361V342.594C233.361 342.018 233.324 341.188 233.13 340.347C232.936 339.508 232.584 338.653 231.95 338.033C231.316 337.414 230.461 337.07 229.612 336.88C228.762 336.69 227.913 336.654 227.287 336.654ZM227.287 345.058H227.237V345.108C227.237 345.721 227.273 346.551 227.467 347.382C227.661 348.214 228.014 349.05 228.648 349.67C229.281 350.289 230.136 350.633 230.986 350.823C231.836 351.013 232.685 351.049 233.311 351.049H233.361V350.999C233.361 350.422 233.324 349.592 233.13 348.752C232.936 347.912 232.584 347.057 231.95 346.438C231.316 345.818 230.461 345.474 229.612 345.284C228.762 345.094 227.913 345.058 227.287 345.058Z" fill="#020203" stroke="white" stroke-width="0.1"/>
    <path d="M273.347 326.065L273.368 326.067L273.384 326.051L276.153 323.341C276.153 323.341 276.153 323.341 276.153 323.341C276.56 322.953 277.239 322.953 277.646 323.341C278.05 323.726 278.054 324.372 277.644 324.829L274.876 327.538L274.859 327.555L274.862 327.58C274.932 328.22 274.967 329.332 274.729 330.529C274.491 331.726 273.979 333.002 272.96 333.975C272.397 334.512 271.693 334.915 270.988 335.185L270.891 335.222L270.981 335.274C272.613 336.233 273.74 337.561 274.027 337.9C274.059 337.937 274.081 337.962 274.091 337.974C274.36 338.361 274.36 338.81 274.092 339.197C274.077 339.212 274.05 339.243 274.009 339.29C273.782 339.549 273.154 340.266 272.235 340.994C271.138 341.864 269.639 342.738 267.95 342.839L267.835 342.846L267.918 342.925C268.06 343.061 268.184 343.178 268.271 343.27C268.315 343.317 268.349 343.355 268.372 343.385C268.383 343.401 268.391 343.413 268.395 343.422C268.399 343.428 268.4 343.431 268.4 343.432V343.447L268.409 343.459C268.681 343.849 268.681 344.3 268.409 344.69L268.408 344.689L268.405 344.695C268.405 344.695 268.405 344.695 268.405 344.696L268.402 344.7L268.394 344.712C268.387 344.722 268.378 344.735 268.365 344.752C268.341 344.784 268.306 344.829 268.262 344.883C268.173 344.991 268.046 345.139 267.884 345.313C267.56 345.661 267.098 346.112 266.528 346.559C265.387 347.454 263.818 348.328 262.059 348.328H261.934L262.025 348.414C262.201 348.582 262.342 348.733 262.438 348.85C262.486 348.908 262.522 348.957 262.546 348.995C262.558 349.014 262.567 349.029 262.572 349.041C262.577 349.052 262.577 349.056 262.577 349.056V349.071L262.586 349.084C262.857 349.472 262.858 349.922 262.589 350.31C262.574 350.326 262.545 350.359 262.504 350.408C262.27 350.681 261.626 351.435 260.67 352.184C259.529 353.079 257.96 353.952 256.166 353.952C253.701 353.952 251.584 352.27 250.521 351.189L250.486 351.153L250.45 351.188L243.847 357.625C243.847 357.625 243.847 357.625 243.847 357.625C243.641 357.821 243.369 357.95 243.101 357.95C242.833 357.95 242.561 357.822 242.355 357.626C241.946 357.169 241.951 356.524 242.354 356.139L242.354 356.138L248.958 349.701L248.996 349.663L248.956 349.628C247.822 348.613 246.062 346.593 246.062 344.176C246.062 342.465 246.959 340.952 247.879 339.846C248.661 338.906 249.451 338.269 249.719 338.053C249.762 338.018 249.792 337.994 249.806 337.982C250.213 337.724 250.686 337.724 251.093 337.982C251.118 338.004 251.162 338.039 251.219 338.085C251.255 338.114 251.296 338.147 251.341 338.184C251.465 338.285 251.624 338.42 251.8 338.588L251.884 338.669V338.552C251.884 336.841 252.781 335.327 253.701 334.221C254.483 333.281 255.274 332.644 255.542 332.428C255.585 332.394 255.614 332.37 255.628 332.357C256.032 332.103 256.499 332.1 256.903 332.349C256.908 332.36 256.914 332.37 256.92 332.377C256.931 332.392 256.947 332.406 256.963 332.42C256.996 332.448 257.042 332.481 257.093 332.518L257.095 332.519C257.202 332.595 257.341 332.695 257.48 332.828L257.558 332.902L257.565 332.795C257.67 331.15 258.568 329.704 259.461 328.648C260.218 327.755 260.963 327.15 261.222 326.94C261.265 326.905 261.295 326.881 261.309 326.868C261.716 326.611 262.189 326.611 262.597 326.869C262.609 326.879 262.634 326.898 262.671 326.927C263.019 327.197 264.409 328.274 265.354 329.836L265.405 329.92L265.443 329.83C265.724 329.157 266.147 328.486 266.709 327.949C267.729 326.976 269.05 326.487 270.287 326.251C271.524 326.015 272.674 326.032 273.347 326.065ZM261.952 329.029L261.917 328.996L261.883 329.029C261.455 329.437 260.902 330.033 260.455 330.732C260.009 331.431 259.666 332.236 259.666 333.063C259.666 333.923 260.008 334.729 260.455 335.419C260.902 336.11 261.455 336.689 261.883 337.097L261.917 337.13L261.952 337.097C262.379 336.689 262.933 336.093 263.379 335.394C263.826 334.695 264.168 333.889 264.168 333.063C264.168 332.203 263.826 331.397 263.379 330.706C262.932 330.016 262.379 329.436 261.952 329.029ZM256.271 334.585L256.238 334.554L256.204 334.584C255.775 334.959 255.221 335.538 254.774 336.238C254.328 336.937 253.985 337.76 253.985 338.62C253.985 339.48 254.328 340.286 254.775 340.976C255.221 341.667 255.775 342.246 256.202 342.654L256.237 342.687L256.271 342.654C256.699 342.246 257.252 341.65 257.699 340.95C258.145 340.252 258.488 339.446 258.488 338.62C258.488 337.759 258.145 336.954 257.699 336.263C257.252 335.572 256.698 334.993 256.271 334.585ZM250.38 348.21L250.413 348.242L250.447 348.212C250.876 347.837 251.43 347.257 251.876 346.558C252.323 345.859 252.665 345.036 252.665 344.176C252.665 343.316 252.323 342.51 251.876 341.82C251.429 341.129 250.876 340.55 250.449 340.142L250.414 340.109L250.38 340.142C249.952 340.55 249.399 341.146 248.952 341.845C248.506 342.544 248.163 343.35 248.163 344.176C248.163 345.036 248.505 345.842 248.952 346.533C249.399 347.224 249.952 347.803 250.38 348.21ZM251.94 349.698L251.906 349.734L251.942 349.769C252.369 350.176 252.975 350.721 253.69 351.164C254.404 351.607 255.23 351.951 256.095 351.951C256.96 351.951 257.786 351.607 258.5 351.164C259.214 350.721 259.821 350.176 260.248 349.769L260.285 349.733L260.248 349.697C259.821 349.289 259.214 348.744 258.5 348.301C257.786 347.858 256.96 347.514 256.095 347.514C255.23 347.514 254.386 347.858 253.663 348.301C252.94 348.744 252.333 349.289 251.94 349.698ZM257.764 344.004L257.726 344.041L257.764 344.077C258.191 344.484 258.798 345.029 259.512 345.472C260.226 345.915 261.052 346.259 261.917 346.259C262.781 346.259 263.625 345.933 264.348 345.498C265.072 345.063 265.679 344.518 266.073 344.074L266.105 344.038L266.07 344.004C265.643 343.597 265.037 343.052 264.322 342.609C263.608 342.166 262.782 341.822 261.917 341.822C261.052 341.822 260.226 342.166 259.512 342.609C258.798 343.052 258.191 343.597 257.764 344.004ZM271.751 338.588L271.788 338.552L271.751 338.516C271.324 338.108 270.717 337.563 270.003 337.12C269.289 336.677 268.463 336.333 267.598 336.333C266.733 336.333 265.889 336.677 265.166 337.12C264.443 337.563 263.836 338.108 263.443 338.517L263.408 338.553L263.445 338.588C263.872 338.995 264.478 339.54 265.193 339.983C265.907 340.426 266.733 340.77 267.598 340.77C268.463 340.77 269.289 340.426 270.003 339.983C270.717 339.54 271.324 338.995 271.751 338.588ZM266.838 333.741V333.791H266.888C267.493 333.791 268.313 333.757 269.135 333.578C269.956 333.399 270.783 333.074 271.395 332.489C272.009 331.904 272.349 331.097 272.537 330.296C272.724 329.494 272.76 328.694 272.76 328.116V328.066H272.71C272.105 328.066 271.284 328.1 270.463 328.279C269.642 328.458 268.815 328.783 268.202 329.368C267.589 329.953 267.248 330.76 267.061 331.561C266.873 332.362 266.838 333.163 266.838 333.741Z" fill="#020203" stroke="white" stroke-width="0.1"/>
    <path d="M321.74 161.141C322.351 161.141 322.846 160.646 322.846 160.035C322.846 159.423 322.351 158.928 321.74 158.928C321.129 158.928 320.633 159.423 320.633 160.035C320.633 160.646 321.129 161.141 321.74 161.141Z" fill="#020203"/>
    <path d="M330.799 148.623C328.101 148.623 325.474 151.32 323.952 155.815C323.814 156.3 323.399 156.645 322.915 156.645C322.776 156.645 322.707 156.645 322.431 156.645C321.877 156.438 321.532 155.746 321.739 155.193C323.537 149.73 326.995 146.41 330.729 146.41C331.421 146.41 331.836 146.894 331.836 147.517C331.836 148.139 331.49 148.623 330.799 148.623Z" fill="#020203"/>
    <path d="M366 166.812C366 176.84 357.84 185 347.812 185C345.668 185 343.732 184.654 341.795 183.963C339.375 183.271 336.816 183.409 334.534 184.308C333.289 184.793 332.044 185 330.799 185C322.639 185 316 175.318 316 163.423C316 151.459 322.57 141.846 330.799 141.846C332.943 141.846 334.811 142.331 336.263 143.299C336.747 143.645 337.162 143.852 337.715 143.99C337.715 143.645 337.715 143.437 337.715 143.16V136.106C337.715 135.415 338.199 135 338.822 135C339.444 135 339.928 135.484 339.928 136.106V138.043C340.066 137.905 340.136 137.835 340.274 137.697C342.21 135.761 345.184 134.723 347.881 135.207C348.365 135.207 348.711 135.692 348.78 136.106C349.126 138.043 348.642 140.187 347.674 141.916C355.281 142.607 361.436 152.012 361.436 163.423C361.436 164.115 361.436 164.876 361.297 165.705H364.824C365.585 165.705 366 166.12 366 166.812ZM339.928 143.299V144.129C341.726 144.129 343.455 143.437 344.838 142.192C346.083 140.809 346.775 139.149 346.775 137.282C345.046 137.282 343.248 137.974 341.864 139.219C340.827 140.325 340.136 141.846 339.928 143.299ZM337.024 181.266C332.598 177.946 329.624 172.759 329.624 166.743C329.624 166.051 330.108 165.636 330.73 165.636H359.015C359.154 164.806 359.154 164.046 359.154 163.354C359.154 152.704 353.552 144.059 346.636 144.059C346.429 144.059 346.083 144.059 345.806 144.059C344.077 145.512 342.072 146.342 339.928 146.342C339.721 146.342 338.545 146.342 338.545 146.342C337.162 146.342 335.917 145.996 334.811 145.235C333.773 144.544 332.39 144.198 330.73 144.198C323.815 144.198 318.213 152.842 318.213 163.492C318.213 174.142 323.815 182.787 330.73 182.787C331.629 182.787 332.667 182.58 333.704 182.234C334.811 181.819 335.917 181.473 337.024 181.266ZM363.787 167.988H331.975C332.667 176.286 339.444 182.787 347.881 182.787C356.318 182.787 363.095 176.286 363.787 167.988Z" fill="#020203"/>
    <path d="M352.307 169.579C352.653 170.063 352.515 170.824 352.1 171.169C350.993 172.068 349.472 172.552 348.02 172.552C346.567 172.552 345.046 172.068 343.94 171.169C343.386 170.824 343.386 170.063 343.732 169.579C344.078 169.025 344.839 169.026 345.323 169.371C346.706 170.478 349.195 170.478 350.648 169.371C351.063 168.956 351.685 168.956 352.307 169.579Z" fill="#020203"/>
    <path d="M175.105 81.8438L176.342 85.586C178.174 85.2586 180.236 85.9135 181.793 87.504C184.129 89.8897 184.404 93.5384 182.389 95.5966C181.518 96.4854 180.327 97 178.999 97C178.815 97 178.632 97 178.495 96.9532C177.029 96.8129 175.609 96.1112 174.464 94.9417C174.326 94.8014 174.189 94.6611 174.051 94.474C173.089 95.9709 171.578 96.9532 169.883 96.9532C169.104 96.9532 168.371 96.7661 167.729 96.3919C167.088 96.7661 166.355 96.9532 165.622 96.9532H155.269C154.49 96.9532 153.666 96.7193 152.979 96.2983C152.063 96.7193 151.055 96.9532 150.047 96.9532C146.703 96.9532 144 94.5675 144 91.6672C144 88.767 146.703 86.3813 150.047 86.3813C150.322 86.3813 150.642 86.3813 150.917 86.4281V61.5887C150.917 59.6708 152.108 57.9868 153.849 57.4254L155.636 56.8173C155.956 56.7237 156.185 56.3963 156.231 56.0689L156.781 51.1103C156.369 51.0168 156.094 50.6426 156.094 50.2683V44.8888C156.094 44.421 156.46 44 156.964 44H163.881C164.34 44 164.752 44.3742 164.752 44.8888V50.1748C164.752 50.5958 164.477 50.97 164.065 51.0168L164.614 56.0689C164.66 56.3963 164.889 56.677 165.21 56.8173L166.997 57.4254C168.783 58.0335 169.974 59.7176 169.928 61.5887V84.2763L173.364 81.4696V70.4298C173.364 69.962 173.731 69.541 174.234 69.541C174.693 69.541 175.105 69.9153 175.105 70.4298V74.9673C175.975 73.2833 177.121 71.3654 178.495 69.9153C179.777 68.6055 181.198 67.7635 182.755 67.3425C183.167 67.2489 183.626 67.2489 184.038 67.3425C185.412 67.7167 186.282 69.1668 185.916 70.5702C185.504 72.1606 184.679 73.6108 183.396 74.9206C180.785 77.5869 176.617 79.3177 175.105 79.9259V81.8438ZM175.746 77.774C177.579 76.9788 180.327 75.5754 182.16 73.7043C183.213 72.6284 183.9 71.4589 184.221 70.1959C184.313 69.9153 184.221 69.5878 183.992 69.3539C183.855 69.1668 183.626 69.0733 183.396 69.0733C183.305 69.0733 183.259 69.0733 183.167 69.12C181.931 69.4475 180.785 70.1492 179.732 71.2251C177.899 73.0494 176.525 75.9029 175.746 77.774ZM157.835 49.3328H163.011V45.8244H157.835V49.3328ZM152.658 61.5887V64.3486H168.188V61.6823C168.188 60.5596 167.455 59.5305 166.401 59.1562L164.614 58.5481C163.652 58.2207 162.965 57.3319 162.874 56.3495L162.324 51.1103H158.522L157.972 56.256C157.88 57.2851 157.193 58.1271 156.231 58.4546L154.445 59.0627C153.345 59.4369 152.658 60.4193 152.658 61.5887ZM147.482 91.6672C147.482 91.1995 147.115 90.7784 146.611 90.7784C146.153 90.7784 145.741 91.1527 145.741 91.6672C145.741 92.1818 146.107 92.556 146.611 92.556C147.069 92.556 147.436 92.135 147.482 91.6672ZM150.047 95.1756C152.429 95.1756 154.353 93.5852 154.353 91.6672C154.353 89.7493 152.429 88.1589 150.047 88.1589C148.993 88.1589 147.985 88.4863 147.115 89.0944C148.123 89.3283 148.902 90.1236 149.131 91.1527C149.406 92.6028 148.535 94.0062 147.115 94.2868C147.985 94.8949 148.993 95.2224 150.047 95.1756ZM165.622 95.1756C165.805 95.1756 166.035 95.1288 166.218 95.0821C165.302 93.9594 164.706 92.4157 164.706 90.7317C164.706 88.0185 166.172 85.7264 168.188 84.8844V66.0327H152.658V86.8491C154.72 87.6911 156.094 89.5154 156.094 91.6205C156.094 92.9303 155.544 94.1465 154.628 95.0821C154.811 95.1288 155.04 95.1756 155.223 95.1756H165.622ZM173.318 90.7784C173.318 88.346 171.761 86.3813 169.883 86.3813C167.959 86.3813 166.447 88.346 166.447 90.7784C166.447 93.2109 168.004 95.1756 169.883 95.1756C171.807 95.1756 173.318 93.2109 173.318 90.7784ZM175.059 88.0653C174.922 88.2056 174.83 88.346 174.693 88.4863C175.105 89.7961 175.151 91.1995 174.83 92.556C175.059 92.9771 175.334 93.3045 175.655 93.6319C176.479 94.474 177.533 94.9885 178.586 95.1289C179.594 95.2224 180.51 94.9417 181.152 94.2868C182.48 92.9303 182.205 90.4042 180.556 88.6734C179.732 87.8314 178.678 87.3169 177.624 87.1765C176.571 87.1297 175.7 87.4572 175.059 88.0653ZM174.693 86.1474L173.822 83.4342L171.852 85.0715C172.677 85.4925 173.364 86.1006 173.868 86.8491C174.097 86.5684 174.372 86.3345 174.693 86.1474Z" fill="#020203"/>
    <path d="M246.036 92.1609C246.597 92.4665 246.953 93.0267 246.953 93.638V95.3189C246.953 96.2357 246.189 96.9997 245.272 96.9997H228.362C227.445 96.9997 226.681 96.2357 226.681 95.3189V93.638C226.681 92.9758 227.037 92.4155 227.598 92.1609C226.121 90.7856 225 88.5954 225 86.0486C225 82.636 227.037 79.8345 229.228 78.8158V71.6849H227.19L229.075 65.9801C227.139 65.0124 225.815 63.0259 225.815 60.6829C225.815 57.423 228.464 54.7744 231.723 54.7744H232.589V53.0935H230.043V52.2276C230.043 49.8846 231.927 48 234.27 48H239.364C241.707 48 243.591 49.8846 243.591 52.2276V53.0935H241.045V54.7744H241.91C245.17 54.7744 247.819 57.423 247.819 60.6829C247.819 62.975 246.495 65.0124 244.559 65.9801L246.444 71.6849H244.406V78.8158C246.597 79.8345 248.634 82.636 248.634 86.0486C248.634 88.5954 247.513 90.7856 246.036 92.1609ZM242.725 80.1401C242.165 80.1401 241.554 80.4458 241.045 80.9551C242.063 82.4832 242.725 84.5715 242.725 86.9145C242.725 88.7482 242.318 90.5309 241.554 92.0081H242.725C244.406 92.0081 246.953 89.5122 246.953 86.0996C246.953 82.636 244.457 80.1401 242.725 80.1401ZM239.567 91.9571C240.484 90.6837 241.045 88.8501 241.045 86.8636C241.045 83.1963 239.109 80.0892 236.817 80.0892C234.525 80.0892 232.589 83.1963 232.589 86.8636C232.589 88.7991 233.15 90.6328 234.066 91.9571H239.567ZM241.91 56.4552H240.382C241.299 57.5249 241.91 59.002 241.91 60.6829C241.91 62.3638 241.299 63.8409 240.382 64.9105H241.91C244.254 64.9105 246.138 63.0259 246.138 60.6829C246.138 58.3399 244.203 56.4552 241.91 56.4552ZM236.817 64.9105C238.702 64.9105 240.179 63.0259 240.179 60.6829C240.179 58.3399 238.651 56.4552 236.817 56.4552C234.983 56.4552 233.455 58.3399 233.455 60.6829C233.455 63.0259 234.932 64.9105 236.817 64.9105ZM231.876 51.4127H241.758C241.401 50.4449 240.484 49.7318 239.364 49.7318H234.27C233.201 49.6809 232.233 50.394 231.876 51.4127ZM234.27 54.7744H239.364V53.0935H234.27V54.7744ZM231.723 64.9105H233.252C232.335 63.8409 231.723 62.3638 231.723 60.6829C231.723 59.002 232.335 57.5249 233.252 56.4552H231.723C229.38 56.4552 227.496 58.3399 227.496 60.6829C227.496 63.0259 229.431 64.9105 231.723 64.9105ZM230.705 66.4895L229.533 69.9531H244.101L242.929 66.4895C242.573 66.5404 242.216 66.5914 241.86 66.5914H231.723C231.367 66.5914 231.061 66.5914 230.705 66.4895ZM230.908 78.4593C231.927 78.4593 232.895 78.9177 233.71 79.6817C234.627 78.9177 235.696 78.4593 236.817 78.4593C237.938 78.4593 239.058 78.9177 239.924 79.6817C240.739 78.8668 241.707 78.4593 242.725 78.4593V71.6849H230.908V78.4593ZM230.908 91.9571H232.08C231.316 90.5309 230.908 88.7482 230.908 86.8636C230.908 84.5206 231.52 82.4322 232.589 80.9042C232.08 80.3948 231.52 80.0892 230.908 80.0892C229.228 80.0892 226.681 82.585 226.681 85.9977C226.681 89.4613 229.177 91.9571 230.908 91.9571ZM228.362 93.638V95.3189H245.272V93.638H228.362Z" fill="#020203"/>
    <path d="M239.364 86.8636H237.683C237.683 85.2337 237.327 84.164 236.97 83.7056L238.345 82.7379C238.957 83.6547 239.364 85.1827 239.364 86.8636Z" fill="#020203"/>
    <path d="M275.681 93.6383V95.3192C275.681 96.236 274.917 97 274 97H257.09C256.173 97 255.409 96.236 255.409 95.3192V93.6383C255.409 92.9761 255.765 92.4159 256.326 92.1612C254.849 90.7859 253.728 88.5957 253.728 86.0489C253.728 82.6363 255.765 79.8348 257.956 78.8161V71.6852H255.918L257.803 65.9804C255.867 65.0127 254.543 63.0262 254.543 60.6832C254.543 57.4233 257.192 54.7747 260.451 54.7747H261.317V53.0938H258.771V52.2279C258.771 49.8849 260.655 48.0003 262.998 48.0003H268.092C270.435 48.0003 272.319 49.8849 272.319 52.2279V53.0938H269.773V54.7747H270.639C273.898 54.7747 276.547 57.4233 276.547 60.6832C276.547 62.9753 275.223 65.0127 273.287 65.9804L275.172 71.6852H273.134V78.8161C275.325 79.8348 277.362 82.6363 277.362 86.0489C277.362 88.5957 276.241 90.7859 274.764 92.1612C275.325 92.4159 275.681 92.9761 275.681 93.6383ZM271.453 80.1404C270.893 80.1404 270.282 80.4461 269.773 80.9554C270.791 82.4835 271.453 84.5718 271.453 86.9148C271.453 88.7485 271.046 90.5312 270.282 92.0084H271.453C273.134 92.0084 275.681 89.5125 275.681 86.0999C275.681 82.6363 273.185 80.1404 271.453 80.1404ZM268.295 91.9574C269.212 90.684 269.773 88.8504 269.773 86.8639C269.773 83.1966 267.837 80.0895 265.545 80.0895C263.253 80.0895 261.317 83.1966 261.317 86.8639C261.317 88.7994 261.878 90.6331 262.794 91.9574H268.295ZM270.639 56.4555H269.11C270.027 57.5252 270.639 59.0023 270.639 60.6832C270.639 62.3641 270.027 63.8412 269.11 64.9108H270.639C272.982 64.9108 274.866 63.0262 274.866 60.6832C274.866 58.3402 272.931 56.4555 270.639 56.4555ZM265.545 64.9108C267.43 64.9108 268.907 63.0262 268.907 60.6832C268.907 58.3402 267.379 56.4555 265.545 56.4555C263.711 56.4555 262.183 58.3402 262.183 60.6832C262.183 63.0262 263.711 64.9108 265.545 64.9108ZM260.604 51.413H270.435C270.078 50.4452 269.161 49.7321 268.041 49.7321H262.947C261.929 49.6812 260.961 50.3943 260.604 51.413ZM262.998 54.7747H268.092V53.0938H262.998V54.7747ZM260.502 64.9108H262.03C261.114 63.8412 260.502 62.3641 260.502 60.6832C260.502 59.0023 261.114 57.5252 262.03 56.4555H260.502C258.159 56.4555 256.275 58.3402 256.275 60.6832C256.275 63.0262 258.159 64.9108 260.502 64.9108ZM259.433 66.4898L258.261 69.9534H272.829L271.657 66.4898C271.301 66.5407 270.944 66.5917 270.588 66.5917H260.451C260.146 66.5917 259.789 66.5917 259.433 66.4898ZM259.637 78.4596C260.655 78.4596 261.623 78.918 262.438 79.682C263.355 78.918 264.424 78.4596 265.545 78.4596C266.666 78.4596 267.786 78.918 268.652 79.682C269.467 78.8671 270.435 78.4596 271.453 78.4596V71.6852H259.637V78.4596ZM259.637 91.9574H260.808C260.044 90.5312 259.637 88.7485 259.637 86.8639C259.637 84.5209 260.248 82.4325 261.317 80.9045C260.808 80.3951 260.248 80.0895 259.637 80.0895C257.956 80.0895 255.409 82.5853 255.409 85.998C255.409 89.4616 257.956 91.9574 259.637 91.9574ZM274 95.3192V93.6383H257.09V95.3192H274Z" fill="#020203"/>
    <path d="M268.092 86.8636H266.411C266.411 85.2337 266.054 84.164 265.698 83.7056L267.073 82.7379C267.735 83.6547 268.092 85.1827 268.092 86.8636Z" fill="#020203"/>
    <path d="M143.253 267.145C144.591 269.918 147.146 272.047 151.351 274.005C155.97 276.133 159.623 276.57 162.818 275.377C166.013 274.185 168.649 271.372 170.814 266.729C174.654 258.438 176.318 245.319 172.815 238.676L175.335 233.302C177.265 233.563 179.357 232.452 180.195 230.627C180.725 229.48 180.793 228.216 180.368 227.089C179.942 225.961 179.075 225.018 177.934 224.497C176.685 223.884 175.336 224.033 174.394 224.254C173.934 223.381 173.161 222.33 171.866 221.77C170.725 221.25 169.462 221.191 168.333 221.627C167.203 222.063 166.253 222.939 165.724 224.086C165.194 225.233 165.126 226.497 165.551 227.625C165.851 228.358 166.244 228.984 166.831 229.495L164.311 234.869C163.763 234.959 163.222 235.15 162.58 235.349C155.402 237.993 147.546 247.235 144.147 254.587C141.909 259.638 141.622 263.739 143.253 267.145ZM169.75 229.482C170.058 228.804 169.806 228.017 169.131 227.714C168.664 227.496 168.284 227.071 168.104 226.631C167.918 226.09 167.986 225.582 168.154 225.066C168.596 224.126 169.873 223.629 170.807 224.064C171.742 224.499 172.274 225.72 172.4 226.113C172.473 226.46 172.793 226.739 173.107 226.918C173.421 227.096 173.822 227.066 174.216 226.937C174.657 226.753 175.94 226.356 176.875 226.791C177.342 227.009 177.722 227.434 177.902 227.874C178.088 228.415 178.02 228.924 177.852 229.44C177.41 230.379 176.133 230.876 175.199 230.441C174.525 230.138 173.736 230.397 173.428 231.075L171.042 236.187C170.508 235.722 169.981 235.358 169.36 235.102C168.74 234.845 168.072 234.642 167.364 234.594L169.75 229.482ZM146.684 255.66C150.263 247.992 157.844 239.929 163.645 237.789C165.463 237.101 167.019 237.037 168.261 237.55C173.761 240.067 173.015 255.687 168.424 265.596C166.614 269.507 164.453 271.882 161.947 272.822C159.441 273.762 156.442 273.328 152.497 271.503C148.866 269.856 146.738 268.098 145.639 265.912C144.361 263.286 144.647 259.94 146.684 255.66ZM161.42 267.824C160.84 267.413 160.734 266.564 161.196 265.926C163.104 263.519 164.432 259.945 165.315 254.944C165.436 254.482 165.764 254.105 166.205 253.921C166.452 253.853 166.652 253.838 166.906 253.87C167.621 254.019 168.067 254.691 168.013 255.4C167.009 260.864 165.547 264.699 163.365 267.529C162.802 268.175 161.954 268.288 161.42 267.824Z" fill="#020203"/>
    <path d="M249.721 224C243.553 224 237.742 225.649 233.353 228.534C228.965 231.42 226 235.601 226 240.489C226.237 243.257 228.313 245.671 228.372 248.144C228.372 251.148 226.059 253.739 226 256.389V266.4C226.059 273.938 235.192 276.941 240.826 277C250.61 277 258.735 271.994 263.657 261.924C267.867 259.392 276.763 251.737 277 247.556V235.778C276.941 229.948 270.714 227.592 266.207 226.238C260.573 224.53 253.991 224 249.721 224ZM249.721 226.356C253.753 226.356 260.217 226.944 265.555 228.534C269.172 229.712 274.569 231.773 274.628 235.778V247.556C272.078 252.326 267.156 257.272 262.174 260.04C261.937 260.158 261.759 260.334 261.7 260.57C257.134 270.287 249.899 274.644 240.826 274.644C236.556 274.644 228.194 271.641 228.372 266.4V256.389C228.965 253.503 230.685 250.853 230.744 248.144C230.626 245.2 228.431 242.962 228.372 240.489C228.372 236.543 230.744 233.069 234.658 230.478C238.572 227.887 244.028 226.356 249.721 226.356ZM247.942 228.711C244.977 228.711 241.063 229.771 237.683 231.538C234.658 233.187 231.397 235.954 231.337 239.311C231.041 242.55 233.531 245.082 233.709 248.027C233.353 251.089 231.1 254.269 230.981 257.331C230.922 258.921 231.693 260.629 233.353 261.689C235.073 262.749 237.564 263.279 241.359 263.397C244.858 263.397 248.713 262.631 251.381 261.159C254.524 259.392 257.252 256.33 259.15 251.442C259.447 250.618 260.217 249.911 261.463 249.204C264.547 247.379 268.105 245.966 270.24 243.433C271.485 241.961 272.315 239.959 272.315 237.486C272.137 232.892 266.503 231.302 262.945 230.419C258.023 229.182 252.212 228.711 247.942 228.711ZM247.942 231.067C251.974 231.067 257.727 231.597 262.293 232.716C264.843 233.422 269.765 234.6 269.884 237.544C269.884 239.488 269.291 240.842 268.342 241.961C266.088 244.493 262.827 245.553 260.158 247.202C258.735 248.086 257.49 249.087 256.897 250.618C255.177 255.152 252.864 257.684 250.255 259.157C247.645 260.629 244.562 261.041 241.478 261.041C238.987 261.041 236.556 260.806 234.599 259.687C233.531 259.039 233.294 258.45 233.353 257.39C233.769 253.974 235.785 251.03 236.081 248.086C235.844 244.906 233.769 242.197 233.709 239.252C234.124 236.484 236.615 234.777 238.809 233.599C241.834 232.009 245.57 231.067 247.942 231.067ZM242.486 235.13C241.774 235.189 241.3 236.013 241.478 236.661C242.427 239.723 244.977 241.667 248.12 242.432C246.519 246.613 244.858 250.323 242.19 254.563C241.774 255.093 241.952 255.918 242.486 256.271C243.02 256.624 243.85 256.389 244.147 255.8C246.993 251.266 248.772 247.202 250.492 242.727C253.872 242.903 257.608 241.843 260.988 239.664C261.522 239.311 261.641 238.546 261.344 238.016C260.988 237.486 260.217 237.368 259.684 237.662C256.363 239.841 252.627 240.666 249.602 240.253C246.578 239.841 244.443 238.369 243.672 235.954C243.613 235.483 243.02 235.071 242.486 235.13Z" fill="#020203"/>
    <path d="M351.491 331.479C351.212 327.601 348.361 324.335 344.56 323.517C340.758 322.699 336.816 324.503 334.977 327.873L332.99 326.755C335.341 322.488 340.286 320.211 345.051 321.236C349.866 322.272 353.437 326.382 353.813 331.29L351.491 331.479Z" fill="#020203"/>
    <path d="M330.54 350.466C329.222 350.182 328.39 349.367 328.043 348.762L328.003 348.7L320.181 332.06L320.442 331.586C322.684 327.083 327.763 324.676 332.68 325.734C333.288 325.865 333.835 326.035 334.371 326.257L333.547 328.36C333.112 328.161 332.656 328.062 332.2 327.964C328.449 327.157 324.631 328.881 322.712 332.128L330.032 347.652C330.111 347.775 330.701 348.485 332.189 348.222C333.24 348.024 333.65 347.104 333.752 346.384L336.004 346.763C335.68 348.761 334.44 350.086 332.615 350.435C331.829 350.637 331.148 350.597 330.54 350.466Z" fill="#020203"/>
    <path d="M346.304 353.859C345.696 353.728 345.069 353.434 344.375 352.966C343.035 352.041 342.446 350.589 342.705 348.894L344.968 349.222C344.797 350.511 345.492 350.979 345.723 351.135C346.921 351.976 347.74 351.622 347.925 351.502L360.982 340.364C360.569 336.615 357.798 333.473 354.047 332.666C353.591 332.568 353.124 332.52 352.657 332.473L352.771 330.217C353.35 330.235 353.969 330.315 354.527 330.435C359.495 331.505 363.083 335.777 363.274 340.804L363.317 341.344L349.231 353.322C348.716 353.741 347.673 354.153 346.304 353.859Z" fill="#020203"/>
    <path d="M338.839 351.086C336.305 350.54 334.318 348.681 333.582 346.188L333.535 345.913L332.859 327.364L335.159 327.275L335.856 345.723C336.362 347.317 337.686 348.557 339.359 348.917C341.032 349.277 342.687 348.731 343.854 347.498L351.774 330.904L353.845 331.88L345.769 348.705L345.686 348.846C343.949 350.753 341.323 351.62 338.839 351.086Z" fill="#020203"/>
    <path d="M355.261 356.105C352.879 355.592 350.899 353.946 349.945 351.725L352.043 350.851C352.711 352.427 354.108 353.576 355.73 353.925C358.569 354.536 361.341 352.746 361.952 349.907C361.984 349.755 362.006 349.654 362.039 349.502L362.032 349.288L360.213 342.214L362.408 341.625L364.314 349.036L364.346 349.627C364.342 349.891 364.298 350.094 364.244 350.347C363.309 354.442 359.316 356.977 355.261 356.105Z" fill="#020203"/>
    <path d="M321.35 348.807C317.295 347.934 314.709 343.93 315.582 339.875C315.636 339.621 315.68 339.419 315.785 339.176L315.879 338.984L316.213 338.42L320.853 332.629L322.612 334.069L317.961 339.909C317.928 340.062 317.906 340.163 317.874 340.315C317.263 343.154 319.053 345.925 321.891 346.536C323.564 346.896 325.31 346.424 326.517 345.251L328.069 346.911C326.214 348.633 323.732 349.319 321.35 348.807Z" fill="#020203"/>
    <path d="M58.1823 83.1466C49.9392 74.8913 49.9392 61.4469 58.1823 53.1915C66.4254 44.9362 79.8498 44.9362 88.0929 53.1915C96.3359 61.4469 96.3359 74.8913 88.0929 83.1466L73.114 98.1477L58.1823 83.1466Z" fill="#FF2D34"/>
    <path d="M65.5717 75.703C61.3941 71.5254 61.3941 64.7485 65.5717 60.5709C69.7493 56.3933 76.5262 56.3933 80.7038 60.5709C84.8814 64.7485 84.8814 71.5254 80.7038 75.703C76.5262 79.8806 69.7493 79.8806 65.5717 75.703Z" fill="white"/>
    <path d="M58.1823 173.147C49.9392 164.891 49.9392 151.447 58.1823 143.192C66.4254 134.936 79.8498 134.936 88.0929 143.192C96.3359 151.447 96.3359 164.891 88.0929 173.147L73.114 188.148L58.1823 173.147Z" fill="#FF2D34"/>
    <path d="M65.5717 165.703C61.3941 161.525 61.3941 154.748 65.5717 150.571C69.7493 146.393 76.5262 146.393 80.7038 150.571C84.8814 154.748 84.8814 161.525 80.7038 165.703C76.5262 169.881 69.7493 169.881 65.5717 165.703Z" fill="white"/>
    <path d="M58.1823 262.147C49.9392 253.891 49.9392 240.447 58.1823 232.192C66.4254 223.936 79.8498 223.936 88.0929 232.192C96.3359 240.447 96.3359 253.891 88.0929 262.147L73.114 277.148L58.1823 262.147Z" fill="#FF2D34"/>
    <path d="M65.5717 254.703C61.3941 250.525 61.3941 243.748 65.5717 239.571C69.7493 235.393 76.5262 235.393 80.7038 239.571C84.8814 243.748 84.8814 250.525 80.7038 254.703C76.5262 258.881 69.7493 258.881 65.5717 254.703Z" fill="white"/>
    <path d="M58.1823 351.147C49.9392 342.891 49.9392 329.447 58.1823 321.192C66.4254 312.936 79.8498 312.936 88.0929 321.192C96.3359 329.447 96.3359 342.891 88.0929 351.147L73.114 366.148L58.1823 351.147Z" fill="#FF2D34"/>
    <path d="M65.5717 343.703C61.3941 339.525 61.3941 332.748 65.5717 328.571C69.7493 324.393 76.5262 324.393 80.7038 328.571C84.8814 332.748 84.8814 339.525 80.7038 343.703C76.5262 347.881 69.7493 347.881 65.5717 343.703Z" fill="white"/>
    </svg>
