<svg width="414" height="414" viewBox="0 0 414 414" fill="none" xmlns="http://www.w3.org/2000/svg">
    <path d="M226.269 191.015C225.008 191.649 223.747 192.282 222.486 192.916C219.861 194.236 217.236 195.555 214.612 196.874C212.36 198.006 210.109 199.137 207.858 200.269C207.408 200.495 206.958 200.721 206.507 200.948C206.835 200.948 207.163 200.948 207.491 200.948C206.23 200.314 204.969 199.68 203.708 199.046C201.084 197.727 198.459 196.408 195.834 195.088C193.583 193.957 191.331 192.825 189.08 191.694C188.63 191.467 188.18 191.241 187.73 191.015C187.73 191.58 187.73 192.146 187.73 192.711C188.991 192.08 190.252 191.449 191.513 190.818C194.138 189.504 196.762 188.19 199.387 186.877C201.638 185.75 203.89 184.623 206.141 183.496C206.591 183.271 207.041 183.045 207.491 182.82C207.163 182.82 206.835 182.82 206.507 182.82C207.768 183.451 209.029 184.082 210.29 184.714C212.915 186.027 215.54 187.341 218.165 188.655C220.416 189.782 222.667 190.909 224.919 192.036C225.369 192.261 225.819 192.486 226.269 192.711C226.745 192.95 227.321 192.844 227.603 192.359C227.857 191.921 227.728 191.253 227.253 191.015C225.992 190.384 224.731 189.752 223.47 189.121C220.845 187.807 218.22 186.494 215.596 185.18C213.344 184.053 211.093 182.926 208.842 181.799C208.399 181.578 207.956 181.356 207.514 181.135C207.169 180.962 206.851 180.951 206.502 181.126C206.465 181.145 206.429 181.163 206.392 181.181C206.19 181.282 205.988 181.384 205.785 181.485C203.755 182.501 201.725 183.517 199.695 184.533C197.013 185.876 194.331 187.218 191.649 188.56C190.053 189.359 188.457 190.158 186.861 190.957C186.823 190.976 186.784 190.996 186.746 191.015C186.109 191.334 186.111 192.392 186.746 192.711C188.007 193.345 189.268 193.979 190.529 194.613C193.154 195.932 195.778 197.252 198.403 198.571C200.654 199.702 202.906 200.834 205.157 201.966C205.6 202.188 206.042 202.411 206.485 202.633C206.829 202.806 207.149 202.817 207.497 202.641C207.534 202.623 207.57 202.605 207.607 202.586C207.809 202.485 208.011 202.383 208.213 202.281C210.244 201.261 212.274 200.24 214.304 199.22C216.986 197.872 219.668 196.524 222.349 195.176C223.945 194.374 225.541 193.572 227.137 192.769C227.176 192.75 227.214 192.731 227.253 192.711C227.728 192.473 227.857 191.806 227.602 191.367C227.321 190.883 226.744 190.776 226.269 191.015Z" fill="black" stroke="black"/>
    <path d="M207.492 224.64C206.231 224.006 204.97 223.372 203.709 222.738C201.084 221.418 198.459 220.098 195.834 218.778C193.583 217.646 191.332 216.514 189.081 215.383C188.631 215.156 188.18 214.93 187.73 214.703C187.891 214.986 188.052 215.269 188.213 215.552C188.213 214.199 188.213 212.846 188.213 211.494C188.213 208.587 188.213 205.68 188.213 202.773C188.213 200.039 188.213 197.305 188.213 194.571C188.213 193.668 188.213 192.766 188.213 191.863C187.724 192.146 187.235 192.429 186.746 192.711C188.007 193.344 189.268 193.977 190.529 194.61C193.154 195.927 195.779 197.244 198.404 198.561C200.655 199.69 202.906 200.82 205.157 201.949C205.608 202.175 206.058 202.401 206.508 202.627C206.347 202.344 206.186 202.061 206.025 201.779C206.025 203.129 206.025 204.48 206.025 205.831C206.025 208.735 206.025 211.64 206.025 214.544C206.025 217.28 206.025 220.017 206.025 222.753C206.025 223.665 206.025 224.577 206.025 225.488C206.025 226.024 206.469 226.471 207 226.471C207.531 226.471 207.975 226.024 207.975 225.488C207.975 224.137 207.975 222.787 207.975 221.436C207.975 218.532 207.975 215.627 207.975 212.723C207.975 209.986 207.975 207.25 207.975 204.513C207.975 203.602 207.975 202.69 207.975 201.779C207.975 201.451 207.793 201.082 207.492 200.93C206.231 200.298 204.97 199.665 203.709 199.032C201.084 197.715 198.459 196.398 195.835 195.081C193.583 193.952 191.332 192.822 189.081 191.692C188.631 191.467 188.18 191.241 187.73 191.015C187.082 190.689 186.264 191.081 186.264 191.863C186.264 193.216 186.264 194.569 186.264 195.921C186.264 198.828 186.264 201.735 186.264 204.642C186.264 207.376 186.264 210.11 186.264 212.844C186.264 213.747 186.264 214.649 186.264 215.552C186.264 215.88 186.445 216.249 186.746 216.4C188.007 217.034 189.268 217.668 190.529 218.302C193.154 219.622 195.779 220.942 198.404 222.262C200.655 223.393 202.906 224.525 205.158 225.657C205.608 225.884 206.058 226.11 206.508 226.336C206.983 226.575 207.56 226.468 207.842 225.984C208.096 225.545 207.967 224.879 207.492 224.64Z" fill="black" stroke="black"/>
    <path d="M226.269 214.703C225.008 215.337 223.747 215.972 222.486 216.606C219.862 217.925 217.237 219.245 214.612 220.565C212.361 221.697 210.11 222.829 207.858 223.961C207.408 224.187 206.958 224.413 206.508 224.64C206.997 224.922 207.486 225.205 207.974 225.488C207.974 224.137 207.974 222.787 207.974 221.436C207.974 218.532 207.974 215.627 207.974 212.723C207.974 209.986 207.974 207.25 207.974 204.513C207.974 203.602 207.974 202.69 207.974 201.779C207.814 202.061 207.653 202.344 207.492 202.627C208.753 201.994 210.014 201.362 211.275 200.729C213.899 199.412 216.524 198.095 219.149 196.778C221.4 195.648 223.652 194.519 225.903 193.389C226.353 193.163 226.803 192.937 227.253 192.711C226.764 192.429 226.276 192.146 225.787 191.863C225.787 193.216 225.787 194.569 225.787 195.921C225.787 198.828 225.787 201.735 225.787 204.642C225.787 207.376 225.787 210.11 225.787 212.844C225.787 213.747 225.787 214.649 225.787 215.552C225.787 216.087 226.23 216.534 226.761 216.534C227.293 216.534 227.736 216.087 227.736 215.552C227.736 214.199 227.736 212.846 227.736 211.494C227.736 208.587 227.736 205.68 227.736 202.773C227.736 200.039 227.736 197.305 227.736 194.571C227.736 193.668 227.736 192.766 227.736 191.863C227.736 191.081 226.918 190.689 226.269 191.015C225.008 191.648 223.747 192.28 222.486 192.913C219.862 194.23 217.237 195.547 214.612 196.864C212.361 197.994 210.11 199.123 207.858 200.253C207.408 200.479 206.958 200.704 206.508 200.93C206.206 201.082 206.025 201.451 206.025 201.779C206.025 203.129 206.025 204.48 206.025 205.831C206.025 208.735 206.025 211.64 206.025 214.544C206.025 217.28 206.025 220.017 206.025 222.753C206.025 223.665 206.025 224.577 206.025 225.488C206.025 226.27 206.843 226.662 207.492 226.336C208.753 225.702 210.014 225.068 211.275 224.434C213.899 223.115 216.524 221.795 219.149 220.475C221.4 219.343 223.652 218.211 225.903 217.079C226.353 216.853 226.803 216.626 227.253 216.4C227.728 216.161 227.858 215.495 227.603 215.056C227.321 214.572 226.745 214.464 226.269 214.703Z" fill="black" stroke="black"/>
    <line x1="194.5" y1="155.5" x2="194.5" y2="181.5" stroke="black" stroke-width="3" stroke-linecap="round"/>
    <line x1="207.5" y1="148.5" x2="207.5" y2="174.5" stroke="black" stroke-width="3" stroke-linecap="round"/>
    <line x1="219.5" y1="154.5" x2="219.5" y2="180.5" stroke="black" stroke-width="3" stroke-linecap="round"/>
    <path fill-rule="evenodd" clip-rule="evenodd" d="M144.005 125.794C109.559 160.186 109.559 216.196 144.005 250.587L206.402 313.082L268.995 250.587C303.44 216.196 303.44 160.186 268.995 125.794C234.549 91.402 178.451 91.402 144.005 125.794ZM169.151 149.027C148.529 169.472 148.529 202.637 169.151 223.081C189.773 243.525 223.227 243.525 243.849 223.081C264.471 202.637 264.471 169.472 243.849 149.027C223.227 128.583 189.773 128.583 169.151 149.027Z" fill="#FF2D34"/>
    </svg>
