<svg width="414" height="414" viewBox="0 0 414 414" fill="none" xmlns="http://www.w3.org/2000/svg">
    <circle cx="251" cy="193" r="21" fill="#FF2D34"/>
    <path d="M243.572 200.703C239.394 196.525 239.394 189.748 243.572 185.571C247.749 181.393 254.526 181.393 258.704 185.571C262.881 189.748 262.881 196.525 258.704 200.703C254.526 204.881 247.749 204.881 243.572 200.703Z" fill="white"/>
    <circle cx="192" cy="280" r="19.5" stroke="#020203" stroke-width="3"/>
    <path d="M152.565 270.519C154.291 263.219 154.797 263.206 157.961 257.819" stroke="#020203" stroke-width="3" stroke-linecap="round"/>
    <path d="M148.33 243.671C151.885 239.65 152.59 238.983 157.089 234.911" stroke="#020203" stroke-width="3" stroke-linecap="round"/>
    <line x1="158.117" y1="257.498" x2="148.641" y2="244.091" stroke="#020203" stroke-width="3" stroke-linecap="round"/>
    <line x1="170.9" y1="245.3" x2="157.3" y2="235.1" stroke="#020203" stroke-width="3" stroke-linecap="round"/>
    <path d="M171 245.5C177.373 241.545 178.037 241.313 184.08 239.728" stroke="#020203" stroke-width="3" stroke-linecap="round"/>
    <path d="M201.969 239.768C209.476 241.646 209.491 242.154 215.038 245.44" stroke="#020203" stroke-width="3" stroke-linecap="round"/>
    <path d="M228 258.285C231.861 264.716 231.508 265.079 233.003 271.144" stroke="#020203" stroke-width="3" stroke-linecap="round"/>
    <path d="M232.701 289C230.977 296.3 230.471 296.314 227.309 301.701" stroke="#020203" stroke-width="3" stroke-linecap="round"/>
    <path d="M214.351 315C207.907 318.839 207.545 318.485 201.475 319.96" stroke="#020203" stroke-width="3" stroke-linecap="round"/>
    <path d="M183.54 319.804C176.246 318.051 176.235 317.546 170.86 314.362" stroke="#020203" stroke-width="3" stroke-linecap="round"/>
    <path d="M158 302C153.911 295.231 154.242 294.857 152.499 288.499" stroke="#020203" stroke-width="3" stroke-linecap="round"/>
    <path d="M187.054 222.675C192.411 222.333 193.38 222.358 199.442 222.646" stroke="#020203" stroke-width="3" stroke-linecap="round"/>
    <path d="M229.298 235.624C233.292 239.21 233.953 239.92 237.991 244.45" stroke="#020203" stroke-width="3" stroke-linecap="round"/>
    <path d="M250.011 274.371C250.273 279.732 250.234 280.701 249.856 286.758" stroke="#020203" stroke-width="3" stroke-linecap="round"/>
    <path d="M237.238 315.882C233.684 319.905 232.979 320.571 228.482 324.646" stroke="#020203" stroke-width="3" stroke-linecap="round"/>
    <path d="M198.191 336.956C192.829 337.201 191.86 337.158 185.804 336.76" stroke="#020203" stroke-width="3" stroke-linecap="round"/>
    <path d="M156.639 324.234C152.631 320.664 151.967 319.957 147.911 315.443" stroke="#020203" stroke-width="3" stroke-linecap="round"/>
    <path d="M135.46 285.536C135.113 280.18 135.137 279.21 135.418 273.148" stroke="#020203" stroke-width="3" stroke-linecap="round"/>
    <line x1="184.235" y1="239.379" x2="186.978" y2="223.191" stroke="#020203" stroke-width="3" stroke-linecap="round"/>
    <line x1="215.396" y1="245.306" x2="228.875" y2="235.932" stroke="#020203" stroke-width="3" stroke-linecap="round"/>
    <line x1="233.351" y1="271.305" x2="249.496" y2="274.287" stroke="#020203" stroke-width="3" stroke-linecap="round"/>
    <line x1="227.446" y1="302.058" x2="236.927" y2="315.463" stroke="#020203" stroke-width="3" stroke-linecap="round"/>
    <line x1="201.313" y1="320.306" x2="198.276" y2="336.441" stroke="#020203" stroke-width="3" stroke-linecap="round"/>
    <line x1="170.502" y1="314.497" x2="157.06" y2="323.925" stroke="#020203" stroke-width="3" stroke-linecap="round"/>
    <line x1="152.168" y1="288.337" x2="135.977" y2="285.611" stroke="#020203" stroke-width="3" stroke-linecap="round"/>
    <line x1="201.867" y1="239.173" x2="199.463" y2="222.932" stroke="#020203" stroke-width="3" stroke-linecap="round"/>
    <line x1="227.887" y1="257.753" x2="237.801" y2="244.665" stroke="#020203" stroke-width="3" stroke-linecap="round"/>
    <line x1="233.294" y1="288.938" x2="249.569" y2="286.775" stroke="#020203" stroke-width="3" stroke-linecap="round"/>
    <line x1="215.099" y1="314.648" x2="228.265" y2="324.457" stroke="#020203" stroke-width="3" stroke-linecap="round"/>
    <line x1="183.68" y1="320.191" x2="185.789" y2="336.473" stroke="#020203" stroke-width="3" stroke-linecap="round"/>
    <line x1="157.962" y1="302.1" x2="148.1" y2="315.227" stroke="#020203" stroke-width="3" stroke-linecap="round"/>
    <line x1="151.943" y1="270.705" x2="135.705" y2="273.127" stroke="#020203" stroke-width="3" stroke-linecap="round"/>
    <circle cx="163.857" cy="134.893" r="19.5" stroke="#020203" stroke-width="3"/>
    <path d="M124.422 125.411C126.149 118.112 126.654 118.099 129.818 112.712" stroke="#020203" stroke-width="3" stroke-linecap="round"/>
    <path d="M120.188 98.5636C123.742 94.5425 124.447 93.876 128.947 89.8034" stroke="#020203" stroke-width="3" stroke-linecap="round"/>
    <line x1="129.974" y1="112.391" x2="120.498" y2="98.9835" stroke="#020203" stroke-width="3" stroke-linecap="round"/>
    <line x1="142.757" y1="100.193" x2="129.157" y2="89.9928" stroke="#020203" stroke-width="3" stroke-linecap="round"/>
    <path d="M142.857 100.393C149.231 96.4373 149.894 96.2061 155.937 94.621" stroke="#020203" stroke-width="3" stroke-linecap="round"/>
    <path d="M173.826 94.6611C181.333 96.5386 181.349 97.047 186.896 100.332" stroke="#020203" stroke-width="3" stroke-linecap="round"/>
    <path d="M199.858 113.178C203.718 119.609 203.365 119.971 204.861 126.037" stroke="#020203" stroke-width="3" stroke-linecap="round"/>
    <path d="M204.558 143.893C202.834 151.193 202.329 151.206 199.167 156.594" stroke="#020203" stroke-width="3" stroke-linecap="round"/>
    <path d="M186.208 169.893C179.764 173.732 179.403 173.378 173.332 174.852" stroke="#020203" stroke-width="3" stroke-linecap="round"/>
    <path d="M155.397 174.697C148.104 172.944 148.092 172.438 142.717 169.255" stroke="#020203" stroke-width="3" stroke-linecap="round"/>
    <path d="M129.858 156.893C125.768 150.124 126.099 149.75 124.356 143.392" stroke="#020203" stroke-width="3" stroke-linecap="round"/>
    <path d="M158.912 77.5674C164.268 77.2256 165.238 77.2507 171.3 77.5387" stroke="#020203" stroke-width="3" stroke-linecap="round"/>
    <path d="M201.155 90.5172C205.149 94.1026 205.81 94.8128 209.848 99.3428" stroke="#020203" stroke-width="3" stroke-linecap="round"/>
    <path d="M221.868 129.264C222.131 134.625 222.091 135.594 221.713 141.651" stroke="#020203" stroke-width="3" stroke-linecap="round"/>
    <path d="M209.095 170.775C205.542 174.797 204.837 175.464 200.339 179.538" stroke="#020203" stroke-width="3" stroke-linecap="round"/>
    <path d="M170.048 191.849C164.686 192.093 163.717 192.051 157.662 191.652" stroke="#020203" stroke-width="3" stroke-linecap="round"/>
    <path d="M128.497 179.127C124.489 175.557 123.825 174.85 119.769 170.336" stroke="#020203" stroke-width="3" stroke-linecap="round"/>
    <path d="M107.318 140.429C106.97 135.073 106.994 134.103 107.276 128.041" stroke="#020203" stroke-width="3" stroke-linecap="round"/>
    <line x1="156.093" y1="94.2715" x2="158.836" y2="78.0841" stroke="#020203" stroke-width="3" stroke-linecap="round"/>
    <line x1="187.254" y1="100.198" x2="200.733" y2="90.8248" stroke="#020203" stroke-width="3" stroke-linecap="round"/>
    <line x1="205.208" y1="126.197" x2="221.353" y2="129.18" stroke="#020203" stroke-width="3" stroke-linecap="round"/>
    <line x1="199.303" y1="156.951" x2="208.784" y2="170.355" stroke="#020203" stroke-width="3" stroke-linecap="round"/>
    <line x1="173.171" y1="175.199" x2="170.133" y2="191.334" stroke="#020203" stroke-width="3" stroke-linecap="round"/>
    <line x1="142.359" y1="169.39" x2="128.917" y2="178.817" stroke="#020203" stroke-width="3" stroke-linecap="round"/>
    <line x1="124.025" y1="143.23" x2="107.835" y2="140.504" stroke="#020203" stroke-width="3" stroke-linecap="round"/>
    <line x1="173.725" y1="94.0663" x2="171.32" y2="77.8251" stroke="#020203" stroke-width="3" stroke-linecap="round"/>
    <line x1="199.744" y1="112.645" x2="209.658" y2="99.5583" stroke="#020203" stroke-width="3" stroke-linecap="round"/>
    <line x1="205.152" y1="143.831" x2="221.427" y2="141.667" stroke="#020203" stroke-width="3" stroke-linecap="round"/>
    <line x1="186.956" y1="169.541" x2="200.122" y2="179.35" stroke="#020203" stroke-width="3" stroke-linecap="round"/>
    <line x1="155.538" y1="175.083" x2="157.646" y2="191.366" stroke="#020203" stroke-width="3" stroke-linecap="round"/>
    <line x1="129.819" y1="156.993" x2="119.958" y2="170.12" stroke="#020203" stroke-width="3" stroke-linecap="round"/>
    <line x1="123.801" y1="125.598" x2="107.562" y2="128.02" stroke="#020203" stroke-width="3" stroke-linecap="round"/>
    <path d="M211.422 184.411C213.149 177.112 213.654 177.099 216.818 171.712" stroke="#020203" stroke-width="3" stroke-linecap="round"/>
    <path d="M207.188 157.564C210.742 153.542 211.447 152.876 215.947 148.803" stroke="#020203" stroke-width="3" stroke-linecap="round"/>
    <line x1="216.974" y1="171.391" x2="207.498" y2="157.984" stroke="#020203" stroke-width="3" stroke-linecap="round"/>
    <line x1="229.757" y1="159.193" x2="216.157" y2="148.993" stroke="#020203" stroke-width="3" stroke-linecap="round"/>
    <path d="M229.857 159.393C236.231 155.437 236.894 155.206 242.937 153.621" stroke="#020203" stroke-width="3" stroke-linecap="round"/>
    <path d="M260.826 153.661C268.333 155.539 268.349 156.047 273.896 159.332" stroke="#020203" stroke-width="3" stroke-linecap="round"/>
    <path d="M286.858 172.178C290.718 178.609 290.365 178.971 291.861 185.037" stroke="#020203" stroke-width="3" stroke-linecap="round"/>
    <path d="M291.558 202.893C289.834 210.193 289.329 210.206 286.167 215.594" stroke="#020203" stroke-width="3" stroke-linecap="round"/>
    <path d="M273.208 228.893C266.764 232.732 266.403 232.378 260.332 233.852" stroke="#020203" stroke-width="3" stroke-linecap="round"/>
    <path d="M242.397 233.697C235.104 231.944 235.092 231.438 229.717 228.255" stroke="#020203" stroke-width="3" stroke-linecap="round"/>
    <path d="M216.858 215.893C212.768 209.124 213.099 208.75 211.356 202.392" stroke="#020203" stroke-width="3" stroke-linecap="round"/>
    <path d="M245.912 136.567C251.268 136.226 252.238 136.251 258.3 136.539" stroke="#020203" stroke-width="3" stroke-linecap="round"/>
    <path d="M288.155 149.517C292.149 153.103 292.81 153.813 296.848 158.343" stroke="#020203" stroke-width="3" stroke-linecap="round"/>
    <path d="M308.868 188.264C309.131 193.625 309.091 194.594 308.713 200.651" stroke="#020203" stroke-width="3" stroke-linecap="round"/>
    <path d="M296.095 229.775C292.542 233.797 291.837 234.464 287.339 238.538" stroke="#020203" stroke-width="3" stroke-linecap="round"/>
    <path d="M257.048 250.849C251.686 251.093 250.717 251.051 244.662 250.653" stroke="#020203" stroke-width="3" stroke-linecap="round"/>
    <path d="M215.497 238.127C211.489 234.557 210.825 233.85 206.769 229.336" stroke="#020203" stroke-width="3" stroke-linecap="round"/>
    <path d="M194.318 199.429C193.97 194.073 193.994 193.103 194.276 187.041" stroke="#020203" stroke-width="3" stroke-linecap="round"/>
    <line x1="243.093" y1="153.272" x2="245.836" y2="137.084" stroke="#020203" stroke-width="3" stroke-linecap="round"/>
    <line x1="274.254" y1="159.198" x2="287.733" y2="149.825" stroke="#020203" stroke-width="3" stroke-linecap="round"/>
    <line x1="292.208" y1="185.197" x2="308.353" y2="188.18" stroke="#020203" stroke-width="3" stroke-linecap="round"/>
    <line x1="286.303" y1="215.951" x2="295.784" y2="229.355" stroke="#020203" stroke-width="3" stroke-linecap="round"/>
    <line x1="260.171" y1="234.199" x2="257.133" y2="250.334" stroke="#020203" stroke-width="3" stroke-linecap="round"/>
    <line x1="229.359" y1="228.39" x2="215.917" y2="237.817" stroke="#020203" stroke-width="3" stroke-linecap="round"/>
    <line x1="211.025" y1="202.23" x2="194.835" y2="199.504" stroke="#020203" stroke-width="3" stroke-linecap="round"/>
    <line x1="260.725" y1="153.066" x2="258.32" y2="136.825" stroke="#020203" stroke-width="3" stroke-linecap="round"/>
    <line x1="286.744" y1="171.645" x2="296.658" y2="158.558" stroke="#020203" stroke-width="3" stroke-linecap="round"/>
    <line x1="292.152" y1="202.831" x2="308.427" y2="200.667" stroke="#020203" stroke-width="3" stroke-linecap="round"/>
    <line x1="273.956" y1="228.541" x2="287.122" y2="238.35" stroke="#020203" stroke-width="3" stroke-linecap="round"/>
    <line x1="242.538" y1="234.083" x2="244.646" y2="250.366" stroke="#020203" stroke-width="3" stroke-linecap="round"/>
    <line x1="216.819" y1="215.993" x2="206.958" y2="229.12" stroke="#020203" stroke-width="3" stroke-linecap="round"/>
    <line x1="210.801" y1="184.598" x2="194.562" y2="187.02" stroke="#020203" stroke-width="3" stroke-linecap="round"/>
    </svg>
